%TF.GenerationSoftware,KiCad,Pcbnew,8.0.7*%
%TF.CreationDate,2025-01-17T12:36:58+00:00*%
%TF.ProjectId,Spectralist_Panel,53706563-7472-4616-9c69-73745f50616e,rev?*%
%TF.SameCoordinates,Original*%
%TF.FileFunction,Copper,L1,Top*%
%TF.FilePolarity,Positive*%
%FSLAX46Y46*%
G04 Gerber Fmt 4.6, Leading zero omitted, Abs format (unit mm)*
G04 Created by KiCad (PCBNEW 8.0.7) date 2025-01-17 12:36:58*
%MOMM*%
%LPD*%
G01*
G04 APERTURE LIST*
%TA.AperFunction,Conductor*%
%ADD10C,10.550000*%
%TD*%
%TA.AperFunction,Conductor*%
%ADD11C,7.000000*%
%TD*%
G04 APERTURE END LIST*
%TO.N,GND*%
D10*
X135275000Y-102000000D02*
G75*
G02*
X124725000Y-102000000I-5275000J0D01*
G01*
X124725000Y-102000000D02*
G75*
G02*
X135275000Y-102000000I5275000J0D01*
G01*
D11*
X146900000Y-102000000D02*
G75*
G02*
X113100000Y-102000000I-16900000J0D01*
G01*
X113100000Y-102000000D02*
G75*
G02*
X146900000Y-102000000I16900000J0D01*
G01*
%TD*%
%TA.AperFunction,Conductor*%
%TO.N,GND*%
G36*
X159896132Y-41303868D02*
G01*
X159899500Y-41312000D01*
X159899500Y-168788000D01*
X159896132Y-168796132D01*
X159888000Y-168799500D01*
X100112000Y-168799500D01*
X100103868Y-168796132D01*
X100100500Y-168788000D01*
X100100500Y-166178712D01*
X104349500Y-166178712D01*
X104349500Y-166421288D01*
X104381162Y-166661789D01*
X104381163Y-166661793D01*
X104381164Y-166661800D01*
X104381164Y-166661801D01*
X104443944Y-166896094D01*
X104443944Y-166896095D01*
X104536777Y-167120215D01*
X104658061Y-167330285D01*
X104658063Y-167330288D01*
X104658064Y-167330289D01*
X104805735Y-167522738D01*
X104977262Y-167694265D01*
X105169711Y-167841936D01*
X105169714Y-167841938D01*
X105379784Y-167963222D01*
X105379785Y-167963222D01*
X105379788Y-167963224D01*
X105603900Y-168056054D01*
X105603904Y-168056055D01*
X105838199Y-168118835D01*
X105838200Y-168118835D01*
X105838211Y-168118838D01*
X106078712Y-168150500D01*
X106078716Y-168150500D01*
X108121284Y-168150500D01*
X108121288Y-168150500D01*
X108361789Y-168118838D01*
X108361800Y-168118835D01*
X108361801Y-168118835D01*
X108423117Y-168102405D01*
X108596100Y-168056054D01*
X108820212Y-167963224D01*
X109030289Y-167841936D01*
X109222738Y-167694265D01*
X109394265Y-167522738D01*
X109541936Y-167330289D01*
X109663224Y-167120212D01*
X109756054Y-166896100D01*
X109818838Y-166661789D01*
X109850500Y-166421288D01*
X109850500Y-166178712D01*
X150149500Y-166178712D01*
X150149500Y-166421288D01*
X150181162Y-166661789D01*
X150181163Y-166661793D01*
X150181164Y-166661800D01*
X150181164Y-166661801D01*
X150243944Y-166896094D01*
X150243944Y-166896095D01*
X150336777Y-167120215D01*
X150458061Y-167330285D01*
X150458063Y-167330288D01*
X150458064Y-167330289D01*
X150605735Y-167522738D01*
X150777262Y-167694265D01*
X150969711Y-167841936D01*
X150969714Y-167841938D01*
X151179784Y-167963222D01*
X151179785Y-167963222D01*
X151179788Y-167963224D01*
X151403900Y-168056054D01*
X151403904Y-168056055D01*
X151638199Y-168118835D01*
X151638200Y-168118835D01*
X151638211Y-168118838D01*
X151878712Y-168150500D01*
X151878716Y-168150500D01*
X153921284Y-168150500D01*
X153921288Y-168150500D01*
X154161789Y-168118838D01*
X154161800Y-168118835D01*
X154161801Y-168118835D01*
X154223117Y-168102405D01*
X154396100Y-168056054D01*
X154620212Y-167963224D01*
X154830289Y-167841936D01*
X155022738Y-167694265D01*
X155194265Y-167522738D01*
X155341936Y-167330289D01*
X155463224Y-167120212D01*
X155556054Y-166896100D01*
X155618838Y-166661789D01*
X155650500Y-166421288D01*
X155650500Y-166178712D01*
X155618838Y-165938211D01*
X155556054Y-165703900D01*
X155463224Y-165479788D01*
X155341936Y-165269711D01*
X155194265Y-165077262D01*
X155022738Y-164905735D01*
X154830289Y-164758064D01*
X154830288Y-164758063D01*
X154830285Y-164758061D01*
X154620215Y-164636777D01*
X154396095Y-164543944D01*
X154161800Y-164481164D01*
X154161793Y-164481163D01*
X154161789Y-164481162D01*
X153967614Y-164455598D01*
X153921289Y-164449500D01*
X153921288Y-164449500D01*
X151878712Y-164449500D01*
X151878710Y-164449500D01*
X151786059Y-164461697D01*
X151638211Y-164481162D01*
X151638207Y-164481162D01*
X151638199Y-164481164D01*
X151638198Y-164481164D01*
X151403905Y-164543944D01*
X151403904Y-164543944D01*
X151179784Y-164636777D01*
X150969714Y-164758061D01*
X150897542Y-164813440D01*
X150777262Y-164905735D01*
X150777257Y-164905740D01*
X150777255Y-164905741D01*
X150605741Y-165077255D01*
X150605740Y-165077257D01*
X150605735Y-165077262D01*
X150513440Y-165197542D01*
X150458061Y-165269714D01*
X150336777Y-165479784D01*
X150243944Y-165703904D01*
X150243944Y-165703905D01*
X150181164Y-165938198D01*
X150181164Y-165938199D01*
X150181162Y-165938207D01*
X150181162Y-165938211D01*
X150149500Y-166178712D01*
X109850500Y-166178712D01*
X109818838Y-165938211D01*
X109756054Y-165703900D01*
X109663224Y-165479788D01*
X109541936Y-165269711D01*
X109394265Y-165077262D01*
X109222738Y-164905735D01*
X109030289Y-164758064D01*
X109030288Y-164758063D01*
X109030285Y-164758061D01*
X108820215Y-164636777D01*
X108596095Y-164543944D01*
X108361800Y-164481164D01*
X108361793Y-164481163D01*
X108361789Y-164481162D01*
X108167614Y-164455598D01*
X108121289Y-164449500D01*
X108121288Y-164449500D01*
X106078712Y-164449500D01*
X106078710Y-164449500D01*
X105986059Y-164461697D01*
X105838211Y-164481162D01*
X105838207Y-164481162D01*
X105838199Y-164481164D01*
X105838198Y-164481164D01*
X105603905Y-164543944D01*
X105603904Y-164543944D01*
X105379784Y-164636777D01*
X105169714Y-164758061D01*
X105097542Y-164813440D01*
X104977262Y-164905735D01*
X104977257Y-164905740D01*
X104977255Y-164905741D01*
X104805741Y-165077255D01*
X104805740Y-165077257D01*
X104805735Y-165077262D01*
X104713440Y-165197542D01*
X104658061Y-165269714D01*
X104536777Y-165479784D01*
X104443944Y-165703904D01*
X104443944Y-165703905D01*
X104381164Y-165938198D01*
X104381164Y-165938199D01*
X104381162Y-165938207D01*
X104381162Y-165938211D01*
X104349500Y-166178712D01*
X100100500Y-166178712D01*
X100100500Y-152840313D01*
X104749500Y-152840313D01*
X104749500Y-153159687D01*
X104773847Y-153406892D01*
X104780804Y-153477525D01*
X104843110Y-153790757D01*
X104843112Y-153790766D01*
X104935820Y-154096380D01*
X105058036Y-154391439D01*
X105058039Y-154391445D01*
X105208586Y-154673098D01*
X105208591Y-154673106D01*
X105386025Y-154938656D01*
X105588634Y-155185535D01*
X105814465Y-155411366D01*
X106061344Y-155613975D01*
X106326894Y-155791409D01*
X106326897Y-155791411D01*
X106326901Y-155791413D01*
X106608554Y-155941960D01*
X106608560Y-155941963D01*
X106683941Y-155973186D01*
X106903619Y-156064180D01*
X107209240Y-156156889D01*
X107522477Y-156219196D01*
X107840313Y-156250500D01*
X107840320Y-156250500D01*
X108159680Y-156250500D01*
X108159687Y-156250500D01*
X108477523Y-156219196D01*
X108790760Y-156156889D01*
X109096381Y-156064180D01*
X109391444Y-155941961D01*
X109673106Y-155791409D01*
X109938656Y-155613975D01*
X110185535Y-155411366D01*
X110411366Y-155185535D01*
X110613975Y-154938656D01*
X110791409Y-154673106D01*
X110941961Y-154391444D01*
X111064180Y-154096381D01*
X111156889Y-153790760D01*
X111219196Y-153477523D01*
X111250500Y-153159687D01*
X111250500Y-152840313D01*
X115749500Y-152840313D01*
X115749500Y-153159687D01*
X115773847Y-153406892D01*
X115780804Y-153477525D01*
X115843110Y-153790757D01*
X115843112Y-153790766D01*
X115935820Y-154096380D01*
X116058036Y-154391439D01*
X116058039Y-154391445D01*
X116208586Y-154673098D01*
X116208591Y-154673106D01*
X116386025Y-154938656D01*
X116588634Y-155185535D01*
X116814465Y-155411366D01*
X117061344Y-155613975D01*
X117326894Y-155791409D01*
X117326897Y-155791411D01*
X117326901Y-155791413D01*
X117608554Y-155941960D01*
X117608560Y-155941963D01*
X117683941Y-155973186D01*
X117903619Y-156064180D01*
X118209240Y-156156889D01*
X118522477Y-156219196D01*
X118840313Y-156250500D01*
X118840320Y-156250500D01*
X119159680Y-156250500D01*
X119159687Y-156250500D01*
X119477523Y-156219196D01*
X119790760Y-156156889D01*
X120096381Y-156064180D01*
X120391444Y-155941961D01*
X120673106Y-155791409D01*
X120938656Y-155613975D01*
X121185535Y-155411366D01*
X121411366Y-155185535D01*
X121613975Y-154938656D01*
X121791409Y-154673106D01*
X121941961Y-154391444D01*
X122064180Y-154096381D01*
X122156889Y-153790760D01*
X122219196Y-153477523D01*
X122250500Y-153159687D01*
X122250500Y-152840313D01*
X126749500Y-152840313D01*
X126749500Y-153159687D01*
X126773847Y-153406892D01*
X126780804Y-153477525D01*
X126843110Y-153790757D01*
X126843112Y-153790766D01*
X126935820Y-154096380D01*
X127058036Y-154391439D01*
X127058039Y-154391445D01*
X127208586Y-154673098D01*
X127208591Y-154673106D01*
X127386025Y-154938656D01*
X127588634Y-155185535D01*
X127814465Y-155411366D01*
X128061344Y-155613975D01*
X128326894Y-155791409D01*
X128326897Y-155791411D01*
X128326901Y-155791413D01*
X128608554Y-155941960D01*
X128608560Y-155941963D01*
X128683941Y-155973186D01*
X128903619Y-156064180D01*
X129209240Y-156156889D01*
X129522477Y-156219196D01*
X129840313Y-156250500D01*
X129840320Y-156250500D01*
X130159680Y-156250500D01*
X130159687Y-156250500D01*
X130477523Y-156219196D01*
X130790760Y-156156889D01*
X131096381Y-156064180D01*
X131391444Y-155941961D01*
X131673106Y-155791409D01*
X131938656Y-155613975D01*
X132185535Y-155411366D01*
X132411366Y-155185535D01*
X132613975Y-154938656D01*
X132791409Y-154673106D01*
X132941961Y-154391444D01*
X133064180Y-154096381D01*
X133156889Y-153790760D01*
X133219196Y-153477523D01*
X133250500Y-153159687D01*
X133250500Y-152840313D01*
X137749500Y-152840313D01*
X137749500Y-153159687D01*
X137773847Y-153406892D01*
X137780804Y-153477525D01*
X137843110Y-153790757D01*
X137843112Y-153790766D01*
X137935820Y-154096380D01*
X138058036Y-154391439D01*
X138058039Y-154391445D01*
X138208586Y-154673098D01*
X138208591Y-154673106D01*
X138386025Y-154938656D01*
X138588634Y-155185535D01*
X138814465Y-155411366D01*
X139061344Y-155613975D01*
X139326894Y-155791409D01*
X139326897Y-155791411D01*
X139326901Y-155791413D01*
X139608554Y-155941960D01*
X139608560Y-155941963D01*
X139683941Y-155973186D01*
X139903619Y-156064180D01*
X140209240Y-156156889D01*
X140522477Y-156219196D01*
X140840313Y-156250500D01*
X140840320Y-156250500D01*
X141159680Y-156250500D01*
X141159687Y-156250500D01*
X141477523Y-156219196D01*
X141790760Y-156156889D01*
X142096381Y-156064180D01*
X142391444Y-155941961D01*
X142673106Y-155791409D01*
X142938656Y-155613975D01*
X143185535Y-155411366D01*
X143411366Y-155185535D01*
X143613975Y-154938656D01*
X143791409Y-154673106D01*
X143941961Y-154391444D01*
X144064180Y-154096381D01*
X144156889Y-153790760D01*
X144219196Y-153477523D01*
X144250500Y-153159687D01*
X144250500Y-152840313D01*
X148749500Y-152840313D01*
X148749500Y-153159687D01*
X148773847Y-153406892D01*
X148780804Y-153477525D01*
X148843110Y-153790757D01*
X148843112Y-153790766D01*
X148935820Y-154096380D01*
X149058036Y-154391439D01*
X149058039Y-154391445D01*
X149208586Y-154673098D01*
X149208591Y-154673106D01*
X149386025Y-154938656D01*
X149588634Y-155185535D01*
X149814465Y-155411366D01*
X150061344Y-155613975D01*
X150326894Y-155791409D01*
X150326897Y-155791411D01*
X150326901Y-155791413D01*
X150608554Y-155941960D01*
X150608560Y-155941963D01*
X150683941Y-155973186D01*
X150903619Y-156064180D01*
X151209240Y-156156889D01*
X151522477Y-156219196D01*
X151840313Y-156250500D01*
X151840320Y-156250500D01*
X152159680Y-156250500D01*
X152159687Y-156250500D01*
X152477523Y-156219196D01*
X152790760Y-156156889D01*
X153096381Y-156064180D01*
X153391444Y-155941961D01*
X153673106Y-155791409D01*
X153938656Y-155613975D01*
X154185535Y-155411366D01*
X154411366Y-155185535D01*
X154613975Y-154938656D01*
X154791409Y-154673106D01*
X154941961Y-154391444D01*
X155064180Y-154096381D01*
X155156889Y-153790760D01*
X155219196Y-153477523D01*
X155250500Y-153159687D01*
X155250500Y-152840313D01*
X155219196Y-152522477D01*
X155156889Y-152209240D01*
X155064180Y-151903619D01*
X154941961Y-151608556D01*
X154791409Y-151326894D01*
X154613975Y-151061344D01*
X154411366Y-150814465D01*
X154185535Y-150588634D01*
X153938656Y-150386025D01*
X153931780Y-150381430D01*
X153673111Y-150208594D01*
X153673098Y-150208586D01*
X153391445Y-150058039D01*
X153391439Y-150058036D01*
X153187373Y-149973510D01*
X153096381Y-149935820D01*
X153013858Y-149910787D01*
X152790766Y-149843112D01*
X152790757Y-149843110D01*
X152477525Y-149780804D01*
X152406892Y-149773847D01*
X152159687Y-149749500D01*
X151840313Y-149749500D01*
X151617827Y-149771412D01*
X151522474Y-149780804D01*
X151209242Y-149843110D01*
X151209233Y-149843112D01*
X150903619Y-149935820D01*
X150608560Y-150058036D01*
X150608554Y-150058039D01*
X150326901Y-150208586D01*
X150326888Y-150208594D01*
X150061349Y-150386021D01*
X150061348Y-150386022D01*
X149814470Y-150588629D01*
X149588629Y-150814470D01*
X149386022Y-151061348D01*
X149386021Y-151061349D01*
X149208594Y-151326888D01*
X149208586Y-151326901D01*
X149058039Y-151608554D01*
X149058036Y-151608560D01*
X148935820Y-151903619D01*
X148843112Y-152209233D01*
X148843110Y-152209242D01*
X148780804Y-152522474D01*
X148780804Y-152522477D01*
X148749500Y-152840313D01*
X144250500Y-152840313D01*
X144219196Y-152522477D01*
X144156889Y-152209240D01*
X144064180Y-151903619D01*
X143941961Y-151608556D01*
X143791409Y-151326894D01*
X143613975Y-151061344D01*
X143411366Y-150814465D01*
X143185535Y-150588634D01*
X142938656Y-150386025D01*
X142931780Y-150381430D01*
X142673111Y-150208594D01*
X142673098Y-150208586D01*
X142391445Y-150058039D01*
X142391439Y-150058036D01*
X142187373Y-149973510D01*
X142096381Y-149935820D01*
X142013858Y-149910787D01*
X141790766Y-149843112D01*
X141790757Y-149843110D01*
X141477525Y-149780804D01*
X141406892Y-149773847D01*
X141159687Y-149749500D01*
X140840313Y-149749500D01*
X140617827Y-149771412D01*
X140522474Y-149780804D01*
X140209242Y-149843110D01*
X140209233Y-149843112D01*
X139903619Y-149935820D01*
X139608560Y-150058036D01*
X139608554Y-150058039D01*
X139326901Y-150208586D01*
X139326888Y-150208594D01*
X139061349Y-150386021D01*
X139061348Y-150386022D01*
X138814470Y-150588629D01*
X138588629Y-150814470D01*
X138386022Y-151061348D01*
X138386021Y-151061349D01*
X138208594Y-151326888D01*
X138208586Y-151326901D01*
X138058039Y-151608554D01*
X138058036Y-151608560D01*
X137935820Y-151903619D01*
X137843112Y-152209233D01*
X137843110Y-152209242D01*
X137780804Y-152522474D01*
X137780804Y-152522477D01*
X137749500Y-152840313D01*
X133250500Y-152840313D01*
X133219196Y-152522477D01*
X133156889Y-152209240D01*
X133064180Y-151903619D01*
X132941961Y-151608556D01*
X132791409Y-151326894D01*
X132613975Y-151061344D01*
X132411366Y-150814465D01*
X132185535Y-150588634D01*
X131938656Y-150386025D01*
X131931780Y-150381430D01*
X131673111Y-150208594D01*
X131673098Y-150208586D01*
X131391445Y-150058039D01*
X131391439Y-150058036D01*
X131187373Y-149973510D01*
X131096381Y-149935820D01*
X131013858Y-149910787D01*
X130790766Y-149843112D01*
X130790757Y-149843110D01*
X130477525Y-149780804D01*
X130406892Y-149773847D01*
X130159687Y-149749500D01*
X129840313Y-149749500D01*
X129617827Y-149771412D01*
X129522474Y-149780804D01*
X129209242Y-149843110D01*
X129209233Y-149843112D01*
X128903619Y-149935820D01*
X128608560Y-150058036D01*
X128608554Y-150058039D01*
X128326901Y-150208586D01*
X128326888Y-150208594D01*
X128061349Y-150386021D01*
X128061348Y-150386022D01*
X127814470Y-150588629D01*
X127588629Y-150814470D01*
X127386022Y-151061348D01*
X127386021Y-151061349D01*
X127208594Y-151326888D01*
X127208586Y-151326901D01*
X127058039Y-151608554D01*
X127058036Y-151608560D01*
X126935820Y-151903619D01*
X126843112Y-152209233D01*
X126843110Y-152209242D01*
X126780804Y-152522474D01*
X126780804Y-152522477D01*
X126749500Y-152840313D01*
X122250500Y-152840313D01*
X122219196Y-152522477D01*
X122156889Y-152209240D01*
X122064180Y-151903619D01*
X121941961Y-151608556D01*
X121791409Y-151326894D01*
X121613975Y-151061344D01*
X121411366Y-150814465D01*
X121185535Y-150588634D01*
X120938656Y-150386025D01*
X120931780Y-150381430D01*
X120673111Y-150208594D01*
X120673098Y-150208586D01*
X120391445Y-150058039D01*
X120391439Y-150058036D01*
X120187373Y-149973510D01*
X120096381Y-149935820D01*
X120013858Y-149910787D01*
X119790766Y-149843112D01*
X119790757Y-149843110D01*
X119477525Y-149780804D01*
X119406892Y-149773847D01*
X119159687Y-149749500D01*
X118840313Y-149749500D01*
X118617827Y-149771412D01*
X118522474Y-149780804D01*
X118209242Y-149843110D01*
X118209233Y-149843112D01*
X117903619Y-149935820D01*
X117608560Y-150058036D01*
X117608554Y-150058039D01*
X117326901Y-150208586D01*
X117326888Y-150208594D01*
X117061349Y-150386021D01*
X117061348Y-150386022D01*
X116814470Y-150588629D01*
X116588629Y-150814470D01*
X116386022Y-151061348D01*
X116386021Y-151061349D01*
X116208594Y-151326888D01*
X116208586Y-151326901D01*
X116058039Y-151608554D01*
X116058036Y-151608560D01*
X115935820Y-151903619D01*
X115843112Y-152209233D01*
X115843110Y-152209242D01*
X115780804Y-152522474D01*
X115780804Y-152522477D01*
X115749500Y-152840313D01*
X111250500Y-152840313D01*
X111219196Y-152522477D01*
X111156889Y-152209240D01*
X111064180Y-151903619D01*
X110941961Y-151608556D01*
X110791409Y-151326894D01*
X110613975Y-151061344D01*
X110411366Y-150814465D01*
X110185535Y-150588634D01*
X109938656Y-150386025D01*
X109931780Y-150381430D01*
X109673111Y-150208594D01*
X109673098Y-150208586D01*
X109391445Y-150058039D01*
X109391439Y-150058036D01*
X109187373Y-149973510D01*
X109096381Y-149935820D01*
X109013858Y-149910787D01*
X108790766Y-149843112D01*
X108790757Y-149843110D01*
X108477525Y-149780804D01*
X108406892Y-149773847D01*
X108159687Y-149749500D01*
X107840313Y-149749500D01*
X107617827Y-149771412D01*
X107522474Y-149780804D01*
X107209242Y-149843110D01*
X107209233Y-149843112D01*
X106903619Y-149935820D01*
X106608560Y-150058036D01*
X106608554Y-150058039D01*
X106326901Y-150208586D01*
X106326888Y-150208594D01*
X106061349Y-150386021D01*
X106061348Y-150386022D01*
X105814470Y-150588629D01*
X105588629Y-150814470D01*
X105386022Y-151061348D01*
X105386021Y-151061349D01*
X105208594Y-151326888D01*
X105208586Y-151326901D01*
X105058039Y-151608554D01*
X105058036Y-151608560D01*
X104935820Y-151903619D01*
X104843112Y-152209233D01*
X104843110Y-152209242D01*
X104780804Y-152522474D01*
X104780804Y-152522477D01*
X104749500Y-152840313D01*
X100100500Y-152840313D01*
X100100500Y-139840313D01*
X104749500Y-139840313D01*
X104749500Y-140159687D01*
X104766577Y-140333073D01*
X104780804Y-140477525D01*
X104843110Y-140790757D01*
X104843112Y-140790766D01*
X104872061Y-140886197D01*
X104935820Y-141096381D01*
X104973510Y-141187373D01*
X105058036Y-141391439D01*
X105058039Y-141391445D01*
X105208586Y-141673098D01*
X105208591Y-141673106D01*
X105386025Y-141938656D01*
X105588634Y-142185535D01*
X105814465Y-142411366D01*
X106061344Y-142613975D01*
X106326894Y-142791409D01*
X106326897Y-142791411D01*
X106326901Y-142791413D01*
X106608554Y-142941960D01*
X106608560Y-142941963D01*
X106683941Y-142973186D01*
X106903619Y-143064180D01*
X107209240Y-143156889D01*
X107522477Y-143219196D01*
X107840313Y-143250500D01*
X107840320Y-143250500D01*
X108159680Y-143250500D01*
X108159687Y-143250500D01*
X108477523Y-143219196D01*
X108790760Y-143156889D01*
X109096381Y-143064180D01*
X109391444Y-142941961D01*
X109673106Y-142791409D01*
X109938656Y-142613975D01*
X110185535Y-142411366D01*
X110411366Y-142185535D01*
X110613975Y-141938656D01*
X110791409Y-141673106D01*
X110941961Y-141391444D01*
X111064180Y-141096381D01*
X111156889Y-140790760D01*
X111219196Y-140477523D01*
X111250500Y-140159687D01*
X111250500Y-139840313D01*
X116749500Y-139840313D01*
X116749500Y-140159687D01*
X116766577Y-140333073D01*
X116780804Y-140477525D01*
X116843110Y-140790757D01*
X116843112Y-140790766D01*
X116872061Y-140886197D01*
X116935820Y-141096381D01*
X116973510Y-141187373D01*
X117058036Y-141391439D01*
X117058039Y-141391445D01*
X117208586Y-141673098D01*
X117208591Y-141673106D01*
X117386025Y-141938656D01*
X117588634Y-142185535D01*
X117814465Y-142411366D01*
X118061344Y-142613975D01*
X118326894Y-142791409D01*
X118326897Y-142791411D01*
X118326901Y-142791413D01*
X118608554Y-142941960D01*
X118608560Y-142941963D01*
X118683941Y-142973186D01*
X118903619Y-143064180D01*
X119209240Y-143156889D01*
X119522477Y-143219196D01*
X119840313Y-143250500D01*
X119840320Y-143250500D01*
X120159680Y-143250500D01*
X120159687Y-143250500D01*
X120477523Y-143219196D01*
X120790760Y-143156889D01*
X121096381Y-143064180D01*
X121391444Y-142941961D01*
X121673106Y-142791409D01*
X121938656Y-142613975D01*
X122185535Y-142411366D01*
X122411366Y-142185535D01*
X122613975Y-141938656D01*
X122660598Y-141868880D01*
X127999500Y-141868880D01*
X127999500Y-142131120D01*
X128033730Y-142391116D01*
X128033731Y-142391120D01*
X128033732Y-142391127D01*
X128033732Y-142391128D01*
X128101600Y-142644413D01*
X128101600Y-142644414D01*
X128201958Y-142886700D01*
X128333073Y-143113799D01*
X128333075Y-143113802D01*
X128333076Y-143113803D01*
X128492718Y-143321851D01*
X128678149Y-143507282D01*
X128886197Y-143666924D01*
X128886200Y-143666926D01*
X129113299Y-143798041D01*
X129113300Y-143798041D01*
X129113303Y-143798043D01*
X129355581Y-143898398D01*
X129355585Y-143898399D01*
X129608872Y-143966267D01*
X129608873Y-143966267D01*
X129608884Y-143966270D01*
X129868880Y-144000500D01*
X129868884Y-144000500D01*
X130131116Y-144000500D01*
X130131120Y-144000500D01*
X130391116Y-143966270D01*
X130391127Y-143966267D01*
X130391128Y-143966267D01*
X130457406Y-143948507D01*
X130644419Y-143898398D01*
X130886697Y-143798043D01*
X131113803Y-143666924D01*
X131321851Y-143507282D01*
X131507282Y-143321851D01*
X131666924Y-143113803D01*
X131798043Y-142886697D01*
X131898398Y-142644419D01*
X131966270Y-142391116D01*
X132000500Y-142131120D01*
X132000500Y-141868880D01*
X131966270Y-141608884D01*
X131898398Y-141355581D01*
X131798043Y-141113303D01*
X131666924Y-140886197D01*
X131507282Y-140678149D01*
X131321851Y-140492718D01*
X131113803Y-140333076D01*
X131113802Y-140333075D01*
X131113799Y-140333073D01*
X130886700Y-140201958D01*
X130644414Y-140101600D01*
X130391127Y-140033732D01*
X130391120Y-140033731D01*
X130391116Y-140033730D01*
X130181207Y-140006094D01*
X130131121Y-139999500D01*
X130131120Y-139999500D01*
X129868880Y-139999500D01*
X129868878Y-139999500D01*
X129768704Y-140012688D01*
X129608884Y-140033730D01*
X129608880Y-140033730D01*
X129608872Y-140033732D01*
X129608871Y-140033732D01*
X129355586Y-140101600D01*
X129355585Y-140101600D01*
X129113299Y-140201958D01*
X128886200Y-140333073D01*
X128808179Y-140392941D01*
X128678149Y-140492718D01*
X128678144Y-140492723D01*
X128678142Y-140492724D01*
X128492724Y-140678142D01*
X128492723Y-140678144D01*
X128492718Y-140678149D01*
X128406310Y-140790757D01*
X128333073Y-140886200D01*
X128201958Y-141113299D01*
X128101600Y-141355585D01*
X128101600Y-141355586D01*
X128033732Y-141608871D01*
X128033732Y-141608872D01*
X128033730Y-141608880D01*
X128033730Y-141608884D01*
X127999500Y-141868880D01*
X122660598Y-141868880D01*
X122791409Y-141673106D01*
X122941961Y-141391444D01*
X123064180Y-141096381D01*
X123156889Y-140790760D01*
X123219196Y-140477523D01*
X123250500Y-140159687D01*
X123250500Y-139840313D01*
X136749500Y-139840313D01*
X136749500Y-140159687D01*
X136766577Y-140333073D01*
X136780804Y-140477525D01*
X136843110Y-140790757D01*
X136843112Y-140790766D01*
X136872061Y-140886197D01*
X136935820Y-141096381D01*
X136973510Y-141187373D01*
X137058036Y-141391439D01*
X137058039Y-141391445D01*
X137208586Y-141673098D01*
X137208591Y-141673106D01*
X137386025Y-141938656D01*
X137588634Y-142185535D01*
X137814465Y-142411366D01*
X138061344Y-142613975D01*
X138326894Y-142791409D01*
X138326897Y-142791411D01*
X138326901Y-142791413D01*
X138608554Y-142941960D01*
X138608560Y-142941963D01*
X138683941Y-142973186D01*
X138903619Y-143064180D01*
X139209240Y-143156889D01*
X139522477Y-143219196D01*
X139840313Y-143250500D01*
X139840320Y-143250500D01*
X140159680Y-143250500D01*
X140159687Y-143250500D01*
X140477523Y-143219196D01*
X140790760Y-143156889D01*
X141096381Y-143064180D01*
X141391444Y-142941961D01*
X141673106Y-142791409D01*
X141938656Y-142613975D01*
X142185535Y-142411366D01*
X142411366Y-142185535D01*
X142613975Y-141938656D01*
X142791409Y-141673106D01*
X142941961Y-141391444D01*
X143064180Y-141096381D01*
X143156889Y-140790760D01*
X143219196Y-140477523D01*
X143250500Y-140159687D01*
X143250500Y-139840313D01*
X148749500Y-139840313D01*
X148749500Y-140159687D01*
X148766577Y-140333073D01*
X148780804Y-140477525D01*
X148843110Y-140790757D01*
X148843112Y-140790766D01*
X148872061Y-140886197D01*
X148935820Y-141096381D01*
X148973510Y-141187373D01*
X149058036Y-141391439D01*
X149058039Y-141391445D01*
X149208586Y-141673098D01*
X149208591Y-141673106D01*
X149386025Y-141938656D01*
X149588634Y-142185535D01*
X149814465Y-142411366D01*
X150061344Y-142613975D01*
X150326894Y-142791409D01*
X150326897Y-142791411D01*
X150326901Y-142791413D01*
X150608554Y-142941960D01*
X150608560Y-142941963D01*
X150683941Y-142973186D01*
X150903619Y-143064180D01*
X151209240Y-143156889D01*
X151522477Y-143219196D01*
X151840313Y-143250500D01*
X151840320Y-143250500D01*
X152159680Y-143250500D01*
X152159687Y-143250500D01*
X152477523Y-143219196D01*
X152790760Y-143156889D01*
X153096381Y-143064180D01*
X153391444Y-142941961D01*
X153673106Y-142791409D01*
X153938656Y-142613975D01*
X154185535Y-142411366D01*
X154411366Y-142185535D01*
X154613975Y-141938656D01*
X154791409Y-141673106D01*
X154941961Y-141391444D01*
X155064180Y-141096381D01*
X155156889Y-140790760D01*
X155219196Y-140477523D01*
X155250500Y-140159687D01*
X155250500Y-139840313D01*
X155219196Y-139522477D01*
X155156889Y-139209240D01*
X155064180Y-138903619D01*
X154941961Y-138608556D01*
X154791409Y-138326894D01*
X154613975Y-138061344D01*
X154411366Y-137814465D01*
X154185535Y-137588634D01*
X153938656Y-137386025D01*
X153931780Y-137381430D01*
X153673111Y-137208594D01*
X153673098Y-137208586D01*
X153391445Y-137058039D01*
X153391439Y-137058036D01*
X153187373Y-136973510D01*
X153096381Y-136935820D01*
X153013858Y-136910787D01*
X152790766Y-136843112D01*
X152790757Y-136843110D01*
X152477525Y-136780804D01*
X152406892Y-136773847D01*
X152159687Y-136749500D01*
X151840313Y-136749500D01*
X151617827Y-136771412D01*
X151522474Y-136780804D01*
X151209242Y-136843110D01*
X151209233Y-136843112D01*
X150903619Y-136935820D01*
X150608560Y-137058036D01*
X150608554Y-137058039D01*
X150326901Y-137208586D01*
X150326888Y-137208594D01*
X150061349Y-137386021D01*
X150061348Y-137386022D01*
X149814470Y-137588629D01*
X149588629Y-137814470D01*
X149386022Y-138061348D01*
X149386021Y-138061349D01*
X149208594Y-138326888D01*
X149208586Y-138326901D01*
X149058039Y-138608554D01*
X149058036Y-138608560D01*
X148935820Y-138903619D01*
X148843112Y-139209233D01*
X148843110Y-139209242D01*
X148780804Y-139522474D01*
X148780804Y-139522477D01*
X148749500Y-139840313D01*
X143250500Y-139840313D01*
X143219196Y-139522477D01*
X143156889Y-139209240D01*
X143064180Y-138903619D01*
X142941961Y-138608556D01*
X142791409Y-138326894D01*
X142613975Y-138061344D01*
X142411366Y-137814465D01*
X142185535Y-137588634D01*
X141938656Y-137386025D01*
X141931780Y-137381430D01*
X141673111Y-137208594D01*
X141673098Y-137208586D01*
X141391445Y-137058039D01*
X141391439Y-137058036D01*
X141187373Y-136973510D01*
X141096381Y-136935820D01*
X141013858Y-136910787D01*
X140790766Y-136843112D01*
X140790757Y-136843110D01*
X140477525Y-136780804D01*
X140406892Y-136773847D01*
X140159687Y-136749500D01*
X139840313Y-136749500D01*
X139617827Y-136771412D01*
X139522474Y-136780804D01*
X139209242Y-136843110D01*
X139209233Y-136843112D01*
X138903619Y-136935820D01*
X138608560Y-137058036D01*
X138608554Y-137058039D01*
X138326901Y-137208586D01*
X138326888Y-137208594D01*
X138061349Y-137386021D01*
X138061348Y-137386022D01*
X137814470Y-137588629D01*
X137588629Y-137814470D01*
X137386022Y-138061348D01*
X137386021Y-138061349D01*
X137208594Y-138326888D01*
X137208586Y-138326901D01*
X137058039Y-138608554D01*
X137058036Y-138608560D01*
X136935820Y-138903619D01*
X136843112Y-139209233D01*
X136843110Y-139209242D01*
X136780804Y-139522474D01*
X136780804Y-139522477D01*
X136749500Y-139840313D01*
X123250500Y-139840313D01*
X123219196Y-139522477D01*
X123156889Y-139209240D01*
X123064180Y-138903619D01*
X122941961Y-138608556D01*
X122791409Y-138326894D01*
X122613975Y-138061344D01*
X122411366Y-137814465D01*
X122185535Y-137588634D01*
X121938656Y-137386025D01*
X121931780Y-137381430D01*
X121673111Y-137208594D01*
X121673098Y-137208586D01*
X121391445Y-137058039D01*
X121391439Y-137058036D01*
X121187373Y-136973510D01*
X121096381Y-136935820D01*
X121013858Y-136910787D01*
X120790766Y-136843112D01*
X120790757Y-136843110D01*
X120477525Y-136780804D01*
X120406892Y-136773847D01*
X120159687Y-136749500D01*
X119840313Y-136749500D01*
X119617827Y-136771412D01*
X119522474Y-136780804D01*
X119209242Y-136843110D01*
X119209233Y-136843112D01*
X118903619Y-136935820D01*
X118608560Y-137058036D01*
X118608554Y-137058039D01*
X118326901Y-137208586D01*
X118326888Y-137208594D01*
X118061349Y-137386021D01*
X118061348Y-137386022D01*
X117814470Y-137588629D01*
X117588629Y-137814470D01*
X117386022Y-138061348D01*
X117386021Y-138061349D01*
X117208594Y-138326888D01*
X117208586Y-138326901D01*
X117058039Y-138608554D01*
X117058036Y-138608560D01*
X116935820Y-138903619D01*
X116843112Y-139209233D01*
X116843110Y-139209242D01*
X116780804Y-139522474D01*
X116780804Y-139522477D01*
X116749500Y-139840313D01*
X111250500Y-139840313D01*
X111219196Y-139522477D01*
X111156889Y-139209240D01*
X111064180Y-138903619D01*
X110941961Y-138608556D01*
X110791409Y-138326894D01*
X110613975Y-138061344D01*
X110411366Y-137814465D01*
X110185535Y-137588634D01*
X109938656Y-137386025D01*
X109931780Y-137381430D01*
X109673111Y-137208594D01*
X109673098Y-137208586D01*
X109391445Y-137058039D01*
X109391439Y-137058036D01*
X109187373Y-136973510D01*
X109096381Y-136935820D01*
X109013858Y-136910787D01*
X108790766Y-136843112D01*
X108790757Y-136843110D01*
X108477525Y-136780804D01*
X108406892Y-136773847D01*
X108159687Y-136749500D01*
X107840313Y-136749500D01*
X107617827Y-136771412D01*
X107522474Y-136780804D01*
X107209242Y-136843110D01*
X107209233Y-136843112D01*
X106903619Y-136935820D01*
X106608560Y-137058036D01*
X106608554Y-137058039D01*
X106326901Y-137208586D01*
X106326888Y-137208594D01*
X106061349Y-137386021D01*
X106061348Y-137386022D01*
X105814470Y-137588629D01*
X105588629Y-137814470D01*
X105386022Y-138061348D01*
X105386021Y-138061349D01*
X105208594Y-138326888D01*
X105208586Y-138326901D01*
X105058039Y-138608554D01*
X105058036Y-138608560D01*
X104935820Y-138903619D01*
X104843112Y-139209233D01*
X104843110Y-139209242D01*
X104780804Y-139522474D01*
X104780804Y-139522477D01*
X104749500Y-139840313D01*
X100100500Y-139840313D01*
X100100500Y-135994937D01*
X128400001Y-135994937D01*
X128543027Y-136586667D01*
X128868618Y-137126320D01*
X129408934Y-137452596D01*
X129408937Y-137452596D01*
X129408938Y-137452597D01*
X129999996Y-137594936D01*
X129999998Y-137594936D01*
X130000001Y-137594937D01*
X130000001Y-137594936D01*
X130000003Y-137594937D01*
X130422352Y-137500033D01*
X130633528Y-137452581D01*
X131132200Y-137127136D01*
X131500524Y-136587115D01*
X131600001Y-135994937D01*
X131499442Y-135362080D01*
X131373424Y-135191854D01*
X131130811Y-134864128D01*
X130633224Y-134496900D01*
X130000000Y-134394937D01*
X129408941Y-134496166D01*
X129137438Y-134678518D01*
X128865934Y-134860871D01*
X128539507Y-135360618D01*
X128539507Y-135360619D01*
X128539506Y-135360621D01*
X128400001Y-135994937D01*
X100100500Y-135994937D01*
X100100500Y-124830488D01*
X126549500Y-124830488D01*
X126549500Y-125169512D01*
X126575345Y-125431928D01*
X126582730Y-125506906D01*
X126648870Y-125839411D01*
X126648872Y-125839420D01*
X126747284Y-126163839D01*
X126877020Y-126477053D01*
X126877023Y-126477059D01*
X127036833Y-126776043D01*
X127036838Y-126776051D01*
X127225190Y-127057939D01*
X127440265Y-127320009D01*
X127679991Y-127559735D01*
X127942061Y-127774810D01*
X128223949Y-127963162D01*
X128223952Y-127963164D01*
X128223956Y-127963166D01*
X128522940Y-128122976D01*
X128522946Y-128122979D01*
X128602965Y-128156123D01*
X128836160Y-128252716D01*
X129160586Y-128351129D01*
X129493096Y-128417270D01*
X129830488Y-128450500D01*
X129830495Y-128450500D01*
X130169505Y-128450500D01*
X130169512Y-128450500D01*
X130506904Y-128417270D01*
X130839414Y-128351129D01*
X131163840Y-128252716D01*
X131477058Y-128122977D01*
X131776051Y-127963162D01*
X132057939Y-127774810D01*
X132320009Y-127559735D01*
X132559735Y-127320009D01*
X132774810Y-127057939D01*
X132963162Y-126776051D01*
X133122977Y-126477058D01*
X133252716Y-126163840D01*
X133351129Y-125839414D01*
X133417270Y-125506904D01*
X133450500Y-125169512D01*
X133450500Y-124830488D01*
X133417270Y-124493096D01*
X133351129Y-124160586D01*
X133252716Y-123836160D01*
X133122977Y-123522942D01*
X132963162Y-123223949D01*
X132774810Y-122942061D01*
X132559735Y-122679991D01*
X132320009Y-122440265D01*
X132057939Y-122225190D01*
X132050618Y-122220298D01*
X131776056Y-122036841D01*
X131776043Y-122036833D01*
X131477059Y-121877023D01*
X131477053Y-121877020D01*
X131260431Y-121787293D01*
X131163840Y-121747284D01*
X131076239Y-121720710D01*
X130839420Y-121648872D01*
X130839411Y-121648870D01*
X130506906Y-121582730D01*
X130431928Y-121575345D01*
X130169512Y-121549500D01*
X129830488Y-121549500D01*
X129594313Y-121572761D01*
X129493093Y-121582730D01*
X129160588Y-121648870D01*
X129160579Y-121648872D01*
X128836160Y-121747284D01*
X128522946Y-121877020D01*
X128522940Y-121877023D01*
X128223956Y-122036833D01*
X128223943Y-122036841D01*
X127942066Y-122225186D01*
X127942065Y-122225187D01*
X127679996Y-122440260D01*
X127440260Y-122679996D01*
X127225187Y-122942065D01*
X127225186Y-122942066D01*
X127036841Y-123223943D01*
X127036833Y-123223956D01*
X126877023Y-123522940D01*
X126877020Y-123522946D01*
X126747284Y-123836160D01*
X126648872Y-124160579D01*
X126648870Y-124160588D01*
X126582730Y-124493093D01*
X126571653Y-124605560D01*
X126549500Y-124830488D01*
X100100500Y-124830488D01*
X100100500Y-120815750D01*
X106249500Y-120815750D01*
X106249500Y-121184250D01*
X106277592Y-121469481D01*
X106285619Y-121550978D01*
X106357509Y-121912393D01*
X106357511Y-121912402D01*
X106464480Y-122265028D01*
X106605496Y-122605474D01*
X106605499Y-122605480D01*
X106779204Y-122930460D01*
X106779212Y-122930473D01*
X106975303Y-123223943D01*
X106983937Y-123236865D01*
X107217711Y-123521719D01*
X107478281Y-123782289D01*
X107763135Y-124016063D01*
X108069532Y-124220791D01*
X108069535Y-124220793D01*
X108069539Y-124220795D01*
X108394519Y-124394500D01*
X108394525Y-124394503D01*
X108481501Y-124430529D01*
X108734971Y-124535520D01*
X109087604Y-124642490D01*
X109449024Y-124714381D01*
X109815750Y-124750500D01*
X109815757Y-124750500D01*
X110184243Y-124750500D01*
X110184250Y-124750500D01*
X110550976Y-124714381D01*
X110912396Y-124642490D01*
X111265029Y-124535520D01*
X111605479Y-124394501D01*
X111930468Y-124220791D01*
X112236865Y-124016063D01*
X112521719Y-123782289D01*
X112782289Y-123521719D01*
X113016063Y-123236865D01*
X113220791Y-122930468D01*
X113394501Y-122605479D01*
X113535520Y-122265029D01*
X113642490Y-121912396D01*
X113714381Y-121550976D01*
X113750500Y-121184250D01*
X113750500Y-120815750D01*
X146249500Y-120815750D01*
X146249500Y-121184250D01*
X146277592Y-121469481D01*
X146285619Y-121550978D01*
X146357509Y-121912393D01*
X146357511Y-121912402D01*
X146464480Y-122265028D01*
X146605496Y-122605474D01*
X146605499Y-122605480D01*
X146779204Y-122930460D01*
X146779212Y-122930473D01*
X146975303Y-123223943D01*
X146983937Y-123236865D01*
X147217711Y-123521719D01*
X147478281Y-123782289D01*
X147763135Y-124016063D01*
X148069532Y-124220791D01*
X148069535Y-124220793D01*
X148069539Y-124220795D01*
X148394519Y-124394500D01*
X148394525Y-124394503D01*
X148481501Y-124430529D01*
X148734971Y-124535520D01*
X149087604Y-124642490D01*
X149449024Y-124714381D01*
X149815750Y-124750500D01*
X149815757Y-124750500D01*
X150184243Y-124750500D01*
X150184250Y-124750500D01*
X150550976Y-124714381D01*
X150912396Y-124642490D01*
X151265029Y-124535520D01*
X151605479Y-124394501D01*
X151930468Y-124220791D01*
X152236865Y-124016063D01*
X152521719Y-123782289D01*
X152782289Y-123521719D01*
X153016063Y-123236865D01*
X153220791Y-122930468D01*
X153394501Y-122605479D01*
X153535520Y-122265029D01*
X153642490Y-121912396D01*
X153714381Y-121550976D01*
X153750500Y-121184250D01*
X153750500Y-120815750D01*
X153714381Y-120449024D01*
X153642490Y-120087604D01*
X153535520Y-119734971D01*
X153394501Y-119394521D01*
X153220791Y-119069532D01*
X153016063Y-118763135D01*
X152782289Y-118478281D01*
X152521719Y-118217711D01*
X152236865Y-117983937D01*
X152228915Y-117978625D01*
X151930473Y-117779212D01*
X151930460Y-117779204D01*
X151605480Y-117605499D01*
X151605474Y-117605496D01*
X151370018Y-117507968D01*
X151265029Y-117464480D01*
X151169812Y-117435596D01*
X150912402Y-117357511D01*
X150912393Y-117357509D01*
X150550978Y-117285619D01*
X150469481Y-117277592D01*
X150184250Y-117249500D01*
X149815750Y-117249500D01*
X149559041Y-117274783D01*
X149449021Y-117285619D01*
X149087606Y-117357509D01*
X149087597Y-117357511D01*
X148734971Y-117464480D01*
X148394525Y-117605496D01*
X148394519Y-117605499D01*
X148069539Y-117779204D01*
X148069526Y-117779212D01*
X147763140Y-117983933D01*
X147763139Y-117983934D01*
X147478286Y-118217706D01*
X147217706Y-118478286D01*
X146983934Y-118763139D01*
X146983933Y-118763140D01*
X146779212Y-119069526D01*
X146779204Y-119069539D01*
X146605499Y-119394519D01*
X146605496Y-119394525D01*
X146464480Y-119734971D01*
X146357511Y-120087597D01*
X146357509Y-120087606D01*
X146285619Y-120449021D01*
X146285619Y-120449024D01*
X146249500Y-120815750D01*
X113750500Y-120815750D01*
X113714381Y-120449024D01*
X113642490Y-120087604D01*
X113535520Y-119734971D01*
X113394501Y-119394521D01*
X113220791Y-119069532D01*
X113016063Y-118763135D01*
X112782289Y-118478281D01*
X112521719Y-118217711D01*
X112236865Y-117983937D01*
X112228915Y-117978625D01*
X111930473Y-117779212D01*
X111930460Y-117779204D01*
X111605480Y-117605499D01*
X111605474Y-117605496D01*
X111370018Y-117507968D01*
X111265029Y-117464480D01*
X111169812Y-117435596D01*
X110912402Y-117357511D01*
X110912393Y-117357509D01*
X110550978Y-117285619D01*
X110469481Y-117277592D01*
X110184250Y-117249500D01*
X109815750Y-117249500D01*
X109559041Y-117274783D01*
X109449021Y-117285619D01*
X109087606Y-117357509D01*
X109087597Y-117357511D01*
X108734971Y-117464480D01*
X108394525Y-117605496D01*
X108394519Y-117605499D01*
X108069539Y-117779204D01*
X108069526Y-117779212D01*
X107763140Y-117983933D01*
X107763139Y-117983934D01*
X107478286Y-118217706D01*
X107217706Y-118478286D01*
X106983934Y-118763139D01*
X106983933Y-118763140D01*
X106779212Y-119069526D01*
X106779204Y-119069539D01*
X106605499Y-119394519D01*
X106605496Y-119394525D01*
X106464480Y-119734971D01*
X106357511Y-120087597D01*
X106357509Y-120087606D01*
X106285619Y-120449021D01*
X106285619Y-120449024D01*
X106249500Y-120815750D01*
X100100500Y-120815750D01*
X100100500Y-113850000D01*
X115750000Y-113850000D01*
X122599995Y-113850000D01*
X122600000Y-113850000D01*
X124350000Y-113650000D01*
X124950000Y-113250000D01*
X125250000Y-112700000D01*
X125250000Y-111950000D01*
X124858876Y-111216642D01*
X124858021Y-111207882D01*
X124863611Y-111201083D01*
X124868856Y-111199731D01*
X135373222Y-111050380D01*
X135381399Y-111053632D01*
X135384883Y-111061716D01*
X135381834Y-111069679D01*
X134800001Y-111699996D01*
X134800001Y-111699997D01*
X134650000Y-112099998D01*
X134650000Y-112550002D01*
X134899999Y-113099998D01*
X134900000Y-113100000D01*
X135300000Y-113500000D01*
X135300001Y-113500001D01*
X135799994Y-113699998D01*
X135799997Y-113699999D01*
X135800000Y-113700000D01*
X136598614Y-113749913D01*
X136601324Y-113750413D01*
X137400000Y-114000000D01*
X143999999Y-114000000D01*
X144000000Y-114000000D01*
X144000000Y-90830488D01*
X148549500Y-90830488D01*
X148549500Y-91169512D01*
X148575345Y-91431928D01*
X148582730Y-91506906D01*
X148648870Y-91839411D01*
X148648872Y-91839420D01*
X148747284Y-92163839D01*
X148877020Y-92477053D01*
X148877023Y-92477059D01*
X149036833Y-92776043D01*
X149036838Y-92776051D01*
X149225190Y-93057939D01*
X149440265Y-93320009D01*
X149679991Y-93559735D01*
X149942061Y-93774810D01*
X150223949Y-93963162D01*
X150223952Y-93963164D01*
X150223956Y-93963166D01*
X150522940Y-94122976D01*
X150522946Y-94122979D01*
X150602965Y-94156123D01*
X150836160Y-94252716D01*
X151160586Y-94351129D01*
X151493096Y-94417270D01*
X151830488Y-94450500D01*
X151830495Y-94450500D01*
X152169505Y-94450500D01*
X152169512Y-94450500D01*
X152506904Y-94417270D01*
X152839414Y-94351129D01*
X153163840Y-94252716D01*
X153477058Y-94122977D01*
X153776051Y-93963162D01*
X154057939Y-93774810D01*
X154320009Y-93559735D01*
X154559735Y-93320009D01*
X154774810Y-93057939D01*
X154963162Y-92776051D01*
X155122977Y-92477058D01*
X155252716Y-92163840D01*
X155351129Y-91839414D01*
X155417270Y-91506904D01*
X155450500Y-91169512D01*
X155450500Y-90830488D01*
X155417270Y-90493096D01*
X155351129Y-90160586D01*
X155252716Y-89836160D01*
X155122977Y-89522942D01*
X154963162Y-89223949D01*
X154774810Y-88942061D01*
X154559735Y-88679991D01*
X154320009Y-88440265D01*
X154057939Y-88225190D01*
X154050618Y-88220298D01*
X153776056Y-88036841D01*
X153776043Y-88036833D01*
X153477059Y-87877023D01*
X153477053Y-87877020D01*
X153260431Y-87787293D01*
X153163840Y-87747284D01*
X153076239Y-87720710D01*
X152839420Y-87648872D01*
X152839411Y-87648870D01*
X152506906Y-87582730D01*
X152431928Y-87575345D01*
X152169512Y-87549500D01*
X151830488Y-87549500D01*
X151594313Y-87572761D01*
X151493093Y-87582730D01*
X151160588Y-87648870D01*
X151160579Y-87648872D01*
X150836160Y-87747284D01*
X150522946Y-87877020D01*
X150522940Y-87877023D01*
X150223956Y-88036833D01*
X150223943Y-88036841D01*
X149942066Y-88225186D01*
X149942065Y-88225187D01*
X149679996Y-88440260D01*
X149440260Y-88679996D01*
X149225187Y-88942065D01*
X149225186Y-88942066D01*
X149036841Y-89223943D01*
X149036833Y-89223956D01*
X148877023Y-89522940D01*
X148877020Y-89522946D01*
X148747284Y-89836160D01*
X148648872Y-90160579D01*
X148648870Y-90160588D01*
X148582730Y-90493093D01*
X148582730Y-90493096D01*
X148549500Y-90830488D01*
X144000000Y-90830488D01*
X144000000Y-88000000D01*
X143999999Y-88000000D01*
X115799999Y-88000000D01*
X115752224Y-112699998D01*
X115750000Y-113850000D01*
X100100500Y-113850000D01*
X100100500Y-90830488D01*
X104549500Y-90830488D01*
X104549500Y-91169512D01*
X104575345Y-91431928D01*
X104582730Y-91506906D01*
X104648870Y-91839411D01*
X104648872Y-91839420D01*
X104747284Y-92163839D01*
X104877020Y-92477053D01*
X104877023Y-92477059D01*
X105036833Y-92776043D01*
X105036838Y-92776051D01*
X105225190Y-93057939D01*
X105440265Y-93320009D01*
X105679991Y-93559735D01*
X105942061Y-93774810D01*
X106223949Y-93963162D01*
X106223952Y-93963164D01*
X106223956Y-93963166D01*
X106522940Y-94122976D01*
X106522946Y-94122979D01*
X106602965Y-94156123D01*
X106836160Y-94252716D01*
X107160586Y-94351129D01*
X107493096Y-94417270D01*
X107830488Y-94450500D01*
X107830495Y-94450500D01*
X108169505Y-94450500D01*
X108169512Y-94450500D01*
X108506904Y-94417270D01*
X108839414Y-94351129D01*
X109163840Y-94252716D01*
X109477058Y-94122977D01*
X109776051Y-93963162D01*
X110057939Y-93774810D01*
X110320009Y-93559735D01*
X110559735Y-93320009D01*
X110774810Y-93057939D01*
X110963162Y-92776051D01*
X111122977Y-92477058D01*
X111252716Y-92163840D01*
X111351129Y-91839414D01*
X111417270Y-91506904D01*
X111450500Y-91169512D01*
X111450500Y-90830488D01*
X111417270Y-90493096D01*
X111351129Y-90160586D01*
X111252716Y-89836160D01*
X111122977Y-89522942D01*
X110963162Y-89223949D01*
X110774810Y-88942061D01*
X110559735Y-88679991D01*
X110320009Y-88440265D01*
X110057939Y-88225190D01*
X110050618Y-88220298D01*
X109776056Y-88036841D01*
X109776043Y-88036833D01*
X109477059Y-87877023D01*
X109477053Y-87877020D01*
X109260431Y-87787293D01*
X109163840Y-87747284D01*
X109076239Y-87720710D01*
X108839420Y-87648872D01*
X108839411Y-87648870D01*
X108506906Y-87582730D01*
X108431928Y-87575345D01*
X108169512Y-87549500D01*
X107830488Y-87549500D01*
X107594313Y-87572761D01*
X107493093Y-87582730D01*
X107160588Y-87648870D01*
X107160579Y-87648872D01*
X106836160Y-87747284D01*
X106522946Y-87877020D01*
X106522940Y-87877023D01*
X106223956Y-88036833D01*
X106223943Y-88036841D01*
X105942066Y-88225186D01*
X105942065Y-88225187D01*
X105679996Y-88440260D01*
X105440260Y-88679996D01*
X105225187Y-88942065D01*
X105225186Y-88942066D01*
X105036841Y-89223943D01*
X105036833Y-89223956D01*
X104877023Y-89522940D01*
X104877020Y-89522946D01*
X104747284Y-89836160D01*
X104648872Y-90160579D01*
X104648870Y-90160588D01*
X104582730Y-90493093D01*
X104582730Y-90493096D01*
X104549500Y-90830488D01*
X100100500Y-90830488D01*
X100100500Y-81016763D01*
X107400000Y-81016763D01*
X107460899Y-81268714D01*
X107543026Y-81608492D01*
X107868617Y-82148145D01*
X108408933Y-82474421D01*
X108408936Y-82474421D01*
X108408937Y-82474422D01*
X108999995Y-82616761D01*
X108999997Y-82616761D01*
X109000000Y-82616762D01*
X109000000Y-82616761D01*
X109000002Y-82616762D01*
X109422351Y-82521858D01*
X109633527Y-82474406D01*
X110132199Y-82148961D01*
X110500523Y-81608940D01*
X110600000Y-81016762D01*
X110499441Y-80383905D01*
X110373423Y-80213679D01*
X110130810Y-79885953D01*
X109633223Y-79518725D01*
X108999999Y-79416762D01*
X108408940Y-79517991D01*
X108139684Y-79698834D01*
X107865933Y-79882696D01*
X107539506Y-80382443D01*
X107539506Y-80382444D01*
X107539505Y-80382446D01*
X107403686Y-81000001D01*
X107400000Y-81016763D01*
X100100500Y-81016763D01*
X100100500Y-77837857D01*
X126699500Y-77837857D01*
X126699500Y-78162143D01*
X126724222Y-78413151D01*
X126731286Y-78484870D01*
X126794550Y-78802920D01*
X126794552Y-78802929D01*
X126888686Y-79113245D01*
X127012782Y-79412842D01*
X127012785Y-79412848D01*
X127165648Y-79698834D01*
X127165656Y-79698847D01*
X127290677Y-79885953D01*
X127345817Y-79968476D01*
X127551542Y-80219153D01*
X127780847Y-80448458D01*
X128031524Y-80654183D01*
X128301158Y-80834347D01*
X128301161Y-80834349D01*
X128301165Y-80834351D01*
X128587151Y-80987214D01*
X128587157Y-80987217D01*
X128618021Y-81000001D01*
X128886754Y-81111314D01*
X129197077Y-81205449D01*
X129515132Y-81268714D01*
X129837857Y-81300500D01*
X129837864Y-81300500D01*
X130162136Y-81300500D01*
X130162143Y-81300500D01*
X130484868Y-81268714D01*
X130802923Y-81205449D01*
X131113246Y-81111314D01*
X131381981Y-81000000D01*
X149400000Y-81000000D01*
X149400000Y-81000001D01*
X149449658Y-81205447D01*
X149543026Y-81591730D01*
X149868617Y-82131383D01*
X150408933Y-82457659D01*
X150408936Y-82457659D01*
X150408937Y-82457660D01*
X150999995Y-82599999D01*
X150999997Y-82599999D01*
X151000000Y-82600000D01*
X151000000Y-82599999D01*
X151000002Y-82600000D01*
X151422351Y-82505096D01*
X151633527Y-82457644D01*
X152132199Y-82132199D01*
X152500523Y-81592178D01*
X152600000Y-81000000D01*
X152499441Y-80367143D01*
X152373423Y-80196917D01*
X152130810Y-79869191D01*
X151633223Y-79501963D01*
X150999999Y-79400000D01*
X150408940Y-79501229D01*
X150137437Y-79683581D01*
X149865933Y-79865934D01*
X149539506Y-80365681D01*
X149539506Y-80365682D01*
X149539505Y-80365684D01*
X149400000Y-81000000D01*
X131381981Y-81000000D01*
X131412847Y-80987215D01*
X131698842Y-80834347D01*
X131968476Y-80654183D01*
X132219153Y-80448458D01*
X132448458Y-80219153D01*
X132654183Y-79968476D01*
X132834347Y-79698842D01*
X132987215Y-79412847D01*
X133111314Y-79113246D01*
X133205449Y-78802923D01*
X133268714Y-78484868D01*
X133300500Y-78162143D01*
X133300500Y-77837857D01*
X133268714Y-77515132D01*
X133205449Y-77197077D01*
X133111314Y-76886754D01*
X132987215Y-76587153D01*
X132834347Y-76301158D01*
X132654183Y-76031524D01*
X132448458Y-75780847D01*
X132219153Y-75551542D01*
X131968476Y-75345817D01*
X131961475Y-75341139D01*
X131698847Y-75165656D01*
X131698834Y-75165648D01*
X131412848Y-75012785D01*
X131412842Y-75012782D01*
X131205638Y-74926956D01*
X131113246Y-74888686D01*
X131029453Y-74863267D01*
X130802929Y-74794552D01*
X130802920Y-74794550D01*
X130484870Y-74731286D01*
X130413151Y-74724222D01*
X130162143Y-74699500D01*
X129837857Y-74699500D01*
X129611949Y-74721750D01*
X129515129Y-74731286D01*
X129197079Y-74794550D01*
X129197070Y-74794552D01*
X128886754Y-74888686D01*
X128587157Y-75012782D01*
X128587151Y-75012785D01*
X128301165Y-75165648D01*
X128301152Y-75165656D01*
X128031529Y-75345813D01*
X128031528Y-75345814D01*
X127780852Y-75551537D01*
X127551537Y-75780852D01*
X127345814Y-76031528D01*
X127345813Y-76031529D01*
X127165656Y-76301152D01*
X127165648Y-76301165D01*
X127012785Y-76587151D01*
X127012782Y-76587157D01*
X126888686Y-76886754D01*
X126794552Y-77197070D01*
X126794550Y-77197079D01*
X126731286Y-77515129D01*
X126731286Y-77515132D01*
X126699500Y-77837857D01*
X100100500Y-77837857D01*
X100100500Y-67815750D01*
X106249500Y-67815750D01*
X106249500Y-68184250D01*
X106277592Y-68469481D01*
X106285619Y-68550978D01*
X106357509Y-68912393D01*
X106357511Y-68912402D01*
X106464480Y-69265028D01*
X106605496Y-69605474D01*
X106605499Y-69605480D01*
X106779204Y-69930460D01*
X106779209Y-69930468D01*
X106983937Y-70236865D01*
X107217711Y-70521719D01*
X107478281Y-70782289D01*
X107763135Y-71016063D01*
X108069532Y-71220791D01*
X108069535Y-71220793D01*
X108069539Y-71220795D01*
X108394519Y-71394500D01*
X108394525Y-71394503D01*
X108481501Y-71430529D01*
X108734971Y-71535520D01*
X109087604Y-71642490D01*
X109449024Y-71714381D01*
X109815750Y-71750500D01*
X109815757Y-71750500D01*
X110184243Y-71750500D01*
X110184250Y-71750500D01*
X110550976Y-71714381D01*
X110912396Y-71642490D01*
X111265029Y-71535520D01*
X111605479Y-71394501D01*
X111930468Y-71220791D01*
X112236865Y-71016063D01*
X112521719Y-70782289D01*
X112782289Y-70521719D01*
X113016063Y-70236865D01*
X113220791Y-69930468D01*
X113394501Y-69605479D01*
X113535520Y-69265029D01*
X113642490Y-68912396D01*
X113714381Y-68550976D01*
X113750500Y-68184250D01*
X113750500Y-67815750D01*
X146249500Y-67815750D01*
X146249500Y-68184250D01*
X146277592Y-68469481D01*
X146285619Y-68550978D01*
X146357509Y-68912393D01*
X146357511Y-68912402D01*
X146464480Y-69265028D01*
X146605496Y-69605474D01*
X146605499Y-69605480D01*
X146779204Y-69930460D01*
X146779209Y-69930468D01*
X146983937Y-70236865D01*
X147217711Y-70521719D01*
X147478281Y-70782289D01*
X147763135Y-71016063D01*
X148069532Y-71220791D01*
X148069535Y-71220793D01*
X148069539Y-71220795D01*
X148394519Y-71394500D01*
X148394525Y-71394503D01*
X148481501Y-71430529D01*
X148734971Y-71535520D01*
X149087604Y-71642490D01*
X149449024Y-71714381D01*
X149815750Y-71750500D01*
X149815757Y-71750500D01*
X150184243Y-71750500D01*
X150184250Y-71750500D01*
X150550976Y-71714381D01*
X150912396Y-71642490D01*
X151265029Y-71535520D01*
X151605479Y-71394501D01*
X151930468Y-71220791D01*
X152236865Y-71016063D01*
X152521719Y-70782289D01*
X152782289Y-70521719D01*
X153016063Y-70236865D01*
X153220791Y-69930468D01*
X153394501Y-69605479D01*
X153535520Y-69265029D01*
X153642490Y-68912396D01*
X153714381Y-68550976D01*
X153750500Y-68184250D01*
X153750500Y-67815750D01*
X153714381Y-67449024D01*
X153642490Y-67087604D01*
X153535520Y-66734971D01*
X153394501Y-66394521D01*
X153220791Y-66069532D01*
X153016063Y-65763135D01*
X152782289Y-65478281D01*
X152521719Y-65217711D01*
X152236865Y-64983937D01*
X152228915Y-64978625D01*
X151930473Y-64779212D01*
X151930460Y-64779204D01*
X151605480Y-64605499D01*
X151605474Y-64605496D01*
X151370018Y-64507968D01*
X151265029Y-64464480D01*
X151169812Y-64435596D01*
X150912402Y-64357511D01*
X150912393Y-64357509D01*
X150550978Y-64285619D01*
X150469481Y-64277592D01*
X150184250Y-64249500D01*
X149815750Y-64249500D01*
X149559041Y-64274783D01*
X149449021Y-64285619D01*
X149087606Y-64357509D01*
X149087597Y-64357511D01*
X148734971Y-64464480D01*
X148394525Y-64605496D01*
X148394519Y-64605499D01*
X148069539Y-64779204D01*
X148069526Y-64779212D01*
X147763140Y-64983933D01*
X147763139Y-64983934D01*
X147478286Y-65217706D01*
X147217706Y-65478286D01*
X146983934Y-65763139D01*
X146983933Y-65763140D01*
X146779212Y-66069526D01*
X146779204Y-66069539D01*
X146605499Y-66394519D01*
X146605496Y-66394525D01*
X146464480Y-66734971D01*
X146357511Y-67087597D01*
X146357509Y-67087606D01*
X146285619Y-67449021D01*
X146285619Y-67449024D01*
X146249500Y-67815750D01*
X113750500Y-67815750D01*
X113714381Y-67449024D01*
X113642490Y-67087604D01*
X113535520Y-66734971D01*
X113394501Y-66394521D01*
X113220791Y-66069532D01*
X113016063Y-65763135D01*
X112782289Y-65478281D01*
X112521719Y-65217711D01*
X112236865Y-64983937D01*
X112228915Y-64978625D01*
X111930473Y-64779212D01*
X111930460Y-64779204D01*
X111605480Y-64605499D01*
X111605474Y-64605496D01*
X111370018Y-64507968D01*
X111265029Y-64464480D01*
X111169812Y-64435596D01*
X110912402Y-64357511D01*
X110912393Y-64357509D01*
X110550978Y-64285619D01*
X110469481Y-64277592D01*
X110184250Y-64249500D01*
X109815750Y-64249500D01*
X109559041Y-64274783D01*
X109449021Y-64285619D01*
X109087606Y-64357509D01*
X109087597Y-64357511D01*
X108734971Y-64464480D01*
X108394525Y-64605496D01*
X108394519Y-64605499D01*
X108069539Y-64779204D01*
X108069526Y-64779212D01*
X107763140Y-64983933D01*
X107763139Y-64983934D01*
X107478286Y-65217706D01*
X107217706Y-65478286D01*
X106983934Y-65763139D01*
X106983933Y-65763140D01*
X106779212Y-66069526D01*
X106779204Y-66069539D01*
X106605499Y-66394519D01*
X106605496Y-66394525D01*
X106464480Y-66734971D01*
X106357511Y-67087597D01*
X106357509Y-67087606D01*
X106285619Y-67449021D01*
X106285619Y-67449024D01*
X106249500Y-67815750D01*
X100100500Y-67815750D01*
X100100500Y-58815750D01*
X126249500Y-58815750D01*
X126249500Y-59184250D01*
X126277592Y-59469481D01*
X126285619Y-59550978D01*
X126357509Y-59912393D01*
X126357511Y-59912402D01*
X126464480Y-60265028D01*
X126605496Y-60605474D01*
X126605499Y-60605480D01*
X126779204Y-60930460D01*
X126779209Y-60930468D01*
X126983937Y-61236865D01*
X127217711Y-61521719D01*
X127478281Y-61782289D01*
X127763135Y-62016063D01*
X128069532Y-62220791D01*
X128069535Y-62220793D01*
X128069539Y-62220795D01*
X128394519Y-62394500D01*
X128394525Y-62394503D01*
X128481501Y-62430529D01*
X128734971Y-62535520D01*
X129087604Y-62642490D01*
X129449024Y-62714381D01*
X129815750Y-62750500D01*
X129815757Y-62750500D01*
X130184243Y-62750500D01*
X130184250Y-62750500D01*
X130550976Y-62714381D01*
X130912396Y-62642490D01*
X131265029Y-62535520D01*
X131605479Y-62394501D01*
X131930468Y-62220791D01*
X132236865Y-62016063D01*
X132521719Y-61782289D01*
X132782289Y-61521719D01*
X133016063Y-61236865D01*
X133220791Y-60930468D01*
X133394501Y-60605479D01*
X133535520Y-60265029D01*
X133642490Y-59912396D01*
X133714381Y-59550976D01*
X133750500Y-59184250D01*
X133750500Y-58815750D01*
X133714381Y-58449024D01*
X133642490Y-58087604D01*
X133535520Y-57734971D01*
X133394501Y-57394521D01*
X133220791Y-57069532D01*
X133016063Y-56763135D01*
X132782289Y-56478281D01*
X132521719Y-56217711D01*
X132236865Y-55983937D01*
X132228915Y-55978625D01*
X131930473Y-55779212D01*
X131930460Y-55779204D01*
X131605480Y-55605499D01*
X131605474Y-55605496D01*
X131370018Y-55507968D01*
X131265029Y-55464480D01*
X131169812Y-55435596D01*
X130912402Y-55357511D01*
X130912393Y-55357509D01*
X130550978Y-55285619D01*
X130469481Y-55277592D01*
X130184250Y-55249500D01*
X129815750Y-55249500D01*
X129559041Y-55274783D01*
X129449021Y-55285619D01*
X129087606Y-55357509D01*
X129087597Y-55357511D01*
X128734971Y-55464480D01*
X128394525Y-55605496D01*
X128394519Y-55605499D01*
X128069539Y-55779204D01*
X128069526Y-55779212D01*
X127763140Y-55983933D01*
X127763139Y-55983934D01*
X127478286Y-56217706D01*
X127217706Y-56478286D01*
X126983934Y-56763139D01*
X126983933Y-56763140D01*
X126779212Y-57069526D01*
X126779204Y-57069539D01*
X126605499Y-57394519D01*
X126605496Y-57394525D01*
X126464480Y-57734971D01*
X126357511Y-58087597D01*
X126357509Y-58087606D01*
X126285619Y-58449021D01*
X126285619Y-58449024D01*
X126249500Y-58815750D01*
X100100500Y-58815750D01*
X100100500Y-43678712D01*
X104349500Y-43678712D01*
X104349500Y-43921288D01*
X104381162Y-44161789D01*
X104381163Y-44161793D01*
X104381164Y-44161800D01*
X104381164Y-44161801D01*
X104443944Y-44396094D01*
X104443944Y-44396095D01*
X104536777Y-44620215D01*
X104658061Y-44830285D01*
X104658063Y-44830288D01*
X104658064Y-44830289D01*
X104805735Y-45022738D01*
X104977262Y-45194265D01*
X105169711Y-45341936D01*
X105169714Y-45341938D01*
X105379784Y-45463222D01*
X105379785Y-45463222D01*
X105379788Y-45463224D01*
X105603900Y-45556054D01*
X105603904Y-45556055D01*
X105838199Y-45618835D01*
X105838200Y-45618835D01*
X105838211Y-45618838D01*
X106078712Y-45650500D01*
X106078716Y-45650500D01*
X108121284Y-45650500D01*
X108121288Y-45650500D01*
X108361789Y-45618838D01*
X108361800Y-45618835D01*
X108361801Y-45618835D01*
X108423117Y-45602405D01*
X108596100Y-45556054D01*
X108820212Y-45463224D01*
X109030289Y-45341936D01*
X109222738Y-45194265D01*
X109394265Y-45022738D01*
X109541936Y-44830289D01*
X109663224Y-44620212D01*
X109756054Y-44396100D01*
X109818838Y-44161789D01*
X109850500Y-43921288D01*
X109850500Y-43678712D01*
X150249500Y-43678712D01*
X150249500Y-43921288D01*
X150281162Y-44161789D01*
X150281163Y-44161793D01*
X150281164Y-44161800D01*
X150281164Y-44161801D01*
X150343944Y-44396094D01*
X150343944Y-44396095D01*
X150436777Y-44620215D01*
X150558061Y-44830285D01*
X150558063Y-44830288D01*
X150558064Y-44830289D01*
X150705735Y-45022738D01*
X150877262Y-45194265D01*
X151069711Y-45341936D01*
X151069714Y-45341938D01*
X151279784Y-45463222D01*
X151279785Y-45463222D01*
X151279788Y-45463224D01*
X151503900Y-45556054D01*
X151503904Y-45556055D01*
X151738199Y-45618835D01*
X151738200Y-45618835D01*
X151738211Y-45618838D01*
X151978712Y-45650500D01*
X151978716Y-45650500D01*
X154021284Y-45650500D01*
X154021288Y-45650500D01*
X154261789Y-45618838D01*
X154261800Y-45618835D01*
X154261801Y-45618835D01*
X154323117Y-45602405D01*
X154496100Y-45556054D01*
X154720212Y-45463224D01*
X154930289Y-45341936D01*
X155122738Y-45194265D01*
X155294265Y-45022738D01*
X155441936Y-44830289D01*
X155563224Y-44620212D01*
X155656054Y-44396100D01*
X155718838Y-44161789D01*
X155750500Y-43921288D01*
X155750500Y-43678712D01*
X155718838Y-43438211D01*
X155656054Y-43203900D01*
X155563224Y-42979788D01*
X155441936Y-42769711D01*
X155294265Y-42577262D01*
X155122738Y-42405735D01*
X154930289Y-42258064D01*
X154930288Y-42258063D01*
X154930285Y-42258061D01*
X154720215Y-42136777D01*
X154496095Y-42043944D01*
X154261800Y-41981164D01*
X154261793Y-41981163D01*
X154261789Y-41981162D01*
X154067614Y-41955598D01*
X154021289Y-41949500D01*
X154021288Y-41949500D01*
X151978712Y-41949500D01*
X151978710Y-41949500D01*
X151886059Y-41961697D01*
X151738211Y-41981162D01*
X151738207Y-41981162D01*
X151738199Y-41981164D01*
X151738198Y-41981164D01*
X151503905Y-42043944D01*
X151503904Y-42043944D01*
X151279784Y-42136777D01*
X151069714Y-42258061D01*
X150997542Y-42313440D01*
X150877262Y-42405735D01*
X150877257Y-42405740D01*
X150877255Y-42405741D01*
X150705741Y-42577255D01*
X150705740Y-42577257D01*
X150705735Y-42577262D01*
X150613440Y-42697542D01*
X150558061Y-42769714D01*
X150436777Y-42979784D01*
X150343944Y-43203904D01*
X150343944Y-43203905D01*
X150281164Y-43438198D01*
X150281164Y-43438199D01*
X150281162Y-43438207D01*
X150281162Y-43438211D01*
X150249500Y-43678712D01*
X109850500Y-43678712D01*
X109818838Y-43438211D01*
X109756054Y-43203900D01*
X109663224Y-42979788D01*
X109541936Y-42769711D01*
X109394265Y-42577262D01*
X109222738Y-42405735D01*
X109030289Y-42258064D01*
X109030288Y-42258063D01*
X109030285Y-42258061D01*
X108820215Y-42136777D01*
X108596095Y-42043944D01*
X108361800Y-41981164D01*
X108361793Y-41981163D01*
X108361789Y-41981162D01*
X108167614Y-41955598D01*
X108121289Y-41949500D01*
X108121288Y-41949500D01*
X106078712Y-41949500D01*
X106078710Y-41949500D01*
X105986059Y-41961697D01*
X105838211Y-41981162D01*
X105838207Y-41981162D01*
X105838199Y-41981164D01*
X105838198Y-41981164D01*
X105603905Y-42043944D01*
X105603904Y-42043944D01*
X105379784Y-42136777D01*
X105169714Y-42258061D01*
X105097542Y-42313440D01*
X104977262Y-42405735D01*
X104977257Y-42405740D01*
X104977255Y-42405741D01*
X104805741Y-42577255D01*
X104805740Y-42577257D01*
X104805735Y-42577262D01*
X104713440Y-42697542D01*
X104658061Y-42769714D01*
X104536777Y-42979784D01*
X104443944Y-43203904D01*
X104443944Y-43203905D01*
X104381164Y-43438198D01*
X104381164Y-43438199D01*
X104381162Y-43438207D01*
X104381162Y-43438211D01*
X104349500Y-43678712D01*
X100100500Y-43678712D01*
X100100500Y-41312000D01*
X100103868Y-41303868D01*
X100112000Y-41300500D01*
X159888000Y-41300500D01*
X159896132Y-41303868D01*
G37*
%TD.AperFunction*%
%TD*%
M02*
