%TF.GenerationSoftware,KiCad,Pcbnew,8.0.7*%
%TF.CreationDate,2025-01-17T12:36:58+00:00*%
%TF.ProjectId,Spectralist_Panel,53706563-7472-4616-9c69-73745f50616e,rev?*%
%TF.SameCoordinates,Original*%
%TF.FileFunction,Legend,Bot*%
%TF.FilePolarity,Positive*%
%FSLAX46Y46*%
G04 Gerber Fmt 4.6, Leading zero omitted, Abs format (unit mm)*
G04 Created by KiCad (PCBNEW 8.0.7) date 2025-01-17 12:36:58*
%MOMM*%
%LPD*%
G01*
G04 APERTURE LIST*
%ADD10C,0.150000*%
%ADD11C,0.200000*%
G04 APERTURE END LIST*
D10*
X115900000Y-41600000D02*
X144100000Y-41600000D01*
X144100000Y-47600000D01*
X115900000Y-47600000D01*
X115900000Y-41600000D01*
X135119048Y-164454819D02*
X135119048Y-165169104D01*
X135119048Y-165169104D02*
X135166667Y-165311961D01*
X135166667Y-165311961D02*
X135261905Y-165407200D01*
X135261905Y-165407200D02*
X135404762Y-165454819D01*
X135404762Y-165454819D02*
X135500000Y-165454819D01*
X134166667Y-165454819D02*
X134642857Y-165454819D01*
X134642857Y-165454819D02*
X134642857Y-164454819D01*
X133261905Y-165359580D02*
X133309524Y-165407200D01*
X133309524Y-165407200D02*
X133452381Y-165454819D01*
X133452381Y-165454819D02*
X133547619Y-165454819D01*
X133547619Y-165454819D02*
X133690476Y-165407200D01*
X133690476Y-165407200D02*
X133785714Y-165311961D01*
X133785714Y-165311961D02*
X133833333Y-165216723D01*
X133833333Y-165216723D02*
X133880952Y-165026247D01*
X133880952Y-165026247D02*
X133880952Y-164883390D01*
X133880952Y-164883390D02*
X133833333Y-164692914D01*
X133833333Y-164692914D02*
X133785714Y-164597676D01*
X133785714Y-164597676D02*
X133690476Y-164502438D01*
X133690476Y-164502438D02*
X133547619Y-164454819D01*
X133547619Y-164454819D02*
X133452381Y-164454819D01*
X133452381Y-164454819D02*
X133309524Y-164502438D01*
X133309524Y-164502438D02*
X133261905Y-164550057D01*
X132547619Y-164454819D02*
X132547619Y-165169104D01*
X132547619Y-165169104D02*
X132595238Y-165311961D01*
X132595238Y-165311961D02*
X132690476Y-165407200D01*
X132690476Y-165407200D02*
X132833333Y-165454819D01*
X132833333Y-165454819D02*
X132928571Y-165454819D01*
X131595238Y-165454819D02*
X132071428Y-165454819D01*
X132071428Y-165454819D02*
X132071428Y-164454819D01*
X130690476Y-165359580D02*
X130738095Y-165407200D01*
X130738095Y-165407200D02*
X130880952Y-165454819D01*
X130880952Y-165454819D02*
X130976190Y-165454819D01*
X130976190Y-165454819D02*
X131119047Y-165407200D01*
X131119047Y-165407200D02*
X131214285Y-165311961D01*
X131214285Y-165311961D02*
X131261904Y-165216723D01*
X131261904Y-165216723D02*
X131309523Y-165026247D01*
X131309523Y-165026247D02*
X131309523Y-164883390D01*
X131309523Y-164883390D02*
X131261904Y-164692914D01*
X131261904Y-164692914D02*
X131214285Y-164597676D01*
X131214285Y-164597676D02*
X131119047Y-164502438D01*
X131119047Y-164502438D02*
X130976190Y-164454819D01*
X130976190Y-164454819D02*
X130880952Y-164454819D01*
X130880952Y-164454819D02*
X130738095Y-164502438D01*
X130738095Y-164502438D02*
X130690476Y-164550057D01*
X129976190Y-164454819D02*
X129976190Y-165169104D01*
X129976190Y-165169104D02*
X130023809Y-165311961D01*
X130023809Y-165311961D02*
X130119047Y-165407200D01*
X130119047Y-165407200D02*
X130261904Y-165454819D01*
X130261904Y-165454819D02*
X130357142Y-165454819D01*
X129023809Y-165454819D02*
X129499999Y-165454819D01*
X129499999Y-165454819D02*
X129499999Y-164454819D01*
X128119047Y-165359580D02*
X128166666Y-165407200D01*
X128166666Y-165407200D02*
X128309523Y-165454819D01*
X128309523Y-165454819D02*
X128404761Y-165454819D01*
X128404761Y-165454819D02*
X128547618Y-165407200D01*
X128547618Y-165407200D02*
X128642856Y-165311961D01*
X128642856Y-165311961D02*
X128690475Y-165216723D01*
X128690475Y-165216723D02*
X128738094Y-165026247D01*
X128738094Y-165026247D02*
X128738094Y-164883390D01*
X128738094Y-164883390D02*
X128690475Y-164692914D01*
X128690475Y-164692914D02*
X128642856Y-164597676D01*
X128642856Y-164597676D02*
X128547618Y-164502438D01*
X128547618Y-164502438D02*
X128404761Y-164454819D01*
X128404761Y-164454819D02*
X128309523Y-164454819D01*
X128309523Y-164454819D02*
X128166666Y-164502438D01*
X128166666Y-164502438D02*
X128119047Y-164550057D01*
X127404761Y-164454819D02*
X127404761Y-165169104D01*
X127404761Y-165169104D02*
X127452380Y-165311961D01*
X127452380Y-165311961D02*
X127547618Y-165407200D01*
X127547618Y-165407200D02*
X127690475Y-165454819D01*
X127690475Y-165454819D02*
X127785713Y-165454819D01*
X126452380Y-165454819D02*
X126928570Y-165454819D01*
X126928570Y-165454819D02*
X126928570Y-164454819D01*
X125547618Y-165359580D02*
X125595237Y-165407200D01*
X125595237Y-165407200D02*
X125738094Y-165454819D01*
X125738094Y-165454819D02*
X125833332Y-165454819D01*
X125833332Y-165454819D02*
X125976189Y-165407200D01*
X125976189Y-165407200D02*
X126071427Y-165311961D01*
X126071427Y-165311961D02*
X126119046Y-165216723D01*
X126119046Y-165216723D02*
X126166665Y-165026247D01*
X126166665Y-165026247D02*
X126166665Y-164883390D01*
X126166665Y-164883390D02*
X126119046Y-164692914D01*
X126119046Y-164692914D02*
X126071427Y-164597676D01*
X126071427Y-164597676D02*
X125976189Y-164502438D01*
X125976189Y-164502438D02*
X125833332Y-164454819D01*
X125833332Y-164454819D02*
X125738094Y-164454819D01*
X125738094Y-164454819D02*
X125595237Y-164502438D01*
X125595237Y-164502438D02*
X125547618Y-164550057D01*
D11*
X142799999Y-43976070D02*
X142799999Y-42476070D01*
X142799999Y-42476070D02*
X142299999Y-43547499D01*
X142299999Y-43547499D02*
X141799999Y-42476070D01*
X141799999Y-42476070D02*
X141799999Y-43976070D01*
X140871427Y-43976070D02*
X141014284Y-43904642D01*
X141014284Y-43904642D02*
X141085713Y-43833213D01*
X141085713Y-43833213D02*
X141157141Y-43690356D01*
X141157141Y-43690356D02*
X141157141Y-43261784D01*
X141157141Y-43261784D02*
X141085713Y-43118927D01*
X141085713Y-43118927D02*
X141014284Y-43047499D01*
X141014284Y-43047499D02*
X140871427Y-42976070D01*
X140871427Y-42976070D02*
X140657141Y-42976070D01*
X140657141Y-42976070D02*
X140514284Y-43047499D01*
X140514284Y-43047499D02*
X140442856Y-43118927D01*
X140442856Y-43118927D02*
X140371427Y-43261784D01*
X140371427Y-43261784D02*
X140371427Y-43690356D01*
X140371427Y-43690356D02*
X140442856Y-43833213D01*
X140442856Y-43833213D02*
X140514284Y-43904642D01*
X140514284Y-43904642D02*
X140657141Y-43976070D01*
X140657141Y-43976070D02*
X140871427Y-43976070D01*
X139085713Y-42976070D02*
X139085713Y-43976070D01*
X139728570Y-42976070D02*
X139728570Y-43761784D01*
X139728570Y-43761784D02*
X139657141Y-43904642D01*
X139657141Y-43904642D02*
X139514284Y-43976070D01*
X139514284Y-43976070D02*
X139299998Y-43976070D01*
X139299998Y-43976070D02*
X139157141Y-43904642D01*
X139157141Y-43904642D02*
X139085713Y-43833213D01*
X138371427Y-42976070D02*
X138371427Y-43976070D01*
X138371427Y-43118927D02*
X138299998Y-43047499D01*
X138299998Y-43047499D02*
X138157141Y-42976070D01*
X138157141Y-42976070D02*
X137942855Y-42976070D01*
X137942855Y-42976070D02*
X137799998Y-43047499D01*
X137799998Y-43047499D02*
X137728570Y-43190356D01*
X137728570Y-43190356D02*
X137728570Y-43976070D01*
X137228569Y-42976070D02*
X136657141Y-42976070D01*
X137014284Y-42476070D02*
X137014284Y-43761784D01*
X137014284Y-43761784D02*
X136942855Y-43904642D01*
X136942855Y-43904642D02*
X136799998Y-43976070D01*
X136799998Y-43976070D02*
X136657141Y-43976070D01*
X136157141Y-42976070D02*
X136157141Y-44261784D01*
X136157141Y-44261784D02*
X136228569Y-44404642D01*
X136228569Y-44404642D02*
X136371426Y-44476070D01*
X136371426Y-44476070D02*
X136442855Y-44476070D01*
X136157141Y-42476070D02*
X136228569Y-42547499D01*
X136228569Y-42547499D02*
X136157141Y-42618927D01*
X136157141Y-42618927D02*
X136085712Y-42547499D01*
X136085712Y-42547499D02*
X136157141Y-42476070D01*
X136157141Y-42476070D02*
X136157141Y-42618927D01*
X135228569Y-43976070D02*
X135371426Y-43904642D01*
X135371426Y-43904642D02*
X135442855Y-43833213D01*
X135442855Y-43833213D02*
X135514283Y-43690356D01*
X135514283Y-43690356D02*
X135514283Y-43261784D01*
X135514283Y-43261784D02*
X135442855Y-43118927D01*
X135442855Y-43118927D02*
X135371426Y-43047499D01*
X135371426Y-43047499D02*
X135228569Y-42976070D01*
X135228569Y-42976070D02*
X135014283Y-42976070D01*
X135014283Y-42976070D02*
X134871426Y-43047499D01*
X134871426Y-43047499D02*
X134799998Y-43118927D01*
X134799998Y-43118927D02*
X134728569Y-43261784D01*
X134728569Y-43261784D02*
X134728569Y-43690356D01*
X134728569Y-43690356D02*
X134799998Y-43833213D01*
X134799998Y-43833213D02*
X134871426Y-43904642D01*
X134871426Y-43904642D02*
X135014283Y-43976070D01*
X135014283Y-43976070D02*
X135228569Y-43976070D01*
X134228569Y-42976070D02*
X133871426Y-43976070D01*
X133514283Y-42976070D02*
X133871426Y-43976070D01*
X133871426Y-43976070D02*
X134014283Y-44333213D01*
X134014283Y-44333213D02*
X134085712Y-44404642D01*
X134085712Y-44404642D02*
X134228569Y-44476070D01*
X131799998Y-43976070D02*
X131799998Y-42476070D01*
X131799998Y-42476070D02*
X131299998Y-43547499D01*
X131299998Y-43547499D02*
X130799998Y-42476070D01*
X130799998Y-42476070D02*
X130799998Y-43976070D01*
X129871426Y-43976070D02*
X130014283Y-43904642D01*
X130014283Y-43904642D02*
X130085712Y-43833213D01*
X130085712Y-43833213D02*
X130157140Y-43690356D01*
X130157140Y-43690356D02*
X130157140Y-43261784D01*
X130157140Y-43261784D02*
X130085712Y-43118927D01*
X130085712Y-43118927D02*
X130014283Y-43047499D01*
X130014283Y-43047499D02*
X129871426Y-42976070D01*
X129871426Y-42976070D02*
X129657140Y-42976070D01*
X129657140Y-42976070D02*
X129514283Y-43047499D01*
X129514283Y-43047499D02*
X129442855Y-43118927D01*
X129442855Y-43118927D02*
X129371426Y-43261784D01*
X129371426Y-43261784D02*
X129371426Y-43690356D01*
X129371426Y-43690356D02*
X129442855Y-43833213D01*
X129442855Y-43833213D02*
X129514283Y-43904642D01*
X129514283Y-43904642D02*
X129657140Y-43976070D01*
X129657140Y-43976070D02*
X129871426Y-43976070D01*
X128085712Y-43976070D02*
X128085712Y-42476070D01*
X128085712Y-43904642D02*
X128228569Y-43976070D01*
X128228569Y-43976070D02*
X128514283Y-43976070D01*
X128514283Y-43976070D02*
X128657140Y-43904642D01*
X128657140Y-43904642D02*
X128728569Y-43833213D01*
X128728569Y-43833213D02*
X128799997Y-43690356D01*
X128799997Y-43690356D02*
X128799997Y-43261784D01*
X128799997Y-43261784D02*
X128728569Y-43118927D01*
X128728569Y-43118927D02*
X128657140Y-43047499D01*
X128657140Y-43047499D02*
X128514283Y-42976070D01*
X128514283Y-42976070D02*
X128228569Y-42976070D01*
X128228569Y-42976070D02*
X128085712Y-43047499D01*
X126728569Y-42976070D02*
X126728569Y-43976070D01*
X127371426Y-42976070D02*
X127371426Y-43761784D01*
X127371426Y-43761784D02*
X127299997Y-43904642D01*
X127299997Y-43904642D02*
X127157140Y-43976070D01*
X127157140Y-43976070D02*
X126942854Y-43976070D01*
X126942854Y-43976070D02*
X126799997Y-43904642D01*
X126799997Y-43904642D02*
X126728569Y-43833213D01*
X125799997Y-43976070D02*
X125942854Y-43904642D01*
X125942854Y-43904642D02*
X126014283Y-43761784D01*
X126014283Y-43761784D02*
X126014283Y-42476070D01*
X124585712Y-43976070D02*
X124585712Y-43190356D01*
X124585712Y-43190356D02*
X124657140Y-43047499D01*
X124657140Y-43047499D02*
X124799997Y-42976070D01*
X124799997Y-42976070D02*
X125085712Y-42976070D01*
X125085712Y-42976070D02*
X125228569Y-43047499D01*
X124585712Y-43904642D02*
X124728569Y-43976070D01*
X124728569Y-43976070D02*
X125085712Y-43976070D01*
X125085712Y-43976070D02*
X125228569Y-43904642D01*
X125228569Y-43904642D02*
X125299997Y-43761784D01*
X125299997Y-43761784D02*
X125299997Y-43618927D01*
X125299997Y-43618927D02*
X125228569Y-43476070D01*
X125228569Y-43476070D02*
X125085712Y-43404642D01*
X125085712Y-43404642D02*
X124728569Y-43404642D01*
X124728569Y-43404642D02*
X124585712Y-43333213D01*
X123871426Y-43976070D02*
X123871426Y-42976070D01*
X123871426Y-43261784D02*
X123799997Y-43118927D01*
X123799997Y-43118927D02*
X123728569Y-43047499D01*
X123728569Y-43047499D02*
X123585711Y-42976070D01*
X123585711Y-42976070D02*
X123442854Y-42976070D01*
X121871426Y-42618927D02*
X121799998Y-42547499D01*
X121799998Y-42547499D02*
X121657141Y-42476070D01*
X121657141Y-42476070D02*
X121299998Y-42476070D01*
X121299998Y-42476070D02*
X121157141Y-42547499D01*
X121157141Y-42547499D02*
X121085712Y-42618927D01*
X121085712Y-42618927D02*
X121014283Y-42761784D01*
X121014283Y-42761784D02*
X121014283Y-42904642D01*
X121014283Y-42904642D02*
X121085712Y-43118927D01*
X121085712Y-43118927D02*
X121942855Y-43976070D01*
X121942855Y-43976070D02*
X121014283Y-43976070D01*
X120085712Y-42476070D02*
X119942855Y-42476070D01*
X119942855Y-42476070D02*
X119799998Y-42547499D01*
X119799998Y-42547499D02*
X119728570Y-42618927D01*
X119728570Y-42618927D02*
X119657141Y-42761784D01*
X119657141Y-42761784D02*
X119585712Y-43047499D01*
X119585712Y-43047499D02*
X119585712Y-43404642D01*
X119585712Y-43404642D02*
X119657141Y-43690356D01*
X119657141Y-43690356D02*
X119728570Y-43833213D01*
X119728570Y-43833213D02*
X119799998Y-43904642D01*
X119799998Y-43904642D02*
X119942855Y-43976070D01*
X119942855Y-43976070D02*
X120085712Y-43976070D01*
X120085712Y-43976070D02*
X120228570Y-43904642D01*
X120228570Y-43904642D02*
X120299998Y-43833213D01*
X120299998Y-43833213D02*
X120371427Y-43690356D01*
X120371427Y-43690356D02*
X120442855Y-43404642D01*
X120442855Y-43404642D02*
X120442855Y-43047499D01*
X120442855Y-43047499D02*
X120371427Y-42761784D01*
X120371427Y-42761784D02*
X120299998Y-42618927D01*
X120299998Y-42618927D02*
X120228570Y-42547499D01*
X120228570Y-42547499D02*
X120085712Y-42476070D01*
X119014284Y-42618927D02*
X118942856Y-42547499D01*
X118942856Y-42547499D02*
X118799999Y-42476070D01*
X118799999Y-42476070D02*
X118442856Y-42476070D01*
X118442856Y-42476070D02*
X118299999Y-42547499D01*
X118299999Y-42547499D02*
X118228570Y-42618927D01*
X118228570Y-42618927D02*
X118157141Y-42761784D01*
X118157141Y-42761784D02*
X118157141Y-42904642D01*
X118157141Y-42904642D02*
X118228570Y-43118927D01*
X118228570Y-43118927D02*
X119085713Y-43976070D01*
X119085713Y-43976070D02*
X118157141Y-43976070D01*
X116799999Y-42476070D02*
X117514285Y-42476070D01*
X117514285Y-42476070D02*
X117585713Y-43190356D01*
X117585713Y-43190356D02*
X117514285Y-43118927D01*
X117514285Y-43118927D02*
X117371428Y-43047499D01*
X117371428Y-43047499D02*
X117014285Y-43047499D01*
X117014285Y-43047499D02*
X116871428Y-43118927D01*
X116871428Y-43118927D02*
X116799999Y-43190356D01*
X116799999Y-43190356D02*
X116728570Y-43333213D01*
X116728570Y-43333213D02*
X116728570Y-43690356D01*
X116728570Y-43690356D02*
X116799999Y-43833213D01*
X116799999Y-43833213D02*
X116871428Y-43904642D01*
X116871428Y-43904642D02*
X117014285Y-43976070D01*
X117014285Y-43976070D02*
X117371428Y-43976070D01*
X117371428Y-43976070D02*
X117514285Y-43904642D01*
X117514285Y-43904642D02*
X117585713Y-43833213D01*
X141014284Y-46319558D02*
X140799999Y-46390986D01*
X140799999Y-46390986D02*
X140442856Y-46390986D01*
X140442856Y-46390986D02*
X140299999Y-46319558D01*
X140299999Y-46319558D02*
X140228570Y-46248129D01*
X140228570Y-46248129D02*
X140157141Y-46105272D01*
X140157141Y-46105272D02*
X140157141Y-45962415D01*
X140157141Y-45962415D02*
X140228570Y-45819558D01*
X140228570Y-45819558D02*
X140299999Y-45748129D01*
X140299999Y-45748129D02*
X140442856Y-45676700D01*
X140442856Y-45676700D02*
X140728570Y-45605272D01*
X140728570Y-45605272D02*
X140871427Y-45533843D01*
X140871427Y-45533843D02*
X140942856Y-45462415D01*
X140942856Y-45462415D02*
X141014284Y-45319558D01*
X141014284Y-45319558D02*
X141014284Y-45176700D01*
X141014284Y-45176700D02*
X140942856Y-45033843D01*
X140942856Y-45033843D02*
X140871427Y-44962415D01*
X140871427Y-44962415D02*
X140728570Y-44890986D01*
X140728570Y-44890986D02*
X140371427Y-44890986D01*
X140371427Y-44890986D02*
X140157141Y-44962415D01*
X139514285Y-46390986D02*
X139514285Y-45390986D01*
X139514285Y-44890986D02*
X139585713Y-44962415D01*
X139585713Y-44962415D02*
X139514285Y-45033843D01*
X139514285Y-45033843D02*
X139442856Y-44962415D01*
X139442856Y-44962415D02*
X139514285Y-44890986D01*
X139514285Y-44890986D02*
X139514285Y-45033843D01*
X138799999Y-45390986D02*
X138799999Y-46390986D01*
X138799999Y-45533843D02*
X138728570Y-45462415D01*
X138728570Y-45462415D02*
X138585713Y-45390986D01*
X138585713Y-45390986D02*
X138371427Y-45390986D01*
X138371427Y-45390986D02*
X138228570Y-45462415D01*
X138228570Y-45462415D02*
X138157142Y-45605272D01*
X138157142Y-45605272D02*
X138157142Y-46390986D01*
X137228570Y-46390986D02*
X137371427Y-46319558D01*
X137371427Y-46319558D02*
X137442856Y-46248129D01*
X137442856Y-46248129D02*
X137514284Y-46105272D01*
X137514284Y-46105272D02*
X137514284Y-45676700D01*
X137514284Y-45676700D02*
X137442856Y-45533843D01*
X137442856Y-45533843D02*
X137371427Y-45462415D01*
X137371427Y-45462415D02*
X137228570Y-45390986D01*
X137228570Y-45390986D02*
X137014284Y-45390986D01*
X137014284Y-45390986D02*
X136871427Y-45462415D01*
X136871427Y-45462415D02*
X136799999Y-45533843D01*
X136799999Y-45533843D02*
X136728570Y-45676700D01*
X136728570Y-45676700D02*
X136728570Y-46105272D01*
X136728570Y-46105272D02*
X136799999Y-46248129D01*
X136799999Y-46248129D02*
X136871427Y-46319558D01*
X136871427Y-46319558D02*
X137014284Y-46390986D01*
X137014284Y-46390986D02*
X137228570Y-46390986D01*
X136157141Y-46319558D02*
X136014284Y-46390986D01*
X136014284Y-46390986D02*
X135728570Y-46390986D01*
X135728570Y-46390986D02*
X135585713Y-46319558D01*
X135585713Y-46319558D02*
X135514284Y-46176700D01*
X135514284Y-46176700D02*
X135514284Y-46105272D01*
X135514284Y-46105272D02*
X135585713Y-45962415D01*
X135585713Y-45962415D02*
X135728570Y-45890986D01*
X135728570Y-45890986D02*
X135942856Y-45890986D01*
X135942856Y-45890986D02*
X136085713Y-45819558D01*
X136085713Y-45819558D02*
X136157141Y-45676700D01*
X136157141Y-45676700D02*
X136157141Y-45605272D01*
X136157141Y-45605272D02*
X136085713Y-45462415D01*
X136085713Y-45462415D02*
X135942856Y-45390986D01*
X135942856Y-45390986D02*
X135728570Y-45390986D01*
X135728570Y-45390986D02*
X135585713Y-45462415D01*
X134228570Y-46390986D02*
X134228570Y-45605272D01*
X134228570Y-45605272D02*
X134299998Y-45462415D01*
X134299998Y-45462415D02*
X134442855Y-45390986D01*
X134442855Y-45390986D02*
X134728570Y-45390986D01*
X134728570Y-45390986D02*
X134871427Y-45462415D01*
X134228570Y-46319558D02*
X134371427Y-46390986D01*
X134371427Y-46390986D02*
X134728570Y-46390986D01*
X134728570Y-46390986D02*
X134871427Y-46319558D01*
X134871427Y-46319558D02*
X134942855Y-46176700D01*
X134942855Y-46176700D02*
X134942855Y-46033843D01*
X134942855Y-46033843D02*
X134871427Y-45890986D01*
X134871427Y-45890986D02*
X134728570Y-45819558D01*
X134728570Y-45819558D02*
X134371427Y-45819558D01*
X134371427Y-45819558D02*
X134228570Y-45748129D01*
X132871427Y-45390986D02*
X132871427Y-46390986D01*
X133514284Y-45390986D02*
X133514284Y-46176700D01*
X133514284Y-46176700D02*
X133442855Y-46319558D01*
X133442855Y-46319558D02*
X133299998Y-46390986D01*
X133299998Y-46390986D02*
X133085712Y-46390986D01*
X133085712Y-46390986D02*
X132942855Y-46319558D01*
X132942855Y-46319558D02*
X132871427Y-46248129D01*
X132157141Y-46390986D02*
X132157141Y-45390986D01*
X132157141Y-45676700D02*
X132085712Y-45533843D01*
X132085712Y-45533843D02*
X132014284Y-45462415D01*
X132014284Y-45462415D02*
X131871426Y-45390986D01*
X131871426Y-45390986D02*
X131728569Y-45390986D01*
X130085713Y-46390986D02*
X130085713Y-44890986D01*
X130085713Y-44890986D02*
X129514284Y-44890986D01*
X129514284Y-44890986D02*
X129371427Y-44962415D01*
X129371427Y-44962415D02*
X129299998Y-45033843D01*
X129299998Y-45033843D02*
X129228570Y-45176700D01*
X129228570Y-45176700D02*
X129228570Y-45390986D01*
X129228570Y-45390986D02*
X129299998Y-45533843D01*
X129299998Y-45533843D02*
X129371427Y-45605272D01*
X129371427Y-45605272D02*
X129514284Y-45676700D01*
X129514284Y-45676700D02*
X130085713Y-45676700D01*
X127942856Y-46390986D02*
X127942856Y-45605272D01*
X127942856Y-45605272D02*
X128014284Y-45462415D01*
X128014284Y-45462415D02*
X128157141Y-45390986D01*
X128157141Y-45390986D02*
X128442856Y-45390986D01*
X128442856Y-45390986D02*
X128585713Y-45462415D01*
X127942856Y-46319558D02*
X128085713Y-46390986D01*
X128085713Y-46390986D02*
X128442856Y-46390986D01*
X128442856Y-46390986D02*
X128585713Y-46319558D01*
X128585713Y-46319558D02*
X128657141Y-46176700D01*
X128657141Y-46176700D02*
X128657141Y-46033843D01*
X128657141Y-46033843D02*
X128585713Y-45890986D01*
X128585713Y-45890986D02*
X128442856Y-45819558D01*
X128442856Y-45819558D02*
X128085713Y-45819558D01*
X128085713Y-45819558D02*
X127942856Y-45748129D01*
X127228570Y-45390986D02*
X127228570Y-46390986D01*
X127228570Y-45533843D02*
X127157141Y-45462415D01*
X127157141Y-45462415D02*
X127014284Y-45390986D01*
X127014284Y-45390986D02*
X126799998Y-45390986D01*
X126799998Y-45390986D02*
X126657141Y-45462415D01*
X126657141Y-45462415D02*
X126585713Y-45605272D01*
X126585713Y-45605272D02*
X126585713Y-46390986D01*
X125299998Y-46319558D02*
X125442855Y-46390986D01*
X125442855Y-46390986D02*
X125728570Y-46390986D01*
X125728570Y-46390986D02*
X125871427Y-46319558D01*
X125871427Y-46319558D02*
X125942855Y-46176700D01*
X125942855Y-46176700D02*
X125942855Y-45605272D01*
X125942855Y-45605272D02*
X125871427Y-45462415D01*
X125871427Y-45462415D02*
X125728570Y-45390986D01*
X125728570Y-45390986D02*
X125442855Y-45390986D01*
X125442855Y-45390986D02*
X125299998Y-45462415D01*
X125299998Y-45462415D02*
X125228570Y-45605272D01*
X125228570Y-45605272D02*
X125228570Y-45748129D01*
X125228570Y-45748129D02*
X125942855Y-45890986D01*
X124371427Y-46390986D02*
X124514284Y-46319558D01*
X124514284Y-46319558D02*
X124585713Y-46176700D01*
X124585713Y-46176700D02*
X124585713Y-44890986D01*
X122799999Y-45390986D02*
X122442856Y-46390986D01*
X122442856Y-46390986D02*
X122085713Y-45390986D01*
X120728570Y-46390986D02*
X121585713Y-46390986D01*
X121157142Y-46390986D02*
X121157142Y-44890986D01*
X121157142Y-44890986D02*
X121299999Y-45105272D01*
X121299999Y-45105272D02*
X121442856Y-45248129D01*
X121442856Y-45248129D02*
X121585713Y-45319558D01*
X120085714Y-46248129D02*
X120014285Y-46319558D01*
X120014285Y-46319558D02*
X120085714Y-46390986D01*
X120085714Y-46390986D02*
X120157142Y-46319558D01*
X120157142Y-46319558D02*
X120085714Y-46248129D01*
X120085714Y-46248129D02*
X120085714Y-46390986D01*
X119085713Y-44890986D02*
X118942856Y-44890986D01*
X118942856Y-44890986D02*
X118799999Y-44962415D01*
X118799999Y-44962415D02*
X118728571Y-45033843D01*
X118728571Y-45033843D02*
X118657142Y-45176700D01*
X118657142Y-45176700D02*
X118585713Y-45462415D01*
X118585713Y-45462415D02*
X118585713Y-45819558D01*
X118585713Y-45819558D02*
X118657142Y-46105272D01*
X118657142Y-46105272D02*
X118728571Y-46248129D01*
X118728571Y-46248129D02*
X118799999Y-46319558D01*
X118799999Y-46319558D02*
X118942856Y-46390986D01*
X118942856Y-46390986D02*
X119085713Y-46390986D01*
X119085713Y-46390986D02*
X119228571Y-46319558D01*
X119228571Y-46319558D02*
X119299999Y-46248129D01*
X119299999Y-46248129D02*
X119371428Y-46105272D01*
X119371428Y-46105272D02*
X119442856Y-45819558D01*
X119442856Y-45819558D02*
X119442856Y-45462415D01*
X119442856Y-45462415D02*
X119371428Y-45176700D01*
X119371428Y-45176700D02*
X119299999Y-45033843D01*
X119299999Y-45033843D02*
X119228571Y-44962415D01*
X119228571Y-44962415D02*
X119085713Y-44890986D01*
M02*
