%TF.GenerationSoftware,KiCad,Pcbnew,8.0.5*%
%TF.CreationDate,2025-01-09T11:38:12+00:00*%
%TF.ProjectId,Spectralist_Panel,53706563-7472-4616-9c69-73745f50616e,rev?*%
%TF.SameCoordinates,Original*%
%TF.FileFunction,Soldermask,Bot*%
%TF.FilePolarity,Negative*%
%FSLAX46Y46*%
G04 Gerber Fmt 4.6, Leading zero omitted, Abs format (unit mm)*
G04 Created by KiCad (PCBNEW 8.0.5) date 2025-01-09 11:38:12*
%MOMM*%
%LPD*%
G01*
G04 APERTURE LIST*
%ADD10C,7.000000*%
%ADD11C,6.100000*%
%ADD12C,6.000000*%
%ADD13O,5.000000X3.200000*%
%ADD14C,6.400000*%
%ADD15C,3.500000*%
G04 APERTURE END LIST*
D10*
%TO.C,Ref\u002A\u002A*%
X110000000Y-121000000D03*
%TD*%
D11*
%TO.C,Ref\u002A\u002A*%
X130000000Y-102000000D03*
%TD*%
D12*
%TO.C,Ref\u002A\u002A*%
X140000000Y-140000000D03*
%TD*%
%TO.C,Ref\u002A\u002A*%
X108000000Y-140000000D03*
%TD*%
%TO.C,Ref\u002A\u002A*%
X120000000Y-140000000D03*
%TD*%
D11*
%TO.C,Ref\u002A\u002A*%
X130000000Y-78000000D03*
%TD*%
D10*
%TO.C,Ref\u002A\u002A*%
X150000000Y-121000000D03*
%TD*%
D12*
%TO.C,Ref\u002A\u002A*%
X108000000Y-153000000D03*
%TD*%
D13*
%TO.C,Ref\u002A\u002A*%
X153000000Y-43800000D03*
%TD*%
D12*
%TO.C,Ref\u002A\u002A*%
X119000000Y-153000000D03*
%TD*%
D10*
%TO.C,Ref\u002A\u002A*%
X150000000Y-68000000D03*
%TD*%
D12*
%TO.C,Ref\u002A\u002A*%
X152000000Y-153000000D03*
%TD*%
%TO.C,Ref\u002A\u002A*%
X130000000Y-153000000D03*
%TD*%
D13*
%TO.C,Ref\u002A\u002A*%
X107100000Y-166300000D03*
%TD*%
%TO.C,Ref\u002A\u002A*%
X152900000Y-166300000D03*
%TD*%
D10*
%TO.C,Ref\u002A\u002A*%
X110000000Y-68000000D03*
%TD*%
D12*
%TO.C,Ref\u002A\u002A*%
X152000000Y-140000000D03*
%TD*%
D14*
%TO.C,Ref\u002A\u002A*%
X130000000Y-127000000D03*
%TD*%
%TO.C,Ref\u002A\u002A*%
X152000000Y-91000000D03*
%TD*%
D12*
%TO.C,Ref\u002A\u002A*%
X141000000Y-153000000D03*
%TD*%
D13*
%TO.C,Ref\u002A\u002A*%
X107100000Y-43800000D03*
%TD*%
D10*
%TO.C,Ref\u002A\u002A*%
X130000000Y-59000000D03*
%TD*%
D15*
%TO.C,Ref\u002A\u002A*%
X130000000Y-142000000D03*
%TD*%
D14*
%TO.C,Ref\u002A\u002A*%
X108000000Y-91000000D03*
%TD*%
G36*
X151290927Y-79447271D02*
G01*
X151301061Y-79448477D01*
X151323082Y-79452023D01*
X151332724Y-79453971D01*
X151514642Y-79498298D01*
X151533313Y-79504452D01*
X151701377Y-79575057D01*
X151718842Y-79584084D01*
X151873904Y-79680531D01*
X151889261Y-79691806D01*
X152107502Y-79879476D01*
X152120552Y-79892508D01*
X152308717Y-80110674D01*
X152320054Y-80126077D01*
X152416881Y-80281445D01*
X152425981Y-80299036D01*
X152496602Y-80467278D01*
X152502784Y-80486093D01*
X152546885Y-80668252D01*
X152548831Y-80677972D01*
X152552095Y-80698515D01*
X152553268Y-80708487D01*
X152574857Y-80989856D01*
X152574768Y-81009922D01*
X152551072Y-81286620D01*
X152548015Y-81305329D01*
X152505876Y-81478683D01*
X152500424Y-81495677D01*
X152433620Y-81661723D01*
X152425784Y-81677757D01*
X152333595Y-81836349D01*
X152328833Y-81843902D01*
X152303409Y-81881178D01*
X152296041Y-81890914D01*
X152119471Y-82101791D01*
X152102052Y-82118859D01*
X151891969Y-82287608D01*
X151872554Y-82300406D01*
X151632958Y-82427871D01*
X151612585Y-82436476D01*
X151348307Y-82521227D01*
X151337628Y-82524133D01*
X151301200Y-82532319D01*
X151291906Y-82534038D01*
X151109122Y-82560693D01*
X151090281Y-82561987D01*
X150910310Y-82560611D01*
X150891491Y-82559029D01*
X150713848Y-82530344D01*
X150695428Y-82525903D01*
X150426885Y-82438977D01*
X150409299Y-82431753D01*
X150152962Y-82302661D01*
X150144651Y-82298069D01*
X150142693Y-82296887D01*
X150134322Y-82291360D01*
X149979562Y-82179931D01*
X149964319Y-82166965D01*
X149833067Y-82035662D01*
X149820108Y-82020414D01*
X149708751Y-81865629D01*
X149703232Y-81857265D01*
X149702715Y-81856408D01*
X149698137Y-81848120D01*
X149568852Y-81591346D01*
X149561653Y-81573832D01*
X149474425Y-81304846D01*
X149469993Y-81286542D01*
X149440975Y-81108489D01*
X149439367Y-81089825D01*
X149437502Y-80909385D01*
X149438723Y-80890692D01*
X149464722Y-80707365D01*
X149466388Y-80698143D01*
X149474192Y-80662657D01*
X149477096Y-80651815D01*
X149561084Y-80386902D01*
X149569765Y-80366230D01*
X149697157Y-80126286D01*
X149710165Y-80106579D01*
X149879457Y-79896713D01*
X149896884Y-79879061D01*
X150108907Y-79703492D01*
X150118855Y-79696061D01*
X150154598Y-79672054D01*
X150165818Y-79665348D01*
X150409123Y-79536824D01*
X150433361Y-79527129D01*
X150693231Y-79453787D01*
X150716099Y-79449597D01*
X150989935Y-79425628D01*
X151010327Y-79425527D01*
X151290927Y-79447271D01*
G37*
G36*
X109290927Y-79464033D02*
G01*
X109301061Y-79465239D01*
X109323082Y-79468785D01*
X109332724Y-79470733D01*
X109514642Y-79515060D01*
X109533313Y-79521214D01*
X109701377Y-79591819D01*
X109718842Y-79600846D01*
X109873904Y-79697293D01*
X109889261Y-79708568D01*
X110107502Y-79896238D01*
X110120552Y-79909270D01*
X110308717Y-80127436D01*
X110320054Y-80142839D01*
X110416881Y-80298207D01*
X110425981Y-80315798D01*
X110496602Y-80484040D01*
X110502784Y-80502855D01*
X110546885Y-80685014D01*
X110548831Y-80694734D01*
X110552095Y-80715277D01*
X110553268Y-80725249D01*
X110574857Y-81006618D01*
X110574768Y-81026684D01*
X110551072Y-81303382D01*
X110548015Y-81322091D01*
X110505876Y-81495445D01*
X110500424Y-81512439D01*
X110433620Y-81678485D01*
X110425784Y-81694519D01*
X110333595Y-81853111D01*
X110328833Y-81860664D01*
X110303409Y-81897940D01*
X110296041Y-81907676D01*
X110119471Y-82118553D01*
X110102052Y-82135621D01*
X109891969Y-82304370D01*
X109872554Y-82317168D01*
X109632958Y-82444633D01*
X109612585Y-82453238D01*
X109348307Y-82537989D01*
X109337628Y-82540895D01*
X109301200Y-82549081D01*
X109291906Y-82550800D01*
X109109122Y-82577455D01*
X109090281Y-82578749D01*
X108910310Y-82577373D01*
X108891491Y-82575791D01*
X108713851Y-82547107D01*
X108695431Y-82542666D01*
X108426885Y-82455739D01*
X108409299Y-82448515D01*
X108152962Y-82319423D01*
X108144651Y-82314831D01*
X108142693Y-82313649D01*
X108134322Y-82308122D01*
X107979562Y-82196693D01*
X107964319Y-82183727D01*
X107833067Y-82052424D01*
X107820107Y-82037176D01*
X107708749Y-81882388D01*
X107703276Y-81874098D01*
X107702760Y-81873244D01*
X107698137Y-81864882D01*
X107568852Y-81608108D01*
X107561653Y-81590594D01*
X107474425Y-81321608D01*
X107469993Y-81303304D01*
X107440975Y-81125251D01*
X107439367Y-81106587D01*
X107437502Y-80926147D01*
X107438723Y-80907454D01*
X107464722Y-80724127D01*
X107466388Y-80714905D01*
X107474192Y-80679419D01*
X107477096Y-80668577D01*
X107561084Y-80403664D01*
X107569765Y-80382992D01*
X107697157Y-80143048D01*
X107710165Y-80123341D01*
X107879457Y-79913475D01*
X107896884Y-79895823D01*
X108108907Y-79720254D01*
X108118855Y-79712823D01*
X108154598Y-79688816D01*
X108165818Y-79682110D01*
X108409123Y-79553586D01*
X108433361Y-79543891D01*
X108693231Y-79470549D01*
X108716099Y-79466359D01*
X108989935Y-79442390D01*
X109010327Y-79442289D01*
X109290927Y-79464033D01*
G37*
G36*
X130322310Y-134442208D02*
G01*
X130332444Y-134443414D01*
X130354465Y-134446960D01*
X130364107Y-134448908D01*
X130546025Y-134493235D01*
X130564696Y-134499389D01*
X130732760Y-134569994D01*
X130750225Y-134579021D01*
X130905287Y-134675468D01*
X130920644Y-134686743D01*
X131138885Y-134874413D01*
X131151935Y-134887445D01*
X131340100Y-135105611D01*
X131351437Y-135121014D01*
X131448264Y-135276382D01*
X131457364Y-135293973D01*
X131527985Y-135462215D01*
X131534167Y-135481030D01*
X131578268Y-135663189D01*
X131580214Y-135672909D01*
X131583478Y-135693452D01*
X131584651Y-135703424D01*
X131606240Y-135984793D01*
X131606151Y-136004859D01*
X131582455Y-136281557D01*
X131579398Y-136300266D01*
X131537259Y-136473620D01*
X131531807Y-136490614D01*
X131465003Y-136656660D01*
X131457167Y-136672694D01*
X131364978Y-136831286D01*
X131360216Y-136838839D01*
X131334792Y-136876115D01*
X131327424Y-136885851D01*
X131150854Y-137096728D01*
X131133435Y-137113796D01*
X130923352Y-137282545D01*
X130903937Y-137295343D01*
X130664341Y-137422808D01*
X130643968Y-137431413D01*
X130379690Y-137516164D01*
X130369011Y-137519070D01*
X130332583Y-137527256D01*
X130323289Y-137528975D01*
X130140505Y-137555630D01*
X130121664Y-137556924D01*
X129941693Y-137555548D01*
X129922874Y-137553966D01*
X129745234Y-137525282D01*
X129726814Y-137520841D01*
X129458268Y-137433914D01*
X129440682Y-137426690D01*
X129184345Y-137297598D01*
X129176034Y-137293006D01*
X129174076Y-137291824D01*
X129165705Y-137286297D01*
X129010945Y-137174868D01*
X128995702Y-137161902D01*
X128864450Y-137030599D01*
X128851490Y-137015351D01*
X128740132Y-136860563D01*
X128734659Y-136852273D01*
X128734143Y-136851419D01*
X128729520Y-136843057D01*
X128600235Y-136586283D01*
X128593036Y-136568769D01*
X128505808Y-136299783D01*
X128501376Y-136281479D01*
X128472358Y-136103426D01*
X128470750Y-136084762D01*
X128468885Y-135904322D01*
X128470106Y-135885629D01*
X128496105Y-135702302D01*
X128497771Y-135693080D01*
X128505575Y-135657594D01*
X128508479Y-135646752D01*
X128592467Y-135381839D01*
X128601148Y-135361167D01*
X128728540Y-135121223D01*
X128741548Y-135101516D01*
X128910840Y-134891650D01*
X128928267Y-134873998D01*
X129140290Y-134698429D01*
X129150238Y-134690998D01*
X129185981Y-134666991D01*
X129197201Y-134660285D01*
X129440506Y-134531761D01*
X129464744Y-134522066D01*
X129724614Y-134448724D01*
X129747482Y-134444534D01*
X130021318Y-134420565D01*
X130041710Y-134420464D01*
X130322310Y-134442208D01*
G37*
M02*
