M48
; DRILL file {KiCad 8.0.7} date 2025-01-17T12:37:01+0000
; FORMAT={-:-/ absolute / inch / decimal}
; #@! TF.CreationDate,2025-01-17T12:37:01+00:00
; #@! TF.GenerationSoftware,Kicad,Pcbnew,8.0.7
; #@! TF.FileFunction,NonPlated,1,2,NPTH
FMAT,2
INCH
; #@! TA.AperFunction,NonPlated,NPTH,ComponentDrill
T1C0.1260
; #@! TA.AperFunction,NonPlated,NPTH,ComponentDrill
T2C0.1378
; #@! TA.AperFunction,NonPlated,NPTH,ComponentDrill
T3C0.2362
; #@! TA.AperFunction,NonPlated,NPTH,ComponentDrill
T4C0.2402
; #@! TA.AperFunction,NonPlated,NPTH,ComponentDrill
T5C0.2520
; #@! TA.AperFunction,NonPlated,NPTH,ComponentDrill
T6C0.2756
%
G90
G05
T2
X5.1181Y-5.5906
T3
X4.252Y-5.5118
X4.252Y-6.0236
X4.685Y-6.0236
X4.7244Y-5.5118
X5.1181Y-6.0236
X5.5118Y-5.5118
X5.5512Y-6.0236
X5.9843Y-5.5118
X5.9843Y-6.0236
T4
X5.1181Y-3.0709
X5.1181Y-4.0157
T5
X4.252Y-3.5827
X5.1181Y-4.9213
X5.9843Y-3.5827
T6
X4.3307Y-2.6772
X4.3307Y-4.7638
X5.1181Y-2.3228
X5.9055Y-2.6772
X5.9055Y-4.7638
T1
G00X4.1811Y-1.7244
M15
G01X4.252Y-1.7244
M16
G05
G00X4.1811Y-6.5472
M15
G01X4.252Y-6.5472
M16
G05
G00X5.9843Y-6.5472
M15
G01X6.0551Y-6.5472
M16
G05
G00X5.9882Y-1.7244
M15
G01X6.0591Y-1.7244
M16
G05
M30
