M48
; DRILL file {KiCad 8.0.7} date 2025-01-17T16:07:10+0000
; FORMAT={-:-/ absolute / inch / decimal}
; #@! TF.CreationDate,2025-01-17T16:07:10+00:00
; #@! TF.GenerationSoftware,Kicad,Pcbnew,8.0.7
; #@! TF.FileFunction,Plated,1,2,PTH
FMAT,2
INCH
; #@! TA.AperFunction,Plated,PTH,ComponentDrill
T1C0.0079
; #@! TA.AperFunction,Plated,PTH,ViaDrill
T2C0.0118
; #@! TA.AperFunction,Plated,PTH,ViaDrill
T3C0.0157
; #@! TA.AperFunction,Plated,PTH,ComponentDrill
T4C0.0394
%
G90
G05
T1
X5.065Y-4.3642
X5.065Y-4.4026
X5.065Y-4.4409
X5.065Y-4.4793
X5.065Y-4.5177
X5.0945Y-4.3642
X5.0945Y-4.4026
X5.0945Y-4.4409
X5.0945Y-4.4793
X5.0945Y-4.5177
X5.124Y-4.3642
X5.124Y-4.4026
X5.124Y-4.4409
X5.124Y-4.4793
X5.124Y-4.5177
X5.1535Y-4.3642
X5.1535Y-4.4026
X5.1535Y-4.4409
X5.1535Y-4.4793
X5.1535Y-4.5177
T2
X4.4772Y-4.0311
X4.5236Y-3.7835
X4.7657Y-3.6083
X4.7894Y-4.4053
X4.8496Y-4.5921
X4.8543Y-3.5551
X4.8583Y-4.2283
X4.8936Y-4.6149
X4.9183Y-4.5873
X4.9291Y-4.6409
X4.9409Y-3.5276
X4.9587Y-3.4685
X5.0492Y-4.5689
X5.0709Y-3.5118
X5.1378Y-3.6772
X5.1654Y-4.3071
X5.1654Y-4.5984
X5.1772Y-3.6417
X5.2079Y-3.7937
X5.2205Y-3.6772
X5.2717Y-3.5374
X5.2835Y-4.622
X5.306Y-4.5973
X5.3465Y-4.5945
X5.3701Y-3.5492
X5.4331Y-3.5551
X5.4957Y-4.1028
X5.7087Y-3.7795
X5.7524Y-4.0299
T3
X4.7677Y-4.1732
X5.3504Y-4.2047
X5.4173Y-4.2717
T4
X4.4252Y-4.3307
X4.4252Y-4.4307
X5.0175Y-3.3268
X5.1175Y-3.3268
X5.2175Y-3.3268
X5.8071Y-4.3307
X5.8071Y-4.4307
M30
