%TF.GenerationSoftware,KiCad,Pcbnew,8.0.7*%
%TF.CreationDate,2025-01-17T16:07:08+00:00*%
%TF.ProjectId,Spectralist_LEDs,53706563-7472-4616-9c69-73745f4c4544,rev?*%
%TF.SameCoordinates,Original*%
%TF.FileFunction,Legend,Bot*%
%TF.FilePolarity,Positive*%
%FSLAX46Y46*%
G04 Gerber Fmt 4.6, Leading zero omitted, Abs format (unit mm)*
G04 Created by KiCad (PCBNEW 8.0.7) date 2025-01-17 16:07:08*
%MOMM*%
%LPD*%
G01*
G04 APERTURE LIST*
%ADD10C,0.100000*%
%ADD11C,0.120000*%
G04 APERTURE END LIST*
D10*
X142242419Y-84583332D02*
X141242419Y-84583332D01*
X141242419Y-84583332D02*
X141956704Y-84916665D01*
X141956704Y-84916665D02*
X141242419Y-85249998D01*
X141242419Y-85249998D02*
X142242419Y-85249998D01*
X142242419Y-85869046D02*
X142194800Y-85773808D01*
X142194800Y-85773808D02*
X142147180Y-85726189D01*
X142147180Y-85726189D02*
X142051942Y-85678570D01*
X142051942Y-85678570D02*
X141766228Y-85678570D01*
X141766228Y-85678570D02*
X141670990Y-85726189D01*
X141670990Y-85726189D02*
X141623371Y-85773808D01*
X141623371Y-85773808D02*
X141575752Y-85869046D01*
X141575752Y-85869046D02*
X141575752Y-86011903D01*
X141575752Y-86011903D02*
X141623371Y-86107141D01*
X141623371Y-86107141D02*
X141670990Y-86154760D01*
X141670990Y-86154760D02*
X141766228Y-86202379D01*
X141766228Y-86202379D02*
X142051942Y-86202379D01*
X142051942Y-86202379D02*
X142147180Y-86154760D01*
X142147180Y-86154760D02*
X142194800Y-86107141D01*
X142194800Y-86107141D02*
X142242419Y-86011903D01*
X142242419Y-86011903D02*
X142242419Y-85869046D01*
X141575752Y-87059522D02*
X142242419Y-87059522D01*
X141575752Y-86630951D02*
X142099561Y-86630951D01*
X142099561Y-86630951D02*
X142194800Y-86678570D01*
X142194800Y-86678570D02*
X142242419Y-86773808D01*
X142242419Y-86773808D02*
X142242419Y-86916665D01*
X142242419Y-86916665D02*
X142194800Y-87011903D01*
X142194800Y-87011903D02*
X142147180Y-87059522D01*
X141575752Y-87535713D02*
X142242419Y-87535713D01*
X141670990Y-87535713D02*
X141623371Y-87583332D01*
X141623371Y-87583332D02*
X141575752Y-87678570D01*
X141575752Y-87678570D02*
X141575752Y-87821427D01*
X141575752Y-87821427D02*
X141623371Y-87916665D01*
X141623371Y-87916665D02*
X141718609Y-87964284D01*
X141718609Y-87964284D02*
X142242419Y-87964284D01*
X141575752Y-88297618D02*
X141575752Y-88678570D01*
X141242419Y-88440475D02*
X142099561Y-88440475D01*
X142099561Y-88440475D02*
X142194800Y-88488094D01*
X142194800Y-88488094D02*
X142242419Y-88583332D01*
X142242419Y-88583332D02*
X142242419Y-88678570D01*
X141575752Y-89011904D02*
X142432895Y-89011904D01*
X142432895Y-89011904D02*
X142528133Y-88964285D01*
X142528133Y-88964285D02*
X142575752Y-88869047D01*
X142575752Y-88869047D02*
X142575752Y-88821428D01*
X141242419Y-89011904D02*
X141290038Y-88964285D01*
X141290038Y-88964285D02*
X141337657Y-89011904D01*
X141337657Y-89011904D02*
X141290038Y-89059523D01*
X141290038Y-89059523D02*
X141242419Y-89011904D01*
X141242419Y-89011904D02*
X141337657Y-89011904D01*
X142242419Y-89630951D02*
X142194800Y-89535713D01*
X142194800Y-89535713D02*
X142147180Y-89488094D01*
X142147180Y-89488094D02*
X142051942Y-89440475D01*
X142051942Y-89440475D02*
X141766228Y-89440475D01*
X141766228Y-89440475D02*
X141670990Y-89488094D01*
X141670990Y-89488094D02*
X141623371Y-89535713D01*
X141623371Y-89535713D02*
X141575752Y-89630951D01*
X141575752Y-89630951D02*
X141575752Y-89773808D01*
X141575752Y-89773808D02*
X141623371Y-89869046D01*
X141623371Y-89869046D02*
X141670990Y-89916665D01*
X141670990Y-89916665D02*
X141766228Y-89964284D01*
X141766228Y-89964284D02*
X142051942Y-89964284D01*
X142051942Y-89964284D02*
X142147180Y-89916665D01*
X142147180Y-89916665D02*
X142194800Y-89869046D01*
X142194800Y-89869046D02*
X142242419Y-89773808D01*
X142242419Y-89773808D02*
X142242419Y-89630951D01*
X141575752Y-90297618D02*
X142242419Y-90535713D01*
X141575752Y-90773808D02*
X142242419Y-90535713D01*
X142242419Y-90535713D02*
X142480514Y-90440475D01*
X142480514Y-90440475D02*
X142528133Y-90392856D01*
X142528133Y-90392856D02*
X142575752Y-90297618D01*
X142242419Y-91916666D02*
X141242419Y-91916666D01*
X141242419Y-91916666D02*
X141956704Y-92249999D01*
X141956704Y-92249999D02*
X141242419Y-92583332D01*
X141242419Y-92583332D02*
X142242419Y-92583332D01*
X142242419Y-93202380D02*
X142194800Y-93107142D01*
X142194800Y-93107142D02*
X142147180Y-93059523D01*
X142147180Y-93059523D02*
X142051942Y-93011904D01*
X142051942Y-93011904D02*
X141766228Y-93011904D01*
X141766228Y-93011904D02*
X141670990Y-93059523D01*
X141670990Y-93059523D02*
X141623371Y-93107142D01*
X141623371Y-93107142D02*
X141575752Y-93202380D01*
X141575752Y-93202380D02*
X141575752Y-93345237D01*
X141575752Y-93345237D02*
X141623371Y-93440475D01*
X141623371Y-93440475D02*
X141670990Y-93488094D01*
X141670990Y-93488094D02*
X141766228Y-93535713D01*
X141766228Y-93535713D02*
X142051942Y-93535713D01*
X142051942Y-93535713D02*
X142147180Y-93488094D01*
X142147180Y-93488094D02*
X142194800Y-93440475D01*
X142194800Y-93440475D02*
X142242419Y-93345237D01*
X142242419Y-93345237D02*
X142242419Y-93202380D01*
X142242419Y-94392856D02*
X141242419Y-94392856D01*
X142194800Y-94392856D02*
X142242419Y-94297618D01*
X142242419Y-94297618D02*
X142242419Y-94107142D01*
X142242419Y-94107142D02*
X142194800Y-94011904D01*
X142194800Y-94011904D02*
X142147180Y-93964285D01*
X142147180Y-93964285D02*
X142051942Y-93916666D01*
X142051942Y-93916666D02*
X141766228Y-93916666D01*
X141766228Y-93916666D02*
X141670990Y-93964285D01*
X141670990Y-93964285D02*
X141623371Y-94011904D01*
X141623371Y-94011904D02*
X141575752Y-94107142D01*
X141575752Y-94107142D02*
X141575752Y-94297618D01*
X141575752Y-94297618D02*
X141623371Y-94392856D01*
X141575752Y-95297618D02*
X142242419Y-95297618D01*
X141575752Y-94869047D02*
X142099561Y-94869047D01*
X142099561Y-94869047D02*
X142194800Y-94916666D01*
X142194800Y-94916666D02*
X142242419Y-95011904D01*
X142242419Y-95011904D02*
X142242419Y-95154761D01*
X142242419Y-95154761D02*
X142194800Y-95249999D01*
X142194800Y-95249999D02*
X142147180Y-95297618D01*
X142242419Y-95916666D02*
X142194800Y-95821428D01*
X142194800Y-95821428D02*
X142099561Y-95773809D01*
X142099561Y-95773809D02*
X141242419Y-95773809D01*
X142242419Y-96726190D02*
X141718609Y-96726190D01*
X141718609Y-96726190D02*
X141623371Y-96678571D01*
X141623371Y-96678571D02*
X141575752Y-96583333D01*
X141575752Y-96583333D02*
X141575752Y-96392857D01*
X141575752Y-96392857D02*
X141623371Y-96297619D01*
X142194800Y-96726190D02*
X142242419Y-96630952D01*
X142242419Y-96630952D02*
X142242419Y-96392857D01*
X142242419Y-96392857D02*
X142194800Y-96297619D01*
X142194800Y-96297619D02*
X142099561Y-96250000D01*
X142099561Y-96250000D02*
X142004323Y-96250000D01*
X142004323Y-96250000D02*
X141909085Y-96297619D01*
X141909085Y-96297619D02*
X141861466Y-96392857D01*
X141861466Y-96392857D02*
X141861466Y-96630952D01*
X141861466Y-96630952D02*
X141813847Y-96726190D01*
X142242419Y-97202381D02*
X141575752Y-97202381D01*
X141766228Y-97202381D02*
X141670990Y-97250000D01*
X141670990Y-97250000D02*
X141623371Y-97297619D01*
X141623371Y-97297619D02*
X141575752Y-97392857D01*
X141575752Y-97392857D02*
X141575752Y-97488095D01*
X141337657Y-98535715D02*
X141290038Y-98583334D01*
X141290038Y-98583334D02*
X141242419Y-98678572D01*
X141242419Y-98678572D02*
X141242419Y-98916667D01*
X141242419Y-98916667D02*
X141290038Y-99011905D01*
X141290038Y-99011905D02*
X141337657Y-99059524D01*
X141337657Y-99059524D02*
X141432895Y-99107143D01*
X141432895Y-99107143D02*
X141528133Y-99107143D01*
X141528133Y-99107143D02*
X141670990Y-99059524D01*
X141670990Y-99059524D02*
X142242419Y-98488096D01*
X142242419Y-98488096D02*
X142242419Y-99107143D01*
X141242419Y-99726191D02*
X141242419Y-99821429D01*
X141242419Y-99821429D02*
X141290038Y-99916667D01*
X141290038Y-99916667D02*
X141337657Y-99964286D01*
X141337657Y-99964286D02*
X141432895Y-100011905D01*
X141432895Y-100011905D02*
X141623371Y-100059524D01*
X141623371Y-100059524D02*
X141861466Y-100059524D01*
X141861466Y-100059524D02*
X142051942Y-100011905D01*
X142051942Y-100011905D02*
X142147180Y-99964286D01*
X142147180Y-99964286D02*
X142194800Y-99916667D01*
X142194800Y-99916667D02*
X142242419Y-99821429D01*
X142242419Y-99821429D02*
X142242419Y-99726191D01*
X142242419Y-99726191D02*
X142194800Y-99630953D01*
X142194800Y-99630953D02*
X142147180Y-99583334D01*
X142147180Y-99583334D02*
X142051942Y-99535715D01*
X142051942Y-99535715D02*
X141861466Y-99488096D01*
X141861466Y-99488096D02*
X141623371Y-99488096D01*
X141623371Y-99488096D02*
X141432895Y-99535715D01*
X141432895Y-99535715D02*
X141337657Y-99583334D01*
X141337657Y-99583334D02*
X141290038Y-99630953D01*
X141290038Y-99630953D02*
X141242419Y-99726191D01*
X141337657Y-100440477D02*
X141290038Y-100488096D01*
X141290038Y-100488096D02*
X141242419Y-100583334D01*
X141242419Y-100583334D02*
X141242419Y-100821429D01*
X141242419Y-100821429D02*
X141290038Y-100916667D01*
X141290038Y-100916667D02*
X141337657Y-100964286D01*
X141337657Y-100964286D02*
X141432895Y-101011905D01*
X141432895Y-101011905D02*
X141528133Y-101011905D01*
X141528133Y-101011905D02*
X141670990Y-100964286D01*
X141670990Y-100964286D02*
X142242419Y-100392858D01*
X142242419Y-100392858D02*
X142242419Y-101011905D01*
X141242419Y-101916667D02*
X141242419Y-101440477D01*
X141242419Y-101440477D02*
X141718609Y-101392858D01*
X141718609Y-101392858D02*
X141670990Y-101440477D01*
X141670990Y-101440477D02*
X141623371Y-101535715D01*
X141623371Y-101535715D02*
X141623371Y-101773810D01*
X141623371Y-101773810D02*
X141670990Y-101869048D01*
X141670990Y-101869048D02*
X141718609Y-101916667D01*
X141718609Y-101916667D02*
X141813847Y-101964286D01*
X141813847Y-101964286D02*
X142051942Y-101964286D01*
X142051942Y-101964286D02*
X142147180Y-101916667D01*
X142147180Y-101916667D02*
X142194800Y-101869048D01*
X142194800Y-101869048D02*
X142242419Y-101773810D01*
X142242419Y-101773810D02*
X142242419Y-101535715D01*
X142242419Y-101535715D02*
X142194800Y-101440477D01*
X142194800Y-101440477D02*
X142147180Y-101392858D01*
X143804744Y-85321427D02*
X143852363Y-85464284D01*
X143852363Y-85464284D02*
X143852363Y-85702379D01*
X143852363Y-85702379D02*
X143804744Y-85797617D01*
X143804744Y-85797617D02*
X143757124Y-85845236D01*
X143757124Y-85845236D02*
X143661886Y-85892855D01*
X143661886Y-85892855D02*
X143566648Y-85892855D01*
X143566648Y-85892855D02*
X143471410Y-85845236D01*
X143471410Y-85845236D02*
X143423791Y-85797617D01*
X143423791Y-85797617D02*
X143376172Y-85702379D01*
X143376172Y-85702379D02*
X143328553Y-85511903D01*
X143328553Y-85511903D02*
X143280934Y-85416665D01*
X143280934Y-85416665D02*
X143233315Y-85369046D01*
X143233315Y-85369046D02*
X143138077Y-85321427D01*
X143138077Y-85321427D02*
X143042839Y-85321427D01*
X143042839Y-85321427D02*
X142947601Y-85369046D01*
X142947601Y-85369046D02*
X142899982Y-85416665D01*
X142899982Y-85416665D02*
X142852363Y-85511903D01*
X142852363Y-85511903D02*
X142852363Y-85749998D01*
X142852363Y-85749998D02*
X142899982Y-85892855D01*
X143185696Y-86321427D02*
X144185696Y-86321427D01*
X143233315Y-86321427D02*
X143185696Y-86416665D01*
X143185696Y-86416665D02*
X143185696Y-86607141D01*
X143185696Y-86607141D02*
X143233315Y-86702379D01*
X143233315Y-86702379D02*
X143280934Y-86749998D01*
X143280934Y-86749998D02*
X143376172Y-86797617D01*
X143376172Y-86797617D02*
X143661886Y-86797617D01*
X143661886Y-86797617D02*
X143757124Y-86749998D01*
X143757124Y-86749998D02*
X143804744Y-86702379D01*
X143804744Y-86702379D02*
X143852363Y-86607141D01*
X143852363Y-86607141D02*
X143852363Y-86416665D01*
X143852363Y-86416665D02*
X143804744Y-86321427D01*
X143804744Y-87607141D02*
X143852363Y-87511903D01*
X143852363Y-87511903D02*
X143852363Y-87321427D01*
X143852363Y-87321427D02*
X143804744Y-87226189D01*
X143804744Y-87226189D02*
X143709505Y-87178570D01*
X143709505Y-87178570D02*
X143328553Y-87178570D01*
X143328553Y-87178570D02*
X143233315Y-87226189D01*
X143233315Y-87226189D02*
X143185696Y-87321427D01*
X143185696Y-87321427D02*
X143185696Y-87511903D01*
X143185696Y-87511903D02*
X143233315Y-87607141D01*
X143233315Y-87607141D02*
X143328553Y-87654760D01*
X143328553Y-87654760D02*
X143423791Y-87654760D01*
X143423791Y-87654760D02*
X143519029Y-87178570D01*
X143804744Y-88511903D02*
X143852363Y-88416665D01*
X143852363Y-88416665D02*
X143852363Y-88226189D01*
X143852363Y-88226189D02*
X143804744Y-88130951D01*
X143804744Y-88130951D02*
X143757124Y-88083332D01*
X143757124Y-88083332D02*
X143661886Y-88035713D01*
X143661886Y-88035713D02*
X143376172Y-88035713D01*
X143376172Y-88035713D02*
X143280934Y-88083332D01*
X143280934Y-88083332D02*
X143233315Y-88130951D01*
X143233315Y-88130951D02*
X143185696Y-88226189D01*
X143185696Y-88226189D02*
X143185696Y-88416665D01*
X143185696Y-88416665D02*
X143233315Y-88511903D01*
X143185696Y-88797618D02*
X143185696Y-89178570D01*
X142852363Y-88940475D02*
X143709505Y-88940475D01*
X143709505Y-88940475D02*
X143804744Y-88988094D01*
X143804744Y-88988094D02*
X143852363Y-89083332D01*
X143852363Y-89083332D02*
X143852363Y-89178570D01*
X143852363Y-89511904D02*
X143185696Y-89511904D01*
X143376172Y-89511904D02*
X143280934Y-89559523D01*
X143280934Y-89559523D02*
X143233315Y-89607142D01*
X143233315Y-89607142D02*
X143185696Y-89702380D01*
X143185696Y-89702380D02*
X143185696Y-89797618D01*
X143852363Y-90559523D02*
X143328553Y-90559523D01*
X143328553Y-90559523D02*
X143233315Y-90511904D01*
X143233315Y-90511904D02*
X143185696Y-90416666D01*
X143185696Y-90416666D02*
X143185696Y-90226190D01*
X143185696Y-90226190D02*
X143233315Y-90130952D01*
X143804744Y-90559523D02*
X143852363Y-90464285D01*
X143852363Y-90464285D02*
X143852363Y-90226190D01*
X143852363Y-90226190D02*
X143804744Y-90130952D01*
X143804744Y-90130952D02*
X143709505Y-90083333D01*
X143709505Y-90083333D02*
X143614267Y-90083333D01*
X143614267Y-90083333D02*
X143519029Y-90130952D01*
X143519029Y-90130952D02*
X143471410Y-90226190D01*
X143471410Y-90226190D02*
X143471410Y-90464285D01*
X143471410Y-90464285D02*
X143423791Y-90559523D01*
X143852363Y-91178571D02*
X143804744Y-91083333D01*
X143804744Y-91083333D02*
X143709505Y-91035714D01*
X143709505Y-91035714D02*
X142852363Y-91035714D01*
X143852363Y-91559524D02*
X143185696Y-91559524D01*
X142852363Y-91559524D02*
X142899982Y-91511905D01*
X142899982Y-91511905D02*
X142947601Y-91559524D01*
X142947601Y-91559524D02*
X142899982Y-91607143D01*
X142899982Y-91607143D02*
X142852363Y-91559524D01*
X142852363Y-91559524D02*
X142947601Y-91559524D01*
X143804744Y-91988095D02*
X143852363Y-92083333D01*
X143852363Y-92083333D02*
X143852363Y-92273809D01*
X143852363Y-92273809D02*
X143804744Y-92369047D01*
X143804744Y-92369047D02*
X143709505Y-92416666D01*
X143709505Y-92416666D02*
X143661886Y-92416666D01*
X143661886Y-92416666D02*
X143566648Y-92369047D01*
X143566648Y-92369047D02*
X143519029Y-92273809D01*
X143519029Y-92273809D02*
X143519029Y-92130952D01*
X143519029Y-92130952D02*
X143471410Y-92035714D01*
X143471410Y-92035714D02*
X143376172Y-91988095D01*
X143376172Y-91988095D02*
X143328553Y-91988095D01*
X143328553Y-91988095D02*
X143233315Y-92035714D01*
X143233315Y-92035714D02*
X143185696Y-92130952D01*
X143185696Y-92130952D02*
X143185696Y-92273809D01*
X143185696Y-92273809D02*
X143233315Y-92369047D01*
X143185696Y-92702381D02*
X143185696Y-93083333D01*
X142852363Y-92845238D02*
X143709505Y-92845238D01*
X143709505Y-92845238D02*
X143804744Y-92892857D01*
X143804744Y-92892857D02*
X143852363Y-92988095D01*
X143852363Y-92988095D02*
X143852363Y-93083333D01*
X143852363Y-94654762D02*
X143852363Y-94178572D01*
X143852363Y-94178572D02*
X142852363Y-94178572D01*
X143328553Y-94988096D02*
X143328553Y-95321429D01*
X143852363Y-95464286D02*
X143852363Y-94988096D01*
X143852363Y-94988096D02*
X142852363Y-94988096D01*
X142852363Y-94988096D02*
X142852363Y-95464286D01*
X143852363Y-95892858D02*
X142852363Y-95892858D01*
X142852363Y-95892858D02*
X142852363Y-96130953D01*
X142852363Y-96130953D02*
X142899982Y-96273810D01*
X142899982Y-96273810D02*
X142995220Y-96369048D01*
X142995220Y-96369048D02*
X143090458Y-96416667D01*
X143090458Y-96416667D02*
X143280934Y-96464286D01*
X143280934Y-96464286D02*
X143423791Y-96464286D01*
X143423791Y-96464286D02*
X143614267Y-96416667D01*
X143614267Y-96416667D02*
X143709505Y-96369048D01*
X143709505Y-96369048D02*
X143804744Y-96273810D01*
X143804744Y-96273810D02*
X143852363Y-96130953D01*
X143852363Y-96130953D02*
X143852363Y-95892858D01*
X143804744Y-96845239D02*
X143852363Y-96940477D01*
X143852363Y-96940477D02*
X143852363Y-97130953D01*
X143852363Y-97130953D02*
X143804744Y-97226191D01*
X143804744Y-97226191D02*
X143709505Y-97273810D01*
X143709505Y-97273810D02*
X143661886Y-97273810D01*
X143661886Y-97273810D02*
X143566648Y-97226191D01*
X143566648Y-97226191D02*
X143519029Y-97130953D01*
X143519029Y-97130953D02*
X143519029Y-96988096D01*
X143519029Y-96988096D02*
X143471410Y-96892858D01*
X143471410Y-96892858D02*
X143376172Y-96845239D01*
X143376172Y-96845239D02*
X143328553Y-96845239D01*
X143328553Y-96845239D02*
X143233315Y-96892858D01*
X143233315Y-96892858D02*
X143185696Y-96988096D01*
X143185696Y-96988096D02*
X143185696Y-97130953D01*
X143185696Y-97130953D02*
X143233315Y-97226191D01*
X143185696Y-98369049D02*
X143852363Y-98607144D01*
X143852363Y-98607144D02*
X143185696Y-98845239D01*
X143852363Y-99750001D02*
X143852363Y-99178573D01*
X143852363Y-99464287D02*
X142852363Y-99464287D01*
X142852363Y-99464287D02*
X142995220Y-99369049D01*
X142995220Y-99369049D02*
X143090458Y-99273811D01*
X143090458Y-99273811D02*
X143138077Y-99178573D01*
X143757124Y-100178573D02*
X143804744Y-100226192D01*
X143804744Y-100226192D02*
X143852363Y-100178573D01*
X143852363Y-100178573D02*
X143804744Y-100130954D01*
X143804744Y-100130954D02*
X143757124Y-100178573D01*
X143757124Y-100178573D02*
X143852363Y-100178573D01*
X142852363Y-100845239D02*
X142852363Y-100940477D01*
X142852363Y-100940477D02*
X142899982Y-101035715D01*
X142899982Y-101035715D02*
X142947601Y-101083334D01*
X142947601Y-101083334D02*
X143042839Y-101130953D01*
X143042839Y-101130953D02*
X143233315Y-101178572D01*
X143233315Y-101178572D02*
X143471410Y-101178572D01*
X143471410Y-101178572D02*
X143661886Y-101130953D01*
X143661886Y-101130953D02*
X143757124Y-101083334D01*
X143757124Y-101083334D02*
X143804744Y-101035715D01*
X143804744Y-101035715D02*
X143852363Y-100940477D01*
X143852363Y-100940477D02*
X143852363Y-100845239D01*
X143852363Y-100845239D02*
X143804744Y-100750001D01*
X143804744Y-100750001D02*
X143757124Y-100702382D01*
X143757124Y-100702382D02*
X143661886Y-100654763D01*
X143661886Y-100654763D02*
X143471410Y-100607144D01*
X143471410Y-100607144D02*
X143233315Y-100607144D01*
X143233315Y-100607144D02*
X143042839Y-100654763D01*
X143042839Y-100654763D02*
X142947601Y-100702382D01*
X142947601Y-100702382D02*
X142899982Y-100750001D01*
X142899982Y-100750001D02*
X142852363Y-100845239D01*
X140450000Y-83100000D02*
X144750000Y-83100000D01*
X144750000Y-103400000D01*
X140450000Y-103400000D01*
X140450000Y-83100000D01*
D11*
%TO.C,J3*%
X146170000Y-111270000D02*
X148830000Y-111270000D01*
X146170000Y-113870000D02*
X146170000Y-111270000D01*
X146170000Y-113870000D02*
X148830000Y-113870000D01*
X147500000Y-108670000D02*
X148830000Y-108670000D01*
X148830000Y-108670000D02*
X148830000Y-110000000D01*
X148830000Y-113870000D02*
X148830000Y-111270000D01*
%TO.C,J2*%
X111070000Y-111270000D02*
X113730000Y-111270000D01*
X111070000Y-113870000D02*
X111070000Y-111270000D01*
X111070000Y-113870000D02*
X113730000Y-113870000D01*
X112400000Y-108670000D02*
X113730000Y-108670000D01*
X113730000Y-108670000D02*
X113730000Y-110000000D01*
X113730000Y-113870000D02*
X113730000Y-111270000D01*
%TO.C,J1*%
X126115000Y-83170000D02*
X126115000Y-85830000D01*
X126115000Y-83170000D02*
X131255000Y-83170000D01*
X126115000Y-85830000D02*
X131255000Y-85830000D01*
X131255000Y-83170000D02*
X131255000Y-85830000D01*
X133855000Y-84500000D02*
X133855000Y-85830000D01*
X133855000Y-85830000D02*
X132525000Y-85830000D01*
%TD*%
M02*
