%TF.GenerationSoftware,KiCad,Pcbnew,8.0.7*%
%TF.CreationDate,2025-01-17T12:44:41+00:00*%
%TF.ProjectId,Spectralist_Controls,53706563-7472-4616-9c69-73745f436f6e,rev?*%
%TF.SameCoordinates,Original*%
%TF.FileFunction,Legend,Bot*%
%TF.FilePolarity,Positive*%
%FSLAX46Y46*%
G04 Gerber Fmt 4.6, Leading zero omitted, Abs format (unit mm)*
G04 Created by KiCad (PCBNEW 8.0.7) date 2025-01-17 12:44:41*
%MOMM*%
%LPD*%
G01*
G04 APERTURE LIST*
%ADD10C,0.150000*%
%ADD11C,0.200000*%
%ADD12C,0.120000*%
G04 APERTURE END LIST*
D10*
X114900000Y-50800000D02*
X145100000Y-50800000D01*
X145100000Y-56800000D01*
X114900000Y-56800000D01*
X114900000Y-50800000D01*
D11*
X142799999Y-53176070D02*
X142799999Y-51676070D01*
X142799999Y-51676070D02*
X142299999Y-52747499D01*
X142299999Y-52747499D02*
X141799999Y-51676070D01*
X141799999Y-51676070D02*
X141799999Y-53176070D01*
X140871427Y-53176070D02*
X141014284Y-53104642D01*
X141014284Y-53104642D02*
X141085713Y-53033213D01*
X141085713Y-53033213D02*
X141157141Y-52890356D01*
X141157141Y-52890356D02*
X141157141Y-52461784D01*
X141157141Y-52461784D02*
X141085713Y-52318927D01*
X141085713Y-52318927D02*
X141014284Y-52247499D01*
X141014284Y-52247499D02*
X140871427Y-52176070D01*
X140871427Y-52176070D02*
X140657141Y-52176070D01*
X140657141Y-52176070D02*
X140514284Y-52247499D01*
X140514284Y-52247499D02*
X140442856Y-52318927D01*
X140442856Y-52318927D02*
X140371427Y-52461784D01*
X140371427Y-52461784D02*
X140371427Y-52890356D01*
X140371427Y-52890356D02*
X140442856Y-53033213D01*
X140442856Y-53033213D02*
X140514284Y-53104642D01*
X140514284Y-53104642D02*
X140657141Y-53176070D01*
X140657141Y-53176070D02*
X140871427Y-53176070D01*
X139085713Y-52176070D02*
X139085713Y-53176070D01*
X139728570Y-52176070D02*
X139728570Y-52961784D01*
X139728570Y-52961784D02*
X139657141Y-53104642D01*
X139657141Y-53104642D02*
X139514284Y-53176070D01*
X139514284Y-53176070D02*
X139299998Y-53176070D01*
X139299998Y-53176070D02*
X139157141Y-53104642D01*
X139157141Y-53104642D02*
X139085713Y-53033213D01*
X138371427Y-52176070D02*
X138371427Y-53176070D01*
X138371427Y-52318927D02*
X138299998Y-52247499D01*
X138299998Y-52247499D02*
X138157141Y-52176070D01*
X138157141Y-52176070D02*
X137942855Y-52176070D01*
X137942855Y-52176070D02*
X137799998Y-52247499D01*
X137799998Y-52247499D02*
X137728570Y-52390356D01*
X137728570Y-52390356D02*
X137728570Y-53176070D01*
X137228569Y-52176070D02*
X136657141Y-52176070D01*
X137014284Y-51676070D02*
X137014284Y-52961784D01*
X137014284Y-52961784D02*
X136942855Y-53104642D01*
X136942855Y-53104642D02*
X136799998Y-53176070D01*
X136799998Y-53176070D02*
X136657141Y-53176070D01*
X136157141Y-52176070D02*
X136157141Y-53461784D01*
X136157141Y-53461784D02*
X136228569Y-53604642D01*
X136228569Y-53604642D02*
X136371426Y-53676070D01*
X136371426Y-53676070D02*
X136442855Y-53676070D01*
X136157141Y-51676070D02*
X136228569Y-51747499D01*
X136228569Y-51747499D02*
X136157141Y-51818927D01*
X136157141Y-51818927D02*
X136085712Y-51747499D01*
X136085712Y-51747499D02*
X136157141Y-51676070D01*
X136157141Y-51676070D02*
X136157141Y-51818927D01*
X135228569Y-53176070D02*
X135371426Y-53104642D01*
X135371426Y-53104642D02*
X135442855Y-53033213D01*
X135442855Y-53033213D02*
X135514283Y-52890356D01*
X135514283Y-52890356D02*
X135514283Y-52461784D01*
X135514283Y-52461784D02*
X135442855Y-52318927D01*
X135442855Y-52318927D02*
X135371426Y-52247499D01*
X135371426Y-52247499D02*
X135228569Y-52176070D01*
X135228569Y-52176070D02*
X135014283Y-52176070D01*
X135014283Y-52176070D02*
X134871426Y-52247499D01*
X134871426Y-52247499D02*
X134799998Y-52318927D01*
X134799998Y-52318927D02*
X134728569Y-52461784D01*
X134728569Y-52461784D02*
X134728569Y-52890356D01*
X134728569Y-52890356D02*
X134799998Y-53033213D01*
X134799998Y-53033213D02*
X134871426Y-53104642D01*
X134871426Y-53104642D02*
X135014283Y-53176070D01*
X135014283Y-53176070D02*
X135228569Y-53176070D01*
X134228569Y-52176070D02*
X133871426Y-53176070D01*
X133514283Y-52176070D02*
X133871426Y-53176070D01*
X133871426Y-53176070D02*
X134014283Y-53533213D01*
X134014283Y-53533213D02*
X134085712Y-53604642D01*
X134085712Y-53604642D02*
X134228569Y-53676070D01*
X131799998Y-53176070D02*
X131799998Y-51676070D01*
X131799998Y-51676070D02*
X131299998Y-52747499D01*
X131299998Y-52747499D02*
X130799998Y-51676070D01*
X130799998Y-51676070D02*
X130799998Y-53176070D01*
X129871426Y-53176070D02*
X130014283Y-53104642D01*
X130014283Y-53104642D02*
X130085712Y-53033213D01*
X130085712Y-53033213D02*
X130157140Y-52890356D01*
X130157140Y-52890356D02*
X130157140Y-52461784D01*
X130157140Y-52461784D02*
X130085712Y-52318927D01*
X130085712Y-52318927D02*
X130014283Y-52247499D01*
X130014283Y-52247499D02*
X129871426Y-52176070D01*
X129871426Y-52176070D02*
X129657140Y-52176070D01*
X129657140Y-52176070D02*
X129514283Y-52247499D01*
X129514283Y-52247499D02*
X129442855Y-52318927D01*
X129442855Y-52318927D02*
X129371426Y-52461784D01*
X129371426Y-52461784D02*
X129371426Y-52890356D01*
X129371426Y-52890356D02*
X129442855Y-53033213D01*
X129442855Y-53033213D02*
X129514283Y-53104642D01*
X129514283Y-53104642D02*
X129657140Y-53176070D01*
X129657140Y-53176070D02*
X129871426Y-53176070D01*
X128085712Y-53176070D02*
X128085712Y-51676070D01*
X128085712Y-53104642D02*
X128228569Y-53176070D01*
X128228569Y-53176070D02*
X128514283Y-53176070D01*
X128514283Y-53176070D02*
X128657140Y-53104642D01*
X128657140Y-53104642D02*
X128728569Y-53033213D01*
X128728569Y-53033213D02*
X128799997Y-52890356D01*
X128799997Y-52890356D02*
X128799997Y-52461784D01*
X128799997Y-52461784D02*
X128728569Y-52318927D01*
X128728569Y-52318927D02*
X128657140Y-52247499D01*
X128657140Y-52247499D02*
X128514283Y-52176070D01*
X128514283Y-52176070D02*
X128228569Y-52176070D01*
X128228569Y-52176070D02*
X128085712Y-52247499D01*
X126728569Y-52176070D02*
X126728569Y-53176070D01*
X127371426Y-52176070D02*
X127371426Y-52961784D01*
X127371426Y-52961784D02*
X127299997Y-53104642D01*
X127299997Y-53104642D02*
X127157140Y-53176070D01*
X127157140Y-53176070D02*
X126942854Y-53176070D01*
X126942854Y-53176070D02*
X126799997Y-53104642D01*
X126799997Y-53104642D02*
X126728569Y-53033213D01*
X125799997Y-53176070D02*
X125942854Y-53104642D01*
X125942854Y-53104642D02*
X126014283Y-52961784D01*
X126014283Y-52961784D02*
X126014283Y-51676070D01*
X124585712Y-53176070D02*
X124585712Y-52390356D01*
X124585712Y-52390356D02*
X124657140Y-52247499D01*
X124657140Y-52247499D02*
X124799997Y-52176070D01*
X124799997Y-52176070D02*
X125085712Y-52176070D01*
X125085712Y-52176070D02*
X125228569Y-52247499D01*
X124585712Y-53104642D02*
X124728569Y-53176070D01*
X124728569Y-53176070D02*
X125085712Y-53176070D01*
X125085712Y-53176070D02*
X125228569Y-53104642D01*
X125228569Y-53104642D02*
X125299997Y-52961784D01*
X125299997Y-52961784D02*
X125299997Y-52818927D01*
X125299997Y-52818927D02*
X125228569Y-52676070D01*
X125228569Y-52676070D02*
X125085712Y-52604642D01*
X125085712Y-52604642D02*
X124728569Y-52604642D01*
X124728569Y-52604642D02*
X124585712Y-52533213D01*
X123871426Y-53176070D02*
X123871426Y-52176070D01*
X123871426Y-52461784D02*
X123799997Y-52318927D01*
X123799997Y-52318927D02*
X123728569Y-52247499D01*
X123728569Y-52247499D02*
X123585711Y-52176070D01*
X123585711Y-52176070D02*
X123442854Y-52176070D01*
X121871426Y-51818927D02*
X121799998Y-51747499D01*
X121799998Y-51747499D02*
X121657141Y-51676070D01*
X121657141Y-51676070D02*
X121299998Y-51676070D01*
X121299998Y-51676070D02*
X121157141Y-51747499D01*
X121157141Y-51747499D02*
X121085712Y-51818927D01*
X121085712Y-51818927D02*
X121014283Y-51961784D01*
X121014283Y-51961784D02*
X121014283Y-52104642D01*
X121014283Y-52104642D02*
X121085712Y-52318927D01*
X121085712Y-52318927D02*
X121942855Y-53176070D01*
X121942855Y-53176070D02*
X121014283Y-53176070D01*
X120085712Y-51676070D02*
X119942855Y-51676070D01*
X119942855Y-51676070D02*
X119799998Y-51747499D01*
X119799998Y-51747499D02*
X119728570Y-51818927D01*
X119728570Y-51818927D02*
X119657141Y-51961784D01*
X119657141Y-51961784D02*
X119585712Y-52247499D01*
X119585712Y-52247499D02*
X119585712Y-52604642D01*
X119585712Y-52604642D02*
X119657141Y-52890356D01*
X119657141Y-52890356D02*
X119728570Y-53033213D01*
X119728570Y-53033213D02*
X119799998Y-53104642D01*
X119799998Y-53104642D02*
X119942855Y-53176070D01*
X119942855Y-53176070D02*
X120085712Y-53176070D01*
X120085712Y-53176070D02*
X120228570Y-53104642D01*
X120228570Y-53104642D02*
X120299998Y-53033213D01*
X120299998Y-53033213D02*
X120371427Y-52890356D01*
X120371427Y-52890356D02*
X120442855Y-52604642D01*
X120442855Y-52604642D02*
X120442855Y-52247499D01*
X120442855Y-52247499D02*
X120371427Y-51961784D01*
X120371427Y-51961784D02*
X120299998Y-51818927D01*
X120299998Y-51818927D02*
X120228570Y-51747499D01*
X120228570Y-51747499D02*
X120085712Y-51676070D01*
X119014284Y-51818927D02*
X118942856Y-51747499D01*
X118942856Y-51747499D02*
X118799999Y-51676070D01*
X118799999Y-51676070D02*
X118442856Y-51676070D01*
X118442856Y-51676070D02*
X118299999Y-51747499D01*
X118299999Y-51747499D02*
X118228570Y-51818927D01*
X118228570Y-51818927D02*
X118157141Y-51961784D01*
X118157141Y-51961784D02*
X118157141Y-52104642D01*
X118157141Y-52104642D02*
X118228570Y-52318927D01*
X118228570Y-52318927D02*
X119085713Y-53176070D01*
X119085713Y-53176070D02*
X118157141Y-53176070D01*
X116799999Y-51676070D02*
X117514285Y-51676070D01*
X117514285Y-51676070D02*
X117585713Y-52390356D01*
X117585713Y-52390356D02*
X117514285Y-52318927D01*
X117514285Y-52318927D02*
X117371428Y-52247499D01*
X117371428Y-52247499D02*
X117014285Y-52247499D01*
X117014285Y-52247499D02*
X116871428Y-52318927D01*
X116871428Y-52318927D02*
X116799999Y-52390356D01*
X116799999Y-52390356D02*
X116728570Y-52533213D01*
X116728570Y-52533213D02*
X116728570Y-52890356D01*
X116728570Y-52890356D02*
X116799999Y-53033213D01*
X116799999Y-53033213D02*
X116871428Y-53104642D01*
X116871428Y-53104642D02*
X117014285Y-53176070D01*
X117014285Y-53176070D02*
X117371428Y-53176070D01*
X117371428Y-53176070D02*
X117514285Y-53104642D01*
X117514285Y-53104642D02*
X117585713Y-53033213D01*
X143728570Y-55519558D02*
X143514285Y-55590986D01*
X143514285Y-55590986D02*
X143157142Y-55590986D01*
X143157142Y-55590986D02*
X143014285Y-55519558D01*
X143014285Y-55519558D02*
X142942856Y-55448129D01*
X142942856Y-55448129D02*
X142871427Y-55305272D01*
X142871427Y-55305272D02*
X142871427Y-55162415D01*
X142871427Y-55162415D02*
X142942856Y-55019558D01*
X142942856Y-55019558D02*
X143014285Y-54948129D01*
X143014285Y-54948129D02*
X143157142Y-54876700D01*
X143157142Y-54876700D02*
X143442856Y-54805272D01*
X143442856Y-54805272D02*
X143585713Y-54733843D01*
X143585713Y-54733843D02*
X143657142Y-54662415D01*
X143657142Y-54662415D02*
X143728570Y-54519558D01*
X143728570Y-54519558D02*
X143728570Y-54376700D01*
X143728570Y-54376700D02*
X143657142Y-54233843D01*
X143657142Y-54233843D02*
X143585713Y-54162415D01*
X143585713Y-54162415D02*
X143442856Y-54090986D01*
X143442856Y-54090986D02*
X143085713Y-54090986D01*
X143085713Y-54090986D02*
X142871427Y-54162415D01*
X142228571Y-54590986D02*
X142228571Y-56090986D01*
X142228571Y-54662415D02*
X142085714Y-54590986D01*
X142085714Y-54590986D02*
X141799999Y-54590986D01*
X141799999Y-54590986D02*
X141657142Y-54662415D01*
X141657142Y-54662415D02*
X141585714Y-54733843D01*
X141585714Y-54733843D02*
X141514285Y-54876700D01*
X141514285Y-54876700D02*
X141514285Y-55305272D01*
X141514285Y-55305272D02*
X141585714Y-55448129D01*
X141585714Y-55448129D02*
X141657142Y-55519558D01*
X141657142Y-55519558D02*
X141799999Y-55590986D01*
X141799999Y-55590986D02*
X142085714Y-55590986D01*
X142085714Y-55590986D02*
X142228571Y-55519558D01*
X140299999Y-55519558D02*
X140442856Y-55590986D01*
X140442856Y-55590986D02*
X140728571Y-55590986D01*
X140728571Y-55590986D02*
X140871428Y-55519558D01*
X140871428Y-55519558D02*
X140942856Y-55376700D01*
X140942856Y-55376700D02*
X140942856Y-54805272D01*
X140942856Y-54805272D02*
X140871428Y-54662415D01*
X140871428Y-54662415D02*
X140728571Y-54590986D01*
X140728571Y-54590986D02*
X140442856Y-54590986D01*
X140442856Y-54590986D02*
X140299999Y-54662415D01*
X140299999Y-54662415D02*
X140228571Y-54805272D01*
X140228571Y-54805272D02*
X140228571Y-54948129D01*
X140228571Y-54948129D02*
X140942856Y-55090986D01*
X138942857Y-55519558D02*
X139085714Y-55590986D01*
X139085714Y-55590986D02*
X139371428Y-55590986D01*
X139371428Y-55590986D02*
X139514285Y-55519558D01*
X139514285Y-55519558D02*
X139585714Y-55448129D01*
X139585714Y-55448129D02*
X139657142Y-55305272D01*
X139657142Y-55305272D02*
X139657142Y-54876700D01*
X139657142Y-54876700D02*
X139585714Y-54733843D01*
X139585714Y-54733843D02*
X139514285Y-54662415D01*
X139514285Y-54662415D02*
X139371428Y-54590986D01*
X139371428Y-54590986D02*
X139085714Y-54590986D01*
X139085714Y-54590986D02*
X138942857Y-54662415D01*
X138514285Y-54590986D02*
X137942857Y-54590986D01*
X138300000Y-54090986D02*
X138300000Y-55376700D01*
X138300000Y-55376700D02*
X138228571Y-55519558D01*
X138228571Y-55519558D02*
X138085714Y-55590986D01*
X138085714Y-55590986D02*
X137942857Y-55590986D01*
X137442857Y-55590986D02*
X137442857Y-54590986D01*
X137442857Y-54876700D02*
X137371428Y-54733843D01*
X137371428Y-54733843D02*
X137300000Y-54662415D01*
X137300000Y-54662415D02*
X137157142Y-54590986D01*
X137157142Y-54590986D02*
X137014285Y-54590986D01*
X135871429Y-55590986D02*
X135871429Y-54805272D01*
X135871429Y-54805272D02*
X135942857Y-54662415D01*
X135942857Y-54662415D02*
X136085714Y-54590986D01*
X136085714Y-54590986D02*
X136371429Y-54590986D01*
X136371429Y-54590986D02*
X136514286Y-54662415D01*
X135871429Y-55519558D02*
X136014286Y-55590986D01*
X136014286Y-55590986D02*
X136371429Y-55590986D01*
X136371429Y-55590986D02*
X136514286Y-55519558D01*
X136514286Y-55519558D02*
X136585714Y-55376700D01*
X136585714Y-55376700D02*
X136585714Y-55233843D01*
X136585714Y-55233843D02*
X136514286Y-55090986D01*
X136514286Y-55090986D02*
X136371429Y-55019558D01*
X136371429Y-55019558D02*
X136014286Y-55019558D01*
X136014286Y-55019558D02*
X135871429Y-54948129D01*
X134942857Y-55590986D02*
X135085714Y-55519558D01*
X135085714Y-55519558D02*
X135157143Y-55376700D01*
X135157143Y-55376700D02*
X135157143Y-54090986D01*
X134371429Y-55590986D02*
X134371429Y-54590986D01*
X134371429Y-54090986D02*
X134442857Y-54162415D01*
X134442857Y-54162415D02*
X134371429Y-54233843D01*
X134371429Y-54233843D02*
X134300000Y-54162415D01*
X134300000Y-54162415D02*
X134371429Y-54090986D01*
X134371429Y-54090986D02*
X134371429Y-54233843D01*
X133728571Y-55519558D02*
X133585714Y-55590986D01*
X133585714Y-55590986D02*
X133300000Y-55590986D01*
X133300000Y-55590986D02*
X133157143Y-55519558D01*
X133157143Y-55519558D02*
X133085714Y-55376700D01*
X133085714Y-55376700D02*
X133085714Y-55305272D01*
X133085714Y-55305272D02*
X133157143Y-55162415D01*
X133157143Y-55162415D02*
X133300000Y-55090986D01*
X133300000Y-55090986D02*
X133514286Y-55090986D01*
X133514286Y-55090986D02*
X133657143Y-55019558D01*
X133657143Y-55019558D02*
X133728571Y-54876700D01*
X133728571Y-54876700D02*
X133728571Y-54805272D01*
X133728571Y-54805272D02*
X133657143Y-54662415D01*
X133657143Y-54662415D02*
X133514286Y-54590986D01*
X133514286Y-54590986D02*
X133300000Y-54590986D01*
X133300000Y-54590986D02*
X133157143Y-54662415D01*
X132657142Y-54590986D02*
X132085714Y-54590986D01*
X132442857Y-54090986D02*
X132442857Y-55376700D01*
X132442857Y-55376700D02*
X132371428Y-55519558D01*
X132371428Y-55519558D02*
X132228571Y-55590986D01*
X132228571Y-55590986D02*
X132085714Y-55590986D01*
X129585714Y-55448129D02*
X129657142Y-55519558D01*
X129657142Y-55519558D02*
X129871428Y-55590986D01*
X129871428Y-55590986D02*
X130014285Y-55590986D01*
X130014285Y-55590986D02*
X130228571Y-55519558D01*
X130228571Y-55519558D02*
X130371428Y-55376700D01*
X130371428Y-55376700D02*
X130442857Y-55233843D01*
X130442857Y-55233843D02*
X130514285Y-54948129D01*
X130514285Y-54948129D02*
X130514285Y-54733843D01*
X130514285Y-54733843D02*
X130442857Y-54448129D01*
X130442857Y-54448129D02*
X130371428Y-54305272D01*
X130371428Y-54305272D02*
X130228571Y-54162415D01*
X130228571Y-54162415D02*
X130014285Y-54090986D01*
X130014285Y-54090986D02*
X129871428Y-54090986D01*
X129871428Y-54090986D02*
X129657142Y-54162415D01*
X129657142Y-54162415D02*
X129585714Y-54233843D01*
X128728571Y-55590986D02*
X128871428Y-55519558D01*
X128871428Y-55519558D02*
X128942857Y-55448129D01*
X128942857Y-55448129D02*
X129014285Y-55305272D01*
X129014285Y-55305272D02*
X129014285Y-54876700D01*
X129014285Y-54876700D02*
X128942857Y-54733843D01*
X128942857Y-54733843D02*
X128871428Y-54662415D01*
X128871428Y-54662415D02*
X128728571Y-54590986D01*
X128728571Y-54590986D02*
X128514285Y-54590986D01*
X128514285Y-54590986D02*
X128371428Y-54662415D01*
X128371428Y-54662415D02*
X128300000Y-54733843D01*
X128300000Y-54733843D02*
X128228571Y-54876700D01*
X128228571Y-54876700D02*
X128228571Y-55305272D01*
X128228571Y-55305272D02*
X128300000Y-55448129D01*
X128300000Y-55448129D02*
X128371428Y-55519558D01*
X128371428Y-55519558D02*
X128514285Y-55590986D01*
X128514285Y-55590986D02*
X128728571Y-55590986D01*
X127585714Y-54590986D02*
X127585714Y-55590986D01*
X127585714Y-54733843D02*
X127514285Y-54662415D01*
X127514285Y-54662415D02*
X127371428Y-54590986D01*
X127371428Y-54590986D02*
X127157142Y-54590986D01*
X127157142Y-54590986D02*
X127014285Y-54662415D01*
X127014285Y-54662415D02*
X126942857Y-54805272D01*
X126942857Y-54805272D02*
X126942857Y-55590986D01*
X126442856Y-54590986D02*
X125871428Y-54590986D01*
X126228571Y-54090986D02*
X126228571Y-55376700D01*
X126228571Y-55376700D02*
X126157142Y-55519558D01*
X126157142Y-55519558D02*
X126014285Y-55590986D01*
X126014285Y-55590986D02*
X125871428Y-55590986D01*
X125371428Y-55590986D02*
X125371428Y-54590986D01*
X125371428Y-54876700D02*
X125299999Y-54733843D01*
X125299999Y-54733843D02*
X125228571Y-54662415D01*
X125228571Y-54662415D02*
X125085713Y-54590986D01*
X125085713Y-54590986D02*
X124942856Y-54590986D01*
X124228571Y-55590986D02*
X124371428Y-55519558D01*
X124371428Y-55519558D02*
X124442857Y-55448129D01*
X124442857Y-55448129D02*
X124514285Y-55305272D01*
X124514285Y-55305272D02*
X124514285Y-54876700D01*
X124514285Y-54876700D02*
X124442857Y-54733843D01*
X124442857Y-54733843D02*
X124371428Y-54662415D01*
X124371428Y-54662415D02*
X124228571Y-54590986D01*
X124228571Y-54590986D02*
X124014285Y-54590986D01*
X124014285Y-54590986D02*
X123871428Y-54662415D01*
X123871428Y-54662415D02*
X123800000Y-54733843D01*
X123800000Y-54733843D02*
X123728571Y-54876700D01*
X123728571Y-54876700D02*
X123728571Y-55305272D01*
X123728571Y-55305272D02*
X123800000Y-55448129D01*
X123800000Y-55448129D02*
X123871428Y-55519558D01*
X123871428Y-55519558D02*
X124014285Y-55590986D01*
X124014285Y-55590986D02*
X124228571Y-55590986D01*
X122871428Y-55590986D02*
X123014285Y-55519558D01*
X123014285Y-55519558D02*
X123085714Y-55376700D01*
X123085714Y-55376700D02*
X123085714Y-54090986D01*
X122371428Y-55519558D02*
X122228571Y-55590986D01*
X122228571Y-55590986D02*
X121942857Y-55590986D01*
X121942857Y-55590986D02*
X121800000Y-55519558D01*
X121800000Y-55519558D02*
X121728571Y-55376700D01*
X121728571Y-55376700D02*
X121728571Y-55305272D01*
X121728571Y-55305272D02*
X121800000Y-55162415D01*
X121800000Y-55162415D02*
X121942857Y-55090986D01*
X121942857Y-55090986D02*
X122157143Y-55090986D01*
X122157143Y-55090986D02*
X122300000Y-55019558D01*
X122300000Y-55019558D02*
X122371428Y-54876700D01*
X122371428Y-54876700D02*
X122371428Y-54805272D01*
X122371428Y-54805272D02*
X122300000Y-54662415D01*
X122300000Y-54662415D02*
X122157143Y-54590986D01*
X122157143Y-54590986D02*
X121942857Y-54590986D01*
X121942857Y-54590986D02*
X121800000Y-54662415D01*
X120085714Y-54590986D02*
X119728571Y-55590986D01*
X119728571Y-55590986D02*
X119371428Y-54590986D01*
X118014285Y-55590986D02*
X118871428Y-55590986D01*
X118442857Y-55590986D02*
X118442857Y-54090986D01*
X118442857Y-54090986D02*
X118585714Y-54305272D01*
X118585714Y-54305272D02*
X118728571Y-54448129D01*
X118728571Y-54448129D02*
X118871428Y-54519558D01*
X117371429Y-55448129D02*
X117300000Y-55519558D01*
X117300000Y-55519558D02*
X117371429Y-55590986D01*
X117371429Y-55590986D02*
X117442857Y-55519558D01*
X117442857Y-55519558D02*
X117371429Y-55448129D01*
X117371429Y-55448129D02*
X117371429Y-55590986D01*
X116371428Y-54090986D02*
X116228571Y-54090986D01*
X116228571Y-54090986D02*
X116085714Y-54162415D01*
X116085714Y-54162415D02*
X116014286Y-54233843D01*
X116014286Y-54233843D02*
X115942857Y-54376700D01*
X115942857Y-54376700D02*
X115871428Y-54662415D01*
X115871428Y-54662415D02*
X115871428Y-55019558D01*
X115871428Y-55019558D02*
X115942857Y-55305272D01*
X115942857Y-55305272D02*
X116014286Y-55448129D01*
X116014286Y-55448129D02*
X116085714Y-55519558D01*
X116085714Y-55519558D02*
X116228571Y-55590986D01*
X116228571Y-55590986D02*
X116371428Y-55590986D01*
X116371428Y-55590986D02*
X116514286Y-55519558D01*
X116514286Y-55519558D02*
X116585714Y-55448129D01*
X116585714Y-55448129D02*
X116657143Y-55305272D01*
X116657143Y-55305272D02*
X116728571Y-55019558D01*
X116728571Y-55019558D02*
X116728571Y-54662415D01*
X116728571Y-54662415D02*
X116657143Y-54376700D01*
X116657143Y-54376700D02*
X116585714Y-54233843D01*
X116585714Y-54233843D02*
X116514286Y-54162415D01*
X116514286Y-54162415D02*
X116371428Y-54090986D01*
D10*
X102333333Y-115684819D02*
X102333333Y-116399104D01*
X102333333Y-116399104D02*
X102380952Y-116541961D01*
X102380952Y-116541961D02*
X102476190Y-116637200D01*
X102476190Y-116637200D02*
X102619047Y-116684819D01*
X102619047Y-116684819D02*
X102714285Y-116684819D01*
X101952380Y-115684819D02*
X101333333Y-115684819D01*
X101333333Y-115684819D02*
X101666666Y-116065771D01*
X101666666Y-116065771D02*
X101523809Y-116065771D01*
X101523809Y-116065771D02*
X101428571Y-116113390D01*
X101428571Y-116113390D02*
X101380952Y-116161009D01*
X101380952Y-116161009D02*
X101333333Y-116256247D01*
X101333333Y-116256247D02*
X101333333Y-116494342D01*
X101333333Y-116494342D02*
X101380952Y-116589580D01*
X101380952Y-116589580D02*
X101428571Y-116637200D01*
X101428571Y-116637200D02*
X101523809Y-116684819D01*
X101523809Y-116684819D02*
X101809523Y-116684819D01*
X101809523Y-116684819D02*
X101904761Y-116637200D01*
X101904761Y-116637200D02*
X101952380Y-116589580D01*
X102333333Y-54684819D02*
X102333333Y-55399104D01*
X102333333Y-55399104D02*
X102380952Y-55541961D01*
X102380952Y-55541961D02*
X102476190Y-55637200D01*
X102476190Y-55637200D02*
X102619047Y-55684819D01*
X102619047Y-55684819D02*
X102714285Y-55684819D01*
X101333333Y-55684819D02*
X101904761Y-55684819D01*
X101619047Y-55684819D02*
X101619047Y-54684819D01*
X101619047Y-54684819D02*
X101714285Y-54827676D01*
X101714285Y-54827676D02*
X101809523Y-54922914D01*
X101809523Y-54922914D02*
X101904761Y-54970533D01*
X158333333Y-115684819D02*
X158333333Y-116399104D01*
X158333333Y-116399104D02*
X158380952Y-116541961D01*
X158380952Y-116541961D02*
X158476190Y-116637200D01*
X158476190Y-116637200D02*
X158619047Y-116684819D01*
X158619047Y-116684819D02*
X158714285Y-116684819D01*
X157428571Y-116018152D02*
X157428571Y-116684819D01*
X157666666Y-115637200D02*
X157904761Y-116351485D01*
X157904761Y-116351485D02*
X157285714Y-116351485D01*
X158333333Y-54454819D02*
X158333333Y-55169104D01*
X158333333Y-55169104D02*
X158380952Y-55311961D01*
X158380952Y-55311961D02*
X158476190Y-55407200D01*
X158476190Y-55407200D02*
X158619047Y-55454819D01*
X158619047Y-55454819D02*
X158714285Y-55454819D01*
X157904761Y-54550057D02*
X157857142Y-54502438D01*
X157857142Y-54502438D02*
X157761904Y-54454819D01*
X157761904Y-54454819D02*
X157523809Y-54454819D01*
X157523809Y-54454819D02*
X157428571Y-54502438D01*
X157428571Y-54502438D02*
X157380952Y-54550057D01*
X157380952Y-54550057D02*
X157333333Y-54645295D01*
X157333333Y-54645295D02*
X157333333Y-54740533D01*
X157333333Y-54740533D02*
X157380952Y-54883390D01*
X157380952Y-54883390D02*
X157952380Y-55454819D01*
X157952380Y-55454819D02*
X157333333Y-55454819D01*
D12*
%TO.C,J3*%
X100670000Y-117670000D02*
X102000000Y-117670000D01*
X100670000Y-119000000D02*
X100670000Y-117670000D01*
X100670000Y-120270000D02*
X103330000Y-120270000D01*
X100670000Y-143190000D02*
X100670000Y-120270000D01*
X100670000Y-143190000D02*
X103330000Y-143190000D01*
X103330000Y-143190000D02*
X103330000Y-120270000D01*
%TO.C,J1*%
X100670000Y-56670000D02*
X102000000Y-56670000D01*
X100670000Y-58000000D02*
X100670000Y-56670000D01*
X100670000Y-59270000D02*
X103330000Y-59270000D01*
X100670000Y-77110000D02*
X100670000Y-59270000D01*
X100670000Y-77110000D02*
X103330000Y-77110000D01*
X103330000Y-77110000D02*
X103330000Y-59270000D01*
%TO.C,J4*%
X156670000Y-117670000D02*
X158000000Y-117670000D01*
X156670000Y-119000000D02*
X156670000Y-117670000D01*
X156670000Y-120270000D02*
X159330000Y-120270000D01*
X156670000Y-143190000D02*
X156670000Y-120270000D01*
X156670000Y-143190000D02*
X159330000Y-143190000D01*
X159330000Y-143190000D02*
X159330000Y-120270000D01*
%TO.C,J2*%
X156670000Y-56670000D02*
X158000000Y-56670000D01*
X156670000Y-58000000D02*
X156670000Y-56670000D01*
X156670000Y-59270000D02*
X159330000Y-59270000D01*
X156670000Y-77110000D02*
X156670000Y-59270000D01*
X156670000Y-77110000D02*
X159330000Y-77110000D01*
X159330000Y-77110000D02*
X159330000Y-59270000D01*
%TD*%
M02*
