M48
; DRILL file {KiCad 8.0.7} date 2025-01-17T12:44:43+0000
; FORMAT={-:-/ absolute / inch / decimal}
; #@! TF.CreationDate,2025-01-17T12:44:43+00:00
; #@! TF.GenerationSoftware,Kicad,Pcbnew,8.0.7
; #@! TF.FileFunction,NonPlated,1,2,NPTH
FMAT,2
INCH
; #@! TA.AperFunction,NonPlated,NPTH,ComponentDrill
T1C0.0787
; #@! TA.AperFunction,NonPlated,NPTH,ComponentDrill
T2C0.0984
%
G90
G05
T1
X4.0787Y-3.6024
X4.1575Y-2.6969
X4.1575Y-4.7835
X4.4252Y-3.6024
X4.5039Y-2.6969
X4.5039Y-4.7835
X4.9449Y-2.3425
X4.9449Y-4.9409
X5.2913Y-2.3425
X5.2913Y-4.9409
X5.7323Y-2.6969
X5.7323Y-4.7835
X5.811Y-3.6024
X6.0787Y-2.6969
X6.0787Y-4.7835
X6.1575Y-3.6024
T2
X4.252Y-5.5118
X4.252Y-6.0236
X4.685Y-6.0236
X4.7244Y-5.5118
X5.1181Y-6.0236
X5.5118Y-5.5118
X5.5512Y-6.0236
X5.9843Y-5.5118
X5.9843Y-6.0236
M30
