%TF.GenerationSoftware,KiCad,Pcbnew,8.0.7*%
%TF.CreationDate,2025-01-17T12:44:41+00:00*%
%TF.ProjectId,Spectralist_Controls,53706563-7472-4616-9c69-73745f436f6e,rev?*%
%TF.SameCoordinates,Original*%
%TF.FileFunction,Soldermask,Top*%
%TF.FilePolarity,Negative*%
%FSLAX46Y46*%
G04 Gerber Fmt 4.6, Leading zero omitted, Abs format (unit mm)*
G04 Created by KiCad (PCBNEW 8.0.7) date 2025-01-17 12:44:41*
%MOMM*%
%LPD*%
G01*
G04 APERTURE LIST*
%ADD10C,3.500000*%
%ADD11C,1.800000*%
%ADD12R,2.500000X1.500000*%
%ADD13O,2.500000X1.500000*%
%ADD14R,1.800000X1.800000*%
%ADD15C,2.500000*%
%ADD16R,2.500000X1.000000*%
%ADD17R,1.700000X1.700000*%
%ADD18O,1.700000X1.700000*%
%ADD19C,3.000000*%
%ADD20C,2.000000*%
G04 APERTURE END LIST*
D10*
%TO.C,Filter_A_Cutoff1*%
X105600000Y-68500000D03*
X114400000Y-68500000D03*
D11*
X112500000Y-75500000D03*
X110000000Y-75500000D03*
X107500000Y-75500000D03*
%TD*%
D10*
%TO.C,Filter_Slope_Pot1*%
X125600000Y-59500000D03*
X134400000Y-59500000D03*
D11*
X132500000Y-66500000D03*
X130000000Y-66500000D03*
X127500000Y-66500000D03*
%TD*%
D12*
%TO.C,SW1*%
X130000000Y-104540000D03*
D13*
X130000000Y-102000000D03*
X130000000Y-99460000D03*
%TD*%
D14*
%TO.C,D1*%
X109000000Y-82270000D03*
D11*
X109000000Y-79730000D03*
%TD*%
D15*
%TO.C,J13*%
X141000000Y-153000000D03*
D16*
X141000000Y-146520000D03*
X141000000Y-149620000D03*
X141000000Y-157920000D03*
%TD*%
D10*
%TO.C,Stretch_Trim1*%
X125600000Y-125500000D03*
X134400000Y-125500000D03*
D11*
X132500000Y-132500000D03*
X130000000Y-132500000D03*
X127500000Y-132500000D03*
%TD*%
D15*
%TO.C,J10*%
X108000000Y-153000000D03*
D16*
X108000000Y-146520000D03*
X108000000Y-149620000D03*
X108000000Y-157920000D03*
%TD*%
D15*
%TO.C,J9*%
X140000000Y-140000000D03*
D16*
X140000000Y-133520000D03*
X140000000Y-136620000D03*
X140000000Y-144920000D03*
%TD*%
D10*
%TO.C,Filter_A_Trim1*%
X103600000Y-91500000D03*
X112400000Y-91500000D03*
D11*
X110500000Y-98500000D03*
X108000000Y-98500000D03*
X105500000Y-98500000D03*
%TD*%
D14*
%TO.C,D3*%
X131270000Y-136000000D03*
D11*
X128730000Y-136000000D03*
%TD*%
D15*
%TO.C,J6*%
X120000000Y-140000000D03*
D16*
X120000000Y-133520000D03*
X120000000Y-136620000D03*
X120000000Y-144920000D03*
%TD*%
D10*
%TO.C,Filter_B_Cutoff1*%
X145600000Y-68500000D03*
X154400000Y-68500000D03*
D11*
X152500000Y-75500000D03*
X150000000Y-75500000D03*
X147500000Y-75500000D03*
%TD*%
D17*
%TO.C,J16*%
X147500000Y-110000000D03*
D18*
X147500000Y-112540000D03*
%TD*%
D10*
%TO.C,Filter_B_Trim1*%
X147600000Y-91500000D03*
X156400000Y-91500000D03*
D11*
X154500000Y-98500000D03*
X152000000Y-98500000D03*
X149500000Y-98500000D03*
%TD*%
D10*
%TO.C,Harmonic_Warp_Pot1*%
X105600000Y-121500000D03*
X114400000Y-121500000D03*
D11*
X112500000Y-128500000D03*
X110000000Y-128500000D03*
X107500000Y-128500000D03*
%TD*%
D15*
%TO.C,J5*%
X108000000Y-140000000D03*
D16*
X108000000Y-133520000D03*
X108000000Y-136620000D03*
X108000000Y-144920000D03*
%TD*%
D19*
%TO.C,SW2*%
X125300000Y-78000000D03*
X130000000Y-78000000D03*
X134700000Y-78000000D03*
%TD*%
D15*
%TO.C,J7*%
X152000000Y-140000000D03*
D16*
X152000000Y-133520000D03*
X152000000Y-136620000D03*
X152000000Y-144920000D03*
%TD*%
D17*
%TO.C,J15*%
X112400000Y-110000000D03*
D18*
X112400000Y-112540000D03*
%TD*%
D15*
%TO.C,J8*%
X130000000Y-153000000D03*
D16*
X130000000Y-146520000D03*
X130000000Y-149620000D03*
X130000000Y-157920000D03*
%TD*%
D20*
%TO.C,SW3*%
X133250000Y-144250000D03*
X126750000Y-144250000D03*
X133250000Y-139750000D03*
X126750000Y-139750000D03*
%TD*%
D10*
%TO.C,Harmonic_Stretch_Pot1*%
X145600000Y-121500000D03*
X154400000Y-121500000D03*
D11*
X152500000Y-128500000D03*
X150000000Y-128500000D03*
X147500000Y-128500000D03*
%TD*%
D17*
%TO.C,J14*%
X132525000Y-84500000D03*
D18*
X129985000Y-84500000D03*
X127445000Y-84500000D03*
%TD*%
D14*
%TO.C,D2*%
X151000000Y-82270000D03*
D11*
X151000000Y-79730000D03*
%TD*%
D15*
%TO.C,J11*%
X152000000Y-153000000D03*
D16*
X152000000Y-146520000D03*
X152000000Y-149620000D03*
X152000000Y-157920000D03*
%TD*%
D15*
%TO.C,J12*%
X119000000Y-153000000D03*
D16*
X119000000Y-146520000D03*
X119000000Y-149620000D03*
X119000000Y-157920000D03*
%TD*%
D17*
%TO.C,J3*%
X102000000Y-119000000D03*
D18*
X102000000Y-121540000D03*
X102000000Y-124080000D03*
X102000000Y-126620000D03*
X102000000Y-129160000D03*
X102000000Y-131700000D03*
X102000000Y-134240000D03*
X102000000Y-136780000D03*
X102000000Y-139320000D03*
X102000000Y-141860000D03*
%TD*%
D17*
%TO.C,J1*%
X102000000Y-58000000D03*
D18*
X102000000Y-60540000D03*
X102000000Y-63080000D03*
X102000000Y-65620000D03*
X102000000Y-68160000D03*
X102000000Y-70700000D03*
X102000000Y-73240000D03*
X102000000Y-75780000D03*
%TD*%
D17*
%TO.C,J4*%
X158000000Y-119000000D03*
D18*
X158000000Y-121540000D03*
X158000000Y-124080000D03*
X158000000Y-126620000D03*
X158000000Y-129160000D03*
X158000000Y-131700000D03*
X158000000Y-134240000D03*
X158000000Y-136780000D03*
X158000000Y-139320000D03*
X158000000Y-141860000D03*
%TD*%
D17*
%TO.C,J2*%
X158000000Y-58000000D03*
D18*
X158000000Y-60540000D03*
X158000000Y-63080000D03*
X158000000Y-65620000D03*
X158000000Y-68160000D03*
X158000000Y-70700000D03*
X158000000Y-73240000D03*
X158000000Y-75780000D03*
%TD*%
M02*
