M48
; DRILL file {KiCad 8.0.7} date 2025-01-17T12:44:43+0000
; FORMAT={-:-/ absolute / inch / decimal}
; #@! TF.CreationDate,2025-01-17T12:44:43+00:00
; #@! TF.GenerationSoftware,Kicad,Pcbnew,8.0.7
; #@! TF.FileFunction,Plated,1,2,PTH
FMAT,2
INCH
; #@! TA.AperFunction,Plated,PTH,ViaDrill
T1C0.0157
; #@! TA.AperFunction,Plated,PTH,ComponentDrill
T2C0.0197
; #@! TA.AperFunction,Plated,PTH,ComponentDrill
T3C0.0354
; #@! TA.AperFunction,Plated,PTH,ComponentDrill
T4C0.0394
; #@! TA.AperFunction,Plated,PTH,ComponentDrill
T5C0.0430
; #@! TA.AperFunction,Plated,PTH,ComponentDrill
T6C0.0433
; #@! TA.AperFunction,Plated,PTH,ComponentDrill
T7C0.0728
%
G90
G05
T1
X4.0039Y-4.248
X4.0787Y-2.4291
X4.3937Y-6.1614
X4.7598Y-4.4528
X4.7953Y-4.1929
X4.815Y-3.126
X4.8661Y-3.3071
X4.8701Y-4.1535
X4.9016Y-2.7402
X5.0591Y-3.1457
X5.189Y-3.7717
X5.2205Y-6.2165
X5.2362Y-3.8228
X5.5591Y-3.0669
X5.5984Y-5.4882
X5.626Y-4.2756
X5.9016Y-4.252
X6.1024Y-2.8819
X6.1378Y-2.3386
X6.1614Y-5.6811
X6.1693Y-3.1457
X6.1772Y-4.937
X6.2165Y-6.2323
X6.2559Y-5.6732
T3
X4.2913Y-3.139
X4.2913Y-3.239
X5.0681Y-5.3543
X5.1681Y-5.3543
X5.9449Y-3.139
X5.9449Y-3.239
T4
X4.0157Y-2.2835
X4.0157Y-2.3835
X4.0157Y-2.4835
X4.0157Y-2.5835
X4.0157Y-2.6835
X4.0157Y-2.7835
X4.0157Y-2.8835
X4.0157Y-2.9835
X4.0157Y-4.685
X4.0157Y-4.785
X4.0157Y-4.885
X4.0157Y-4.985
X4.0157Y-5.085
X4.0157Y-5.185
X4.0157Y-5.285
X4.0157Y-5.385
X4.0157Y-5.485
X4.0157Y-5.585
X4.1535Y-3.878
X4.2323Y-2.9724
X4.2323Y-5.0591
X4.252Y-3.878
X4.3307Y-2.9724
X4.3307Y-5.0591
X4.3504Y-3.878
X4.4252Y-4.3307
X4.4252Y-4.4307
X4.4291Y-2.9724
X4.4291Y-5.0591
X5.0175Y-3.3268
X5.0197Y-2.6181
X5.0197Y-5.2165
X5.1175Y-3.3268
X5.1181Y-2.6181
X5.1181Y-5.2165
X5.2165Y-2.6181
X5.2165Y-5.2165
X5.2175Y-3.3268
X5.8071Y-2.9724
X5.8071Y-4.3307
X5.8071Y-4.4307
X5.8071Y-5.0591
X5.8858Y-3.878
X5.9055Y-2.9724
X5.9055Y-5.0591
X5.9843Y-3.878
X6.0039Y-2.9724
X6.0039Y-5.0591
X6.0827Y-3.878
X6.2205Y-2.2835
X6.2205Y-2.3835
X6.2205Y-2.4835
X6.2205Y-2.5835
X6.2205Y-2.6835
X6.2205Y-2.7835
X6.2205Y-2.8835
X6.2205Y-2.9835
X6.2205Y-4.685
X6.2205Y-4.785
X6.2205Y-4.885
X6.2205Y-4.985
X6.2205Y-5.085
X6.2205Y-5.185
X6.2205Y-5.285
X6.2205Y-5.385
X6.2205Y-5.485
X6.2205Y-5.585
T5
X5.1181Y-3.9157
X5.1181Y-4.0157
X5.1181Y-4.1157
T6
X4.9902Y-5.502
X4.9902Y-5.6791
X5.2461Y-5.502
X5.2461Y-5.6791
T7
X4.9331Y-3.0709
X5.1181Y-3.0709
X5.3031Y-3.0709
T2
G00X4.2717Y-5.2567
M15
G01X4.2323Y-5.2567
M16
G05
G00X4.2717Y-5.3787
M15
G01X4.2323Y-5.3787
M16
G05
G00X4.2717Y-5.7055
M15
G01X4.2323Y-5.7055
M16
G05
G00X4.2717Y-5.7685
M15
G01X4.2323Y-5.7685
M16
G05
G00X4.2717Y-5.8906
M15
G01X4.2323Y-5.8906
M16
G05
G00X4.2717Y-6.2173
M15
G01X4.2323Y-6.2173
M16
G05
G00X4.7047Y-5.7685
M15
G01X4.6654Y-5.7685
M16
G05
G00X4.7047Y-5.8906
M15
G01X4.6654Y-5.8906
M16
G05
G00X4.7047Y-6.2173
M15
G01X4.6654Y-6.2173
M16
G05
G00X4.7441Y-5.2567
M15
G01X4.7047Y-5.2567
M16
G05
G00X4.7441Y-5.3787
M15
G01X4.7047Y-5.3787
M16
G05
G00X4.7441Y-5.7055
M15
G01X4.7047Y-5.7055
M16
G05
G00X5.1378Y-5.7685
M15
G01X5.0984Y-5.7685
M16
G05
G00X5.1378Y-5.8906
M15
G01X5.0984Y-5.8906
M16
G05
G00X5.1378Y-6.2173
M15
G01X5.0984Y-6.2173
M16
G05
G00X5.5315Y-5.2567
M15
G01X5.4921Y-5.2567
M16
G05
G00X5.5315Y-5.3787
M15
G01X5.4921Y-5.3787
M16
G05
G00X5.5315Y-5.7055
M15
G01X5.4921Y-5.7055
M16
G05
G00X5.5709Y-5.7685
M15
G01X5.5315Y-5.7685
M16
G05
G00X5.5709Y-5.8906
M15
G01X5.5315Y-5.8906
M16
G05
G00X5.5709Y-6.2173
M15
G01X5.5315Y-6.2173
M16
G05
G00X6.0039Y-5.2567
M15
G01X5.9646Y-5.2567
M16
G05
G00X6.0039Y-5.3787
M15
G01X5.9646Y-5.3787
M16
G05
G00X6.0039Y-5.7055
M15
G01X5.9646Y-5.7055
M16
G05
G00X6.0039Y-5.7685
M15
G01X5.9646Y-5.7685
M16
G05
G00X6.0039Y-5.8906
M15
G01X5.9646Y-5.8906
M16
G05
G00X6.0039Y-6.2173
M15
G01X5.9646Y-6.2173
M16
G05
M30
