%TF.GenerationSoftware,KiCad,Pcbnew,8.0.7*%
%TF.CreationDate,2025-01-17T12:44:41+00:00*%
%TF.ProjectId,Spectralist_Controls,53706563-7472-4616-9c69-73745f436f6e,rev?*%
%TF.SameCoordinates,Original*%
%TF.FileFunction,Legend,Top*%
%TF.FilePolarity,Positive*%
%FSLAX46Y46*%
G04 Gerber Fmt 4.6, Leading zero omitted, Abs format (unit mm)*
G04 Created by KiCad (PCBNEW 8.0.7) date 2025-01-17 12:44:41*
%MOMM*%
%LPD*%
G01*
G04 APERTURE LIST*
%ADD10C,0.150000*%
%ADD11C,0.100000*%
%ADD12C,0.120000*%
G04 APERTURE END LIST*
D10*
X157666666Y-54454819D02*
X157666666Y-55169104D01*
X157666666Y-55169104D02*
X157619047Y-55311961D01*
X157619047Y-55311961D02*
X157523809Y-55407200D01*
X157523809Y-55407200D02*
X157380952Y-55454819D01*
X157380952Y-55454819D02*
X157285714Y-55454819D01*
X158095238Y-54550057D02*
X158142857Y-54502438D01*
X158142857Y-54502438D02*
X158238095Y-54454819D01*
X158238095Y-54454819D02*
X158476190Y-54454819D01*
X158476190Y-54454819D02*
X158571428Y-54502438D01*
X158571428Y-54502438D02*
X158619047Y-54550057D01*
X158619047Y-54550057D02*
X158666666Y-54645295D01*
X158666666Y-54645295D02*
X158666666Y-54740533D01*
X158666666Y-54740533D02*
X158619047Y-54883390D01*
X158619047Y-54883390D02*
X158047619Y-55454819D01*
X158047619Y-55454819D02*
X158666666Y-55454819D01*
D11*
X142908646Y-109472419D02*
X143527693Y-109472419D01*
X143527693Y-109472419D02*
X143194360Y-109853371D01*
X143194360Y-109853371D02*
X143337217Y-109853371D01*
X143337217Y-109853371D02*
X143432455Y-109900990D01*
X143432455Y-109900990D02*
X143480074Y-109948609D01*
X143480074Y-109948609D02*
X143527693Y-110043847D01*
X143527693Y-110043847D02*
X143527693Y-110281942D01*
X143527693Y-110281942D02*
X143480074Y-110377180D01*
X143480074Y-110377180D02*
X143432455Y-110424800D01*
X143432455Y-110424800D02*
X143337217Y-110472419D01*
X143337217Y-110472419D02*
X143051503Y-110472419D01*
X143051503Y-110472419D02*
X142956265Y-110424800D01*
X142956265Y-110424800D02*
X142908646Y-110377180D01*
X143956265Y-110377180D02*
X144003884Y-110424800D01*
X144003884Y-110424800D02*
X143956265Y-110472419D01*
X143956265Y-110472419D02*
X143908646Y-110424800D01*
X143908646Y-110424800D02*
X143956265Y-110377180D01*
X143956265Y-110377180D02*
X143956265Y-110472419D01*
X144337217Y-109472419D02*
X144956264Y-109472419D01*
X144956264Y-109472419D02*
X144622931Y-109853371D01*
X144622931Y-109853371D02*
X144765788Y-109853371D01*
X144765788Y-109853371D02*
X144861026Y-109900990D01*
X144861026Y-109900990D02*
X144908645Y-109948609D01*
X144908645Y-109948609D02*
X144956264Y-110043847D01*
X144956264Y-110043847D02*
X144956264Y-110281942D01*
X144956264Y-110281942D02*
X144908645Y-110377180D01*
X144908645Y-110377180D02*
X144861026Y-110424800D01*
X144861026Y-110424800D02*
X144765788Y-110472419D01*
X144765788Y-110472419D02*
X144480074Y-110472419D01*
X144480074Y-110472419D02*
X144384836Y-110424800D01*
X144384836Y-110424800D02*
X144337217Y-110377180D01*
X145241979Y-109472419D02*
X145575312Y-110472419D01*
X145575312Y-110472419D02*
X145908645Y-109472419D01*
D10*
X101666666Y-54454819D02*
X101666666Y-55169104D01*
X101666666Y-55169104D02*
X101619047Y-55311961D01*
X101619047Y-55311961D02*
X101523809Y-55407200D01*
X101523809Y-55407200D02*
X101380952Y-55454819D01*
X101380952Y-55454819D02*
X101285714Y-55454819D01*
X102666666Y-55454819D02*
X102095238Y-55454819D01*
X102380952Y-55454819D02*
X102380952Y-54454819D01*
X102380952Y-54454819D02*
X102285714Y-54597676D01*
X102285714Y-54597676D02*
X102190476Y-54692914D01*
X102190476Y-54692914D02*
X102095238Y-54740533D01*
X101666666Y-115854819D02*
X101666666Y-116569104D01*
X101666666Y-116569104D02*
X101619047Y-116711961D01*
X101619047Y-116711961D02*
X101523809Y-116807200D01*
X101523809Y-116807200D02*
X101380952Y-116854819D01*
X101380952Y-116854819D02*
X101285714Y-116854819D01*
X102047619Y-115854819D02*
X102666666Y-115854819D01*
X102666666Y-115854819D02*
X102333333Y-116235771D01*
X102333333Y-116235771D02*
X102476190Y-116235771D01*
X102476190Y-116235771D02*
X102571428Y-116283390D01*
X102571428Y-116283390D02*
X102619047Y-116331009D01*
X102619047Y-116331009D02*
X102666666Y-116426247D01*
X102666666Y-116426247D02*
X102666666Y-116664342D01*
X102666666Y-116664342D02*
X102619047Y-116759580D01*
X102619047Y-116759580D02*
X102571428Y-116807200D01*
X102571428Y-116807200D02*
X102476190Y-116854819D01*
X102476190Y-116854819D02*
X102190476Y-116854819D01*
X102190476Y-116854819D02*
X102095238Y-116807200D01*
X102095238Y-116807200D02*
X102047619Y-116759580D01*
D11*
X114327693Y-110472419D02*
X113756265Y-110472419D01*
X114041979Y-110472419D02*
X114041979Y-109472419D01*
X114041979Y-109472419D02*
X113946741Y-109615276D01*
X113946741Y-109615276D02*
X113851503Y-109710514D01*
X113851503Y-109710514D02*
X113756265Y-109758133D01*
X114708646Y-109567657D02*
X114756265Y-109520038D01*
X114756265Y-109520038D02*
X114851503Y-109472419D01*
X114851503Y-109472419D02*
X115089598Y-109472419D01*
X115089598Y-109472419D02*
X115184836Y-109520038D01*
X115184836Y-109520038D02*
X115232455Y-109567657D01*
X115232455Y-109567657D02*
X115280074Y-109662895D01*
X115280074Y-109662895D02*
X115280074Y-109758133D01*
X115280074Y-109758133D02*
X115232455Y-109900990D01*
X115232455Y-109900990D02*
X114661027Y-110472419D01*
X114661027Y-110472419D02*
X115280074Y-110472419D01*
X115565789Y-109472419D02*
X115899122Y-110472419D01*
X115899122Y-110472419D02*
X116232455Y-109472419D01*
D10*
X157666666Y-115454819D02*
X157666666Y-116169104D01*
X157666666Y-116169104D02*
X157619047Y-116311961D01*
X157619047Y-116311961D02*
X157523809Y-116407200D01*
X157523809Y-116407200D02*
X157380952Y-116454819D01*
X157380952Y-116454819D02*
X157285714Y-116454819D01*
X158571428Y-115788152D02*
X158571428Y-116454819D01*
X158333333Y-115407200D02*
X158095238Y-116121485D01*
X158095238Y-116121485D02*
X158714285Y-116121485D01*
D11*
X126256265Y-87124800D02*
X126399122Y-87172419D01*
X126399122Y-87172419D02*
X126637217Y-87172419D01*
X126637217Y-87172419D02*
X126732455Y-87124800D01*
X126732455Y-87124800D02*
X126780074Y-87077180D01*
X126780074Y-87077180D02*
X126827693Y-86981942D01*
X126827693Y-86981942D02*
X126827693Y-86886704D01*
X126827693Y-86886704D02*
X126780074Y-86791466D01*
X126780074Y-86791466D02*
X126732455Y-86743847D01*
X126732455Y-86743847D02*
X126637217Y-86696228D01*
X126637217Y-86696228D02*
X126446741Y-86648609D01*
X126446741Y-86648609D02*
X126351503Y-86600990D01*
X126351503Y-86600990D02*
X126303884Y-86553371D01*
X126303884Y-86553371D02*
X126256265Y-86458133D01*
X126256265Y-86458133D02*
X126256265Y-86362895D01*
X126256265Y-86362895D02*
X126303884Y-86267657D01*
X126303884Y-86267657D02*
X126351503Y-86220038D01*
X126351503Y-86220038D02*
X126446741Y-86172419D01*
X126446741Y-86172419D02*
X126684836Y-86172419D01*
X126684836Y-86172419D02*
X126827693Y-86220038D01*
X127256265Y-87172419D02*
X127256265Y-86172419D01*
X127256265Y-86172419D02*
X127494360Y-86172419D01*
X127494360Y-86172419D02*
X127637217Y-86220038D01*
X127637217Y-86220038D02*
X127732455Y-86315276D01*
X127732455Y-86315276D02*
X127780074Y-86410514D01*
X127780074Y-86410514D02*
X127827693Y-86600990D01*
X127827693Y-86600990D02*
X127827693Y-86743847D01*
X127827693Y-86743847D02*
X127780074Y-86934323D01*
X127780074Y-86934323D02*
X127732455Y-87029561D01*
X127732455Y-87029561D02*
X127637217Y-87124800D01*
X127637217Y-87124800D02*
X127494360Y-87172419D01*
X127494360Y-87172419D02*
X127256265Y-87172419D01*
X128208646Y-86886704D02*
X128684836Y-86886704D01*
X128113408Y-87172419D02*
X128446741Y-86172419D01*
X128446741Y-86172419D02*
X128780074Y-87172419D01*
X131256265Y-87124800D02*
X131399122Y-87172419D01*
X131399122Y-87172419D02*
X131637217Y-87172419D01*
X131637217Y-87172419D02*
X131732455Y-87124800D01*
X131732455Y-87124800D02*
X131780074Y-87077180D01*
X131780074Y-87077180D02*
X131827693Y-86981942D01*
X131827693Y-86981942D02*
X131827693Y-86886704D01*
X131827693Y-86886704D02*
X131780074Y-86791466D01*
X131780074Y-86791466D02*
X131732455Y-86743847D01*
X131732455Y-86743847D02*
X131637217Y-86696228D01*
X131637217Y-86696228D02*
X131446741Y-86648609D01*
X131446741Y-86648609D02*
X131351503Y-86600990D01*
X131351503Y-86600990D02*
X131303884Y-86553371D01*
X131303884Y-86553371D02*
X131256265Y-86458133D01*
X131256265Y-86458133D02*
X131256265Y-86362895D01*
X131256265Y-86362895D02*
X131303884Y-86267657D01*
X131303884Y-86267657D02*
X131351503Y-86220038D01*
X131351503Y-86220038D02*
X131446741Y-86172419D01*
X131446741Y-86172419D02*
X131684836Y-86172419D01*
X131684836Y-86172419D02*
X131827693Y-86220038D01*
X132827693Y-87077180D02*
X132780074Y-87124800D01*
X132780074Y-87124800D02*
X132637217Y-87172419D01*
X132637217Y-87172419D02*
X132541979Y-87172419D01*
X132541979Y-87172419D02*
X132399122Y-87124800D01*
X132399122Y-87124800D02*
X132303884Y-87029561D01*
X132303884Y-87029561D02*
X132256265Y-86934323D01*
X132256265Y-86934323D02*
X132208646Y-86743847D01*
X132208646Y-86743847D02*
X132208646Y-86600990D01*
X132208646Y-86600990D02*
X132256265Y-86410514D01*
X132256265Y-86410514D02*
X132303884Y-86315276D01*
X132303884Y-86315276D02*
X132399122Y-86220038D01*
X132399122Y-86220038D02*
X132541979Y-86172419D01*
X132541979Y-86172419D02*
X132637217Y-86172419D01*
X132637217Y-86172419D02*
X132780074Y-86220038D01*
X132780074Y-86220038D02*
X132827693Y-86267657D01*
X133732455Y-87172419D02*
X133256265Y-87172419D01*
X133256265Y-87172419D02*
X133256265Y-86172419D01*
D10*
X104690474Y-61331009D02*
X104357141Y-61331009D01*
X104357141Y-61854819D02*
X104357141Y-60854819D01*
X104357141Y-60854819D02*
X104833331Y-60854819D01*
X105214284Y-61854819D02*
X105214284Y-61188152D01*
X105214284Y-60854819D02*
X105166665Y-60902438D01*
X105166665Y-60902438D02*
X105214284Y-60950057D01*
X105214284Y-60950057D02*
X105261903Y-60902438D01*
X105261903Y-60902438D02*
X105214284Y-60854819D01*
X105214284Y-60854819D02*
X105214284Y-60950057D01*
X105833331Y-61854819D02*
X105738093Y-61807200D01*
X105738093Y-61807200D02*
X105690474Y-61711961D01*
X105690474Y-61711961D02*
X105690474Y-60854819D01*
X106071427Y-61188152D02*
X106452379Y-61188152D01*
X106214284Y-60854819D02*
X106214284Y-61711961D01*
X106214284Y-61711961D02*
X106261903Y-61807200D01*
X106261903Y-61807200D02*
X106357141Y-61854819D01*
X106357141Y-61854819D02*
X106452379Y-61854819D01*
X107166665Y-61807200D02*
X107071427Y-61854819D01*
X107071427Y-61854819D02*
X106880951Y-61854819D01*
X106880951Y-61854819D02*
X106785713Y-61807200D01*
X106785713Y-61807200D02*
X106738094Y-61711961D01*
X106738094Y-61711961D02*
X106738094Y-61331009D01*
X106738094Y-61331009D02*
X106785713Y-61235771D01*
X106785713Y-61235771D02*
X106880951Y-61188152D01*
X106880951Y-61188152D02*
X107071427Y-61188152D01*
X107071427Y-61188152D02*
X107166665Y-61235771D01*
X107166665Y-61235771D02*
X107214284Y-61331009D01*
X107214284Y-61331009D02*
X107214284Y-61426247D01*
X107214284Y-61426247D02*
X106738094Y-61521485D01*
X107642856Y-61854819D02*
X107642856Y-61188152D01*
X107642856Y-61378628D02*
X107690475Y-61283390D01*
X107690475Y-61283390D02*
X107738094Y-61235771D01*
X107738094Y-61235771D02*
X107833332Y-61188152D01*
X107833332Y-61188152D02*
X107928570Y-61188152D01*
X108023809Y-61950057D02*
X108785713Y-61950057D01*
X108976190Y-61569104D02*
X109452380Y-61569104D01*
X108880952Y-61854819D02*
X109214285Y-60854819D01*
X109214285Y-60854819D02*
X109547618Y-61854819D01*
X109642857Y-61950057D02*
X110404761Y-61950057D01*
X111214285Y-61759580D02*
X111166666Y-61807200D01*
X111166666Y-61807200D02*
X111023809Y-61854819D01*
X111023809Y-61854819D02*
X110928571Y-61854819D01*
X110928571Y-61854819D02*
X110785714Y-61807200D01*
X110785714Y-61807200D02*
X110690476Y-61711961D01*
X110690476Y-61711961D02*
X110642857Y-61616723D01*
X110642857Y-61616723D02*
X110595238Y-61426247D01*
X110595238Y-61426247D02*
X110595238Y-61283390D01*
X110595238Y-61283390D02*
X110642857Y-61092914D01*
X110642857Y-61092914D02*
X110690476Y-60997676D01*
X110690476Y-60997676D02*
X110785714Y-60902438D01*
X110785714Y-60902438D02*
X110928571Y-60854819D01*
X110928571Y-60854819D02*
X111023809Y-60854819D01*
X111023809Y-60854819D02*
X111166666Y-60902438D01*
X111166666Y-60902438D02*
X111214285Y-60950057D01*
X112071428Y-61188152D02*
X112071428Y-61854819D01*
X111642857Y-61188152D02*
X111642857Y-61711961D01*
X111642857Y-61711961D02*
X111690476Y-61807200D01*
X111690476Y-61807200D02*
X111785714Y-61854819D01*
X111785714Y-61854819D02*
X111928571Y-61854819D01*
X111928571Y-61854819D02*
X112023809Y-61807200D01*
X112023809Y-61807200D02*
X112071428Y-61759580D01*
X112404762Y-61188152D02*
X112785714Y-61188152D01*
X112547619Y-60854819D02*
X112547619Y-61711961D01*
X112547619Y-61711961D02*
X112595238Y-61807200D01*
X112595238Y-61807200D02*
X112690476Y-61854819D01*
X112690476Y-61854819D02*
X112785714Y-61854819D01*
X113261905Y-61854819D02*
X113166667Y-61807200D01*
X113166667Y-61807200D02*
X113119048Y-61759580D01*
X113119048Y-61759580D02*
X113071429Y-61664342D01*
X113071429Y-61664342D02*
X113071429Y-61378628D01*
X113071429Y-61378628D02*
X113119048Y-61283390D01*
X113119048Y-61283390D02*
X113166667Y-61235771D01*
X113166667Y-61235771D02*
X113261905Y-61188152D01*
X113261905Y-61188152D02*
X113404762Y-61188152D01*
X113404762Y-61188152D02*
X113500000Y-61235771D01*
X113500000Y-61235771D02*
X113547619Y-61283390D01*
X113547619Y-61283390D02*
X113595238Y-61378628D01*
X113595238Y-61378628D02*
X113595238Y-61664342D01*
X113595238Y-61664342D02*
X113547619Y-61759580D01*
X113547619Y-61759580D02*
X113500000Y-61807200D01*
X113500000Y-61807200D02*
X113404762Y-61854819D01*
X113404762Y-61854819D02*
X113261905Y-61854819D01*
X113880953Y-61188152D02*
X114261905Y-61188152D01*
X114023810Y-61854819D02*
X114023810Y-60997676D01*
X114023810Y-60997676D02*
X114071429Y-60902438D01*
X114071429Y-60902438D02*
X114166667Y-60854819D01*
X114166667Y-60854819D02*
X114261905Y-60854819D01*
X114452382Y-61188152D02*
X114833334Y-61188152D01*
X114595239Y-61854819D02*
X114595239Y-60997676D01*
X114595239Y-60997676D02*
X114642858Y-60902438D01*
X114642858Y-60902438D02*
X114738096Y-60854819D01*
X114738096Y-60854819D02*
X114833334Y-60854819D01*
X115690477Y-61854819D02*
X115119049Y-61854819D01*
X115404763Y-61854819D02*
X115404763Y-60854819D01*
X115404763Y-60854819D02*
X115309525Y-60997676D01*
X115309525Y-60997676D02*
X115214287Y-61092914D01*
X115214287Y-61092914D02*
X115119049Y-61140533D01*
X124071427Y-52431009D02*
X123738094Y-52431009D01*
X123738094Y-52954819D02*
X123738094Y-51954819D01*
X123738094Y-51954819D02*
X124214284Y-51954819D01*
X124595237Y-52954819D02*
X124595237Y-52288152D01*
X124595237Y-51954819D02*
X124547618Y-52002438D01*
X124547618Y-52002438D02*
X124595237Y-52050057D01*
X124595237Y-52050057D02*
X124642856Y-52002438D01*
X124642856Y-52002438D02*
X124595237Y-51954819D01*
X124595237Y-51954819D02*
X124595237Y-52050057D01*
X125214284Y-52954819D02*
X125119046Y-52907200D01*
X125119046Y-52907200D02*
X125071427Y-52811961D01*
X125071427Y-52811961D02*
X125071427Y-51954819D01*
X125452380Y-52288152D02*
X125833332Y-52288152D01*
X125595237Y-51954819D02*
X125595237Y-52811961D01*
X125595237Y-52811961D02*
X125642856Y-52907200D01*
X125642856Y-52907200D02*
X125738094Y-52954819D01*
X125738094Y-52954819D02*
X125833332Y-52954819D01*
X126547618Y-52907200D02*
X126452380Y-52954819D01*
X126452380Y-52954819D02*
X126261904Y-52954819D01*
X126261904Y-52954819D02*
X126166666Y-52907200D01*
X126166666Y-52907200D02*
X126119047Y-52811961D01*
X126119047Y-52811961D02*
X126119047Y-52431009D01*
X126119047Y-52431009D02*
X126166666Y-52335771D01*
X126166666Y-52335771D02*
X126261904Y-52288152D01*
X126261904Y-52288152D02*
X126452380Y-52288152D01*
X126452380Y-52288152D02*
X126547618Y-52335771D01*
X126547618Y-52335771D02*
X126595237Y-52431009D01*
X126595237Y-52431009D02*
X126595237Y-52526247D01*
X126595237Y-52526247D02*
X126119047Y-52621485D01*
X127023809Y-52954819D02*
X127023809Y-52288152D01*
X127023809Y-52478628D02*
X127071428Y-52383390D01*
X127071428Y-52383390D02*
X127119047Y-52335771D01*
X127119047Y-52335771D02*
X127214285Y-52288152D01*
X127214285Y-52288152D02*
X127309523Y-52288152D01*
X127404762Y-53050057D02*
X128166666Y-53050057D01*
X128357143Y-52907200D02*
X128500000Y-52954819D01*
X128500000Y-52954819D02*
X128738095Y-52954819D01*
X128738095Y-52954819D02*
X128833333Y-52907200D01*
X128833333Y-52907200D02*
X128880952Y-52859580D01*
X128880952Y-52859580D02*
X128928571Y-52764342D01*
X128928571Y-52764342D02*
X128928571Y-52669104D01*
X128928571Y-52669104D02*
X128880952Y-52573866D01*
X128880952Y-52573866D02*
X128833333Y-52526247D01*
X128833333Y-52526247D02*
X128738095Y-52478628D01*
X128738095Y-52478628D02*
X128547619Y-52431009D01*
X128547619Y-52431009D02*
X128452381Y-52383390D01*
X128452381Y-52383390D02*
X128404762Y-52335771D01*
X128404762Y-52335771D02*
X128357143Y-52240533D01*
X128357143Y-52240533D02*
X128357143Y-52145295D01*
X128357143Y-52145295D02*
X128404762Y-52050057D01*
X128404762Y-52050057D02*
X128452381Y-52002438D01*
X128452381Y-52002438D02*
X128547619Y-51954819D01*
X128547619Y-51954819D02*
X128785714Y-51954819D01*
X128785714Y-51954819D02*
X128928571Y-52002438D01*
X129500000Y-52954819D02*
X129404762Y-52907200D01*
X129404762Y-52907200D02*
X129357143Y-52811961D01*
X129357143Y-52811961D02*
X129357143Y-51954819D01*
X130023810Y-52954819D02*
X129928572Y-52907200D01*
X129928572Y-52907200D02*
X129880953Y-52859580D01*
X129880953Y-52859580D02*
X129833334Y-52764342D01*
X129833334Y-52764342D02*
X129833334Y-52478628D01*
X129833334Y-52478628D02*
X129880953Y-52383390D01*
X129880953Y-52383390D02*
X129928572Y-52335771D01*
X129928572Y-52335771D02*
X130023810Y-52288152D01*
X130023810Y-52288152D02*
X130166667Y-52288152D01*
X130166667Y-52288152D02*
X130261905Y-52335771D01*
X130261905Y-52335771D02*
X130309524Y-52383390D01*
X130309524Y-52383390D02*
X130357143Y-52478628D01*
X130357143Y-52478628D02*
X130357143Y-52764342D01*
X130357143Y-52764342D02*
X130309524Y-52859580D01*
X130309524Y-52859580D02*
X130261905Y-52907200D01*
X130261905Y-52907200D02*
X130166667Y-52954819D01*
X130166667Y-52954819D02*
X130023810Y-52954819D01*
X130785715Y-52288152D02*
X130785715Y-53288152D01*
X130785715Y-52335771D02*
X130880953Y-52288152D01*
X130880953Y-52288152D02*
X131071429Y-52288152D01*
X131071429Y-52288152D02*
X131166667Y-52335771D01*
X131166667Y-52335771D02*
X131214286Y-52383390D01*
X131214286Y-52383390D02*
X131261905Y-52478628D01*
X131261905Y-52478628D02*
X131261905Y-52764342D01*
X131261905Y-52764342D02*
X131214286Y-52859580D01*
X131214286Y-52859580D02*
X131166667Y-52907200D01*
X131166667Y-52907200D02*
X131071429Y-52954819D01*
X131071429Y-52954819D02*
X130880953Y-52954819D01*
X130880953Y-52954819D02*
X130785715Y-52907200D01*
X132071429Y-52907200D02*
X131976191Y-52954819D01*
X131976191Y-52954819D02*
X131785715Y-52954819D01*
X131785715Y-52954819D02*
X131690477Y-52907200D01*
X131690477Y-52907200D02*
X131642858Y-52811961D01*
X131642858Y-52811961D02*
X131642858Y-52431009D01*
X131642858Y-52431009D02*
X131690477Y-52335771D01*
X131690477Y-52335771D02*
X131785715Y-52288152D01*
X131785715Y-52288152D02*
X131976191Y-52288152D01*
X131976191Y-52288152D02*
X132071429Y-52335771D01*
X132071429Y-52335771D02*
X132119048Y-52431009D01*
X132119048Y-52431009D02*
X132119048Y-52526247D01*
X132119048Y-52526247D02*
X131642858Y-52621485D01*
X132309525Y-53050057D02*
X133071429Y-53050057D01*
X133309525Y-52954819D02*
X133309525Y-51954819D01*
X133309525Y-51954819D02*
X133690477Y-51954819D01*
X133690477Y-51954819D02*
X133785715Y-52002438D01*
X133785715Y-52002438D02*
X133833334Y-52050057D01*
X133833334Y-52050057D02*
X133880953Y-52145295D01*
X133880953Y-52145295D02*
X133880953Y-52288152D01*
X133880953Y-52288152D02*
X133833334Y-52383390D01*
X133833334Y-52383390D02*
X133785715Y-52431009D01*
X133785715Y-52431009D02*
X133690477Y-52478628D01*
X133690477Y-52478628D02*
X133309525Y-52478628D01*
X134452382Y-52954819D02*
X134357144Y-52907200D01*
X134357144Y-52907200D02*
X134309525Y-52859580D01*
X134309525Y-52859580D02*
X134261906Y-52764342D01*
X134261906Y-52764342D02*
X134261906Y-52478628D01*
X134261906Y-52478628D02*
X134309525Y-52383390D01*
X134309525Y-52383390D02*
X134357144Y-52335771D01*
X134357144Y-52335771D02*
X134452382Y-52288152D01*
X134452382Y-52288152D02*
X134595239Y-52288152D01*
X134595239Y-52288152D02*
X134690477Y-52335771D01*
X134690477Y-52335771D02*
X134738096Y-52383390D01*
X134738096Y-52383390D02*
X134785715Y-52478628D01*
X134785715Y-52478628D02*
X134785715Y-52764342D01*
X134785715Y-52764342D02*
X134738096Y-52859580D01*
X134738096Y-52859580D02*
X134690477Y-52907200D01*
X134690477Y-52907200D02*
X134595239Y-52954819D01*
X134595239Y-52954819D02*
X134452382Y-52954819D01*
X135071430Y-52288152D02*
X135452382Y-52288152D01*
X135214287Y-51954819D02*
X135214287Y-52811961D01*
X135214287Y-52811961D02*
X135261906Y-52907200D01*
X135261906Y-52907200D02*
X135357144Y-52954819D01*
X135357144Y-52954819D02*
X135452382Y-52954819D01*
X136309525Y-52954819D02*
X135738097Y-52954819D01*
X136023811Y-52954819D02*
X136023811Y-51954819D01*
X136023811Y-51954819D02*
X135928573Y-52097676D01*
X135928573Y-52097676D02*
X135833335Y-52192914D01*
X135833335Y-52192914D02*
X135738097Y-52240533D01*
X146759580Y-157852381D02*
X146807200Y-157900000D01*
X146807200Y-157900000D02*
X146854819Y-158042857D01*
X146854819Y-158042857D02*
X146854819Y-158138095D01*
X146854819Y-158138095D02*
X146807200Y-158280952D01*
X146807200Y-158280952D02*
X146711961Y-158376190D01*
X146711961Y-158376190D02*
X146616723Y-158423809D01*
X146616723Y-158423809D02*
X146426247Y-158471428D01*
X146426247Y-158471428D02*
X146283390Y-158471428D01*
X146283390Y-158471428D02*
X146092914Y-158423809D01*
X146092914Y-158423809D02*
X145997676Y-158376190D01*
X145997676Y-158376190D02*
X145902438Y-158280952D01*
X145902438Y-158280952D02*
X145854819Y-158138095D01*
X145854819Y-158138095D02*
X145854819Y-158042857D01*
X145854819Y-158042857D02*
X145902438Y-157900000D01*
X145902438Y-157900000D02*
X145950057Y-157852381D01*
X146854819Y-157423809D02*
X145854819Y-157423809D01*
X146854819Y-156995238D02*
X146331009Y-156995238D01*
X146331009Y-156995238D02*
X146235771Y-157042857D01*
X146235771Y-157042857D02*
X146188152Y-157138095D01*
X146188152Y-157138095D02*
X146188152Y-157280952D01*
X146188152Y-157280952D02*
X146235771Y-157376190D01*
X146235771Y-157376190D02*
X146283390Y-157423809D01*
X146854819Y-156090476D02*
X146331009Y-156090476D01*
X146331009Y-156090476D02*
X146235771Y-156138095D01*
X146235771Y-156138095D02*
X146188152Y-156233333D01*
X146188152Y-156233333D02*
X146188152Y-156423809D01*
X146188152Y-156423809D02*
X146235771Y-156519047D01*
X146807200Y-156090476D02*
X146854819Y-156185714D01*
X146854819Y-156185714D02*
X146854819Y-156423809D01*
X146854819Y-156423809D02*
X146807200Y-156519047D01*
X146807200Y-156519047D02*
X146711961Y-156566666D01*
X146711961Y-156566666D02*
X146616723Y-156566666D01*
X146616723Y-156566666D02*
X146521485Y-156519047D01*
X146521485Y-156519047D02*
X146473866Y-156423809D01*
X146473866Y-156423809D02*
X146473866Y-156185714D01*
X146473866Y-156185714D02*
X146426247Y-156090476D01*
X146188152Y-155614285D02*
X146854819Y-155614285D01*
X146283390Y-155614285D02*
X146235771Y-155566666D01*
X146235771Y-155566666D02*
X146188152Y-155471428D01*
X146188152Y-155471428D02*
X146188152Y-155328571D01*
X146188152Y-155328571D02*
X146235771Y-155233333D01*
X146235771Y-155233333D02*
X146331009Y-155185714D01*
X146331009Y-155185714D02*
X146854819Y-155185714D01*
X146188152Y-154709523D02*
X146854819Y-154709523D01*
X146283390Y-154709523D02*
X146235771Y-154661904D01*
X146235771Y-154661904D02*
X146188152Y-154566666D01*
X146188152Y-154566666D02*
X146188152Y-154423809D01*
X146188152Y-154423809D02*
X146235771Y-154328571D01*
X146235771Y-154328571D02*
X146331009Y-154280952D01*
X146331009Y-154280952D02*
X146854819Y-154280952D01*
X146807200Y-153423809D02*
X146854819Y-153519047D01*
X146854819Y-153519047D02*
X146854819Y-153709523D01*
X146854819Y-153709523D02*
X146807200Y-153804761D01*
X146807200Y-153804761D02*
X146711961Y-153852380D01*
X146711961Y-153852380D02*
X146331009Y-153852380D01*
X146331009Y-153852380D02*
X146235771Y-153804761D01*
X146235771Y-153804761D02*
X146188152Y-153709523D01*
X146188152Y-153709523D02*
X146188152Y-153519047D01*
X146188152Y-153519047D02*
X146235771Y-153423809D01*
X146235771Y-153423809D02*
X146331009Y-153376190D01*
X146331009Y-153376190D02*
X146426247Y-153376190D01*
X146426247Y-153376190D02*
X146521485Y-153852380D01*
X146854819Y-152804761D02*
X146807200Y-152899999D01*
X146807200Y-152899999D02*
X146711961Y-152947618D01*
X146711961Y-152947618D02*
X145854819Y-152947618D01*
X146331009Y-152090475D02*
X146378628Y-151947618D01*
X146378628Y-151947618D02*
X146426247Y-151899999D01*
X146426247Y-151899999D02*
X146521485Y-151852380D01*
X146521485Y-151852380D02*
X146664342Y-151852380D01*
X146664342Y-151852380D02*
X146759580Y-151899999D01*
X146759580Y-151899999D02*
X146807200Y-151947618D01*
X146807200Y-151947618D02*
X146854819Y-152042856D01*
X146854819Y-152042856D02*
X146854819Y-152423808D01*
X146854819Y-152423808D02*
X145854819Y-152423808D01*
X145854819Y-152423808D02*
X145854819Y-152090475D01*
X145854819Y-152090475D02*
X145902438Y-151995237D01*
X145902438Y-151995237D02*
X145950057Y-151947618D01*
X145950057Y-151947618D02*
X146045295Y-151899999D01*
X146045295Y-151899999D02*
X146140533Y-151899999D01*
X146140533Y-151899999D02*
X146235771Y-151947618D01*
X146235771Y-151947618D02*
X146283390Y-151995237D01*
X146283390Y-151995237D02*
X146331009Y-152090475D01*
X146331009Y-152090475D02*
X146331009Y-152423808D01*
X145854819Y-151233332D02*
X145854819Y-151042856D01*
X145854819Y-151042856D02*
X145902438Y-150947618D01*
X145902438Y-150947618D02*
X145997676Y-150852380D01*
X145997676Y-150852380D02*
X146188152Y-150804761D01*
X146188152Y-150804761D02*
X146521485Y-150804761D01*
X146521485Y-150804761D02*
X146711961Y-150852380D01*
X146711961Y-150852380D02*
X146807200Y-150947618D01*
X146807200Y-150947618D02*
X146854819Y-151042856D01*
X146854819Y-151042856D02*
X146854819Y-151233332D01*
X146854819Y-151233332D02*
X146807200Y-151328570D01*
X146807200Y-151328570D02*
X146711961Y-151423808D01*
X146711961Y-151423808D02*
X146521485Y-151471427D01*
X146521485Y-151471427D02*
X146188152Y-151471427D01*
X146188152Y-151471427D02*
X145997676Y-151423808D01*
X145997676Y-151423808D02*
X145902438Y-151328570D01*
X145902438Y-151328570D02*
X145854819Y-151233332D01*
X146188152Y-149947618D02*
X146854819Y-149947618D01*
X146188152Y-150376189D02*
X146711961Y-150376189D01*
X146711961Y-150376189D02*
X146807200Y-150328570D01*
X146807200Y-150328570D02*
X146854819Y-150233332D01*
X146854819Y-150233332D02*
X146854819Y-150090475D01*
X146854819Y-150090475D02*
X146807200Y-149995237D01*
X146807200Y-149995237D02*
X146759580Y-149947618D01*
X146188152Y-149614284D02*
X146188152Y-149233332D01*
X145854819Y-149471427D02*
X146711961Y-149471427D01*
X146711961Y-149471427D02*
X146807200Y-149423808D01*
X146807200Y-149423808D02*
X146854819Y-149328570D01*
X146854819Y-149328570D02*
X146854819Y-149233332D01*
X125071428Y-118607200D02*
X125214285Y-118654819D01*
X125214285Y-118654819D02*
X125452380Y-118654819D01*
X125452380Y-118654819D02*
X125547618Y-118607200D01*
X125547618Y-118607200D02*
X125595237Y-118559580D01*
X125595237Y-118559580D02*
X125642856Y-118464342D01*
X125642856Y-118464342D02*
X125642856Y-118369104D01*
X125642856Y-118369104D02*
X125595237Y-118273866D01*
X125595237Y-118273866D02*
X125547618Y-118226247D01*
X125547618Y-118226247D02*
X125452380Y-118178628D01*
X125452380Y-118178628D02*
X125261904Y-118131009D01*
X125261904Y-118131009D02*
X125166666Y-118083390D01*
X125166666Y-118083390D02*
X125119047Y-118035771D01*
X125119047Y-118035771D02*
X125071428Y-117940533D01*
X125071428Y-117940533D02*
X125071428Y-117845295D01*
X125071428Y-117845295D02*
X125119047Y-117750057D01*
X125119047Y-117750057D02*
X125166666Y-117702438D01*
X125166666Y-117702438D02*
X125261904Y-117654819D01*
X125261904Y-117654819D02*
X125499999Y-117654819D01*
X125499999Y-117654819D02*
X125642856Y-117702438D01*
X125928571Y-117988152D02*
X126309523Y-117988152D01*
X126071428Y-117654819D02*
X126071428Y-118511961D01*
X126071428Y-118511961D02*
X126119047Y-118607200D01*
X126119047Y-118607200D02*
X126214285Y-118654819D01*
X126214285Y-118654819D02*
X126309523Y-118654819D01*
X126642857Y-118654819D02*
X126642857Y-117988152D01*
X126642857Y-118178628D02*
X126690476Y-118083390D01*
X126690476Y-118083390D02*
X126738095Y-118035771D01*
X126738095Y-118035771D02*
X126833333Y-117988152D01*
X126833333Y-117988152D02*
X126928571Y-117988152D01*
X127642857Y-118607200D02*
X127547619Y-118654819D01*
X127547619Y-118654819D02*
X127357143Y-118654819D01*
X127357143Y-118654819D02*
X127261905Y-118607200D01*
X127261905Y-118607200D02*
X127214286Y-118511961D01*
X127214286Y-118511961D02*
X127214286Y-118131009D01*
X127214286Y-118131009D02*
X127261905Y-118035771D01*
X127261905Y-118035771D02*
X127357143Y-117988152D01*
X127357143Y-117988152D02*
X127547619Y-117988152D01*
X127547619Y-117988152D02*
X127642857Y-118035771D01*
X127642857Y-118035771D02*
X127690476Y-118131009D01*
X127690476Y-118131009D02*
X127690476Y-118226247D01*
X127690476Y-118226247D02*
X127214286Y-118321485D01*
X127976191Y-117988152D02*
X128357143Y-117988152D01*
X128119048Y-117654819D02*
X128119048Y-118511961D01*
X128119048Y-118511961D02*
X128166667Y-118607200D01*
X128166667Y-118607200D02*
X128261905Y-118654819D01*
X128261905Y-118654819D02*
X128357143Y-118654819D01*
X129119048Y-118607200D02*
X129023810Y-118654819D01*
X129023810Y-118654819D02*
X128833334Y-118654819D01*
X128833334Y-118654819D02*
X128738096Y-118607200D01*
X128738096Y-118607200D02*
X128690477Y-118559580D01*
X128690477Y-118559580D02*
X128642858Y-118464342D01*
X128642858Y-118464342D02*
X128642858Y-118178628D01*
X128642858Y-118178628D02*
X128690477Y-118083390D01*
X128690477Y-118083390D02*
X128738096Y-118035771D01*
X128738096Y-118035771D02*
X128833334Y-117988152D01*
X128833334Y-117988152D02*
X129023810Y-117988152D01*
X129023810Y-117988152D02*
X129119048Y-118035771D01*
X129547620Y-118654819D02*
X129547620Y-117654819D01*
X129976191Y-118654819D02*
X129976191Y-118131009D01*
X129976191Y-118131009D02*
X129928572Y-118035771D01*
X129928572Y-118035771D02*
X129833334Y-117988152D01*
X129833334Y-117988152D02*
X129690477Y-117988152D01*
X129690477Y-117988152D02*
X129595239Y-118035771D01*
X129595239Y-118035771D02*
X129547620Y-118083390D01*
X130214287Y-118750057D02*
X130976191Y-118750057D01*
X131071430Y-117654819D02*
X131642858Y-117654819D01*
X131357144Y-118654819D02*
X131357144Y-117654819D01*
X131976192Y-118654819D02*
X131976192Y-117988152D01*
X131976192Y-118178628D02*
X132023811Y-118083390D01*
X132023811Y-118083390D02*
X132071430Y-118035771D01*
X132071430Y-118035771D02*
X132166668Y-117988152D01*
X132166668Y-117988152D02*
X132261906Y-117988152D01*
X132595240Y-118654819D02*
X132595240Y-117988152D01*
X132595240Y-117654819D02*
X132547621Y-117702438D01*
X132547621Y-117702438D02*
X132595240Y-117750057D01*
X132595240Y-117750057D02*
X132642859Y-117702438D01*
X132642859Y-117702438D02*
X132595240Y-117654819D01*
X132595240Y-117654819D02*
X132595240Y-117750057D01*
X133071430Y-118654819D02*
X133071430Y-117988152D01*
X133071430Y-118083390D02*
X133119049Y-118035771D01*
X133119049Y-118035771D02*
X133214287Y-117988152D01*
X133214287Y-117988152D02*
X133357144Y-117988152D01*
X133357144Y-117988152D02*
X133452382Y-118035771D01*
X133452382Y-118035771D02*
X133500001Y-118131009D01*
X133500001Y-118131009D02*
X133500001Y-118654819D01*
X133500001Y-118131009D02*
X133547620Y-118035771D01*
X133547620Y-118035771D02*
X133642858Y-117988152D01*
X133642858Y-117988152D02*
X133785715Y-117988152D01*
X133785715Y-117988152D02*
X133880954Y-118035771D01*
X133880954Y-118035771D02*
X133928573Y-118131009D01*
X133928573Y-118131009D02*
X133928573Y-118654819D01*
X134928572Y-118654819D02*
X134357144Y-118654819D01*
X134642858Y-118654819D02*
X134642858Y-117654819D01*
X134642858Y-117654819D02*
X134547620Y-117797676D01*
X134547620Y-117797676D02*
X134452382Y-117892914D01*
X134452382Y-117892914D02*
X134357144Y-117940533D01*
X102431009Y-156619048D02*
X102431009Y-156952381D01*
X102954819Y-156952381D02*
X101954819Y-156952381D01*
X101954819Y-156952381D02*
X101954819Y-156476191D01*
X102954819Y-156095238D02*
X102288152Y-156095238D01*
X101954819Y-156095238D02*
X102002438Y-156142857D01*
X102002438Y-156142857D02*
X102050057Y-156095238D01*
X102050057Y-156095238D02*
X102002438Y-156047619D01*
X102002438Y-156047619D02*
X101954819Y-156095238D01*
X101954819Y-156095238D02*
X102050057Y-156095238D01*
X102954819Y-155476191D02*
X102907200Y-155571429D01*
X102907200Y-155571429D02*
X102811961Y-155619048D01*
X102811961Y-155619048D02*
X101954819Y-155619048D01*
X102288152Y-155238095D02*
X102288152Y-154857143D01*
X101954819Y-155095238D02*
X102811961Y-155095238D01*
X102811961Y-155095238D02*
X102907200Y-155047619D01*
X102907200Y-155047619D02*
X102954819Y-154952381D01*
X102954819Y-154952381D02*
X102954819Y-154857143D01*
X102907200Y-154142857D02*
X102954819Y-154238095D01*
X102954819Y-154238095D02*
X102954819Y-154428571D01*
X102954819Y-154428571D02*
X102907200Y-154523809D01*
X102907200Y-154523809D02*
X102811961Y-154571428D01*
X102811961Y-154571428D02*
X102431009Y-154571428D01*
X102431009Y-154571428D02*
X102335771Y-154523809D01*
X102335771Y-154523809D02*
X102288152Y-154428571D01*
X102288152Y-154428571D02*
X102288152Y-154238095D01*
X102288152Y-154238095D02*
X102335771Y-154142857D01*
X102335771Y-154142857D02*
X102431009Y-154095238D01*
X102431009Y-154095238D02*
X102526247Y-154095238D01*
X102526247Y-154095238D02*
X102621485Y-154571428D01*
X102954819Y-153666666D02*
X102288152Y-153666666D01*
X102478628Y-153666666D02*
X102383390Y-153619047D01*
X102383390Y-153619047D02*
X102335771Y-153571428D01*
X102335771Y-153571428D02*
X102288152Y-153476190D01*
X102288152Y-153476190D02*
X102288152Y-153380952D01*
X102669104Y-153095237D02*
X102669104Y-152619047D01*
X102954819Y-153190475D02*
X101954819Y-152857142D01*
X101954819Y-152857142D02*
X102954819Y-152523809D01*
X103050057Y-152428571D02*
X103050057Y-151666666D01*
X102859580Y-150857142D02*
X102907200Y-150904761D01*
X102907200Y-150904761D02*
X102954819Y-151047618D01*
X102954819Y-151047618D02*
X102954819Y-151142856D01*
X102954819Y-151142856D02*
X102907200Y-151285713D01*
X102907200Y-151285713D02*
X102811961Y-151380951D01*
X102811961Y-151380951D02*
X102716723Y-151428570D01*
X102716723Y-151428570D02*
X102526247Y-151476189D01*
X102526247Y-151476189D02*
X102383390Y-151476189D01*
X102383390Y-151476189D02*
X102192914Y-151428570D01*
X102192914Y-151428570D02*
X102097676Y-151380951D01*
X102097676Y-151380951D02*
X102002438Y-151285713D01*
X102002438Y-151285713D02*
X101954819Y-151142856D01*
X101954819Y-151142856D02*
X101954819Y-151047618D01*
X101954819Y-151047618D02*
X102002438Y-150904761D01*
X102002438Y-150904761D02*
X102050057Y-150857142D01*
X101954819Y-150571427D02*
X102954819Y-150238094D01*
X102954819Y-150238094D02*
X101954819Y-149904761D01*
X137390476Y-134907200D02*
X137533333Y-134954819D01*
X137533333Y-134954819D02*
X137771428Y-134954819D01*
X137771428Y-134954819D02*
X137866666Y-134907200D01*
X137866666Y-134907200D02*
X137914285Y-134859580D01*
X137914285Y-134859580D02*
X137961904Y-134764342D01*
X137961904Y-134764342D02*
X137961904Y-134669104D01*
X137961904Y-134669104D02*
X137914285Y-134573866D01*
X137914285Y-134573866D02*
X137866666Y-134526247D01*
X137866666Y-134526247D02*
X137771428Y-134478628D01*
X137771428Y-134478628D02*
X137580952Y-134431009D01*
X137580952Y-134431009D02*
X137485714Y-134383390D01*
X137485714Y-134383390D02*
X137438095Y-134335771D01*
X137438095Y-134335771D02*
X137390476Y-134240533D01*
X137390476Y-134240533D02*
X137390476Y-134145295D01*
X137390476Y-134145295D02*
X137438095Y-134050057D01*
X137438095Y-134050057D02*
X137485714Y-134002438D01*
X137485714Y-134002438D02*
X137580952Y-133954819D01*
X137580952Y-133954819D02*
X137819047Y-133954819D01*
X137819047Y-133954819D02*
X137961904Y-134002438D01*
X138533333Y-134954819D02*
X138438095Y-134907200D01*
X138438095Y-134907200D02*
X138390476Y-134811961D01*
X138390476Y-134811961D02*
X138390476Y-133954819D01*
X139057143Y-134954819D02*
X138961905Y-134907200D01*
X138961905Y-134907200D02*
X138914286Y-134859580D01*
X138914286Y-134859580D02*
X138866667Y-134764342D01*
X138866667Y-134764342D02*
X138866667Y-134478628D01*
X138866667Y-134478628D02*
X138914286Y-134383390D01*
X138914286Y-134383390D02*
X138961905Y-134335771D01*
X138961905Y-134335771D02*
X139057143Y-134288152D01*
X139057143Y-134288152D02*
X139200000Y-134288152D01*
X139200000Y-134288152D02*
X139295238Y-134335771D01*
X139295238Y-134335771D02*
X139342857Y-134383390D01*
X139342857Y-134383390D02*
X139390476Y-134478628D01*
X139390476Y-134478628D02*
X139390476Y-134764342D01*
X139390476Y-134764342D02*
X139342857Y-134859580D01*
X139342857Y-134859580D02*
X139295238Y-134907200D01*
X139295238Y-134907200D02*
X139200000Y-134954819D01*
X139200000Y-134954819D02*
X139057143Y-134954819D01*
X139819048Y-134288152D02*
X139819048Y-135288152D01*
X139819048Y-134335771D02*
X139914286Y-134288152D01*
X139914286Y-134288152D02*
X140104762Y-134288152D01*
X140104762Y-134288152D02*
X140200000Y-134335771D01*
X140200000Y-134335771D02*
X140247619Y-134383390D01*
X140247619Y-134383390D02*
X140295238Y-134478628D01*
X140295238Y-134478628D02*
X140295238Y-134764342D01*
X140295238Y-134764342D02*
X140247619Y-134859580D01*
X140247619Y-134859580D02*
X140200000Y-134907200D01*
X140200000Y-134907200D02*
X140104762Y-134954819D01*
X140104762Y-134954819D02*
X139914286Y-134954819D01*
X139914286Y-134954819D02*
X139819048Y-134907200D01*
X141104762Y-134907200D02*
X141009524Y-134954819D01*
X141009524Y-134954819D02*
X140819048Y-134954819D01*
X140819048Y-134954819D02*
X140723810Y-134907200D01*
X140723810Y-134907200D02*
X140676191Y-134811961D01*
X140676191Y-134811961D02*
X140676191Y-134431009D01*
X140676191Y-134431009D02*
X140723810Y-134335771D01*
X140723810Y-134335771D02*
X140819048Y-134288152D01*
X140819048Y-134288152D02*
X141009524Y-134288152D01*
X141009524Y-134288152D02*
X141104762Y-134335771D01*
X141104762Y-134335771D02*
X141152381Y-134431009D01*
X141152381Y-134431009D02*
X141152381Y-134526247D01*
X141152381Y-134526247D02*
X140676191Y-134621485D01*
X142152381Y-134859580D02*
X142104762Y-134907200D01*
X142104762Y-134907200D02*
X141961905Y-134954819D01*
X141961905Y-134954819D02*
X141866667Y-134954819D01*
X141866667Y-134954819D02*
X141723810Y-134907200D01*
X141723810Y-134907200D02*
X141628572Y-134811961D01*
X141628572Y-134811961D02*
X141580953Y-134716723D01*
X141580953Y-134716723D02*
X141533334Y-134526247D01*
X141533334Y-134526247D02*
X141533334Y-134383390D01*
X141533334Y-134383390D02*
X141580953Y-134192914D01*
X141580953Y-134192914D02*
X141628572Y-134097676D01*
X141628572Y-134097676D02*
X141723810Y-134002438D01*
X141723810Y-134002438D02*
X141866667Y-133954819D01*
X141866667Y-133954819D02*
X141961905Y-133954819D01*
X141961905Y-133954819D02*
X142104762Y-134002438D01*
X142104762Y-134002438D02*
X142152381Y-134050057D01*
X142438096Y-133954819D02*
X142771429Y-134954819D01*
X142771429Y-134954819D02*
X143104762Y-133954819D01*
X103317142Y-100971009D02*
X102983809Y-100971009D01*
X102983809Y-101494819D02*
X102983809Y-100494819D01*
X102983809Y-100494819D02*
X103459999Y-100494819D01*
X103840952Y-101494819D02*
X103840952Y-100828152D01*
X103840952Y-100494819D02*
X103793333Y-100542438D01*
X103793333Y-100542438D02*
X103840952Y-100590057D01*
X103840952Y-100590057D02*
X103888571Y-100542438D01*
X103888571Y-100542438D02*
X103840952Y-100494819D01*
X103840952Y-100494819D02*
X103840952Y-100590057D01*
X104459999Y-101494819D02*
X104364761Y-101447200D01*
X104364761Y-101447200D02*
X104317142Y-101351961D01*
X104317142Y-101351961D02*
X104317142Y-100494819D01*
X104698095Y-100828152D02*
X105079047Y-100828152D01*
X104840952Y-100494819D02*
X104840952Y-101351961D01*
X104840952Y-101351961D02*
X104888571Y-101447200D01*
X104888571Y-101447200D02*
X104983809Y-101494819D01*
X104983809Y-101494819D02*
X105079047Y-101494819D01*
X105793333Y-101447200D02*
X105698095Y-101494819D01*
X105698095Y-101494819D02*
X105507619Y-101494819D01*
X105507619Y-101494819D02*
X105412381Y-101447200D01*
X105412381Y-101447200D02*
X105364762Y-101351961D01*
X105364762Y-101351961D02*
X105364762Y-100971009D01*
X105364762Y-100971009D02*
X105412381Y-100875771D01*
X105412381Y-100875771D02*
X105507619Y-100828152D01*
X105507619Y-100828152D02*
X105698095Y-100828152D01*
X105698095Y-100828152D02*
X105793333Y-100875771D01*
X105793333Y-100875771D02*
X105840952Y-100971009D01*
X105840952Y-100971009D02*
X105840952Y-101066247D01*
X105840952Y-101066247D02*
X105364762Y-101161485D01*
X106269524Y-101494819D02*
X106269524Y-100828152D01*
X106269524Y-101018628D02*
X106317143Y-100923390D01*
X106317143Y-100923390D02*
X106364762Y-100875771D01*
X106364762Y-100875771D02*
X106460000Y-100828152D01*
X106460000Y-100828152D02*
X106555238Y-100828152D01*
X106650477Y-101590057D02*
X107412381Y-101590057D01*
X107602858Y-101209104D02*
X108079048Y-101209104D01*
X107507620Y-101494819D02*
X107840953Y-100494819D01*
X107840953Y-100494819D02*
X108174286Y-101494819D01*
X108269525Y-101590057D02*
X109031429Y-101590057D01*
X109126668Y-100494819D02*
X109698096Y-100494819D01*
X109412382Y-101494819D02*
X109412382Y-100494819D01*
X110031430Y-101494819D02*
X110031430Y-100828152D01*
X110031430Y-101018628D02*
X110079049Y-100923390D01*
X110079049Y-100923390D02*
X110126668Y-100875771D01*
X110126668Y-100875771D02*
X110221906Y-100828152D01*
X110221906Y-100828152D02*
X110317144Y-100828152D01*
X110650478Y-101494819D02*
X110650478Y-100828152D01*
X110650478Y-100494819D02*
X110602859Y-100542438D01*
X110602859Y-100542438D02*
X110650478Y-100590057D01*
X110650478Y-100590057D02*
X110698097Y-100542438D01*
X110698097Y-100542438D02*
X110650478Y-100494819D01*
X110650478Y-100494819D02*
X110650478Y-100590057D01*
X111126668Y-101494819D02*
X111126668Y-100828152D01*
X111126668Y-100923390D02*
X111174287Y-100875771D01*
X111174287Y-100875771D02*
X111269525Y-100828152D01*
X111269525Y-100828152D02*
X111412382Y-100828152D01*
X111412382Y-100828152D02*
X111507620Y-100875771D01*
X111507620Y-100875771D02*
X111555239Y-100971009D01*
X111555239Y-100971009D02*
X111555239Y-101494819D01*
X111555239Y-100971009D02*
X111602858Y-100875771D01*
X111602858Y-100875771D02*
X111698096Y-100828152D01*
X111698096Y-100828152D02*
X111840953Y-100828152D01*
X111840953Y-100828152D02*
X111936192Y-100875771D01*
X111936192Y-100875771D02*
X111983811Y-100971009D01*
X111983811Y-100971009D02*
X111983811Y-101494819D01*
X112983810Y-101494819D02*
X112412382Y-101494819D01*
X112698096Y-101494819D02*
X112698096Y-100494819D01*
X112698096Y-100494819D02*
X112602858Y-100637676D01*
X112602858Y-100637676D02*
X112507620Y-100732914D01*
X112507620Y-100732914D02*
X112412382Y-100780533D01*
X117700000Y-134154819D02*
X118033333Y-135154819D01*
X118033333Y-135154819D02*
X118366666Y-134154819D01*
X118890476Y-134154819D02*
X119080952Y-134154819D01*
X119080952Y-134154819D02*
X119176190Y-134202438D01*
X119176190Y-134202438D02*
X119271428Y-134297676D01*
X119271428Y-134297676D02*
X119319047Y-134488152D01*
X119319047Y-134488152D02*
X119319047Y-134821485D01*
X119319047Y-134821485D02*
X119271428Y-135011961D01*
X119271428Y-135011961D02*
X119176190Y-135107200D01*
X119176190Y-135107200D02*
X119080952Y-135154819D01*
X119080952Y-135154819D02*
X118890476Y-135154819D01*
X118890476Y-135154819D02*
X118795238Y-135107200D01*
X118795238Y-135107200D02*
X118700000Y-135011961D01*
X118700000Y-135011961D02*
X118652381Y-134821485D01*
X118652381Y-134821485D02*
X118652381Y-134488152D01*
X118652381Y-134488152D02*
X118700000Y-134297676D01*
X118700000Y-134297676D02*
X118795238Y-134202438D01*
X118795238Y-134202438D02*
X118890476Y-134154819D01*
X120176190Y-135107200D02*
X120080952Y-135154819D01*
X120080952Y-135154819D02*
X119890476Y-135154819D01*
X119890476Y-135154819D02*
X119795238Y-135107200D01*
X119795238Y-135107200D02*
X119747619Y-135059580D01*
X119747619Y-135059580D02*
X119700000Y-134964342D01*
X119700000Y-134964342D02*
X119700000Y-134678628D01*
X119700000Y-134678628D02*
X119747619Y-134583390D01*
X119747619Y-134583390D02*
X119795238Y-134535771D01*
X119795238Y-134535771D02*
X119890476Y-134488152D01*
X119890476Y-134488152D02*
X120080952Y-134488152D01*
X120080952Y-134488152D02*
X120176190Y-134535771D01*
X120461905Y-134488152D02*
X120842857Y-134488152D01*
X120604762Y-134154819D02*
X120604762Y-135011961D01*
X120604762Y-135011961D02*
X120652381Y-135107200D01*
X120652381Y-135107200D02*
X120747619Y-135154819D01*
X120747619Y-135154819D02*
X120842857Y-135154819D01*
X121747619Y-135059580D02*
X121700000Y-135107200D01*
X121700000Y-135107200D02*
X121557143Y-135154819D01*
X121557143Y-135154819D02*
X121461905Y-135154819D01*
X121461905Y-135154819D02*
X121319048Y-135107200D01*
X121319048Y-135107200D02*
X121223810Y-135011961D01*
X121223810Y-135011961D02*
X121176191Y-134916723D01*
X121176191Y-134916723D02*
X121128572Y-134726247D01*
X121128572Y-134726247D02*
X121128572Y-134583390D01*
X121128572Y-134583390D02*
X121176191Y-134392914D01*
X121176191Y-134392914D02*
X121223810Y-134297676D01*
X121223810Y-134297676D02*
X121319048Y-134202438D01*
X121319048Y-134202438D02*
X121461905Y-134154819D01*
X121461905Y-134154819D02*
X121557143Y-134154819D01*
X121557143Y-134154819D02*
X121700000Y-134202438D01*
X121700000Y-134202438D02*
X121747619Y-134250057D01*
X122033334Y-134154819D02*
X122366667Y-135154819D01*
X122366667Y-135154819D02*
X122700000Y-134154819D01*
X144919046Y-61031009D02*
X144585713Y-61031009D01*
X144585713Y-61554819D02*
X144585713Y-60554819D01*
X144585713Y-60554819D02*
X145061903Y-60554819D01*
X145442856Y-61554819D02*
X145442856Y-60888152D01*
X145442856Y-60554819D02*
X145395237Y-60602438D01*
X145395237Y-60602438D02*
X145442856Y-60650057D01*
X145442856Y-60650057D02*
X145490475Y-60602438D01*
X145490475Y-60602438D02*
X145442856Y-60554819D01*
X145442856Y-60554819D02*
X145442856Y-60650057D01*
X146061903Y-61554819D02*
X145966665Y-61507200D01*
X145966665Y-61507200D02*
X145919046Y-61411961D01*
X145919046Y-61411961D02*
X145919046Y-60554819D01*
X146299999Y-60888152D02*
X146680951Y-60888152D01*
X146442856Y-60554819D02*
X146442856Y-61411961D01*
X146442856Y-61411961D02*
X146490475Y-61507200D01*
X146490475Y-61507200D02*
X146585713Y-61554819D01*
X146585713Y-61554819D02*
X146680951Y-61554819D01*
X147395237Y-61507200D02*
X147299999Y-61554819D01*
X147299999Y-61554819D02*
X147109523Y-61554819D01*
X147109523Y-61554819D02*
X147014285Y-61507200D01*
X147014285Y-61507200D02*
X146966666Y-61411961D01*
X146966666Y-61411961D02*
X146966666Y-61031009D01*
X146966666Y-61031009D02*
X147014285Y-60935771D01*
X147014285Y-60935771D02*
X147109523Y-60888152D01*
X147109523Y-60888152D02*
X147299999Y-60888152D01*
X147299999Y-60888152D02*
X147395237Y-60935771D01*
X147395237Y-60935771D02*
X147442856Y-61031009D01*
X147442856Y-61031009D02*
X147442856Y-61126247D01*
X147442856Y-61126247D02*
X146966666Y-61221485D01*
X147871428Y-61554819D02*
X147871428Y-60888152D01*
X147871428Y-61078628D02*
X147919047Y-60983390D01*
X147919047Y-60983390D02*
X147966666Y-60935771D01*
X147966666Y-60935771D02*
X148061904Y-60888152D01*
X148061904Y-60888152D02*
X148157142Y-60888152D01*
X148252381Y-61650057D02*
X149014285Y-61650057D01*
X149585714Y-61031009D02*
X149728571Y-61078628D01*
X149728571Y-61078628D02*
X149776190Y-61126247D01*
X149776190Y-61126247D02*
X149823809Y-61221485D01*
X149823809Y-61221485D02*
X149823809Y-61364342D01*
X149823809Y-61364342D02*
X149776190Y-61459580D01*
X149776190Y-61459580D02*
X149728571Y-61507200D01*
X149728571Y-61507200D02*
X149633333Y-61554819D01*
X149633333Y-61554819D02*
X149252381Y-61554819D01*
X149252381Y-61554819D02*
X149252381Y-60554819D01*
X149252381Y-60554819D02*
X149585714Y-60554819D01*
X149585714Y-60554819D02*
X149680952Y-60602438D01*
X149680952Y-60602438D02*
X149728571Y-60650057D01*
X149728571Y-60650057D02*
X149776190Y-60745295D01*
X149776190Y-60745295D02*
X149776190Y-60840533D01*
X149776190Y-60840533D02*
X149728571Y-60935771D01*
X149728571Y-60935771D02*
X149680952Y-60983390D01*
X149680952Y-60983390D02*
X149585714Y-61031009D01*
X149585714Y-61031009D02*
X149252381Y-61031009D01*
X150014286Y-61650057D02*
X150776190Y-61650057D01*
X151585714Y-61459580D02*
X151538095Y-61507200D01*
X151538095Y-61507200D02*
X151395238Y-61554819D01*
X151395238Y-61554819D02*
X151300000Y-61554819D01*
X151300000Y-61554819D02*
X151157143Y-61507200D01*
X151157143Y-61507200D02*
X151061905Y-61411961D01*
X151061905Y-61411961D02*
X151014286Y-61316723D01*
X151014286Y-61316723D02*
X150966667Y-61126247D01*
X150966667Y-61126247D02*
X150966667Y-60983390D01*
X150966667Y-60983390D02*
X151014286Y-60792914D01*
X151014286Y-60792914D02*
X151061905Y-60697676D01*
X151061905Y-60697676D02*
X151157143Y-60602438D01*
X151157143Y-60602438D02*
X151300000Y-60554819D01*
X151300000Y-60554819D02*
X151395238Y-60554819D01*
X151395238Y-60554819D02*
X151538095Y-60602438D01*
X151538095Y-60602438D02*
X151585714Y-60650057D01*
X152442857Y-60888152D02*
X152442857Y-61554819D01*
X152014286Y-60888152D02*
X152014286Y-61411961D01*
X152014286Y-61411961D02*
X152061905Y-61507200D01*
X152061905Y-61507200D02*
X152157143Y-61554819D01*
X152157143Y-61554819D02*
X152300000Y-61554819D01*
X152300000Y-61554819D02*
X152395238Y-61507200D01*
X152395238Y-61507200D02*
X152442857Y-61459580D01*
X152776191Y-60888152D02*
X153157143Y-60888152D01*
X152919048Y-60554819D02*
X152919048Y-61411961D01*
X152919048Y-61411961D02*
X152966667Y-61507200D01*
X152966667Y-61507200D02*
X153061905Y-61554819D01*
X153061905Y-61554819D02*
X153157143Y-61554819D01*
X153633334Y-61554819D02*
X153538096Y-61507200D01*
X153538096Y-61507200D02*
X153490477Y-61459580D01*
X153490477Y-61459580D02*
X153442858Y-61364342D01*
X153442858Y-61364342D02*
X153442858Y-61078628D01*
X153442858Y-61078628D02*
X153490477Y-60983390D01*
X153490477Y-60983390D02*
X153538096Y-60935771D01*
X153538096Y-60935771D02*
X153633334Y-60888152D01*
X153633334Y-60888152D02*
X153776191Y-60888152D01*
X153776191Y-60888152D02*
X153871429Y-60935771D01*
X153871429Y-60935771D02*
X153919048Y-60983390D01*
X153919048Y-60983390D02*
X153966667Y-61078628D01*
X153966667Y-61078628D02*
X153966667Y-61364342D01*
X153966667Y-61364342D02*
X153919048Y-61459580D01*
X153919048Y-61459580D02*
X153871429Y-61507200D01*
X153871429Y-61507200D02*
X153776191Y-61554819D01*
X153776191Y-61554819D02*
X153633334Y-61554819D01*
X154252382Y-60888152D02*
X154633334Y-60888152D01*
X154395239Y-61554819D02*
X154395239Y-60697676D01*
X154395239Y-60697676D02*
X154442858Y-60602438D01*
X154442858Y-60602438D02*
X154538096Y-60554819D01*
X154538096Y-60554819D02*
X154633334Y-60554819D01*
X154823811Y-60888152D02*
X155204763Y-60888152D01*
X154966668Y-61554819D02*
X154966668Y-60697676D01*
X154966668Y-60697676D02*
X155014287Y-60602438D01*
X155014287Y-60602438D02*
X155109525Y-60554819D01*
X155109525Y-60554819D02*
X155204763Y-60554819D01*
X156061906Y-61554819D02*
X155490478Y-61554819D01*
X155776192Y-61554819D02*
X155776192Y-60554819D01*
X155776192Y-60554819D02*
X155680954Y-60697676D01*
X155680954Y-60697676D02*
X155585716Y-60792914D01*
X155585716Y-60792914D02*
X155490478Y-60840533D01*
X147245713Y-100971009D02*
X146912380Y-100971009D01*
X146912380Y-101494819D02*
X146912380Y-100494819D01*
X146912380Y-100494819D02*
X147388570Y-100494819D01*
X147769523Y-101494819D02*
X147769523Y-100828152D01*
X147769523Y-100494819D02*
X147721904Y-100542438D01*
X147721904Y-100542438D02*
X147769523Y-100590057D01*
X147769523Y-100590057D02*
X147817142Y-100542438D01*
X147817142Y-100542438D02*
X147769523Y-100494819D01*
X147769523Y-100494819D02*
X147769523Y-100590057D01*
X148388570Y-101494819D02*
X148293332Y-101447200D01*
X148293332Y-101447200D02*
X148245713Y-101351961D01*
X148245713Y-101351961D02*
X148245713Y-100494819D01*
X148626666Y-100828152D02*
X149007618Y-100828152D01*
X148769523Y-100494819D02*
X148769523Y-101351961D01*
X148769523Y-101351961D02*
X148817142Y-101447200D01*
X148817142Y-101447200D02*
X148912380Y-101494819D01*
X148912380Y-101494819D02*
X149007618Y-101494819D01*
X149721904Y-101447200D02*
X149626666Y-101494819D01*
X149626666Y-101494819D02*
X149436190Y-101494819D01*
X149436190Y-101494819D02*
X149340952Y-101447200D01*
X149340952Y-101447200D02*
X149293333Y-101351961D01*
X149293333Y-101351961D02*
X149293333Y-100971009D01*
X149293333Y-100971009D02*
X149340952Y-100875771D01*
X149340952Y-100875771D02*
X149436190Y-100828152D01*
X149436190Y-100828152D02*
X149626666Y-100828152D01*
X149626666Y-100828152D02*
X149721904Y-100875771D01*
X149721904Y-100875771D02*
X149769523Y-100971009D01*
X149769523Y-100971009D02*
X149769523Y-101066247D01*
X149769523Y-101066247D02*
X149293333Y-101161485D01*
X150198095Y-101494819D02*
X150198095Y-100828152D01*
X150198095Y-101018628D02*
X150245714Y-100923390D01*
X150245714Y-100923390D02*
X150293333Y-100875771D01*
X150293333Y-100875771D02*
X150388571Y-100828152D01*
X150388571Y-100828152D02*
X150483809Y-100828152D01*
X150579048Y-101590057D02*
X151340952Y-101590057D01*
X151912381Y-100971009D02*
X152055238Y-101018628D01*
X152055238Y-101018628D02*
X152102857Y-101066247D01*
X152102857Y-101066247D02*
X152150476Y-101161485D01*
X152150476Y-101161485D02*
X152150476Y-101304342D01*
X152150476Y-101304342D02*
X152102857Y-101399580D01*
X152102857Y-101399580D02*
X152055238Y-101447200D01*
X152055238Y-101447200D02*
X151960000Y-101494819D01*
X151960000Y-101494819D02*
X151579048Y-101494819D01*
X151579048Y-101494819D02*
X151579048Y-100494819D01*
X151579048Y-100494819D02*
X151912381Y-100494819D01*
X151912381Y-100494819D02*
X152007619Y-100542438D01*
X152007619Y-100542438D02*
X152055238Y-100590057D01*
X152055238Y-100590057D02*
X152102857Y-100685295D01*
X152102857Y-100685295D02*
X152102857Y-100780533D01*
X152102857Y-100780533D02*
X152055238Y-100875771D01*
X152055238Y-100875771D02*
X152007619Y-100923390D01*
X152007619Y-100923390D02*
X151912381Y-100971009D01*
X151912381Y-100971009D02*
X151579048Y-100971009D01*
X152340953Y-101590057D02*
X153102857Y-101590057D01*
X153198096Y-100494819D02*
X153769524Y-100494819D01*
X153483810Y-101494819D02*
X153483810Y-100494819D01*
X154102858Y-101494819D02*
X154102858Y-100828152D01*
X154102858Y-101018628D02*
X154150477Y-100923390D01*
X154150477Y-100923390D02*
X154198096Y-100875771D01*
X154198096Y-100875771D02*
X154293334Y-100828152D01*
X154293334Y-100828152D02*
X154388572Y-100828152D01*
X154721906Y-101494819D02*
X154721906Y-100828152D01*
X154721906Y-100494819D02*
X154674287Y-100542438D01*
X154674287Y-100542438D02*
X154721906Y-100590057D01*
X154721906Y-100590057D02*
X154769525Y-100542438D01*
X154769525Y-100542438D02*
X154721906Y-100494819D01*
X154721906Y-100494819D02*
X154721906Y-100590057D01*
X155198096Y-101494819D02*
X155198096Y-100828152D01*
X155198096Y-100923390D02*
X155245715Y-100875771D01*
X155245715Y-100875771D02*
X155340953Y-100828152D01*
X155340953Y-100828152D02*
X155483810Y-100828152D01*
X155483810Y-100828152D02*
X155579048Y-100875771D01*
X155579048Y-100875771D02*
X155626667Y-100971009D01*
X155626667Y-100971009D02*
X155626667Y-101494819D01*
X155626667Y-100971009D02*
X155674286Y-100875771D01*
X155674286Y-100875771D02*
X155769524Y-100828152D01*
X155769524Y-100828152D02*
X155912381Y-100828152D01*
X155912381Y-100828152D02*
X156007620Y-100875771D01*
X156007620Y-100875771D02*
X156055239Y-100971009D01*
X156055239Y-100971009D02*
X156055239Y-101494819D01*
X157055238Y-101494819D02*
X156483810Y-101494819D01*
X156769524Y-101494819D02*
X156769524Y-100494819D01*
X156769524Y-100494819D02*
X156674286Y-100637676D01*
X156674286Y-100637676D02*
X156579048Y-100732914D01*
X156579048Y-100732914D02*
X156483810Y-100780533D01*
X102412380Y-131494819D02*
X102412380Y-130494819D01*
X102412380Y-130971009D02*
X102983808Y-130971009D01*
X102983808Y-131494819D02*
X102983808Y-130494819D01*
X103888570Y-131494819D02*
X103888570Y-130971009D01*
X103888570Y-130971009D02*
X103840951Y-130875771D01*
X103840951Y-130875771D02*
X103745713Y-130828152D01*
X103745713Y-130828152D02*
X103555237Y-130828152D01*
X103555237Y-130828152D02*
X103459999Y-130875771D01*
X103888570Y-131447200D02*
X103793332Y-131494819D01*
X103793332Y-131494819D02*
X103555237Y-131494819D01*
X103555237Y-131494819D02*
X103459999Y-131447200D01*
X103459999Y-131447200D02*
X103412380Y-131351961D01*
X103412380Y-131351961D02*
X103412380Y-131256723D01*
X103412380Y-131256723D02*
X103459999Y-131161485D01*
X103459999Y-131161485D02*
X103555237Y-131113866D01*
X103555237Y-131113866D02*
X103793332Y-131113866D01*
X103793332Y-131113866D02*
X103888570Y-131066247D01*
X104364761Y-131494819D02*
X104364761Y-130828152D01*
X104364761Y-131018628D02*
X104412380Y-130923390D01*
X104412380Y-130923390D02*
X104459999Y-130875771D01*
X104459999Y-130875771D02*
X104555237Y-130828152D01*
X104555237Y-130828152D02*
X104650475Y-130828152D01*
X104983809Y-131494819D02*
X104983809Y-130828152D01*
X104983809Y-130923390D02*
X105031428Y-130875771D01*
X105031428Y-130875771D02*
X105126666Y-130828152D01*
X105126666Y-130828152D02*
X105269523Y-130828152D01*
X105269523Y-130828152D02*
X105364761Y-130875771D01*
X105364761Y-130875771D02*
X105412380Y-130971009D01*
X105412380Y-130971009D02*
X105412380Y-131494819D01*
X105412380Y-130971009D02*
X105459999Y-130875771D01*
X105459999Y-130875771D02*
X105555237Y-130828152D01*
X105555237Y-130828152D02*
X105698094Y-130828152D01*
X105698094Y-130828152D02*
X105793333Y-130875771D01*
X105793333Y-130875771D02*
X105840952Y-130971009D01*
X105840952Y-130971009D02*
X105840952Y-131494819D01*
X106459999Y-131494819D02*
X106364761Y-131447200D01*
X106364761Y-131447200D02*
X106317142Y-131399580D01*
X106317142Y-131399580D02*
X106269523Y-131304342D01*
X106269523Y-131304342D02*
X106269523Y-131018628D01*
X106269523Y-131018628D02*
X106317142Y-130923390D01*
X106317142Y-130923390D02*
X106364761Y-130875771D01*
X106364761Y-130875771D02*
X106459999Y-130828152D01*
X106459999Y-130828152D02*
X106602856Y-130828152D01*
X106602856Y-130828152D02*
X106698094Y-130875771D01*
X106698094Y-130875771D02*
X106745713Y-130923390D01*
X106745713Y-130923390D02*
X106793332Y-131018628D01*
X106793332Y-131018628D02*
X106793332Y-131304342D01*
X106793332Y-131304342D02*
X106745713Y-131399580D01*
X106745713Y-131399580D02*
X106698094Y-131447200D01*
X106698094Y-131447200D02*
X106602856Y-131494819D01*
X106602856Y-131494819D02*
X106459999Y-131494819D01*
X107221904Y-130828152D02*
X107221904Y-131494819D01*
X107221904Y-130923390D02*
X107269523Y-130875771D01*
X107269523Y-130875771D02*
X107364761Y-130828152D01*
X107364761Y-130828152D02*
X107507618Y-130828152D01*
X107507618Y-130828152D02*
X107602856Y-130875771D01*
X107602856Y-130875771D02*
X107650475Y-130971009D01*
X107650475Y-130971009D02*
X107650475Y-131494819D01*
X108126666Y-131494819D02*
X108126666Y-130828152D01*
X108126666Y-130494819D02*
X108079047Y-130542438D01*
X108079047Y-130542438D02*
X108126666Y-130590057D01*
X108126666Y-130590057D02*
X108174285Y-130542438D01*
X108174285Y-130542438D02*
X108126666Y-130494819D01*
X108126666Y-130494819D02*
X108126666Y-130590057D01*
X109031427Y-131447200D02*
X108936189Y-131494819D01*
X108936189Y-131494819D02*
X108745713Y-131494819D01*
X108745713Y-131494819D02*
X108650475Y-131447200D01*
X108650475Y-131447200D02*
X108602856Y-131399580D01*
X108602856Y-131399580D02*
X108555237Y-131304342D01*
X108555237Y-131304342D02*
X108555237Y-131018628D01*
X108555237Y-131018628D02*
X108602856Y-130923390D01*
X108602856Y-130923390D02*
X108650475Y-130875771D01*
X108650475Y-130875771D02*
X108745713Y-130828152D01*
X108745713Y-130828152D02*
X108936189Y-130828152D01*
X108936189Y-130828152D02*
X109031427Y-130875771D01*
X109221904Y-131590057D02*
X109983808Y-131590057D01*
X110126666Y-130494819D02*
X110364761Y-131494819D01*
X110364761Y-131494819D02*
X110555237Y-130780533D01*
X110555237Y-130780533D02*
X110745713Y-131494819D01*
X110745713Y-131494819D02*
X110983809Y-130494819D01*
X111793332Y-131494819D02*
X111793332Y-130971009D01*
X111793332Y-130971009D02*
X111745713Y-130875771D01*
X111745713Y-130875771D02*
X111650475Y-130828152D01*
X111650475Y-130828152D02*
X111459999Y-130828152D01*
X111459999Y-130828152D02*
X111364761Y-130875771D01*
X111793332Y-131447200D02*
X111698094Y-131494819D01*
X111698094Y-131494819D02*
X111459999Y-131494819D01*
X111459999Y-131494819D02*
X111364761Y-131447200D01*
X111364761Y-131447200D02*
X111317142Y-131351961D01*
X111317142Y-131351961D02*
X111317142Y-131256723D01*
X111317142Y-131256723D02*
X111364761Y-131161485D01*
X111364761Y-131161485D02*
X111459999Y-131113866D01*
X111459999Y-131113866D02*
X111698094Y-131113866D01*
X111698094Y-131113866D02*
X111793332Y-131066247D01*
X112269523Y-131494819D02*
X112269523Y-130828152D01*
X112269523Y-131018628D02*
X112317142Y-130923390D01*
X112317142Y-130923390D02*
X112364761Y-130875771D01*
X112364761Y-130875771D02*
X112459999Y-130828152D01*
X112459999Y-130828152D02*
X112555237Y-130828152D01*
X112888571Y-130828152D02*
X112888571Y-131828152D01*
X112888571Y-130875771D02*
X112983809Y-130828152D01*
X112983809Y-130828152D02*
X113174285Y-130828152D01*
X113174285Y-130828152D02*
X113269523Y-130875771D01*
X113269523Y-130875771D02*
X113317142Y-130923390D01*
X113317142Y-130923390D02*
X113364761Y-131018628D01*
X113364761Y-131018628D02*
X113364761Y-131304342D01*
X113364761Y-131304342D02*
X113317142Y-131399580D01*
X113317142Y-131399580D02*
X113269523Y-131447200D01*
X113269523Y-131447200D02*
X113174285Y-131494819D01*
X113174285Y-131494819D02*
X112983809Y-131494819D01*
X112983809Y-131494819D02*
X112888571Y-131447200D01*
X113555238Y-131590057D02*
X114317142Y-131590057D01*
X114555238Y-131494819D02*
X114555238Y-130494819D01*
X114555238Y-130494819D02*
X114936190Y-130494819D01*
X114936190Y-130494819D02*
X115031428Y-130542438D01*
X115031428Y-130542438D02*
X115079047Y-130590057D01*
X115079047Y-130590057D02*
X115126666Y-130685295D01*
X115126666Y-130685295D02*
X115126666Y-130828152D01*
X115126666Y-130828152D02*
X115079047Y-130923390D01*
X115079047Y-130923390D02*
X115031428Y-130971009D01*
X115031428Y-130971009D02*
X114936190Y-131018628D01*
X114936190Y-131018628D02*
X114555238Y-131018628D01*
X115698095Y-131494819D02*
X115602857Y-131447200D01*
X115602857Y-131447200D02*
X115555238Y-131399580D01*
X115555238Y-131399580D02*
X115507619Y-131304342D01*
X115507619Y-131304342D02*
X115507619Y-131018628D01*
X115507619Y-131018628D02*
X115555238Y-130923390D01*
X115555238Y-130923390D02*
X115602857Y-130875771D01*
X115602857Y-130875771D02*
X115698095Y-130828152D01*
X115698095Y-130828152D02*
X115840952Y-130828152D01*
X115840952Y-130828152D02*
X115936190Y-130875771D01*
X115936190Y-130875771D02*
X115983809Y-130923390D01*
X115983809Y-130923390D02*
X116031428Y-131018628D01*
X116031428Y-131018628D02*
X116031428Y-131304342D01*
X116031428Y-131304342D02*
X115983809Y-131399580D01*
X115983809Y-131399580D02*
X115936190Y-131447200D01*
X115936190Y-131447200D02*
X115840952Y-131494819D01*
X115840952Y-131494819D02*
X115698095Y-131494819D01*
X116317143Y-130828152D02*
X116698095Y-130828152D01*
X116460000Y-130494819D02*
X116460000Y-131351961D01*
X116460000Y-131351961D02*
X116507619Y-131447200D01*
X116507619Y-131447200D02*
X116602857Y-131494819D01*
X116602857Y-131494819D02*
X116698095Y-131494819D01*
X117555238Y-131494819D02*
X116983810Y-131494819D01*
X117269524Y-131494819D02*
X117269524Y-130494819D01*
X117269524Y-130494819D02*
X117174286Y-130637676D01*
X117174286Y-130637676D02*
X117079048Y-130732914D01*
X117079048Y-130732914D02*
X116983810Y-130780533D01*
X104595237Y-135107200D02*
X104738094Y-135154819D01*
X104738094Y-135154819D02*
X104976189Y-135154819D01*
X104976189Y-135154819D02*
X105071427Y-135107200D01*
X105071427Y-135107200D02*
X105119046Y-135059580D01*
X105119046Y-135059580D02*
X105166665Y-134964342D01*
X105166665Y-134964342D02*
X105166665Y-134869104D01*
X105166665Y-134869104D02*
X105119046Y-134773866D01*
X105119046Y-134773866D02*
X105071427Y-134726247D01*
X105071427Y-134726247D02*
X104976189Y-134678628D01*
X104976189Y-134678628D02*
X104785713Y-134631009D01*
X104785713Y-134631009D02*
X104690475Y-134583390D01*
X104690475Y-134583390D02*
X104642856Y-134535771D01*
X104642856Y-134535771D02*
X104595237Y-134440533D01*
X104595237Y-134440533D02*
X104595237Y-134345295D01*
X104595237Y-134345295D02*
X104642856Y-134250057D01*
X104642856Y-134250057D02*
X104690475Y-134202438D01*
X104690475Y-134202438D02*
X104785713Y-134154819D01*
X104785713Y-134154819D02*
X105023808Y-134154819D01*
X105023808Y-134154819D02*
X105166665Y-134202438D01*
X105452380Y-134488152D02*
X105833332Y-134488152D01*
X105595237Y-134154819D02*
X105595237Y-135011961D01*
X105595237Y-135011961D02*
X105642856Y-135107200D01*
X105642856Y-135107200D02*
X105738094Y-135154819D01*
X105738094Y-135154819D02*
X105833332Y-135154819D01*
X106166666Y-135154819D02*
X106166666Y-134488152D01*
X106166666Y-134678628D02*
X106214285Y-134583390D01*
X106214285Y-134583390D02*
X106261904Y-134535771D01*
X106261904Y-134535771D02*
X106357142Y-134488152D01*
X106357142Y-134488152D02*
X106452380Y-134488152D01*
X107166666Y-135107200D02*
X107071428Y-135154819D01*
X107071428Y-135154819D02*
X106880952Y-135154819D01*
X106880952Y-135154819D02*
X106785714Y-135107200D01*
X106785714Y-135107200D02*
X106738095Y-135011961D01*
X106738095Y-135011961D02*
X106738095Y-134631009D01*
X106738095Y-134631009D02*
X106785714Y-134535771D01*
X106785714Y-134535771D02*
X106880952Y-134488152D01*
X106880952Y-134488152D02*
X107071428Y-134488152D01*
X107071428Y-134488152D02*
X107166666Y-134535771D01*
X107166666Y-134535771D02*
X107214285Y-134631009D01*
X107214285Y-134631009D02*
X107214285Y-134726247D01*
X107214285Y-134726247D02*
X106738095Y-134821485D01*
X107500000Y-134488152D02*
X107880952Y-134488152D01*
X107642857Y-134154819D02*
X107642857Y-135011961D01*
X107642857Y-135011961D02*
X107690476Y-135107200D01*
X107690476Y-135107200D02*
X107785714Y-135154819D01*
X107785714Y-135154819D02*
X107880952Y-135154819D01*
X108642857Y-135107200D02*
X108547619Y-135154819D01*
X108547619Y-135154819D02*
X108357143Y-135154819D01*
X108357143Y-135154819D02*
X108261905Y-135107200D01*
X108261905Y-135107200D02*
X108214286Y-135059580D01*
X108214286Y-135059580D02*
X108166667Y-134964342D01*
X108166667Y-134964342D02*
X108166667Y-134678628D01*
X108166667Y-134678628D02*
X108214286Y-134583390D01*
X108214286Y-134583390D02*
X108261905Y-134535771D01*
X108261905Y-134535771D02*
X108357143Y-134488152D01*
X108357143Y-134488152D02*
X108547619Y-134488152D01*
X108547619Y-134488152D02*
X108642857Y-134535771D01*
X109071429Y-135154819D02*
X109071429Y-134154819D01*
X109500000Y-135154819D02*
X109500000Y-134631009D01*
X109500000Y-134631009D02*
X109452381Y-134535771D01*
X109452381Y-134535771D02*
X109357143Y-134488152D01*
X109357143Y-134488152D02*
X109214286Y-134488152D01*
X109214286Y-134488152D02*
X109119048Y-134535771D01*
X109119048Y-134535771D02*
X109071429Y-134583390D01*
X110547619Y-135059580D02*
X110500000Y-135107200D01*
X110500000Y-135107200D02*
X110357143Y-135154819D01*
X110357143Y-135154819D02*
X110261905Y-135154819D01*
X110261905Y-135154819D02*
X110119048Y-135107200D01*
X110119048Y-135107200D02*
X110023810Y-135011961D01*
X110023810Y-135011961D02*
X109976191Y-134916723D01*
X109976191Y-134916723D02*
X109928572Y-134726247D01*
X109928572Y-134726247D02*
X109928572Y-134583390D01*
X109928572Y-134583390D02*
X109976191Y-134392914D01*
X109976191Y-134392914D02*
X110023810Y-134297676D01*
X110023810Y-134297676D02*
X110119048Y-134202438D01*
X110119048Y-134202438D02*
X110261905Y-134154819D01*
X110261905Y-134154819D02*
X110357143Y-134154819D01*
X110357143Y-134154819D02*
X110500000Y-134202438D01*
X110500000Y-134202438D02*
X110547619Y-134250057D01*
X110833334Y-134154819D02*
X111166667Y-135154819D01*
X111166667Y-135154819D02*
X111500000Y-134154819D01*
X149528571Y-133954819D02*
X149766666Y-134954819D01*
X149766666Y-134954819D02*
X149957142Y-134240533D01*
X149957142Y-134240533D02*
X150147618Y-134954819D01*
X150147618Y-134954819D02*
X150385714Y-133954819D01*
X151195237Y-134954819D02*
X151195237Y-134431009D01*
X151195237Y-134431009D02*
X151147618Y-134335771D01*
X151147618Y-134335771D02*
X151052380Y-134288152D01*
X151052380Y-134288152D02*
X150861904Y-134288152D01*
X150861904Y-134288152D02*
X150766666Y-134335771D01*
X151195237Y-134907200D02*
X151099999Y-134954819D01*
X151099999Y-134954819D02*
X150861904Y-134954819D01*
X150861904Y-134954819D02*
X150766666Y-134907200D01*
X150766666Y-134907200D02*
X150719047Y-134811961D01*
X150719047Y-134811961D02*
X150719047Y-134716723D01*
X150719047Y-134716723D02*
X150766666Y-134621485D01*
X150766666Y-134621485D02*
X150861904Y-134573866D01*
X150861904Y-134573866D02*
X151099999Y-134573866D01*
X151099999Y-134573866D02*
X151195237Y-134526247D01*
X151671428Y-134954819D02*
X151671428Y-134288152D01*
X151671428Y-134478628D02*
X151719047Y-134383390D01*
X151719047Y-134383390D02*
X151766666Y-134335771D01*
X151766666Y-134335771D02*
X151861904Y-134288152D01*
X151861904Y-134288152D02*
X151957142Y-134288152D01*
X152290476Y-134288152D02*
X152290476Y-135288152D01*
X152290476Y-134335771D02*
X152385714Y-134288152D01*
X152385714Y-134288152D02*
X152576190Y-134288152D01*
X152576190Y-134288152D02*
X152671428Y-134335771D01*
X152671428Y-134335771D02*
X152719047Y-134383390D01*
X152719047Y-134383390D02*
X152766666Y-134478628D01*
X152766666Y-134478628D02*
X152766666Y-134764342D01*
X152766666Y-134764342D02*
X152719047Y-134859580D01*
X152719047Y-134859580D02*
X152671428Y-134907200D01*
X152671428Y-134907200D02*
X152576190Y-134954819D01*
X152576190Y-134954819D02*
X152385714Y-134954819D01*
X152385714Y-134954819D02*
X152290476Y-134907200D01*
X153766666Y-134859580D02*
X153719047Y-134907200D01*
X153719047Y-134907200D02*
X153576190Y-134954819D01*
X153576190Y-134954819D02*
X153480952Y-134954819D01*
X153480952Y-134954819D02*
X153338095Y-134907200D01*
X153338095Y-134907200D02*
X153242857Y-134811961D01*
X153242857Y-134811961D02*
X153195238Y-134716723D01*
X153195238Y-134716723D02*
X153147619Y-134526247D01*
X153147619Y-134526247D02*
X153147619Y-134383390D01*
X153147619Y-134383390D02*
X153195238Y-134192914D01*
X153195238Y-134192914D02*
X153242857Y-134097676D01*
X153242857Y-134097676D02*
X153338095Y-134002438D01*
X153338095Y-134002438D02*
X153480952Y-133954819D01*
X153480952Y-133954819D02*
X153576190Y-133954819D01*
X153576190Y-133954819D02*
X153719047Y-134002438D01*
X153719047Y-134002438D02*
X153766666Y-134050057D01*
X154052381Y-133954819D02*
X154385714Y-134954819D01*
X154385714Y-134954819D02*
X154719047Y-133954819D01*
X128104762Y-148154819D02*
X128104762Y-147154819D01*
X128104762Y-147154819D02*
X128485714Y-147154819D01*
X128485714Y-147154819D02*
X128580952Y-147202438D01*
X128580952Y-147202438D02*
X128628571Y-147250057D01*
X128628571Y-147250057D02*
X128676190Y-147345295D01*
X128676190Y-147345295D02*
X128676190Y-147488152D01*
X128676190Y-147488152D02*
X128628571Y-147583390D01*
X128628571Y-147583390D02*
X128580952Y-147631009D01*
X128580952Y-147631009D02*
X128485714Y-147678628D01*
X128485714Y-147678628D02*
X128104762Y-147678628D01*
X129533333Y-148154819D02*
X129533333Y-147631009D01*
X129533333Y-147631009D02*
X129485714Y-147535771D01*
X129485714Y-147535771D02*
X129390476Y-147488152D01*
X129390476Y-147488152D02*
X129200000Y-147488152D01*
X129200000Y-147488152D02*
X129104762Y-147535771D01*
X129533333Y-148107200D02*
X129438095Y-148154819D01*
X129438095Y-148154819D02*
X129200000Y-148154819D01*
X129200000Y-148154819D02*
X129104762Y-148107200D01*
X129104762Y-148107200D02*
X129057143Y-148011961D01*
X129057143Y-148011961D02*
X129057143Y-147916723D01*
X129057143Y-147916723D02*
X129104762Y-147821485D01*
X129104762Y-147821485D02*
X129200000Y-147773866D01*
X129200000Y-147773866D02*
X129438095Y-147773866D01*
X129438095Y-147773866D02*
X129533333Y-147726247D01*
X130009524Y-147488152D02*
X130009524Y-148154819D01*
X130009524Y-147583390D02*
X130057143Y-147535771D01*
X130057143Y-147535771D02*
X130152381Y-147488152D01*
X130152381Y-147488152D02*
X130295238Y-147488152D01*
X130295238Y-147488152D02*
X130390476Y-147535771D01*
X130390476Y-147535771D02*
X130438095Y-147631009D01*
X130438095Y-147631009D02*
X130438095Y-148154819D01*
X131485714Y-148059580D02*
X131438095Y-148107200D01*
X131438095Y-148107200D02*
X131295238Y-148154819D01*
X131295238Y-148154819D02*
X131200000Y-148154819D01*
X131200000Y-148154819D02*
X131057143Y-148107200D01*
X131057143Y-148107200D02*
X130961905Y-148011961D01*
X130961905Y-148011961D02*
X130914286Y-147916723D01*
X130914286Y-147916723D02*
X130866667Y-147726247D01*
X130866667Y-147726247D02*
X130866667Y-147583390D01*
X130866667Y-147583390D02*
X130914286Y-147392914D01*
X130914286Y-147392914D02*
X130961905Y-147297676D01*
X130961905Y-147297676D02*
X131057143Y-147202438D01*
X131057143Y-147202438D02*
X131200000Y-147154819D01*
X131200000Y-147154819D02*
X131295238Y-147154819D01*
X131295238Y-147154819D02*
X131438095Y-147202438D01*
X131438095Y-147202438D02*
X131485714Y-147250057D01*
X131771429Y-147154819D02*
X132104762Y-148154819D01*
X132104762Y-148154819D02*
X132438095Y-147154819D01*
X141531427Y-131494819D02*
X141531427Y-130494819D01*
X141531427Y-130971009D02*
X142102855Y-130971009D01*
X142102855Y-131494819D02*
X142102855Y-130494819D01*
X143007617Y-131494819D02*
X143007617Y-130971009D01*
X143007617Y-130971009D02*
X142959998Y-130875771D01*
X142959998Y-130875771D02*
X142864760Y-130828152D01*
X142864760Y-130828152D02*
X142674284Y-130828152D01*
X142674284Y-130828152D02*
X142579046Y-130875771D01*
X143007617Y-131447200D02*
X142912379Y-131494819D01*
X142912379Y-131494819D02*
X142674284Y-131494819D01*
X142674284Y-131494819D02*
X142579046Y-131447200D01*
X142579046Y-131447200D02*
X142531427Y-131351961D01*
X142531427Y-131351961D02*
X142531427Y-131256723D01*
X142531427Y-131256723D02*
X142579046Y-131161485D01*
X142579046Y-131161485D02*
X142674284Y-131113866D01*
X142674284Y-131113866D02*
X142912379Y-131113866D01*
X142912379Y-131113866D02*
X143007617Y-131066247D01*
X143483808Y-131494819D02*
X143483808Y-130828152D01*
X143483808Y-131018628D02*
X143531427Y-130923390D01*
X143531427Y-130923390D02*
X143579046Y-130875771D01*
X143579046Y-130875771D02*
X143674284Y-130828152D01*
X143674284Y-130828152D02*
X143769522Y-130828152D01*
X144102856Y-131494819D02*
X144102856Y-130828152D01*
X144102856Y-130923390D02*
X144150475Y-130875771D01*
X144150475Y-130875771D02*
X144245713Y-130828152D01*
X144245713Y-130828152D02*
X144388570Y-130828152D01*
X144388570Y-130828152D02*
X144483808Y-130875771D01*
X144483808Y-130875771D02*
X144531427Y-130971009D01*
X144531427Y-130971009D02*
X144531427Y-131494819D01*
X144531427Y-130971009D02*
X144579046Y-130875771D01*
X144579046Y-130875771D02*
X144674284Y-130828152D01*
X144674284Y-130828152D02*
X144817141Y-130828152D01*
X144817141Y-130828152D02*
X144912380Y-130875771D01*
X144912380Y-130875771D02*
X144959999Y-130971009D01*
X144959999Y-130971009D02*
X144959999Y-131494819D01*
X145579046Y-131494819D02*
X145483808Y-131447200D01*
X145483808Y-131447200D02*
X145436189Y-131399580D01*
X145436189Y-131399580D02*
X145388570Y-131304342D01*
X145388570Y-131304342D02*
X145388570Y-131018628D01*
X145388570Y-131018628D02*
X145436189Y-130923390D01*
X145436189Y-130923390D02*
X145483808Y-130875771D01*
X145483808Y-130875771D02*
X145579046Y-130828152D01*
X145579046Y-130828152D02*
X145721903Y-130828152D01*
X145721903Y-130828152D02*
X145817141Y-130875771D01*
X145817141Y-130875771D02*
X145864760Y-130923390D01*
X145864760Y-130923390D02*
X145912379Y-131018628D01*
X145912379Y-131018628D02*
X145912379Y-131304342D01*
X145912379Y-131304342D02*
X145864760Y-131399580D01*
X145864760Y-131399580D02*
X145817141Y-131447200D01*
X145817141Y-131447200D02*
X145721903Y-131494819D01*
X145721903Y-131494819D02*
X145579046Y-131494819D01*
X146340951Y-130828152D02*
X146340951Y-131494819D01*
X146340951Y-130923390D02*
X146388570Y-130875771D01*
X146388570Y-130875771D02*
X146483808Y-130828152D01*
X146483808Y-130828152D02*
X146626665Y-130828152D01*
X146626665Y-130828152D02*
X146721903Y-130875771D01*
X146721903Y-130875771D02*
X146769522Y-130971009D01*
X146769522Y-130971009D02*
X146769522Y-131494819D01*
X147245713Y-131494819D02*
X147245713Y-130828152D01*
X147245713Y-130494819D02*
X147198094Y-130542438D01*
X147198094Y-130542438D02*
X147245713Y-130590057D01*
X147245713Y-130590057D02*
X147293332Y-130542438D01*
X147293332Y-130542438D02*
X147245713Y-130494819D01*
X147245713Y-130494819D02*
X147245713Y-130590057D01*
X148150474Y-131447200D02*
X148055236Y-131494819D01*
X148055236Y-131494819D02*
X147864760Y-131494819D01*
X147864760Y-131494819D02*
X147769522Y-131447200D01*
X147769522Y-131447200D02*
X147721903Y-131399580D01*
X147721903Y-131399580D02*
X147674284Y-131304342D01*
X147674284Y-131304342D02*
X147674284Y-131018628D01*
X147674284Y-131018628D02*
X147721903Y-130923390D01*
X147721903Y-130923390D02*
X147769522Y-130875771D01*
X147769522Y-130875771D02*
X147864760Y-130828152D01*
X147864760Y-130828152D02*
X148055236Y-130828152D01*
X148055236Y-130828152D02*
X148150474Y-130875771D01*
X148340951Y-131590057D02*
X149102855Y-131590057D01*
X149293332Y-131447200D02*
X149436189Y-131494819D01*
X149436189Y-131494819D02*
X149674284Y-131494819D01*
X149674284Y-131494819D02*
X149769522Y-131447200D01*
X149769522Y-131447200D02*
X149817141Y-131399580D01*
X149817141Y-131399580D02*
X149864760Y-131304342D01*
X149864760Y-131304342D02*
X149864760Y-131209104D01*
X149864760Y-131209104D02*
X149817141Y-131113866D01*
X149817141Y-131113866D02*
X149769522Y-131066247D01*
X149769522Y-131066247D02*
X149674284Y-131018628D01*
X149674284Y-131018628D02*
X149483808Y-130971009D01*
X149483808Y-130971009D02*
X149388570Y-130923390D01*
X149388570Y-130923390D02*
X149340951Y-130875771D01*
X149340951Y-130875771D02*
X149293332Y-130780533D01*
X149293332Y-130780533D02*
X149293332Y-130685295D01*
X149293332Y-130685295D02*
X149340951Y-130590057D01*
X149340951Y-130590057D02*
X149388570Y-130542438D01*
X149388570Y-130542438D02*
X149483808Y-130494819D01*
X149483808Y-130494819D02*
X149721903Y-130494819D01*
X149721903Y-130494819D02*
X149864760Y-130542438D01*
X150150475Y-130828152D02*
X150531427Y-130828152D01*
X150293332Y-130494819D02*
X150293332Y-131351961D01*
X150293332Y-131351961D02*
X150340951Y-131447200D01*
X150340951Y-131447200D02*
X150436189Y-131494819D01*
X150436189Y-131494819D02*
X150531427Y-131494819D01*
X150864761Y-131494819D02*
X150864761Y-130828152D01*
X150864761Y-131018628D02*
X150912380Y-130923390D01*
X150912380Y-130923390D02*
X150959999Y-130875771D01*
X150959999Y-130875771D02*
X151055237Y-130828152D01*
X151055237Y-130828152D02*
X151150475Y-130828152D01*
X151864761Y-131447200D02*
X151769523Y-131494819D01*
X151769523Y-131494819D02*
X151579047Y-131494819D01*
X151579047Y-131494819D02*
X151483809Y-131447200D01*
X151483809Y-131447200D02*
X151436190Y-131351961D01*
X151436190Y-131351961D02*
X151436190Y-130971009D01*
X151436190Y-130971009D02*
X151483809Y-130875771D01*
X151483809Y-130875771D02*
X151579047Y-130828152D01*
X151579047Y-130828152D02*
X151769523Y-130828152D01*
X151769523Y-130828152D02*
X151864761Y-130875771D01*
X151864761Y-130875771D02*
X151912380Y-130971009D01*
X151912380Y-130971009D02*
X151912380Y-131066247D01*
X151912380Y-131066247D02*
X151436190Y-131161485D01*
X152198095Y-130828152D02*
X152579047Y-130828152D01*
X152340952Y-130494819D02*
X152340952Y-131351961D01*
X152340952Y-131351961D02*
X152388571Y-131447200D01*
X152388571Y-131447200D02*
X152483809Y-131494819D01*
X152483809Y-131494819D02*
X152579047Y-131494819D01*
X153340952Y-131447200D02*
X153245714Y-131494819D01*
X153245714Y-131494819D02*
X153055238Y-131494819D01*
X153055238Y-131494819D02*
X152960000Y-131447200D01*
X152960000Y-131447200D02*
X152912381Y-131399580D01*
X152912381Y-131399580D02*
X152864762Y-131304342D01*
X152864762Y-131304342D02*
X152864762Y-131018628D01*
X152864762Y-131018628D02*
X152912381Y-130923390D01*
X152912381Y-130923390D02*
X152960000Y-130875771D01*
X152960000Y-130875771D02*
X153055238Y-130828152D01*
X153055238Y-130828152D02*
X153245714Y-130828152D01*
X153245714Y-130828152D02*
X153340952Y-130875771D01*
X153769524Y-131494819D02*
X153769524Y-130494819D01*
X154198095Y-131494819D02*
X154198095Y-130971009D01*
X154198095Y-130971009D02*
X154150476Y-130875771D01*
X154150476Y-130875771D02*
X154055238Y-130828152D01*
X154055238Y-130828152D02*
X153912381Y-130828152D01*
X153912381Y-130828152D02*
X153817143Y-130875771D01*
X153817143Y-130875771D02*
X153769524Y-130923390D01*
X154436191Y-131590057D02*
X155198095Y-131590057D01*
X155436191Y-131494819D02*
X155436191Y-130494819D01*
X155436191Y-130494819D02*
X155817143Y-130494819D01*
X155817143Y-130494819D02*
X155912381Y-130542438D01*
X155912381Y-130542438D02*
X155960000Y-130590057D01*
X155960000Y-130590057D02*
X156007619Y-130685295D01*
X156007619Y-130685295D02*
X156007619Y-130828152D01*
X156007619Y-130828152D02*
X155960000Y-130923390D01*
X155960000Y-130923390D02*
X155912381Y-130971009D01*
X155912381Y-130971009D02*
X155817143Y-131018628D01*
X155817143Y-131018628D02*
X155436191Y-131018628D01*
X156579048Y-131494819D02*
X156483810Y-131447200D01*
X156483810Y-131447200D02*
X156436191Y-131399580D01*
X156436191Y-131399580D02*
X156388572Y-131304342D01*
X156388572Y-131304342D02*
X156388572Y-131018628D01*
X156388572Y-131018628D02*
X156436191Y-130923390D01*
X156436191Y-130923390D02*
X156483810Y-130875771D01*
X156483810Y-130875771D02*
X156579048Y-130828152D01*
X156579048Y-130828152D02*
X156721905Y-130828152D01*
X156721905Y-130828152D02*
X156817143Y-130875771D01*
X156817143Y-130875771D02*
X156864762Y-130923390D01*
X156864762Y-130923390D02*
X156912381Y-131018628D01*
X156912381Y-131018628D02*
X156912381Y-131304342D01*
X156912381Y-131304342D02*
X156864762Y-131399580D01*
X156864762Y-131399580D02*
X156817143Y-131447200D01*
X156817143Y-131447200D02*
X156721905Y-131494819D01*
X156721905Y-131494819D02*
X156579048Y-131494819D01*
X157198096Y-130828152D02*
X157579048Y-130828152D01*
X157340953Y-130494819D02*
X157340953Y-131351961D01*
X157340953Y-131351961D02*
X157388572Y-131447200D01*
X157388572Y-131447200D02*
X157483810Y-131494819D01*
X157483810Y-131494819D02*
X157579048Y-131494819D01*
X158436191Y-131494819D02*
X157864763Y-131494819D01*
X158150477Y-131494819D02*
X158150477Y-130494819D01*
X158150477Y-130494819D02*
X158055239Y-130637676D01*
X158055239Y-130637676D02*
X157960001Y-130732914D01*
X157960001Y-130732914D02*
X157864763Y-130780533D01*
X157431009Y-157090476D02*
X157431009Y-157423809D01*
X157954819Y-157423809D02*
X156954819Y-157423809D01*
X156954819Y-157423809D02*
X156954819Y-156947619D01*
X157954819Y-156566666D02*
X157288152Y-156566666D01*
X156954819Y-156566666D02*
X157002438Y-156614285D01*
X157002438Y-156614285D02*
X157050057Y-156566666D01*
X157050057Y-156566666D02*
X157002438Y-156519047D01*
X157002438Y-156519047D02*
X156954819Y-156566666D01*
X156954819Y-156566666D02*
X157050057Y-156566666D01*
X157954819Y-155947619D02*
X157907200Y-156042857D01*
X157907200Y-156042857D02*
X157811961Y-156090476D01*
X157811961Y-156090476D02*
X156954819Y-156090476D01*
X157288152Y-155709523D02*
X157288152Y-155328571D01*
X156954819Y-155566666D02*
X157811961Y-155566666D01*
X157811961Y-155566666D02*
X157907200Y-155519047D01*
X157907200Y-155519047D02*
X157954819Y-155423809D01*
X157954819Y-155423809D02*
X157954819Y-155328571D01*
X157907200Y-154614285D02*
X157954819Y-154709523D01*
X157954819Y-154709523D02*
X157954819Y-154899999D01*
X157954819Y-154899999D02*
X157907200Y-154995237D01*
X157907200Y-154995237D02*
X157811961Y-155042856D01*
X157811961Y-155042856D02*
X157431009Y-155042856D01*
X157431009Y-155042856D02*
X157335771Y-154995237D01*
X157335771Y-154995237D02*
X157288152Y-154899999D01*
X157288152Y-154899999D02*
X157288152Y-154709523D01*
X157288152Y-154709523D02*
X157335771Y-154614285D01*
X157335771Y-154614285D02*
X157431009Y-154566666D01*
X157431009Y-154566666D02*
X157526247Y-154566666D01*
X157526247Y-154566666D02*
X157621485Y-155042856D01*
X157954819Y-154138094D02*
X157288152Y-154138094D01*
X157478628Y-154138094D02*
X157383390Y-154090475D01*
X157383390Y-154090475D02*
X157335771Y-154042856D01*
X157335771Y-154042856D02*
X157288152Y-153947618D01*
X157288152Y-153947618D02*
X157288152Y-153852380D01*
X157431009Y-153185713D02*
X157478628Y-153042856D01*
X157478628Y-153042856D02*
X157526247Y-152995237D01*
X157526247Y-152995237D02*
X157621485Y-152947618D01*
X157621485Y-152947618D02*
X157764342Y-152947618D01*
X157764342Y-152947618D02*
X157859580Y-152995237D01*
X157859580Y-152995237D02*
X157907200Y-153042856D01*
X157907200Y-153042856D02*
X157954819Y-153138094D01*
X157954819Y-153138094D02*
X157954819Y-153519046D01*
X157954819Y-153519046D02*
X156954819Y-153519046D01*
X156954819Y-153519046D02*
X156954819Y-153185713D01*
X156954819Y-153185713D02*
X157002438Y-153090475D01*
X157002438Y-153090475D02*
X157050057Y-153042856D01*
X157050057Y-153042856D02*
X157145295Y-152995237D01*
X157145295Y-152995237D02*
X157240533Y-152995237D01*
X157240533Y-152995237D02*
X157335771Y-153042856D01*
X157335771Y-153042856D02*
X157383390Y-153090475D01*
X157383390Y-153090475D02*
X157431009Y-153185713D01*
X157431009Y-153185713D02*
X157431009Y-153519046D01*
X158050057Y-152757142D02*
X158050057Y-151995237D01*
X157859580Y-151185713D02*
X157907200Y-151233332D01*
X157907200Y-151233332D02*
X157954819Y-151376189D01*
X157954819Y-151376189D02*
X157954819Y-151471427D01*
X157954819Y-151471427D02*
X157907200Y-151614284D01*
X157907200Y-151614284D02*
X157811961Y-151709522D01*
X157811961Y-151709522D02*
X157716723Y-151757141D01*
X157716723Y-151757141D02*
X157526247Y-151804760D01*
X157526247Y-151804760D02*
X157383390Y-151804760D01*
X157383390Y-151804760D02*
X157192914Y-151757141D01*
X157192914Y-151757141D02*
X157097676Y-151709522D01*
X157097676Y-151709522D02*
X157002438Y-151614284D01*
X157002438Y-151614284D02*
X156954819Y-151471427D01*
X156954819Y-151471427D02*
X156954819Y-151376189D01*
X156954819Y-151376189D02*
X157002438Y-151233332D01*
X157002438Y-151233332D02*
X157050057Y-151185713D01*
X156954819Y-150899998D02*
X157954819Y-150566665D01*
X157954819Y-150566665D02*
X156954819Y-150233332D01*
X113859580Y-157680953D02*
X113907200Y-157728572D01*
X113907200Y-157728572D02*
X113954819Y-157871429D01*
X113954819Y-157871429D02*
X113954819Y-157966667D01*
X113954819Y-157966667D02*
X113907200Y-158109524D01*
X113907200Y-158109524D02*
X113811961Y-158204762D01*
X113811961Y-158204762D02*
X113716723Y-158252381D01*
X113716723Y-158252381D02*
X113526247Y-158300000D01*
X113526247Y-158300000D02*
X113383390Y-158300000D01*
X113383390Y-158300000D02*
X113192914Y-158252381D01*
X113192914Y-158252381D02*
X113097676Y-158204762D01*
X113097676Y-158204762D02*
X113002438Y-158109524D01*
X113002438Y-158109524D02*
X112954819Y-157966667D01*
X112954819Y-157966667D02*
X112954819Y-157871429D01*
X112954819Y-157871429D02*
X113002438Y-157728572D01*
X113002438Y-157728572D02*
X113050057Y-157680953D01*
X113954819Y-157252381D02*
X112954819Y-157252381D01*
X113954819Y-156823810D02*
X113431009Y-156823810D01*
X113431009Y-156823810D02*
X113335771Y-156871429D01*
X113335771Y-156871429D02*
X113288152Y-156966667D01*
X113288152Y-156966667D02*
X113288152Y-157109524D01*
X113288152Y-157109524D02*
X113335771Y-157204762D01*
X113335771Y-157204762D02*
X113383390Y-157252381D01*
X113954819Y-155919048D02*
X113431009Y-155919048D01*
X113431009Y-155919048D02*
X113335771Y-155966667D01*
X113335771Y-155966667D02*
X113288152Y-156061905D01*
X113288152Y-156061905D02*
X113288152Y-156252381D01*
X113288152Y-156252381D02*
X113335771Y-156347619D01*
X113907200Y-155919048D02*
X113954819Y-156014286D01*
X113954819Y-156014286D02*
X113954819Y-156252381D01*
X113954819Y-156252381D02*
X113907200Y-156347619D01*
X113907200Y-156347619D02*
X113811961Y-156395238D01*
X113811961Y-156395238D02*
X113716723Y-156395238D01*
X113716723Y-156395238D02*
X113621485Y-156347619D01*
X113621485Y-156347619D02*
X113573866Y-156252381D01*
X113573866Y-156252381D02*
X113573866Y-156014286D01*
X113573866Y-156014286D02*
X113526247Y-155919048D01*
X113288152Y-155442857D02*
X113954819Y-155442857D01*
X113383390Y-155442857D02*
X113335771Y-155395238D01*
X113335771Y-155395238D02*
X113288152Y-155300000D01*
X113288152Y-155300000D02*
X113288152Y-155157143D01*
X113288152Y-155157143D02*
X113335771Y-155061905D01*
X113335771Y-155061905D02*
X113431009Y-155014286D01*
X113431009Y-155014286D02*
X113954819Y-155014286D01*
X113288152Y-154538095D02*
X113954819Y-154538095D01*
X113383390Y-154538095D02*
X113335771Y-154490476D01*
X113335771Y-154490476D02*
X113288152Y-154395238D01*
X113288152Y-154395238D02*
X113288152Y-154252381D01*
X113288152Y-154252381D02*
X113335771Y-154157143D01*
X113335771Y-154157143D02*
X113431009Y-154109524D01*
X113431009Y-154109524D02*
X113954819Y-154109524D01*
X113907200Y-153252381D02*
X113954819Y-153347619D01*
X113954819Y-153347619D02*
X113954819Y-153538095D01*
X113954819Y-153538095D02*
X113907200Y-153633333D01*
X113907200Y-153633333D02*
X113811961Y-153680952D01*
X113811961Y-153680952D02*
X113431009Y-153680952D01*
X113431009Y-153680952D02*
X113335771Y-153633333D01*
X113335771Y-153633333D02*
X113288152Y-153538095D01*
X113288152Y-153538095D02*
X113288152Y-153347619D01*
X113288152Y-153347619D02*
X113335771Y-153252381D01*
X113335771Y-153252381D02*
X113431009Y-153204762D01*
X113431009Y-153204762D02*
X113526247Y-153204762D01*
X113526247Y-153204762D02*
X113621485Y-153680952D01*
X113954819Y-152633333D02*
X113907200Y-152728571D01*
X113907200Y-152728571D02*
X113811961Y-152776190D01*
X113811961Y-152776190D02*
X112954819Y-152776190D01*
X113669104Y-152299999D02*
X113669104Y-151823809D01*
X113954819Y-152395237D02*
X112954819Y-152061904D01*
X112954819Y-152061904D02*
X113954819Y-151728571D01*
X112954819Y-151204761D02*
X112954819Y-151014285D01*
X112954819Y-151014285D02*
X113002438Y-150919047D01*
X113002438Y-150919047D02*
X113097676Y-150823809D01*
X113097676Y-150823809D02*
X113288152Y-150776190D01*
X113288152Y-150776190D02*
X113621485Y-150776190D01*
X113621485Y-150776190D02*
X113811961Y-150823809D01*
X113811961Y-150823809D02*
X113907200Y-150919047D01*
X113907200Y-150919047D02*
X113954819Y-151014285D01*
X113954819Y-151014285D02*
X113954819Y-151204761D01*
X113954819Y-151204761D02*
X113907200Y-151299999D01*
X113907200Y-151299999D02*
X113811961Y-151395237D01*
X113811961Y-151395237D02*
X113621485Y-151442856D01*
X113621485Y-151442856D02*
X113288152Y-151442856D01*
X113288152Y-151442856D02*
X113097676Y-151395237D01*
X113097676Y-151395237D02*
X113002438Y-151299999D01*
X113002438Y-151299999D02*
X112954819Y-151204761D01*
X113288152Y-149919047D02*
X113954819Y-149919047D01*
X113288152Y-150347618D02*
X113811961Y-150347618D01*
X113811961Y-150347618D02*
X113907200Y-150299999D01*
X113907200Y-150299999D02*
X113954819Y-150204761D01*
X113954819Y-150204761D02*
X113954819Y-150061904D01*
X113954819Y-150061904D02*
X113907200Y-149966666D01*
X113907200Y-149966666D02*
X113859580Y-149919047D01*
X113288152Y-149585713D02*
X113288152Y-149204761D01*
X112954819Y-149442856D02*
X113811961Y-149442856D01*
X113811961Y-149442856D02*
X113907200Y-149395237D01*
X113907200Y-149395237D02*
X113954819Y-149299999D01*
X113954819Y-149299999D02*
X113954819Y-149204761D01*
D12*
%TO.C,Filter_A_Cutoff1*%
X105039000Y-62440000D02*
X114960000Y-62440000D01*
X105039000Y-66305000D02*
X105039000Y-62440000D01*
X105039000Y-74560000D02*
X105039000Y-70694000D01*
X105039000Y-74560000D02*
X106675000Y-74560000D01*
X108325000Y-74560000D02*
X109175000Y-74560000D01*
X110825000Y-74560000D02*
X111675000Y-74560000D01*
X113325000Y-74560000D02*
X114960000Y-74560000D01*
X114960000Y-66305000D02*
X114960000Y-62440000D01*
X114960000Y-74560000D02*
X114960000Y-70694000D01*
X107237568Y-66828018D02*
G75*
G02*
X112762000Y-66827000I2762432J-1171982D01*
G01*
X112297753Y-69928295D02*
G75*
G02*
X107702000Y-69928000I-2297753J1928295D01*
G01*
%TO.C,Filter_Slope_Pot1*%
X125039000Y-53440000D02*
X134960000Y-53440000D01*
X125039000Y-57305000D02*
X125039000Y-53440000D01*
X125039000Y-65560000D02*
X125039000Y-61694000D01*
X125039000Y-65560000D02*
X126675000Y-65560000D01*
X128325000Y-65560000D02*
X129175000Y-65560000D01*
X130825000Y-65560000D02*
X131675000Y-65560000D01*
X133325000Y-65560000D02*
X134960000Y-65560000D01*
X134960000Y-57305000D02*
X134960000Y-53440000D01*
X134960000Y-65560000D02*
X134960000Y-61694000D01*
X127237568Y-57828018D02*
G75*
G02*
X132762000Y-57827000I2762432J-1171982D01*
G01*
X132297753Y-60928295D02*
G75*
G02*
X127702000Y-60928000I-2297753J1928295D01*
G01*
D10*
%TO.C,SW1*%
X127319000Y-106103400D02*
X127319000Y-97936000D01*
X132681000Y-100286000D02*
X132681000Y-97986000D01*
X132681000Y-106078000D02*
X132681000Y-103878000D01*
D12*
%TO.C,D1*%
X107764000Y-82560000D02*
X107920000Y-82560000D01*
X110080000Y-82560000D02*
X110236000Y-82560000D01*
X107764484Y-82560000D02*
G75*
G02*
X107921392Y-79327665I1235517J1560000D01*
G01*
X107920000Y-82040961D02*
G75*
G02*
X107920163Y-79958870I1080000J1040961D01*
G01*
X110078608Y-79327665D02*
G75*
G02*
X110235516Y-82560000I-1078609J-1672335D01*
G01*
X110079837Y-79958870D02*
G75*
G02*
X110080000Y-82040961I-1079837J-1041130D01*
G01*
D10*
%TO.C,J13*%
X136500000Y-159000000D02*
X136500000Y-148500000D01*
X139095000Y-148555000D02*
X139095000Y-149190000D01*
X139095000Y-149190000D02*
X136555000Y-149190000D01*
X139095000Y-151095000D02*
X142905000Y-151095000D01*
X142905000Y-148555000D02*
X139095000Y-148555000D01*
X142905000Y-149190000D02*
X142905000Y-148555000D01*
X142905000Y-154905000D02*
X139095000Y-154905000D01*
X145445000Y-149190000D02*
X142905000Y-149190000D01*
X145500000Y-148500000D02*
X136500000Y-148500000D01*
X145500000Y-159000000D02*
X136500000Y-159000000D01*
X145500000Y-159000000D02*
X145500000Y-148500000D01*
X139095000Y-154905000D02*
G75*
G02*
X139095000Y-151095000I1905000J1905000D01*
G01*
X142905000Y-151095000D02*
G75*
G02*
X142905000Y-154905000I-1904999J-1905000D01*
G01*
X142796051Y-153000000D02*
G75*
G02*
X139203949Y-153000000I-1796051J0D01*
G01*
X139203949Y-153000000D02*
G75*
G02*
X142796051Y-153000000I1796051J0D01*
G01*
D12*
%TO.C,Stretch_Trim1*%
X125039000Y-119440000D02*
X134960000Y-119440000D01*
X125039000Y-123305000D02*
X125039000Y-119440000D01*
X125039000Y-131560000D02*
X125039000Y-127694000D01*
X125039000Y-131560000D02*
X126675000Y-131560000D01*
X128325000Y-131560000D02*
X129175000Y-131560000D01*
X130825000Y-131560000D02*
X131675000Y-131560000D01*
X133325000Y-131560000D02*
X134960000Y-131560000D01*
X134960000Y-123305000D02*
X134960000Y-119440000D01*
X134960000Y-131560000D02*
X134960000Y-127694000D01*
X127237568Y-123828018D02*
G75*
G02*
X132762000Y-123827000I2762432J-1171982D01*
G01*
X132297753Y-126928295D02*
G75*
G02*
X127702000Y-126928000I-2297753J1928295D01*
G01*
D10*
%TO.C,J10*%
X103500000Y-159000000D02*
X103500000Y-148500000D01*
X106095000Y-148555000D02*
X106095000Y-149190000D01*
X106095000Y-149190000D02*
X103555000Y-149190000D01*
X106095000Y-151095000D02*
X109905000Y-151095000D01*
X109905000Y-148555000D02*
X106095000Y-148555000D01*
X109905000Y-149190000D02*
X109905000Y-148555000D01*
X109905000Y-154905000D02*
X106095000Y-154905000D01*
X112445000Y-149190000D02*
X109905000Y-149190000D01*
X112500000Y-148500000D02*
X103500000Y-148500000D01*
X112500000Y-159000000D02*
X103500000Y-159000000D01*
X112500000Y-159000000D02*
X112500000Y-148500000D01*
X106095000Y-154905000D02*
G75*
G02*
X106095000Y-151095000I1905000J1905000D01*
G01*
X109905000Y-151095000D02*
G75*
G02*
X109905000Y-154905000I-1904999J-1905000D01*
G01*
X109796051Y-153000000D02*
G75*
G02*
X106203949Y-153000000I-1796051J0D01*
G01*
X106203949Y-153000000D02*
G75*
G02*
X109796051Y-153000000I1796051J0D01*
G01*
%TO.C,J9*%
X135500000Y-146000000D02*
X135500000Y-135500000D01*
X138095000Y-135555000D02*
X138095000Y-136190000D01*
X138095000Y-136190000D02*
X135555000Y-136190000D01*
X138095000Y-138095000D02*
X141905000Y-138095000D01*
X141905000Y-135555000D02*
X138095000Y-135555000D01*
X141905000Y-136190000D02*
X141905000Y-135555000D01*
X141905000Y-141905000D02*
X138095000Y-141905000D01*
X144445000Y-136190000D02*
X141905000Y-136190000D01*
X144500000Y-135500000D02*
X135500000Y-135500000D01*
X144500000Y-146000000D02*
X135500000Y-146000000D01*
X144500000Y-146000000D02*
X144500000Y-135500000D01*
X138095000Y-141905000D02*
G75*
G02*
X138095000Y-138095000I1905000J1905000D01*
G01*
X141905000Y-138095000D02*
G75*
G02*
X141905000Y-141905000I-1904999J-1905000D01*
G01*
X141796051Y-140000000D02*
G75*
G02*
X138203949Y-140000000I-1796051J0D01*
G01*
X138203949Y-140000000D02*
G75*
G02*
X141796051Y-140000000I1796051J0D01*
G01*
D12*
%TO.C,Filter_A_Trim1*%
X103039000Y-85440000D02*
X112960000Y-85440000D01*
X103039000Y-89305000D02*
X103039000Y-85440000D01*
X103039000Y-97560000D02*
X103039000Y-93694000D01*
X103039000Y-97560000D02*
X104675000Y-97560000D01*
X106325000Y-97560000D02*
X107175000Y-97560000D01*
X108825000Y-97560000D02*
X109675000Y-97560000D01*
X111325000Y-97560000D02*
X112960000Y-97560000D01*
X112960000Y-89305000D02*
X112960000Y-85440000D01*
X112960000Y-97560000D02*
X112960000Y-93694000D01*
X105237568Y-89828018D02*
G75*
G02*
X110762000Y-89827000I2762432J-1171982D01*
G01*
X110297753Y-92928295D02*
G75*
G02*
X105702000Y-92928000I-2297753J1928295D01*
G01*
%TO.C,D3*%
X131560000Y-134920000D02*
X131560000Y-134764000D01*
X131560000Y-137236000D02*
X131560000Y-137080000D01*
X128327665Y-134921392D02*
G75*
G02*
X131560000Y-134764484I1672335J-1078609D01*
G01*
X128958870Y-134920163D02*
G75*
G02*
X131040961Y-134920000I1041130J-1079837D01*
G01*
X131040961Y-137080000D02*
G75*
G02*
X128958870Y-137079837I-1040961J1080000D01*
G01*
X131560000Y-137235516D02*
G75*
G02*
X128327665Y-137078608I-1560000J1235517D01*
G01*
D10*
%TO.C,J6*%
X115500000Y-146000000D02*
X115500000Y-135500000D01*
X118095000Y-135555000D02*
X118095000Y-136190000D01*
X118095000Y-136190000D02*
X115555000Y-136190000D01*
X118095000Y-138095000D02*
X121905000Y-138095000D01*
X121905000Y-135555000D02*
X118095000Y-135555000D01*
X121905000Y-136190000D02*
X121905000Y-135555000D01*
X121905000Y-141905000D02*
X118095000Y-141905000D01*
X124445000Y-136190000D02*
X121905000Y-136190000D01*
X124500000Y-135500000D02*
X115500000Y-135500000D01*
X124500000Y-146000000D02*
X115500000Y-146000000D01*
X124500000Y-146000000D02*
X124500000Y-135500000D01*
X118095000Y-141905000D02*
G75*
G02*
X118095000Y-138095000I1905000J1905000D01*
G01*
X121905000Y-138095000D02*
G75*
G02*
X121905000Y-141905000I-1904999J-1905000D01*
G01*
X121796051Y-140000000D02*
G75*
G02*
X118203949Y-140000000I-1796051J0D01*
G01*
X118203949Y-140000000D02*
G75*
G02*
X121796051Y-140000000I1796051J0D01*
G01*
D12*
%TO.C,Filter_B_Cutoff1*%
X145039000Y-62440000D02*
X154960000Y-62440000D01*
X145039000Y-66305000D02*
X145039000Y-62440000D01*
X145039000Y-74560000D02*
X145039000Y-70694000D01*
X145039000Y-74560000D02*
X146675000Y-74560000D01*
X148325000Y-74560000D02*
X149175000Y-74560000D01*
X150825000Y-74560000D02*
X151675000Y-74560000D01*
X153325000Y-74560000D02*
X154960000Y-74560000D01*
X154960000Y-66305000D02*
X154960000Y-62440000D01*
X154960000Y-74560000D02*
X154960000Y-70694000D01*
X147237568Y-66828018D02*
G75*
G02*
X152762000Y-66827000I2762432J-1171982D01*
G01*
X152297753Y-69928295D02*
G75*
G02*
X147702000Y-69928000I-2297753J1928295D01*
G01*
%TO.C,J16*%
X146170000Y-108670000D02*
X147500000Y-108670000D01*
X146170000Y-110000000D02*
X146170000Y-108670000D01*
X146170000Y-111270000D02*
X146170000Y-113870000D01*
X146170000Y-111270000D02*
X148830000Y-111270000D01*
X146170000Y-113870000D02*
X148830000Y-113870000D01*
X148830000Y-111270000D02*
X148830000Y-113870000D01*
%TO.C,Filter_B_Trim1*%
X147039000Y-85440000D02*
X156960000Y-85440000D01*
X147039000Y-89305000D02*
X147039000Y-85440000D01*
X147039000Y-97560000D02*
X147039000Y-93694000D01*
X147039000Y-97560000D02*
X148675000Y-97560000D01*
X150325000Y-97560000D02*
X151175000Y-97560000D01*
X152825000Y-97560000D02*
X153675000Y-97560000D01*
X155325000Y-97560000D02*
X156960000Y-97560000D01*
X156960000Y-89305000D02*
X156960000Y-85440000D01*
X156960000Y-97560000D02*
X156960000Y-93694000D01*
X149237568Y-89828018D02*
G75*
G02*
X154762000Y-89827000I2762432J-1171982D01*
G01*
X154297753Y-92928295D02*
G75*
G02*
X149702000Y-92928000I-2297753J1928295D01*
G01*
%TO.C,Harmonic_Warp_Pot1*%
X105039000Y-115440000D02*
X114960000Y-115440000D01*
X105039000Y-119305000D02*
X105039000Y-115440000D01*
X105039000Y-127560000D02*
X105039000Y-123694000D01*
X105039000Y-127560000D02*
X106675000Y-127560000D01*
X108325000Y-127560000D02*
X109175000Y-127560000D01*
X110825000Y-127560000D02*
X111675000Y-127560000D01*
X113325000Y-127560000D02*
X114960000Y-127560000D01*
X114960000Y-119305000D02*
X114960000Y-115440000D01*
X114960000Y-127560000D02*
X114960000Y-123694000D01*
X107237568Y-119828018D02*
G75*
G02*
X112762000Y-119827000I2762432J-1171982D01*
G01*
X112297753Y-122928295D02*
G75*
G02*
X107702000Y-122928000I-2297753J1928295D01*
G01*
D10*
%TO.C,J5*%
X103500000Y-146000000D02*
X103500000Y-135500000D01*
X106095000Y-135555000D02*
X106095000Y-136190000D01*
X106095000Y-136190000D02*
X103555000Y-136190000D01*
X106095000Y-138095000D02*
X109905000Y-138095000D01*
X109905000Y-135555000D02*
X106095000Y-135555000D01*
X109905000Y-136190000D02*
X109905000Y-135555000D01*
X109905000Y-141905000D02*
X106095000Y-141905000D01*
X112445000Y-136190000D02*
X109905000Y-136190000D01*
X112500000Y-135500000D02*
X103500000Y-135500000D01*
X112500000Y-146000000D02*
X103500000Y-146000000D01*
X112500000Y-146000000D02*
X112500000Y-135500000D01*
X106095000Y-141905000D02*
G75*
G02*
X106095000Y-138095000I1905000J1905000D01*
G01*
X109905000Y-138095000D02*
G75*
G02*
X109905000Y-141905000I-1904999J-1905000D01*
G01*
X109796051Y-140000000D02*
G75*
G02*
X106203949Y-140000000I-1796051J0D01*
G01*
X106203949Y-140000000D02*
G75*
G02*
X109796051Y-140000000I1796051J0D01*
G01*
%TO.C,SW2*%
D12*
X123600000Y-74550000D02*
X136400000Y-74550000D01*
X136400000Y-81450000D01*
X123600000Y-81450000D01*
X123600000Y-74550000D01*
D10*
%TO.C,J7*%
X147500000Y-146000000D02*
X147500000Y-135500000D01*
X150095000Y-135555000D02*
X150095000Y-136190000D01*
X150095000Y-136190000D02*
X147555000Y-136190000D01*
X150095000Y-138095000D02*
X153905000Y-138095000D01*
X153905000Y-135555000D02*
X150095000Y-135555000D01*
X153905000Y-136190000D02*
X153905000Y-135555000D01*
X153905000Y-141905000D02*
X150095000Y-141905000D01*
X156445000Y-136190000D02*
X153905000Y-136190000D01*
X156500000Y-135500000D02*
X147500000Y-135500000D01*
X156500000Y-146000000D02*
X147500000Y-146000000D01*
X156500000Y-146000000D02*
X156500000Y-135500000D01*
X150095000Y-141905000D02*
G75*
G02*
X150095000Y-138095000I1905000J1905000D01*
G01*
X153905000Y-138095000D02*
G75*
G02*
X153905000Y-141905000I-1904999J-1905000D01*
G01*
X153796051Y-140000000D02*
G75*
G02*
X150203949Y-140000000I-1796051J0D01*
G01*
X150203949Y-140000000D02*
G75*
G02*
X153796051Y-140000000I1796051J0D01*
G01*
D12*
%TO.C,J15*%
X111070000Y-108670000D02*
X112400000Y-108670000D01*
X111070000Y-110000000D02*
X111070000Y-108670000D01*
X111070000Y-111270000D02*
X111070000Y-113870000D01*
X111070000Y-111270000D02*
X113730000Y-111270000D01*
X111070000Y-113870000D02*
X113730000Y-113870000D01*
X113730000Y-111270000D02*
X113730000Y-113870000D01*
D10*
%TO.C,J8*%
X125500000Y-159000000D02*
X125500000Y-148500000D01*
X128095000Y-148555000D02*
X128095000Y-149190000D01*
X128095000Y-149190000D02*
X125555000Y-149190000D01*
X128095000Y-151095000D02*
X131905000Y-151095000D01*
X131905000Y-148555000D02*
X128095000Y-148555000D01*
X131905000Y-149190000D02*
X131905000Y-148555000D01*
X131905000Y-154905000D02*
X128095000Y-154905000D01*
X134445000Y-149190000D02*
X131905000Y-149190000D01*
X134500000Y-148500000D02*
X125500000Y-148500000D01*
X134500000Y-159000000D02*
X125500000Y-159000000D01*
X134500000Y-159000000D02*
X134500000Y-148500000D01*
X128095000Y-154905000D02*
G75*
G02*
X128095000Y-151095000I1905000J1905000D01*
G01*
X131905000Y-151095000D02*
G75*
G02*
X131905000Y-154905000I-1904999J-1905000D01*
G01*
X131796051Y-153000000D02*
G75*
G02*
X128203949Y-153000000I-1796051J0D01*
G01*
X128203949Y-153000000D02*
G75*
G02*
X131796051Y-153000000I1796051J0D01*
G01*
D12*
%TO.C,SW3*%
X126500000Y-141250000D02*
X126500000Y-142750000D01*
X127750000Y-145250000D02*
X132250000Y-145250000D01*
X132250000Y-138750000D02*
X127750000Y-138750000D01*
X133500000Y-142750000D02*
X133500000Y-141250000D01*
%TO.C,Harmonic_Stretch_Pot1*%
X145039000Y-115440000D02*
X154960000Y-115440000D01*
X145039000Y-119305000D02*
X145039000Y-115440000D01*
X145039000Y-127560000D02*
X145039000Y-123694000D01*
X145039000Y-127560000D02*
X146675000Y-127560000D01*
X148325000Y-127560000D02*
X149175000Y-127560000D01*
X150825000Y-127560000D02*
X151675000Y-127560000D01*
X153325000Y-127560000D02*
X154960000Y-127560000D01*
X154960000Y-119305000D02*
X154960000Y-115440000D01*
X154960000Y-127560000D02*
X154960000Y-123694000D01*
X147237568Y-119828018D02*
G75*
G02*
X152762000Y-119827000I2762432J-1171982D01*
G01*
X152297753Y-122928295D02*
G75*
G02*
X147702000Y-122928000I-2297753J1928295D01*
G01*
%TO.C,J14*%
X126115000Y-83170000D02*
X126115000Y-85830000D01*
X131255000Y-83170000D02*
X126115000Y-83170000D01*
X131255000Y-83170000D02*
X131255000Y-85830000D01*
X131255000Y-85830000D02*
X126115000Y-85830000D01*
X132525000Y-83170000D02*
X133855000Y-83170000D01*
X133855000Y-83170000D02*
X133855000Y-84500000D01*
%TO.C,D2*%
X149764000Y-82560000D02*
X149920000Y-82560000D01*
X152080000Y-82560000D02*
X152236000Y-82560000D01*
X149764484Y-82560000D02*
G75*
G02*
X149921392Y-79327665I1235517J1560000D01*
G01*
X149920000Y-82040961D02*
G75*
G02*
X149920163Y-79958870I1080000J1040961D01*
G01*
X152078608Y-79327665D02*
G75*
G02*
X152235516Y-82560000I-1078609J-1672335D01*
G01*
X152079837Y-79958870D02*
G75*
G02*
X152080000Y-82040961I-1079837J-1041130D01*
G01*
D10*
%TO.C,J11*%
X147500000Y-159000000D02*
X147500000Y-148500000D01*
X150095000Y-148555000D02*
X150095000Y-149190000D01*
X150095000Y-149190000D02*
X147555000Y-149190000D01*
X150095000Y-151095000D02*
X153905000Y-151095000D01*
X153905000Y-148555000D02*
X150095000Y-148555000D01*
X153905000Y-149190000D02*
X153905000Y-148555000D01*
X153905000Y-154905000D02*
X150095000Y-154905000D01*
X156445000Y-149190000D02*
X153905000Y-149190000D01*
X156500000Y-148500000D02*
X147500000Y-148500000D01*
X156500000Y-159000000D02*
X147500000Y-159000000D01*
X156500000Y-159000000D02*
X156500000Y-148500000D01*
X150095000Y-154905000D02*
G75*
G02*
X150095000Y-151095000I1905000J1905000D01*
G01*
X153905000Y-151095000D02*
G75*
G02*
X153905000Y-154905000I-1904999J-1905000D01*
G01*
X153796051Y-153000000D02*
G75*
G02*
X150203949Y-153000000I-1796051J0D01*
G01*
X150203949Y-153000000D02*
G75*
G02*
X153796051Y-153000000I1796051J0D01*
G01*
%TO.C,J12*%
X114500000Y-159000000D02*
X114500000Y-148500000D01*
X117095000Y-148555000D02*
X117095000Y-149190000D01*
X117095000Y-149190000D02*
X114555000Y-149190000D01*
X117095000Y-151095000D02*
X120905000Y-151095000D01*
X120905000Y-148555000D02*
X117095000Y-148555000D01*
X120905000Y-149190000D02*
X120905000Y-148555000D01*
X120905000Y-154905000D02*
X117095000Y-154905000D01*
X123445000Y-149190000D02*
X120905000Y-149190000D01*
X123500000Y-148500000D02*
X114500000Y-148500000D01*
X123500000Y-159000000D02*
X114500000Y-159000000D01*
X123500000Y-159000000D02*
X123500000Y-148500000D01*
X117095000Y-154905000D02*
G75*
G02*
X117095000Y-151095000I1905000J1905000D01*
G01*
X120905000Y-151095000D02*
G75*
G02*
X120905000Y-154905000I-1904999J-1905000D01*
G01*
X120796051Y-153000000D02*
G75*
G02*
X117203949Y-153000000I-1796051J0D01*
G01*
X117203949Y-153000000D02*
G75*
G02*
X120796051Y-153000000I1796051J0D01*
G01*
%TD*%
M02*
