%TF.GenerationSoftware,KiCad,Pcbnew,8.0.7*%
%TF.CreationDate,2025-01-14T15:56:34+00:00*%
%TF.ProjectId,Spectralist_Components,53706563-7472-4616-9c69-73745f436f6d,rev?*%
%TF.SameCoordinates,Original*%
%TF.FileFunction,Copper,L1,Top*%
%TF.FilePolarity,Positive*%
%FSLAX46Y46*%
G04 Gerber Fmt 4.6, Leading zero omitted, Abs format (unit mm)*
G04 Created by KiCad (PCBNEW 8.0.7) date 2025-01-14 15:56:34*
%MOMM*%
%LPD*%
G01*
G04 APERTURE LIST*
%TA.AperFunction,ComponentPad*%
%ADD10R,1.700000X1.700000*%
%TD*%
%TA.AperFunction,ComponentPad*%
%ADD11O,1.700000X1.700000*%
%TD*%
%TA.AperFunction,ComponentPad*%
%ADD12C,2.000000*%
%TD*%
%TA.AperFunction,ComponentPad*%
%ADD13O,1.250000X0.950000*%
%TD*%
%TA.AperFunction,ComponentPad*%
%ADD14O,1.000000X1.550000*%
%TD*%
%TA.AperFunction,ComponentPad*%
%ADD15C,1.700000*%
%TD*%
%TA.AperFunction,ViaPad*%
%ADD16C,0.800000*%
%TD*%
%TA.AperFunction,ViaPad*%
%ADD17C,1.000000*%
%TD*%
%TA.AperFunction,Conductor*%
%ADD18C,0.500000*%
%TD*%
%TA.AperFunction,Conductor*%
%ADD19C,0.300000*%
%TD*%
%TA.AperFunction,Conductor*%
%ADD20C,0.250000*%
%TD*%
G04 APERTURE END LIST*
D10*
%TO.P,J2,1,Pin_1*%
%TO.N,+3.3V*%
X158000000Y-58000000D03*
D11*
%TO.P,J2,2,Pin_2*%
%TO.N,/Filter_Mode*%
X158000000Y-60540000D03*
%TO.P,J2,3,Pin_3*%
%TO.N,/Harmonic_Mode*%
X158000000Y-63080000D03*
%TO.P,J2,4,Pin_4*%
%TO.N,GND*%
X158000000Y-65620000D03*
%TO.P,J2,5,Pin_5*%
%TO.N,/Octave_Btn*%
X158000000Y-68160000D03*
%TO.P,J2,6,Pin_6*%
%TO.N,/Filter_A_Pot*%
X158000000Y-70700000D03*
%TO.P,J2,7,Pin_7*%
%TO.N,/Filter_A_Trm*%
X158000000Y-73240000D03*
%TO.P,J2,8,Pin_8*%
%TO.N,+12V*%
X158000000Y-75780000D03*
%TD*%
D10*
%TO.P,J4,1,Pin_1*%
%TO.N,+3.3VA*%
X158000000Y-119000000D03*
D11*
%TO.P,J4,2,Pin_2*%
%TO.N,GND*%
X158000000Y-121540000D03*
%TO.P,J4,3,Pin_3*%
%TO.N,/Harm_Stretch_CV_In*%
X158000000Y-124080000D03*
%TO.P,J4,4,Pin_4*%
%TO.N,/Pitch_CV_In*%
X158000000Y-126620000D03*
%TO.P,J4,5,Pin_5*%
%TO.N,/Filter_Slope_CV_In*%
X158000000Y-129160000D03*
%TO.P,J4,6,Pin_6*%
%TO.N,GND*%
X158000000Y-131700000D03*
%TO.P,J4,7,Pin_7*%
%TO.N,/Filter_A_CV_In*%
X158000000Y-134240000D03*
%TO.P,J4,8,Pin_8*%
%TO.N,/Harm_Warp_CV_In*%
X158000000Y-136780000D03*
%TO.P,J4,9,Pin_9*%
%TO.N,/Pan_CV_In*%
X158000000Y-139320000D03*
%TO.P,J4,10,Pin_10*%
%TO.N,/Filter_B_CV_In*%
X158000000Y-141860000D03*
%TD*%
D10*
%TO.P,J1,1,Pin_1*%
%TO.N,GND*%
X102000000Y-58000000D03*
D11*
%TO.P,J1,2,Pin_2*%
%TO.N,/LED_SCL*%
X102000000Y-60540000D03*
%TO.P,J1,3,Pin_3*%
%TO.N,/LED_SDA*%
X102000000Y-63080000D03*
%TO.P,J1,4,Pin_4*%
%TO.N,GND*%
X102000000Y-65620000D03*
%TO.P,J1,5,Pin_5*%
%TO.N,/LED_Filter_A_Out*%
X102000000Y-68160000D03*
%TO.P,J1,6,Pin_6*%
%TO.N,/LED_Oct_Out*%
X102000000Y-70700000D03*
%TO.P,J1,7,Pin_7*%
%TO.N,GND*%
X102000000Y-73240000D03*
%TO.P,J1,8,Pin_8*%
%TO.N,/LED_Filter_B_Out*%
X102000000Y-75780000D03*
%TD*%
D10*
%TO.P,J3,1,Pin_1*%
%TO.N,/Filter_B_Trm*%
X102000000Y-119000000D03*
D11*
%TO.P,J3,2,Pin_2*%
%TO.N,/Audio_Out_L*%
X102000000Y-121540000D03*
%TO.P,J3,3,Pin_3*%
%TO.N,GND*%
X102000000Y-124080000D03*
%TO.P,J3,4,Pin_4*%
%TO.N,/Audio_Out_R*%
X102000000Y-126620000D03*
%TO.P,J3,5,Pin_5*%
%TO.N,/Filter_B_Pot*%
X102000000Y-129160000D03*
%TO.P,J3,6,Pin_6*%
%TO.N,/Filter_Slope_Pot*%
X102000000Y-131700000D03*
%TO.P,J3,7,Pin_7*%
%TO.N,GND*%
X102000000Y-134240000D03*
%TO.P,J3,8,Pin_8*%
%TO.N,/Harm_Warp_Pot*%
X102000000Y-136780000D03*
%TO.P,J3,9,Pin_9*%
%TO.N,/Harm_Stretch_Trm*%
X102000000Y-139320000D03*
%TO.P,J3,10,Pin_10*%
%TO.N,/Harm_Stretch_Pot*%
X102000000Y-141860000D03*
%TD*%
D12*
%TO.P,TP8,1,1*%
%TO.N,GND*%
X157000000Y-146500000D03*
%TD*%
%TO.P,TP6,1,1*%
%TO.N,+3.3VA*%
X145000000Y-57000000D03*
%TD*%
%TO.P,TP5,1,1*%
%TO.N,+3.3V*%
X153000000Y-57000000D03*
%TD*%
D10*
%TO.P,J7,1,Pin_1*%
%TO.N,/UART_TX*%
X128725000Y-78200000D03*
D11*
%TO.P,J7,2,Pin_2*%
%TO.N,/UART_RX*%
X131265000Y-78200000D03*
%TD*%
D12*
%TO.P,TP2,1,1*%
%TO.N,+12V*%
X149000000Y-57000000D03*
%TD*%
%TO.P,TP3,1,1*%
%TO.N,-12V*%
X139100000Y-146700000D03*
%TD*%
%TO.P,TP7,1,1*%
%TO.N,/-5V_REF*%
X147800000Y-146600000D03*
%TD*%
D13*
%TO.P,J8,*%
%TO.N,*%
X132500000Y-144415000D03*
X127500000Y-144415000D03*
D14*
X126500000Y-147115000D03*
%TO.P,J8,6,Shield*%
%TO.N,unconnected-(J8-Shield-Pad6)*%
X133500000Y-147115000D03*
%TD*%
D10*
%TO.P,J5,1,Pin_1*%
%TO.N,/-12V_IN*%
X124900000Y-55125000D03*
D15*
%TO.P,J5,2,Pin_2*%
X124900000Y-57665000D03*
%TO.P,J5,3,Pin_3*%
%TO.N,GND*%
X127440000Y-55125000D03*
%TO.P,J5,4,Pin_4*%
X127440000Y-57665000D03*
%TO.P,J5,5,Pin_5*%
X129980000Y-55125000D03*
%TO.P,J5,6,Pin_6*%
X129980000Y-57665000D03*
%TO.P,J5,7,Pin_7*%
X132520000Y-55125000D03*
%TO.P,J5,8,Pin_8*%
X132520000Y-57665000D03*
%TO.P,J5,9,Pin_9*%
%TO.N,/+12V_IN*%
X135060000Y-55125000D03*
%TO.P,J5,10,Pin_10*%
X135060000Y-57665000D03*
%TD*%
D12*
%TO.P,TP4,1,1*%
%TO.N,GND*%
X103400000Y-146800000D03*
%TD*%
D10*
%TO.P,J6,1,Pin_1*%
%TO.N,+3.3V*%
X109200000Y-83600000D03*
D15*
%TO.P,J6,2,Pin_2*%
%TO.N,GND*%
X109200000Y-81060000D03*
%TO.P,J6,3,Pin_3*%
%TO.N,/SWIO*%
X109200000Y-78520000D03*
%TO.P,J6,4,Pin_4*%
%TO.N,/SWCLK*%
X109200000Y-75980000D03*
%TD*%
D16*
%TO.N,GND*%
X110800000Y-62600000D03*
X115100000Y-62700000D03*
X143900000Y-77700000D03*
X139000000Y-74300000D03*
X126000000Y-71900000D03*
X125800000Y-67700000D03*
X136400000Y-72000000D03*
X130900000Y-93500000D03*
X130300000Y-96900000D03*
X133400000Y-97700000D03*
X138000000Y-114700000D03*
X140300000Y-109300000D03*
X148000000Y-113100000D03*
X141300000Y-112300000D03*
X129200000Y-142200000D03*
X127800000Y-147600000D03*
X131800000Y-148500000D03*
X143000000Y-132900000D03*
X138200000Y-131800000D03*
X116400000Y-110400000D03*
X133700000Y-110600000D03*
X158200000Y-78300000D03*
X153200000Y-81100000D03*
X141800000Y-83900000D03*
X145400000Y-80700000D03*
X151600000Y-74300000D03*
X155000000Y-59900000D03*
X154800000Y-69500000D03*
X158500000Y-54100000D03*
X148700000Y-60200000D03*
X111400000Y-67700000D03*
X122700000Y-76200000D03*
X114300000Y-76200000D03*
X138700000Y-127600000D03*
X148000000Y-126900000D03*
X151800000Y-125500000D03*
X123300000Y-112700000D03*
X124800000Y-110400000D03*
X120200000Y-101200000D03*
X100900000Y-78200000D03*
X106000000Y-90400000D03*
X120300000Y-97300000D03*
X120200000Y-92400000D03*
D17*
%TO.N,+12V*%
X119800000Y-74600000D03*
X119400000Y-138700000D03*
D16*
%TO.N,GND*%
X108984980Y-123257773D03*
X114200000Y-56600000D03*
X116436397Y-135863603D03*
X108787500Y-118400000D03*
X143400000Y-67380000D03*
X119900000Y-116000000D03*
X122794390Y-86005610D03*
X124400000Y-129700000D03*
X136700000Y-102244436D03*
X137125000Y-105910460D03*
X122587500Y-119200000D03*
X141750000Y-100900000D03*
X141800000Y-95800000D03*
X143900000Y-98100000D03*
X133900000Y-133000000D03*
X117800000Y-133400000D03*
X147700000Y-68550000D03*
X143000000Y-71580000D03*
X108557353Y-117030147D03*
X120400000Y-88200000D03*
X144550000Y-99900000D03*
X118584740Y-122038449D03*
X117400000Y-86500000D03*
X135100000Y-127100000D03*
X136000000Y-92600000D03*
X124000000Y-106600000D03*
X137750000Y-67867500D03*
X116600000Y-88200000D03*
X108787500Y-120200000D03*
X137800000Y-137900000D03*
X112800000Y-54500000D03*
X121525000Y-67400000D03*
X147588603Y-64038603D03*
X144550000Y-89775000D03*
X147700000Y-67450000D03*
X142859505Y-139273553D03*
X122225000Y-71900000D03*
X125600000Y-88000000D03*
X115930147Y-121057353D03*
X109100000Y-130380029D03*
X142900000Y-118700000D03*
X140900000Y-62680000D03*
X134000000Y-84400000D03*
X147800002Y-93699998D03*
X137600000Y-66400000D03*
X142800000Y-121500000D03*
X148136397Y-71586397D03*
X139100000Y-65780000D03*
X137300000Y-86100000D03*
X134700000Y-81600000D03*
X137900000Y-120000000D03*
X116725000Y-71000000D03*
X115500000Y-117400000D03*
X125433794Y-106533794D03*
D17*
%TO.N,-12V*%
X115600000Y-132100000D03*
X112800000Y-62400000D03*
X133900000Y-131400000D03*
D16*
%TO.N,+3.3VA*%
X115400000Y-115500000D03*
X133900000Y-134700000D03*
X146200000Y-119000006D03*
X140709208Y-101038772D03*
X146100000Y-138000000D03*
X134900000Y-73200000D03*
%TO.N,/VSW*%
X146200000Y-77050000D03*
X149332353Y-67432353D03*
X146000000Y-70250000D03*
X146200000Y-76100000D03*
%TO.N,+3.3V*%
X123000000Y-103300000D03*
X139100000Y-83300000D03*
X140825000Y-91600000D03*
X137000000Y-104100000D03*
X118900000Y-86200000D03*
%TO.N,/Filter_B_Trm*%
X131800000Y-95200000D03*
X116300000Y-109000000D03*
%TO.N,/Harm_Stretch_CV_In*%
X140200000Y-111100000D03*
X133700000Y-117100002D03*
%TO.N,/Harm_Warp_CV*%
X133200000Y-109100000D03*
X132900000Y-126100000D03*
%TO.N,/Pan_CV*%
X133200000Y-95775000D03*
X140100000Y-130600000D03*
%TO.N,/-5V_REF*%
X142100000Y-131200000D03*
X150000000Y-138100000D03*
X149600000Y-120100000D03*
%TO.N,/Filter_A_CV*%
X135000000Y-109900000D03*
X135000000Y-96700000D03*
%TO.N,/USB_VBUS*%
X131400000Y-146800000D03*
X110800000Y-91800000D03*
%TO.N,/USB_D+*%
X129000000Y-147900000D03*
X108700000Y-92400000D03*
%TO.N,/USB_D-*%
X107500000Y-91900000D03*
X130200000Y-148300000D03*
%TD*%
D18*
%TO.N,+12V*%
X119800000Y-74600000D02*
X119800000Y-81200000D01*
X116600000Y-138700000D02*
X119400000Y-138700000D01*
X153300000Y-61300000D02*
X153300000Y-71080000D01*
X153300000Y-71080000D02*
X158000000Y-75780000D01*
X119800000Y-81200000D02*
X113900000Y-87100000D01*
X113900000Y-87100000D02*
X113900000Y-136000000D01*
X113900000Y-136000000D02*
X116600000Y-138700000D01*
X149000000Y-57000000D02*
X153300000Y-61300000D01*
%TO.N,-12V*%
X123900000Y-141400000D02*
X131100000Y-134200000D01*
X131100000Y-134200000D02*
X133900000Y-131400000D01*
X116300000Y-131400000D02*
X115600000Y-132100000D01*
X112800000Y-62400000D02*
X112800000Y-137800000D01*
X112800000Y-137800000D02*
X116400000Y-141400000D01*
X139000000Y-146700000D02*
X139100000Y-146700000D01*
X133900000Y-131400000D02*
X116300000Y-131400000D01*
X116400000Y-141400000D02*
X123900000Y-141400000D01*
X131100000Y-134200000D02*
X131100000Y-138800000D01*
X131100000Y-138800000D02*
X139000000Y-146700000D01*
D19*
%TO.N,+3.3VA*%
X143200000Y-128800000D02*
X137300000Y-134700000D01*
X146200000Y-118200000D02*
X146200000Y-84500000D01*
X134900000Y-73200000D02*
X134900000Y-63400000D01*
X134900000Y-73200000D02*
X129000000Y-73200000D01*
X146200000Y-137900000D02*
X146100000Y-138000000D01*
X146100000Y-103000000D02*
X142670436Y-103000000D01*
X146200000Y-84500000D02*
X134900000Y-73200000D01*
X158000000Y-119000000D02*
X146200006Y-119000000D01*
X146200000Y-128800000D02*
X146200000Y-137900000D01*
X141300000Y-57000000D02*
X145000000Y-57000000D01*
X146200000Y-128800000D02*
X143200000Y-128800000D01*
X115400000Y-86800000D02*
X115400000Y-115500000D01*
X134900000Y-63400000D02*
X141300000Y-57000000D01*
D20*
X146200000Y-118400000D02*
X146200000Y-119000006D01*
D19*
X146200006Y-119000000D02*
X146200000Y-119000006D01*
X137300000Y-134700000D02*
X133900000Y-134700000D01*
X129000000Y-73200000D02*
X115400000Y-86800000D01*
X146200000Y-114400000D02*
X146200000Y-128800000D01*
X142670436Y-103000000D02*
X140709208Y-101038772D01*
%TO.N,+3.3V*%
X140825000Y-91600000D02*
X139000000Y-91600000D01*
X121800000Y-83300000D02*
X118900000Y-86200000D01*
X139000000Y-91600000D02*
X138600000Y-91600000D01*
X137900000Y-103200000D02*
X137000000Y-104100000D01*
X123000000Y-99200000D02*
X130600000Y-91600000D01*
X139100000Y-83300000D02*
X121800000Y-83300000D01*
X138600000Y-91600000D02*
X137900000Y-92300000D01*
X137900000Y-92300000D02*
X137900000Y-103200000D01*
X123000000Y-103300000D02*
X123000000Y-99200000D01*
X140825000Y-85125000D02*
X140825000Y-91600000D01*
X130600000Y-91600000D02*
X139000000Y-91600000D01*
X139100000Y-83400000D02*
X140825000Y-85125000D01*
X139100000Y-83300000D02*
X139100000Y-83400000D01*
D20*
%TO.N,/Filter_B_Trm*%
X128350000Y-106650000D02*
X126000000Y-109000000D01*
X126000000Y-109000000D02*
X116300000Y-109000000D01*
X130100000Y-95200000D02*
X128350000Y-96950000D01*
X131800000Y-95200000D02*
X130100000Y-95200000D01*
X128350000Y-96950000D02*
X128350000Y-106650000D01*
%TO.N,/Harm_Stretch_CV_In*%
X133700000Y-117100002D02*
X133700000Y-115200000D01*
X133700000Y-115200000D02*
X137800000Y-111100000D01*
X137800000Y-111100000D02*
X140200000Y-111100000D01*
%TO.N,/Harm_Warp_CV*%
X132325000Y-109975000D02*
X133200000Y-109100000D01*
X132900000Y-126100000D02*
X132325000Y-125525000D01*
X132325000Y-125525000D02*
X132325000Y-109975000D01*
%TO.N,/Pan_CV*%
X136300000Y-130600000D02*
X140100000Y-130600000D01*
X131500000Y-125800000D02*
X136300000Y-130600000D01*
X133200000Y-95775000D02*
X131500000Y-97475000D01*
X131500000Y-97475000D02*
X131500000Y-125800000D01*
D19*
%TO.N,/-5V_REF*%
X147700000Y-141400000D02*
X147800000Y-141500000D01*
X147700000Y-141400000D02*
X147900000Y-141400000D01*
X142100000Y-131200000D02*
X142100000Y-140000000D01*
X147500000Y-141400000D02*
X147700000Y-141400000D01*
X147800000Y-141500000D02*
X147800000Y-146600000D01*
X142100000Y-140000000D02*
X143500000Y-141400000D01*
X150000000Y-139300000D02*
X150000000Y-120500000D01*
X143500000Y-141400000D02*
X147500000Y-141400000D01*
X150000000Y-120500000D02*
X149600000Y-120100000D01*
X147900000Y-141400000D02*
X150000000Y-139300000D01*
D20*
%TO.N,/Filter_A_CV*%
X135000000Y-109900000D02*
X135000000Y-96700000D01*
%TO.N,/USB_VBUS*%
X112100000Y-142400000D02*
X110800000Y-141100000D01*
X110800000Y-141100000D02*
X110800000Y-91800000D01*
X131400000Y-146800000D02*
X128100000Y-146800000D01*
X128100000Y-146800000D02*
X123700000Y-142400000D01*
X123700000Y-142400000D02*
X112100000Y-142400000D01*
%TO.N,/USB_D+*%
X107600000Y-93500000D02*
X108700000Y-92400000D01*
X129000000Y-147900000D02*
X128400000Y-148500000D01*
X107600000Y-145200000D02*
X107600000Y-93500000D01*
X128400000Y-148500000D02*
X110900000Y-148500000D01*
X110900000Y-148500000D02*
X107600000Y-145200000D01*
%TO.N,/USB_D-*%
X129400000Y-149100000D02*
X130200000Y-148300000D01*
X109600000Y-149100000D02*
X129400000Y-149100000D01*
X106800000Y-146300000D02*
X109600000Y-149100000D01*
X106800000Y-146300000D02*
X106800000Y-92600000D01*
X106800000Y-92600000D02*
X107500000Y-91900000D01*
%TD*%
%TA.AperFunction,Conductor*%
%TO.N,GND*%
G36*
X126974075Y-55317993D02*
G01*
X127039901Y-55432007D01*
X127132993Y-55525099D01*
X127247007Y-55590925D01*
X127310591Y-55607962D01*
X126678626Y-56239926D01*
X126755031Y-56293426D01*
X126798656Y-56348003D01*
X126805848Y-56417501D01*
X126774326Y-56479856D01*
X126755030Y-56496575D01*
X126678627Y-56550072D01*
X126678626Y-56550073D01*
X127310591Y-57182037D01*
X127247007Y-57199075D01*
X127132993Y-57264901D01*
X127039901Y-57357993D01*
X126974075Y-57472007D01*
X126957037Y-57535590D01*
X126325073Y-56903626D01*
X126325072Y-56903627D01*
X126271880Y-56979595D01*
X126217303Y-57023220D01*
X126147805Y-57030414D01*
X126085450Y-56998891D01*
X126068730Y-56979595D01*
X125938496Y-56793600D01*
X125897071Y-56752175D01*
X125816567Y-56671671D01*
X125783084Y-56610351D01*
X125788068Y-56540659D01*
X125829939Y-56484725D01*
X125860915Y-56467810D01*
X125992331Y-56418796D01*
X126107546Y-56332546D01*
X126193796Y-56217331D01*
X126244091Y-56082483D01*
X126250500Y-56022873D01*
X126250499Y-56012313D01*
X126270179Y-55945276D01*
X126286818Y-55924627D01*
X126957037Y-55254408D01*
X126974075Y-55317993D01*
G37*
%TD.AperFunction*%
%TA.AperFunction,Conductor*%
G36*
X129514075Y-55317993D02*
G01*
X129579901Y-55432007D01*
X129672993Y-55525099D01*
X129787007Y-55590925D01*
X129850591Y-55607962D01*
X129218626Y-56239926D01*
X129295031Y-56293426D01*
X129338656Y-56348003D01*
X129345848Y-56417501D01*
X129314326Y-56479856D01*
X129295030Y-56496575D01*
X129218627Y-56550072D01*
X129218626Y-56550073D01*
X129850591Y-57182037D01*
X129787007Y-57199075D01*
X129672993Y-57264901D01*
X129579901Y-57357993D01*
X129514075Y-57472007D01*
X129497037Y-57535590D01*
X128865073Y-56903626D01*
X128865073Y-56903627D01*
X128811575Y-56980031D01*
X128756999Y-57023656D01*
X128687500Y-57030850D01*
X128625145Y-56999327D01*
X128608425Y-56980032D01*
X128554925Y-56903626D01*
X127922962Y-57535590D01*
X127905925Y-57472007D01*
X127840099Y-57357993D01*
X127747007Y-57264901D01*
X127632993Y-57199075D01*
X127569409Y-57182037D01*
X128201372Y-56550073D01*
X128124969Y-56496575D01*
X128081344Y-56441998D01*
X128074152Y-56372499D01*
X128105674Y-56310144D01*
X128124968Y-56293426D01*
X128201371Y-56239925D01*
X127569408Y-55607962D01*
X127632993Y-55590925D01*
X127747007Y-55525099D01*
X127840099Y-55432007D01*
X127905925Y-55317993D01*
X127922962Y-55254408D01*
X128554925Y-55886371D01*
X128608426Y-55809968D01*
X128663004Y-55766344D01*
X128732502Y-55759152D01*
X128794856Y-55790675D01*
X128811575Y-55809969D01*
X128865073Y-55886372D01*
X129497037Y-55254408D01*
X129514075Y-55317993D01*
G37*
%TD.AperFunction*%
%TA.AperFunction,Conductor*%
G36*
X132054075Y-55317993D02*
G01*
X132119901Y-55432007D01*
X132212993Y-55525099D01*
X132327007Y-55590925D01*
X132390591Y-55607962D01*
X131758626Y-56239926D01*
X131835031Y-56293426D01*
X131878656Y-56348003D01*
X131885848Y-56417501D01*
X131854326Y-56479856D01*
X131835030Y-56496575D01*
X131758627Y-56550072D01*
X131758626Y-56550073D01*
X132390591Y-57182037D01*
X132327007Y-57199075D01*
X132212993Y-57264901D01*
X132119901Y-57357993D01*
X132054075Y-57472007D01*
X132037037Y-57535590D01*
X131405073Y-56903626D01*
X131405073Y-56903627D01*
X131351575Y-56980031D01*
X131296999Y-57023656D01*
X131227500Y-57030850D01*
X131165145Y-56999327D01*
X131148425Y-56980032D01*
X131094925Y-56903626D01*
X130462962Y-57535590D01*
X130445925Y-57472007D01*
X130380099Y-57357993D01*
X130287007Y-57264901D01*
X130172993Y-57199075D01*
X130109409Y-57182037D01*
X130741372Y-56550073D01*
X130664969Y-56496575D01*
X130621344Y-56441998D01*
X130614152Y-56372499D01*
X130645674Y-56310144D01*
X130664968Y-56293426D01*
X130741371Y-56239925D01*
X130109408Y-55607962D01*
X130172993Y-55590925D01*
X130287007Y-55525099D01*
X130380099Y-55432007D01*
X130445925Y-55317993D01*
X130462962Y-55254408D01*
X131094925Y-55886371D01*
X131148426Y-55809968D01*
X131203004Y-55766344D01*
X131272502Y-55759152D01*
X131334856Y-55790675D01*
X131351575Y-55809969D01*
X131405073Y-55886372D01*
X132037037Y-55254408D01*
X132054075Y-55317993D01*
G37*
%TD.AperFunction*%
%TA.AperFunction,Conductor*%
G36*
X133634925Y-55886371D02*
G01*
X133688120Y-55810404D01*
X133742697Y-55766780D01*
X133812196Y-55759588D01*
X133874550Y-55791111D01*
X133891268Y-55810404D01*
X134021505Y-55996401D01*
X134021506Y-55996402D01*
X134188597Y-56163493D01*
X134188603Y-56163498D01*
X134374158Y-56293425D01*
X134417783Y-56348002D01*
X134424977Y-56417500D01*
X134393454Y-56479855D01*
X134374158Y-56496575D01*
X134188597Y-56626505D01*
X134021508Y-56793594D01*
X133891269Y-56979595D01*
X133836692Y-57023219D01*
X133767193Y-57030412D01*
X133704839Y-56998890D01*
X133688119Y-56979595D01*
X133634925Y-56903626D01*
X133002962Y-57535590D01*
X132985925Y-57472007D01*
X132920099Y-57357993D01*
X132827007Y-57264901D01*
X132712993Y-57199075D01*
X132649409Y-57182037D01*
X133281372Y-56550073D01*
X133204969Y-56496575D01*
X133161344Y-56441998D01*
X133154152Y-56372499D01*
X133185674Y-56310144D01*
X133204968Y-56293426D01*
X133281371Y-56239925D01*
X132649408Y-55607962D01*
X132712993Y-55590925D01*
X132827007Y-55525099D01*
X132920099Y-55432007D01*
X132985925Y-55317993D01*
X133002962Y-55254408D01*
X133634925Y-55886371D01*
G37*
%TD.AperFunction*%
%TA.AperFunction,Conductor*%
G36*
X159442539Y-50520185D02*
G01*
X159488294Y-50572989D01*
X159499500Y-50624500D01*
X159499500Y-56809897D01*
X159479815Y-56876936D01*
X159427011Y-56922691D01*
X159357853Y-56932635D01*
X159294297Y-56903610D01*
X159276234Y-56884208D01*
X159207547Y-56792455D01*
X159207544Y-56792452D01*
X159092335Y-56706206D01*
X159092328Y-56706202D01*
X158957482Y-56655908D01*
X158957483Y-56655908D01*
X158897883Y-56649501D01*
X158897881Y-56649500D01*
X158897873Y-56649500D01*
X158897864Y-56649500D01*
X157102129Y-56649500D01*
X157102123Y-56649501D01*
X157042516Y-56655908D01*
X156907671Y-56706202D01*
X156907664Y-56706206D01*
X156792455Y-56792452D01*
X156792452Y-56792455D01*
X156706206Y-56907664D01*
X156706202Y-56907671D01*
X156655908Y-57042517D01*
X156649501Y-57102116D01*
X156649500Y-57102135D01*
X156649500Y-58897870D01*
X156649501Y-58897876D01*
X156655908Y-58957483D01*
X156706202Y-59092328D01*
X156706206Y-59092335D01*
X156792452Y-59207544D01*
X156792455Y-59207547D01*
X156907664Y-59293793D01*
X156907671Y-59293797D01*
X157039081Y-59342810D01*
X157095015Y-59384681D01*
X157119432Y-59450145D01*
X157104580Y-59518418D01*
X157083430Y-59546673D01*
X156961503Y-59668600D01*
X156825965Y-59862169D01*
X156825964Y-59862171D01*
X156726098Y-60076335D01*
X156726094Y-60076344D01*
X156664938Y-60304586D01*
X156664936Y-60304596D01*
X156644341Y-60539999D01*
X156644341Y-60540000D01*
X156664936Y-60775403D01*
X156664938Y-60775413D01*
X156726094Y-61003655D01*
X156726096Y-61003659D01*
X156726097Y-61003663D01*
X156762201Y-61081087D01*
X156825965Y-61217830D01*
X156825967Y-61217834D01*
X156961501Y-61411395D01*
X156961506Y-61411402D01*
X157128597Y-61578493D01*
X157128603Y-61578498D01*
X157314158Y-61708425D01*
X157357783Y-61763002D01*
X157364977Y-61832500D01*
X157333454Y-61894855D01*
X157314158Y-61911575D01*
X157128597Y-62041505D01*
X156961505Y-62208597D01*
X156825965Y-62402169D01*
X156825964Y-62402171D01*
X156726098Y-62616335D01*
X156726094Y-62616344D01*
X156664938Y-62844586D01*
X156664936Y-62844596D01*
X156644341Y-63079999D01*
X156644341Y-63080000D01*
X156664936Y-63315403D01*
X156664938Y-63315413D01*
X156726094Y-63543655D01*
X156726096Y-63543659D01*
X156726097Y-63543663D01*
X156784751Y-63669446D01*
X156825965Y-63757830D01*
X156825967Y-63757834D01*
X156961501Y-63951395D01*
X156961506Y-63951402D01*
X157128597Y-64118493D01*
X157128603Y-64118498D01*
X157314594Y-64248730D01*
X157358219Y-64303307D01*
X157365413Y-64372805D01*
X157333890Y-64435160D01*
X157314595Y-64451880D01*
X157128922Y-64581890D01*
X157128920Y-64581891D01*
X156961891Y-64748920D01*
X156961886Y-64748926D01*
X156826400Y-64942420D01*
X156826399Y-64942422D01*
X156726570Y-65156507D01*
X156726567Y-65156513D01*
X156669364Y-65369999D01*
X156669364Y-65370000D01*
X157566988Y-65370000D01*
X157534075Y-65427007D01*
X157500000Y-65554174D01*
X157500000Y-65685826D01*
X157534075Y-65812993D01*
X157566988Y-65870000D01*
X156669364Y-65870000D01*
X156726567Y-66083486D01*
X156726570Y-66083492D01*
X156826399Y-66297578D01*
X156961894Y-66491082D01*
X157128917Y-66658105D01*
X157314595Y-66788119D01*
X157358219Y-66842696D01*
X157365412Y-66912195D01*
X157333890Y-66974549D01*
X157314595Y-66991269D01*
X157128594Y-67121508D01*
X156961505Y-67288597D01*
X156825965Y-67482169D01*
X156825964Y-67482171D01*
X156726098Y-67696335D01*
X156726094Y-67696344D01*
X156664938Y-67924586D01*
X156664936Y-67924596D01*
X156644341Y-68159999D01*
X156644341Y-68160000D01*
X156664936Y-68395403D01*
X156664938Y-68395413D01*
X156726094Y-68623655D01*
X156726096Y-68623659D01*
X156726097Y-68623663D01*
X156761319Y-68699196D01*
X156825965Y-68837830D01*
X156825967Y-68837834D01*
X156961501Y-69031395D01*
X156961506Y-69031402D01*
X157128597Y-69198493D01*
X157128603Y-69198498D01*
X157314158Y-69328425D01*
X157357783Y-69383002D01*
X157364977Y-69452500D01*
X157333454Y-69514855D01*
X157314158Y-69531575D01*
X157128597Y-69661505D01*
X156961505Y-69828597D01*
X156825965Y-70022169D01*
X156825964Y-70022171D01*
X156726098Y-70236335D01*
X156726094Y-70236344D01*
X156664938Y-70464586D01*
X156664936Y-70464596D01*
X156644341Y-70699999D01*
X156644341Y-70700000D01*
X156664936Y-70935403D01*
X156664938Y-70935413D01*
X156726094Y-71163655D01*
X156726096Y-71163659D01*
X156726097Y-71163663D01*
X156789165Y-71298913D01*
X156825965Y-71377830D01*
X156825967Y-71377834D01*
X156961501Y-71571395D01*
X156961506Y-71571402D01*
X157128597Y-71738493D01*
X157128603Y-71738498D01*
X157314158Y-71868425D01*
X157357783Y-71923002D01*
X157364977Y-71992500D01*
X157333454Y-72054855D01*
X157314158Y-72071575D01*
X157128597Y-72201505D01*
X156961505Y-72368597D01*
X156825965Y-72562169D01*
X156825964Y-72562171D01*
X156726098Y-72776335D01*
X156726094Y-72776344D01*
X156664938Y-73004586D01*
X156664936Y-73004596D01*
X156657624Y-73088174D01*
X156632171Y-73153243D01*
X156575580Y-73194221D01*
X156505818Y-73198099D01*
X156446415Y-73165047D01*
X154086819Y-70805451D01*
X154053334Y-70744128D01*
X154050500Y-70717770D01*
X154050500Y-61226079D01*
X154021659Y-61081092D01*
X154021658Y-61081091D01*
X154021658Y-61081087D01*
X154020875Y-61079196D01*
X153965087Y-60944511D01*
X153965080Y-60944498D01*
X153882952Y-60821585D01*
X153836770Y-60775403D01*
X153778416Y-60717049D01*
X150499381Y-57438014D01*
X150465896Y-57376691D01*
X150466857Y-57319891D01*
X150485106Y-57247829D01*
X150485107Y-57247824D01*
X150485108Y-57247821D01*
X150497177Y-57102172D01*
X150505643Y-57000005D01*
X150505643Y-56999994D01*
X151494357Y-56999994D01*
X151494357Y-57000005D01*
X151514890Y-57247812D01*
X151514892Y-57247824D01*
X151575936Y-57488881D01*
X151675826Y-57716606D01*
X151811833Y-57924782D01*
X151811836Y-57924785D01*
X151980256Y-58107738D01*
X152176491Y-58260474D01*
X152248767Y-58299588D01*
X152328671Y-58342830D01*
X152395190Y-58378828D01*
X152630386Y-58459571D01*
X152875665Y-58500500D01*
X153124335Y-58500500D01*
X153369614Y-58459571D01*
X153604810Y-58378828D01*
X153823509Y-58260474D01*
X154019744Y-58107738D01*
X154188164Y-57924785D01*
X154324173Y-57716607D01*
X154424063Y-57488881D01*
X154485108Y-57247821D01*
X154497177Y-57102172D01*
X154505643Y-57000005D01*
X154505643Y-56999994D01*
X154485109Y-56752187D01*
X154485107Y-56752175D01*
X154424063Y-56511118D01*
X154324173Y-56283393D01*
X154188164Y-56075215D01*
X154019744Y-55892262D01*
X153823509Y-55739526D01*
X153823507Y-55739525D01*
X153823506Y-55739524D01*
X153604811Y-55621172D01*
X153604802Y-55621169D01*
X153369616Y-55540429D01*
X153124335Y-55499500D01*
X152875665Y-55499500D01*
X152630383Y-55540429D01*
X152395197Y-55621169D01*
X152395188Y-55621172D01*
X152176493Y-55739524D01*
X151980257Y-55892261D01*
X151811836Y-56075215D01*
X151675826Y-56283393D01*
X151575936Y-56511118D01*
X151514892Y-56752175D01*
X151514890Y-56752187D01*
X151494357Y-56999994D01*
X150505643Y-56999994D01*
X150485109Y-56752187D01*
X150485107Y-56752175D01*
X150424063Y-56511118D01*
X150324173Y-56283393D01*
X150188164Y-56075215D01*
X150019744Y-55892262D01*
X149823509Y-55739526D01*
X149823507Y-55739525D01*
X149823506Y-55739524D01*
X149604811Y-55621172D01*
X149604802Y-55621169D01*
X149369616Y-55540429D01*
X149124335Y-55499500D01*
X148875665Y-55499500D01*
X148630383Y-55540429D01*
X148395197Y-55621169D01*
X148395188Y-55621172D01*
X148176493Y-55739524D01*
X147980257Y-55892261D01*
X147811836Y-56075215D01*
X147675826Y-56283393D01*
X147575936Y-56511118D01*
X147514892Y-56752175D01*
X147514890Y-56752187D01*
X147494357Y-56999994D01*
X147494357Y-57000005D01*
X147514890Y-57247812D01*
X147514892Y-57247824D01*
X147575936Y-57488881D01*
X147675826Y-57716606D01*
X147811833Y-57924782D01*
X147811836Y-57924785D01*
X147980256Y-58107738D01*
X148176491Y-58260474D01*
X148248767Y-58299588D01*
X148328671Y-58342830D01*
X148395190Y-58378828D01*
X148630386Y-58459571D01*
X148875665Y-58500500D01*
X149124335Y-58500500D01*
X149127331Y-58500000D01*
X149331158Y-58465988D01*
X149400523Y-58474370D01*
X149439248Y-58500616D01*
X152513181Y-61574548D01*
X152546666Y-61635871D01*
X152549500Y-61662229D01*
X152549500Y-71153918D01*
X152549500Y-71153920D01*
X152549499Y-71153920D01*
X152578340Y-71298907D01*
X152578343Y-71298917D01*
X152634913Y-71435490D01*
X152634914Y-71435492D01*
X152662742Y-71477139D01*
X152662743Y-71477141D01*
X152717043Y-71558410D01*
X152717047Y-71558415D01*
X156627130Y-75468498D01*
X156660615Y-75529821D01*
X156662977Y-75566986D01*
X156644341Y-75779997D01*
X156644341Y-75780000D01*
X156664936Y-76015403D01*
X156664938Y-76015413D01*
X156726094Y-76243655D01*
X156726096Y-76243659D01*
X156726097Y-76243663D01*
X156746893Y-76288259D01*
X156825965Y-76457830D01*
X156825967Y-76457834D01*
X156934281Y-76612521D01*
X156961505Y-76651401D01*
X157128599Y-76818495D01*
X157225384Y-76886265D01*
X157322165Y-76954032D01*
X157322167Y-76954033D01*
X157322170Y-76954035D01*
X157536337Y-77053903D01*
X157764592Y-77115063D01*
X157952918Y-77131539D01*
X157999999Y-77135659D01*
X158000000Y-77135659D01*
X158000001Y-77135659D01*
X158039234Y-77132226D01*
X158235408Y-77115063D01*
X158463663Y-77053903D01*
X158677830Y-76954035D01*
X158871401Y-76818495D01*
X159038495Y-76651401D01*
X159174035Y-76457830D01*
X159263118Y-76266790D01*
X159309290Y-76214352D01*
X159376484Y-76195200D01*
X159443365Y-76215416D01*
X159488700Y-76268581D01*
X159499500Y-76319196D01*
X159499500Y-117809897D01*
X159479815Y-117876936D01*
X159427011Y-117922691D01*
X159357853Y-117932635D01*
X159294297Y-117903610D01*
X159276234Y-117884208D01*
X159207547Y-117792455D01*
X159207544Y-117792452D01*
X159092335Y-117706206D01*
X159092328Y-117706202D01*
X158957482Y-117655908D01*
X158957483Y-117655908D01*
X158897883Y-117649501D01*
X158897881Y-117649500D01*
X158897873Y-117649500D01*
X158897864Y-117649500D01*
X157102129Y-117649500D01*
X157102123Y-117649501D01*
X157042516Y-117655908D01*
X156907671Y-117706202D01*
X156907664Y-117706206D01*
X156792455Y-117792452D01*
X156792452Y-117792455D01*
X156706206Y-117907664D01*
X156706202Y-117907671D01*
X156655908Y-118042517D01*
X156649501Y-118102116D01*
X156649501Y-118102123D01*
X156649500Y-118102135D01*
X156649500Y-118225500D01*
X156629815Y-118292539D01*
X156577011Y-118338294D01*
X156525500Y-118349500D01*
X146974500Y-118349500D01*
X146907461Y-118329815D01*
X146861706Y-118277011D01*
X146850500Y-118225500D01*
X146850500Y-84435928D01*
X146825502Y-84310261D01*
X146825501Y-84310260D01*
X146825501Y-84310256D01*
X146776465Y-84191873D01*
X146776464Y-84191871D01*
X146755933Y-84161143D01*
X146755933Y-84161142D01*
X146705279Y-84085334D01*
X146705273Y-84085326D01*
X138719946Y-76100000D01*
X145294540Y-76100000D01*
X145314326Y-76288256D01*
X145314327Y-76288259D01*
X145372821Y-76468285D01*
X145398637Y-76513000D01*
X145415110Y-76580900D01*
X145398637Y-76637000D01*
X145372821Y-76681714D01*
X145317686Y-76851402D01*
X145314326Y-76861744D01*
X145294540Y-77050000D01*
X145314326Y-77238256D01*
X145314327Y-77238259D01*
X145372818Y-77418277D01*
X145372821Y-77418284D01*
X145467467Y-77582216D01*
X145527237Y-77648597D01*
X145594129Y-77722888D01*
X145747265Y-77834148D01*
X145747270Y-77834151D01*
X145920192Y-77911142D01*
X145920197Y-77911144D01*
X146105354Y-77950500D01*
X146105355Y-77950500D01*
X146294644Y-77950500D01*
X146294646Y-77950500D01*
X146479803Y-77911144D01*
X146652730Y-77834151D01*
X146805871Y-77722888D01*
X146932533Y-77582216D01*
X147027179Y-77418284D01*
X147085674Y-77238256D01*
X147105460Y-77050000D01*
X147085674Y-76861744D01*
X147027179Y-76681716D01*
X147001361Y-76636999D01*
X146984888Y-76569101D01*
X147001362Y-76513000D01*
X147027179Y-76468284D01*
X147085674Y-76288256D01*
X147105460Y-76100000D01*
X147085674Y-75911744D01*
X147027179Y-75731716D01*
X146932533Y-75567784D01*
X146805871Y-75427112D01*
X146805870Y-75427111D01*
X146652734Y-75315851D01*
X146652729Y-75315848D01*
X146479807Y-75238857D01*
X146479802Y-75238855D01*
X146334001Y-75207865D01*
X146294646Y-75199500D01*
X146105354Y-75199500D01*
X146072897Y-75206398D01*
X145920197Y-75238855D01*
X145920192Y-75238857D01*
X145747270Y-75315848D01*
X145747265Y-75315851D01*
X145594129Y-75427111D01*
X145467466Y-75567785D01*
X145372821Y-75731715D01*
X145372818Y-75731722D01*
X145357132Y-75780000D01*
X145314326Y-75911744D01*
X145294540Y-76100000D01*
X138719946Y-76100000D01*
X135834808Y-73214862D01*
X135801323Y-73153539D01*
X135799168Y-73140141D01*
X135793706Y-73088174D01*
X135785674Y-73011744D01*
X135735045Y-72855925D01*
X135727181Y-72831722D01*
X135727180Y-72831721D01*
X135727179Y-72831716D01*
X135632533Y-72667784D01*
X135582350Y-72612050D01*
X135552120Y-72549058D01*
X135550500Y-72529078D01*
X135550500Y-70250000D01*
X145094540Y-70250000D01*
X145114326Y-70438256D01*
X145114327Y-70438259D01*
X145172818Y-70618277D01*
X145172821Y-70618284D01*
X145267467Y-70782216D01*
X145394129Y-70922888D01*
X145547265Y-71034148D01*
X145547270Y-71034151D01*
X145720192Y-71111142D01*
X145720197Y-71111144D01*
X145905354Y-71150500D01*
X145905355Y-71150500D01*
X146094644Y-71150500D01*
X146094646Y-71150500D01*
X146279803Y-71111144D01*
X146452730Y-71034151D01*
X146605871Y-70922888D01*
X146732533Y-70782216D01*
X146827179Y-70618284D01*
X146885674Y-70438256D01*
X146905460Y-70250000D01*
X146885674Y-70061744D01*
X146827179Y-69881716D01*
X146732533Y-69717784D01*
X146605871Y-69577112D01*
X146605870Y-69577111D01*
X146452734Y-69465851D01*
X146452729Y-69465848D01*
X146279807Y-69388857D01*
X146279802Y-69388855D01*
X146134001Y-69357865D01*
X146094646Y-69349500D01*
X145905354Y-69349500D01*
X145872897Y-69356398D01*
X145720197Y-69388855D01*
X145720192Y-69388857D01*
X145547270Y-69465848D01*
X145547265Y-69465851D01*
X145394129Y-69577111D01*
X145267466Y-69717785D01*
X145172821Y-69881715D01*
X145172818Y-69881722D01*
X145127184Y-70022171D01*
X145114326Y-70061744D01*
X145094540Y-70250000D01*
X135550500Y-70250000D01*
X135550500Y-67432353D01*
X148426893Y-67432353D01*
X148446679Y-67620609D01*
X148446680Y-67620612D01*
X148505171Y-67800630D01*
X148505174Y-67800637D01*
X148599820Y-67964569D01*
X148726482Y-68105241D01*
X148879618Y-68216501D01*
X148879623Y-68216504D01*
X149052545Y-68293495D01*
X149052550Y-68293497D01*
X149237707Y-68332853D01*
X149237708Y-68332853D01*
X149426997Y-68332853D01*
X149426999Y-68332853D01*
X149612156Y-68293497D01*
X149785083Y-68216504D01*
X149938224Y-68105241D01*
X150064886Y-67964569D01*
X150159532Y-67800637D01*
X150218027Y-67620609D01*
X150237813Y-67432353D01*
X150218027Y-67244097D01*
X150159532Y-67064069D01*
X150064886Y-66900137D01*
X149938224Y-66759465D01*
X149938223Y-66759464D01*
X149785087Y-66648204D01*
X149785082Y-66648201D01*
X149612160Y-66571210D01*
X149612155Y-66571208D01*
X149466354Y-66540218D01*
X149426999Y-66531853D01*
X149237707Y-66531853D01*
X149205250Y-66538751D01*
X149052550Y-66571208D01*
X149052545Y-66571210D01*
X148879623Y-66648201D01*
X148879618Y-66648204D01*
X148726482Y-66759464D01*
X148599819Y-66900138D01*
X148505174Y-67064068D01*
X148505171Y-67064075D01*
X148446680Y-67244093D01*
X148446679Y-67244097D01*
X148426893Y-67432353D01*
X135550500Y-67432353D01*
X135550500Y-63720808D01*
X135570185Y-63653769D01*
X135586819Y-63633127D01*
X141533127Y-57686819D01*
X141594450Y-57653334D01*
X141620808Y-57650500D01*
X143566163Y-57650500D01*
X143633202Y-57670185D01*
X143672561Y-57712615D01*
X143673022Y-57712314D01*
X143674785Y-57715012D01*
X143675214Y-57715475D01*
X143675826Y-57716606D01*
X143811833Y-57924782D01*
X143811836Y-57924785D01*
X143980256Y-58107738D01*
X144176491Y-58260474D01*
X144248767Y-58299588D01*
X144328671Y-58342830D01*
X144395190Y-58378828D01*
X144630386Y-58459571D01*
X144875665Y-58500500D01*
X145124335Y-58500500D01*
X145369614Y-58459571D01*
X145604810Y-58378828D01*
X145823509Y-58260474D01*
X146019744Y-58107738D01*
X146188164Y-57924785D01*
X146324173Y-57716607D01*
X146424063Y-57488881D01*
X146485108Y-57247821D01*
X146497177Y-57102172D01*
X146505643Y-57000005D01*
X146505643Y-56999994D01*
X146485109Y-56752187D01*
X146485107Y-56752175D01*
X146424063Y-56511118D01*
X146324173Y-56283393D01*
X146188164Y-56075215D01*
X146019744Y-55892262D01*
X145823509Y-55739526D01*
X145823507Y-55739525D01*
X145823506Y-55739524D01*
X145604811Y-55621172D01*
X145604802Y-55621169D01*
X145369616Y-55540429D01*
X145124335Y-55499500D01*
X144875665Y-55499500D01*
X144630383Y-55540429D01*
X144395197Y-55621169D01*
X144395188Y-55621172D01*
X144176493Y-55739524D01*
X143980257Y-55892261D01*
X143811836Y-56075215D01*
X143675826Y-56283393D01*
X143675214Y-56284525D01*
X143674842Y-56284898D01*
X143673022Y-56287686D01*
X143672448Y-56287311D01*
X143625991Y-56334112D01*
X143566163Y-56349500D01*
X141235929Y-56349500D01*
X141110261Y-56374497D01*
X141110255Y-56374499D01*
X141051340Y-56398903D01*
X141051339Y-56398903D01*
X140991876Y-56423532D01*
X140885326Y-56494726D01*
X134394726Y-62985326D01*
X134323534Y-63091874D01*
X134274499Y-63210255D01*
X134274497Y-63210261D01*
X134249500Y-63335928D01*
X134249500Y-72425500D01*
X134229815Y-72492539D01*
X134177011Y-72538294D01*
X134125500Y-72549500D01*
X128935929Y-72549500D01*
X128810261Y-72574497D01*
X128810255Y-72574499D01*
X128691870Y-72623535D01*
X128585331Y-72694722D01*
X128585324Y-72694728D01*
X120762181Y-80517872D01*
X120700858Y-80551357D01*
X120631166Y-80546373D01*
X120575233Y-80504501D01*
X120550816Y-80439037D01*
X120550500Y-80430191D01*
X120550500Y-75306976D01*
X120570185Y-75239937D01*
X120578632Y-75228329D01*
X120635910Y-75158538D01*
X120728814Y-74984727D01*
X120786024Y-74796132D01*
X120805341Y-74600000D01*
X120786024Y-74403868D01*
X120728814Y-74215273D01*
X120728811Y-74215269D01*
X120728811Y-74215266D01*
X120635913Y-74041467D01*
X120635909Y-74041460D01*
X120510883Y-73889116D01*
X120358539Y-73764090D01*
X120358532Y-73764086D01*
X120184733Y-73671188D01*
X120184727Y-73671186D01*
X119996132Y-73613976D01*
X119996129Y-73613975D01*
X119800000Y-73594659D01*
X119603870Y-73613975D01*
X119415266Y-73671188D01*
X119241467Y-73764086D01*
X119241460Y-73764090D01*
X119089116Y-73889116D01*
X118964090Y-74041460D01*
X118964086Y-74041467D01*
X118871188Y-74215266D01*
X118813975Y-74403870D01*
X118794659Y-74600000D01*
X118813975Y-74796129D01*
X118816959Y-74805965D01*
X118858073Y-74941501D01*
X118871188Y-74984733D01*
X118964084Y-75158529D01*
X118964087Y-75158533D01*
X118964090Y-75158538D01*
X119021354Y-75228314D01*
X119048666Y-75292620D01*
X119049500Y-75306976D01*
X119049500Y-80837770D01*
X119029815Y-80904809D01*
X119013181Y-80925451D01*
X113762181Y-86176451D01*
X113700858Y-86209936D01*
X113631166Y-86204952D01*
X113575233Y-86163080D01*
X113550816Y-86097616D01*
X113550500Y-86088770D01*
X113550500Y-63106976D01*
X113570185Y-63039937D01*
X113578632Y-63028329D01*
X113635910Y-62958538D01*
X113635915Y-62958529D01*
X113728811Y-62784733D01*
X113728811Y-62784732D01*
X113728814Y-62784727D01*
X113786024Y-62596132D01*
X113805341Y-62400000D01*
X113786024Y-62203868D01*
X113728814Y-62015273D01*
X113728811Y-62015269D01*
X113728811Y-62015266D01*
X113635913Y-61841467D01*
X113635909Y-61841460D01*
X113510883Y-61689116D01*
X113358539Y-61564090D01*
X113358532Y-61564086D01*
X113184733Y-61471188D01*
X113184727Y-61471186D01*
X112996132Y-61413976D01*
X112996129Y-61413975D01*
X112800000Y-61394659D01*
X112603870Y-61413975D01*
X112415266Y-61471188D01*
X112241467Y-61564086D01*
X112241460Y-61564090D01*
X112089116Y-61689116D01*
X111964090Y-61841460D01*
X111964086Y-61841467D01*
X111871188Y-62015266D01*
X111813975Y-62203870D01*
X111794659Y-62400000D01*
X111813975Y-62596129D01*
X111871188Y-62784733D01*
X111964084Y-62958529D01*
X111964087Y-62958533D01*
X111964090Y-62958538D01*
X112021354Y-63028314D01*
X112048666Y-63092620D01*
X112049500Y-63106976D01*
X112049500Y-137873918D01*
X112049500Y-137873920D01*
X112049499Y-137873920D01*
X112078340Y-138018907D01*
X112078343Y-138018917D01*
X112134914Y-138155492D01*
X112167812Y-138204727D01*
X112167813Y-138204730D01*
X112217046Y-138278414D01*
X112217052Y-138278421D01*
X115501451Y-141562819D01*
X115534936Y-141624142D01*
X115529952Y-141693834D01*
X115488080Y-141749767D01*
X115422616Y-141774184D01*
X115413770Y-141774500D01*
X112410453Y-141774500D01*
X112343414Y-141754815D01*
X112322772Y-141738181D01*
X111461819Y-140877228D01*
X111428334Y-140815905D01*
X111425500Y-140789547D01*
X111425500Y-92498687D01*
X111445185Y-92431648D01*
X111457350Y-92415715D01*
X111485770Y-92384151D01*
X111532533Y-92332216D01*
X111627179Y-92168284D01*
X111685674Y-91988256D01*
X111705460Y-91800000D01*
X111685674Y-91611744D01*
X111627179Y-91431716D01*
X111532533Y-91267784D01*
X111405871Y-91127112D01*
X111390369Y-91115849D01*
X111252734Y-91015851D01*
X111252729Y-91015848D01*
X111079807Y-90938857D01*
X111079802Y-90938855D01*
X110934001Y-90907865D01*
X110894646Y-90899500D01*
X110705354Y-90899500D01*
X110672897Y-90906398D01*
X110520197Y-90938855D01*
X110520192Y-90938857D01*
X110347270Y-91015848D01*
X110347265Y-91015851D01*
X110194129Y-91127111D01*
X110067466Y-91267785D01*
X109972821Y-91431715D01*
X109972818Y-91431722D01*
X109926546Y-91574134D01*
X109914326Y-91611744D01*
X109894540Y-91800000D01*
X109914326Y-91988256D01*
X109914327Y-91988259D01*
X109972818Y-92168277D01*
X109972821Y-92168284D01*
X110067467Y-92332216D01*
X110105540Y-92374500D01*
X110142650Y-92415715D01*
X110172880Y-92478706D01*
X110174500Y-92498687D01*
X110174500Y-141161611D01*
X110198535Y-141282444D01*
X110198540Y-141282461D01*
X110245685Y-141396281D01*
X110245690Y-141396290D01*
X110272179Y-141435932D01*
X110272180Y-141435933D01*
X110314140Y-141498731D01*
X110314141Y-141498732D01*
X110314142Y-141498733D01*
X110401267Y-141585858D01*
X110401268Y-141585858D01*
X110408335Y-141592925D01*
X110408334Y-141592925D01*
X110408338Y-141592928D01*
X111701263Y-142885855D01*
X111701267Y-142885858D01*
X111803710Y-142954309D01*
X111803711Y-142954309D01*
X111803715Y-142954312D01*
X111870396Y-142981931D01*
X111870398Y-142981933D01*
X111917543Y-143001461D01*
X111917548Y-143001463D01*
X111937597Y-143005451D01*
X111971196Y-143012134D01*
X112038392Y-143025501D01*
X112038394Y-143025501D01*
X112167721Y-143025501D01*
X112167741Y-143025500D01*
X123389548Y-143025500D01*
X123456587Y-143045185D01*
X123477229Y-143061819D01*
X126137181Y-145721772D01*
X126170666Y-145783095D01*
X126165682Y-145852787D01*
X126123810Y-145908720D01*
X126096952Y-145924014D01*
X126026092Y-145953364D01*
X126026079Y-145953371D01*
X125862218Y-146062860D01*
X125862214Y-146062863D01*
X125722863Y-146202214D01*
X125722860Y-146202218D01*
X125613371Y-146366079D01*
X125613364Y-146366092D01*
X125537950Y-146548160D01*
X125537947Y-146548170D01*
X125499500Y-146741456D01*
X125499500Y-146741459D01*
X125499500Y-147488541D01*
X125499500Y-147488543D01*
X125499499Y-147488543D01*
X125537947Y-147681829D01*
X125537949Y-147681834D01*
X125546736Y-147703049D01*
X125554203Y-147772519D01*
X125522928Y-147834997D01*
X125462838Y-147870649D01*
X125432174Y-147874500D01*
X111210452Y-147874500D01*
X111143413Y-147854815D01*
X111122771Y-147838181D01*
X108261819Y-144977229D01*
X108228334Y-144915906D01*
X108225500Y-144889548D01*
X108225500Y-93810452D01*
X108245185Y-93743413D01*
X108261819Y-93722771D01*
X108647771Y-93336819D01*
X108709094Y-93303334D01*
X108735452Y-93300500D01*
X108794644Y-93300500D01*
X108794646Y-93300500D01*
X108979803Y-93261144D01*
X109152730Y-93184151D01*
X109305871Y-93072888D01*
X109432533Y-92932216D01*
X109527179Y-92768284D01*
X109585674Y-92588256D01*
X109605460Y-92400000D01*
X109585674Y-92211744D01*
X109527179Y-92031716D01*
X109432533Y-91867784D01*
X109305871Y-91727112D01*
X109284719Y-91711744D01*
X109152734Y-91615851D01*
X109152729Y-91615848D01*
X108979807Y-91538857D01*
X108979802Y-91538855D01*
X108834001Y-91507865D01*
X108794646Y-91499500D01*
X108605354Y-91499500D01*
X108605352Y-91499500D01*
X108429140Y-91536954D01*
X108359473Y-91531638D01*
X108303740Y-91489500D01*
X108295973Y-91477664D01*
X108257735Y-91411435D01*
X108232533Y-91367784D01*
X108105871Y-91227112D01*
X108105870Y-91227111D01*
X107952734Y-91115851D01*
X107952729Y-91115848D01*
X107779807Y-91038857D01*
X107779802Y-91038855D01*
X107634001Y-91007865D01*
X107594646Y-90999500D01*
X107405354Y-90999500D01*
X107372897Y-91006398D01*
X107220197Y-91038855D01*
X107220192Y-91038857D01*
X107047270Y-91115848D01*
X107047265Y-91115851D01*
X106894129Y-91227111D01*
X106767466Y-91367785D01*
X106672821Y-91531715D01*
X106672818Y-91531722D01*
X106614327Y-91711740D01*
X106614326Y-91711744D01*
X106597926Y-91867784D01*
X106596679Y-91879650D01*
X106570094Y-91944264D01*
X106561047Y-91954361D01*
X106401269Y-92114140D01*
X106401267Y-92114142D01*
X106357704Y-92157704D01*
X106314142Y-92201266D01*
X106281247Y-92250498D01*
X106281246Y-92250500D01*
X106245688Y-92303713D01*
X106245686Y-92303716D01*
X106231324Y-92338392D01*
X106198538Y-92417544D01*
X106198535Y-92417556D01*
X106174500Y-92538389D01*
X106174500Y-92538394D01*
X106174500Y-146361606D01*
X106198265Y-146481087D01*
X106198271Y-146481117D01*
X106198270Y-146481117D01*
X106198534Y-146482441D01*
X106198539Y-146482459D01*
X106245685Y-146596280D01*
X106245687Y-146596283D01*
X106245688Y-146596286D01*
X106250264Y-146603135D01*
X106279914Y-146647507D01*
X106279915Y-146647509D01*
X106314141Y-146698733D01*
X106405586Y-146790178D01*
X106405608Y-146790198D01*
X108903229Y-149287819D01*
X108936714Y-149349142D01*
X108931730Y-149418834D01*
X108889858Y-149474767D01*
X108824394Y-149499184D01*
X108815548Y-149499500D01*
X100624500Y-149499500D01*
X100557461Y-149479815D01*
X100511706Y-149427011D01*
X100500500Y-149375500D01*
X100500500Y-146799994D01*
X101894859Y-146799994D01*
X101894859Y-146800005D01*
X101915385Y-147047729D01*
X101915387Y-147047738D01*
X101976412Y-147288717D01*
X102076267Y-147516367D01*
X102176562Y-147669881D01*
X102798957Y-147047487D01*
X102823978Y-147107890D01*
X102895112Y-147214351D01*
X102985649Y-147304888D01*
X103092110Y-147376022D01*
X103152511Y-147401041D01*
X102529943Y-148023609D01*
X102576768Y-148060055D01*
X102576771Y-148060057D01*
X102795385Y-148178364D01*
X102795396Y-148178369D01*
X103030506Y-148259083D01*
X103275707Y-148300000D01*
X103524293Y-148300000D01*
X103769493Y-148259083D01*
X104004603Y-148178369D01*
X104004614Y-148178364D01*
X104223230Y-148060056D01*
X104223236Y-148060051D01*
X104270055Y-148023610D01*
X104270056Y-148023609D01*
X103647488Y-147401041D01*
X103707890Y-147376022D01*
X103814351Y-147304888D01*
X103904888Y-147214351D01*
X103976022Y-147107890D01*
X104001041Y-147047488D01*
X104623435Y-147669882D01*
X104723733Y-147516364D01*
X104823587Y-147288717D01*
X104884612Y-147047738D01*
X104884614Y-147047729D01*
X104905141Y-146800005D01*
X104905141Y-146799994D01*
X104884614Y-146552270D01*
X104884612Y-146552261D01*
X104823587Y-146311282D01*
X104723732Y-146083632D01*
X104623435Y-145930116D01*
X104001041Y-146552511D01*
X103976022Y-146492110D01*
X103904888Y-146385649D01*
X103814351Y-146295112D01*
X103707890Y-146223978D01*
X103647487Y-146198958D01*
X104270055Y-145576389D01*
X104270055Y-145576388D01*
X104223236Y-145539947D01*
X104223231Y-145539944D01*
X104004614Y-145421635D01*
X104004603Y-145421630D01*
X103769493Y-145340916D01*
X103524293Y-145300000D01*
X103275707Y-145300000D01*
X103030506Y-145340916D01*
X102795396Y-145421630D01*
X102795385Y-145421635D01*
X102576770Y-145539943D01*
X102529943Y-145576389D01*
X103152512Y-146198958D01*
X103092110Y-146223978D01*
X102985649Y-146295112D01*
X102895112Y-146385649D01*
X102823978Y-146492110D01*
X102798958Y-146552512D01*
X102176563Y-145930117D01*
X102076267Y-146083633D01*
X102076265Y-146083637D01*
X101976412Y-146311282D01*
X101915387Y-146552261D01*
X101915385Y-146552270D01*
X101894859Y-146799994D01*
X100500500Y-146799994D01*
X100500500Y-142399196D01*
X100520185Y-142332157D01*
X100572989Y-142286402D01*
X100642147Y-142276458D01*
X100705703Y-142305483D01*
X100736881Y-142346790D01*
X100761319Y-142399196D01*
X100825965Y-142537830D01*
X100825967Y-142537834D01*
X100934281Y-142692521D01*
X100961505Y-142731401D01*
X101128599Y-142898495D01*
X101208310Y-142954309D01*
X101322165Y-143034032D01*
X101322167Y-143034033D01*
X101322170Y-143034035D01*
X101536337Y-143133903D01*
X101764592Y-143195063D01*
X101952918Y-143211539D01*
X101999999Y-143215659D01*
X102000000Y-143215659D01*
X102000001Y-143215659D01*
X102039234Y-143212226D01*
X102235408Y-143195063D01*
X102463663Y-143133903D01*
X102677830Y-143034035D01*
X102871401Y-142898495D01*
X103038495Y-142731401D01*
X103174035Y-142537830D01*
X103273903Y-142323663D01*
X103335063Y-142095408D01*
X103355659Y-141860000D01*
X103335063Y-141624592D01*
X103283887Y-141433597D01*
X103273905Y-141396344D01*
X103273904Y-141396343D01*
X103273903Y-141396337D01*
X103174035Y-141182171D01*
X103038495Y-140988599D01*
X103038494Y-140988597D01*
X102871402Y-140821506D01*
X102871396Y-140821501D01*
X102685842Y-140691575D01*
X102642217Y-140636998D01*
X102635023Y-140567500D01*
X102666546Y-140505145D01*
X102685842Y-140488425D01*
X102708026Y-140472891D01*
X102871401Y-140358495D01*
X103038495Y-140191401D01*
X103174035Y-139997830D01*
X103273903Y-139783663D01*
X103335063Y-139555408D01*
X103355659Y-139320000D01*
X103335063Y-139084592D01*
X103283887Y-138893597D01*
X103273905Y-138856344D01*
X103273904Y-138856343D01*
X103273903Y-138856337D01*
X103174035Y-138642171D01*
X103167065Y-138632216D01*
X103038494Y-138448597D01*
X102871402Y-138281506D01*
X102871396Y-138281501D01*
X102685842Y-138151575D01*
X102642217Y-138096998D01*
X102635023Y-138027500D01*
X102666546Y-137965145D01*
X102685842Y-137948425D01*
X102724505Y-137921353D01*
X102871401Y-137818495D01*
X103038495Y-137651401D01*
X103174035Y-137457830D01*
X103273903Y-137243663D01*
X103335063Y-137015408D01*
X103355659Y-136780000D01*
X103335063Y-136544592D01*
X103283887Y-136353597D01*
X103273905Y-136316344D01*
X103273904Y-136316343D01*
X103273903Y-136316337D01*
X103174035Y-136102171D01*
X103038495Y-135908599D01*
X103038494Y-135908597D01*
X102871402Y-135741506D01*
X102871401Y-135741505D01*
X102685405Y-135611269D01*
X102641781Y-135556692D01*
X102634588Y-135487193D01*
X102666110Y-135424839D01*
X102685405Y-135408119D01*
X102871082Y-135278105D01*
X103038105Y-135111082D01*
X103173600Y-134917578D01*
X103273429Y-134703492D01*
X103273432Y-134703486D01*
X103330636Y-134490000D01*
X102433012Y-134490000D01*
X102465925Y-134432993D01*
X102500000Y-134305826D01*
X102500000Y-134174174D01*
X102465925Y-134047007D01*
X102433012Y-133990000D01*
X103330636Y-133990000D01*
X103330635Y-133989999D01*
X103273432Y-133776513D01*
X103273429Y-133776507D01*
X103173600Y-133562422D01*
X103173599Y-133562420D01*
X103038113Y-133368926D01*
X103038108Y-133368920D01*
X102871078Y-133201890D01*
X102685405Y-133071879D01*
X102641780Y-133017302D01*
X102634588Y-132947804D01*
X102666110Y-132885449D01*
X102685406Y-132868730D01*
X102688328Y-132866684D01*
X102871401Y-132738495D01*
X103038495Y-132571401D01*
X103174035Y-132377830D01*
X103273903Y-132163663D01*
X103335063Y-131935408D01*
X103355659Y-131700000D01*
X103335063Y-131464592D01*
X103281992Y-131266526D01*
X103273905Y-131236344D01*
X103273904Y-131236343D01*
X103273903Y-131236337D01*
X103174035Y-131022171D01*
X103166732Y-131011740D01*
X103038494Y-130828597D01*
X102871402Y-130661506D01*
X102871396Y-130661501D01*
X102685842Y-130531575D01*
X102642217Y-130476998D01*
X102635023Y-130407500D01*
X102666546Y-130345145D01*
X102685842Y-130328425D01*
X102736832Y-130292721D01*
X102871401Y-130198495D01*
X103038495Y-130031401D01*
X103174035Y-129837830D01*
X103273903Y-129623663D01*
X103335063Y-129395408D01*
X103355659Y-129160000D01*
X103335063Y-128924592D01*
X103283887Y-128733597D01*
X103273905Y-128696344D01*
X103273904Y-128696343D01*
X103273903Y-128696337D01*
X103174035Y-128482171D01*
X103042786Y-128294726D01*
X103038494Y-128288597D01*
X102871402Y-128121506D01*
X102871396Y-128121501D01*
X102685842Y-127991575D01*
X102642217Y-127936998D01*
X102635023Y-127867500D01*
X102666546Y-127805145D01*
X102685842Y-127788425D01*
X102708026Y-127772891D01*
X102871401Y-127658495D01*
X103038495Y-127491401D01*
X103174035Y-127297830D01*
X103273903Y-127083663D01*
X103335063Y-126855408D01*
X103355659Y-126620000D01*
X103335063Y-126384592D01*
X103283887Y-126193597D01*
X103273905Y-126156344D01*
X103273904Y-126156343D01*
X103273903Y-126156337D01*
X103174035Y-125942171D01*
X103038495Y-125748599D01*
X103038494Y-125748597D01*
X102871402Y-125581506D01*
X102871401Y-125581505D01*
X102685405Y-125451269D01*
X102641781Y-125396692D01*
X102634588Y-125327193D01*
X102666110Y-125264839D01*
X102685405Y-125248119D01*
X102871082Y-125118105D01*
X103038105Y-124951082D01*
X103173600Y-124757578D01*
X103273429Y-124543492D01*
X103273432Y-124543486D01*
X103330636Y-124330000D01*
X102433012Y-124330000D01*
X102465925Y-124272993D01*
X102500000Y-124145826D01*
X102500000Y-124014174D01*
X102465925Y-123887007D01*
X102433012Y-123830000D01*
X103330636Y-123830000D01*
X103330635Y-123829999D01*
X103273432Y-123616513D01*
X103273429Y-123616507D01*
X103173600Y-123402422D01*
X103173599Y-123402420D01*
X103038113Y-123208926D01*
X103038108Y-123208920D01*
X102871078Y-123041890D01*
X102685405Y-122911879D01*
X102641780Y-122857302D01*
X102634588Y-122787804D01*
X102666110Y-122725449D01*
X102685406Y-122708730D01*
X102686279Y-122708119D01*
X102871401Y-122578495D01*
X103038495Y-122411401D01*
X103174035Y-122217830D01*
X103273903Y-122003663D01*
X103335063Y-121775408D01*
X103355659Y-121540000D01*
X103335063Y-121304592D01*
X103284204Y-121114782D01*
X103273905Y-121076344D01*
X103273904Y-121076343D01*
X103273903Y-121076337D01*
X103174035Y-120862171D01*
X103038495Y-120668599D01*
X102916567Y-120546671D01*
X102883084Y-120485351D01*
X102888068Y-120415659D01*
X102929939Y-120359725D01*
X102960915Y-120342810D01*
X103092331Y-120293796D01*
X103207546Y-120207546D01*
X103293796Y-120092331D01*
X103344091Y-119957483D01*
X103350500Y-119897873D01*
X103350499Y-118102128D01*
X103344091Y-118042517D01*
X103328420Y-118000502D01*
X103293797Y-117907671D01*
X103293793Y-117907664D01*
X103207547Y-117792455D01*
X103207544Y-117792452D01*
X103092335Y-117706206D01*
X103092328Y-117706202D01*
X102957482Y-117655908D01*
X102957483Y-117655908D01*
X102897883Y-117649501D01*
X102897881Y-117649500D01*
X102897873Y-117649500D01*
X102897864Y-117649500D01*
X101102129Y-117649500D01*
X101102123Y-117649501D01*
X101042516Y-117655908D01*
X100907671Y-117706202D01*
X100907664Y-117706206D01*
X100792455Y-117792452D01*
X100792452Y-117792455D01*
X100723766Y-117884208D01*
X100667832Y-117926079D01*
X100598141Y-117931063D01*
X100536818Y-117897577D01*
X100503334Y-117836254D01*
X100500500Y-117809897D01*
X100500500Y-76319196D01*
X100520185Y-76252157D01*
X100572989Y-76206402D01*
X100642147Y-76196458D01*
X100705703Y-76225483D01*
X100736881Y-76266790D01*
X100746891Y-76288256D01*
X100825965Y-76457830D01*
X100825967Y-76457834D01*
X100934281Y-76612521D01*
X100961505Y-76651401D01*
X101128599Y-76818495D01*
X101225384Y-76886265D01*
X101322165Y-76954032D01*
X101322167Y-76954033D01*
X101322170Y-76954035D01*
X101536337Y-77053903D01*
X101764592Y-77115063D01*
X101952918Y-77131539D01*
X101999999Y-77135659D01*
X102000000Y-77135659D01*
X102000001Y-77135659D01*
X102039234Y-77132226D01*
X102235408Y-77115063D01*
X102463663Y-77053903D01*
X102677830Y-76954035D01*
X102871401Y-76818495D01*
X103038495Y-76651401D01*
X103174035Y-76457830D01*
X103273903Y-76243663D01*
X103335063Y-76015408D01*
X103338161Y-75979999D01*
X107844341Y-75979999D01*
X107844341Y-75980000D01*
X107864936Y-76215403D01*
X107864938Y-76215413D01*
X107926094Y-76443655D01*
X107926096Y-76443659D01*
X107926097Y-76443663D01*
X107984590Y-76569101D01*
X108025965Y-76657830D01*
X108025967Y-76657834D01*
X108161501Y-76851395D01*
X108161506Y-76851402D01*
X108328597Y-77018493D01*
X108328603Y-77018498D01*
X108514158Y-77148425D01*
X108557783Y-77203002D01*
X108564977Y-77272500D01*
X108533454Y-77334855D01*
X108514158Y-77351575D01*
X108328597Y-77481505D01*
X108161505Y-77648597D01*
X108025965Y-77842169D01*
X108025964Y-77842171D01*
X107926098Y-78056335D01*
X107926094Y-78056344D01*
X107864938Y-78284586D01*
X107864936Y-78284596D01*
X107844341Y-78519999D01*
X107844341Y-78520000D01*
X107864936Y-78755403D01*
X107864938Y-78755413D01*
X107926094Y-78983655D01*
X107926096Y-78983659D01*
X107926097Y-78983663D01*
X107971284Y-79080566D01*
X108025965Y-79197830D01*
X108025967Y-79197834D01*
X108092133Y-79292328D01*
X108161505Y-79391401D01*
X108328599Y-79558495D01*
X108501288Y-79679413D01*
X108514595Y-79688731D01*
X108558219Y-79743308D01*
X108565412Y-79812807D01*
X108533890Y-79875161D01*
X108514594Y-79891881D01*
X108438627Y-79945073D01*
X108438626Y-79945073D01*
X109070591Y-80577037D01*
X109007007Y-80594075D01*
X108892993Y-80659901D01*
X108799901Y-80752993D01*
X108734075Y-80867007D01*
X108717037Y-80930590D01*
X108085073Y-80298626D01*
X108085073Y-80298627D01*
X108026400Y-80382421D01*
X108026399Y-80382423D01*
X107926570Y-80596507D01*
X107926566Y-80596516D01*
X107865432Y-80824673D01*
X107865430Y-80824684D01*
X107844843Y-81059998D01*
X107844843Y-81060001D01*
X107865430Y-81295315D01*
X107865432Y-81295326D01*
X107926566Y-81523483D01*
X107926570Y-81523492D01*
X108026398Y-81737576D01*
X108085073Y-81821372D01*
X108717037Y-81189408D01*
X108734075Y-81252993D01*
X108799901Y-81367007D01*
X108892993Y-81460099D01*
X109007007Y-81525925D01*
X109070591Y-81542962D01*
X108400371Y-82213181D01*
X108339048Y-82246666D01*
X108312699Y-82249500D01*
X108302134Y-82249500D01*
X108302123Y-82249501D01*
X108242516Y-82255908D01*
X108107671Y-82306202D01*
X108107664Y-82306206D01*
X107992455Y-82392452D01*
X107992452Y-82392455D01*
X107906206Y-82507664D01*
X107906202Y-82507671D01*
X107855908Y-82642517D01*
X107852470Y-82674499D01*
X107849501Y-82702123D01*
X107849500Y-82702135D01*
X107849500Y-84497870D01*
X107849501Y-84497876D01*
X107855908Y-84557483D01*
X107906202Y-84692328D01*
X107906206Y-84692335D01*
X107992452Y-84807544D01*
X107992455Y-84807547D01*
X108107664Y-84893793D01*
X108107671Y-84893797D01*
X108242517Y-84944091D01*
X108242516Y-84944091D01*
X108249444Y-84944835D01*
X108302127Y-84950500D01*
X110097872Y-84950499D01*
X110157483Y-84944091D01*
X110292331Y-84893796D01*
X110407546Y-84807546D01*
X110493796Y-84692331D01*
X110544091Y-84557483D01*
X110550500Y-84497873D01*
X110550499Y-82702128D01*
X110544091Y-82642517D01*
X110538345Y-82627112D01*
X110493797Y-82507671D01*
X110493793Y-82507664D01*
X110407547Y-82392455D01*
X110407544Y-82392452D01*
X110292335Y-82306206D01*
X110292328Y-82306202D01*
X110157482Y-82255908D01*
X110157483Y-82255908D01*
X110097883Y-82249501D01*
X110097881Y-82249500D01*
X110097873Y-82249500D01*
X110097865Y-82249500D01*
X110087308Y-82249500D01*
X110020269Y-82229815D01*
X109999627Y-82213181D01*
X109329408Y-81542962D01*
X109392993Y-81525925D01*
X109507007Y-81460099D01*
X109600099Y-81367007D01*
X109665925Y-81252993D01*
X109682962Y-81189408D01*
X110314925Y-81821371D01*
X110373599Y-81737580D01*
X110473429Y-81523492D01*
X110473433Y-81523483D01*
X110534567Y-81295326D01*
X110534569Y-81295315D01*
X110555157Y-81060001D01*
X110555157Y-81059998D01*
X110534569Y-80824684D01*
X110534567Y-80824673D01*
X110473433Y-80596516D01*
X110473429Y-80596507D01*
X110373601Y-80382424D01*
X110314925Y-80298626D01*
X109682962Y-80930590D01*
X109665925Y-80867007D01*
X109600099Y-80752993D01*
X109507007Y-80659901D01*
X109392993Y-80594075D01*
X109329409Y-80577037D01*
X109961372Y-79945073D01*
X109961372Y-79945072D01*
X109885405Y-79891879D01*
X109841780Y-79837302D01*
X109834588Y-79767804D01*
X109866110Y-79705449D01*
X109885406Y-79688730D01*
X110071401Y-79558495D01*
X110238495Y-79391401D01*
X110374035Y-79197830D01*
X110473903Y-78983663D01*
X110535063Y-78755408D01*
X110555659Y-78520000D01*
X110535063Y-78284592D01*
X110473903Y-78056337D01*
X110374035Y-77842171D01*
X110368420Y-77834151D01*
X110238494Y-77648597D01*
X110071402Y-77481506D01*
X110071396Y-77481501D01*
X109885842Y-77351575D01*
X109842217Y-77296998D01*
X109835023Y-77227500D01*
X109866546Y-77165145D01*
X109885842Y-77148425D01*
X109933488Y-77115063D01*
X110071401Y-77018495D01*
X110238495Y-76851401D01*
X110374035Y-76657830D01*
X110473903Y-76443663D01*
X110535063Y-76215408D01*
X110555659Y-75980000D01*
X110535063Y-75744592D01*
X110473903Y-75516337D01*
X110374035Y-75302171D01*
X110367348Y-75292620D01*
X110238494Y-75108597D01*
X110071402Y-74941506D01*
X110071395Y-74941501D01*
X109877834Y-74805967D01*
X109877830Y-74805965D01*
X109856737Y-74796129D01*
X109663663Y-74706097D01*
X109663659Y-74706096D01*
X109663655Y-74706094D01*
X109435413Y-74644938D01*
X109435403Y-74644936D01*
X109200001Y-74624341D01*
X109199999Y-74624341D01*
X108964596Y-74644936D01*
X108964586Y-74644938D01*
X108736344Y-74706094D01*
X108736335Y-74706098D01*
X108522171Y-74805964D01*
X108522169Y-74805965D01*
X108328597Y-74941505D01*
X108161505Y-75108597D01*
X108025965Y-75302169D01*
X108025964Y-75302171D01*
X107926098Y-75516335D01*
X107926094Y-75516344D01*
X107864938Y-75744586D01*
X107864936Y-75744596D01*
X107844341Y-75979999D01*
X103338161Y-75979999D01*
X103355659Y-75780000D01*
X103352561Y-75744596D01*
X103335063Y-75544596D01*
X103335063Y-75544592D01*
X103283887Y-75353597D01*
X103273905Y-75316344D01*
X103273904Y-75316343D01*
X103273903Y-75316337D01*
X103174035Y-75102171D01*
X103091805Y-74984733D01*
X103038494Y-74908597D01*
X102871402Y-74741506D01*
X102871401Y-74741505D01*
X102685405Y-74611269D01*
X102641781Y-74556692D01*
X102634588Y-74487193D01*
X102666110Y-74424839D01*
X102685405Y-74408119D01*
X102871082Y-74278105D01*
X103038105Y-74111082D01*
X103173600Y-73917578D01*
X103273429Y-73703492D01*
X103273432Y-73703486D01*
X103330636Y-73490000D01*
X102433012Y-73490000D01*
X102465925Y-73432993D01*
X102500000Y-73305826D01*
X102500000Y-73174174D01*
X102465925Y-73047007D01*
X102433012Y-72990000D01*
X103330636Y-72990000D01*
X103330635Y-72989999D01*
X103273432Y-72776513D01*
X103273429Y-72776507D01*
X103173600Y-72562422D01*
X103173599Y-72562420D01*
X103038113Y-72368926D01*
X103038108Y-72368920D01*
X102871078Y-72201890D01*
X102685405Y-72071879D01*
X102641780Y-72017302D01*
X102634588Y-71947804D01*
X102666110Y-71885449D01*
X102685406Y-71868730D01*
X102685842Y-71868425D01*
X102871401Y-71738495D01*
X103038495Y-71571401D01*
X103174035Y-71377830D01*
X103273903Y-71163663D01*
X103335063Y-70935408D01*
X103355659Y-70700000D01*
X103335063Y-70464592D01*
X103283887Y-70273597D01*
X103273905Y-70236344D01*
X103273904Y-70236343D01*
X103273903Y-70236337D01*
X103174035Y-70022171D01*
X103038495Y-69828599D01*
X103038494Y-69828597D01*
X102871402Y-69661506D01*
X102871396Y-69661501D01*
X102685842Y-69531575D01*
X102642217Y-69476998D01*
X102635023Y-69407500D01*
X102666546Y-69345145D01*
X102685842Y-69328425D01*
X102708026Y-69312891D01*
X102871401Y-69198495D01*
X103038495Y-69031401D01*
X103174035Y-68837830D01*
X103273903Y-68623663D01*
X103335063Y-68395408D01*
X103355659Y-68160000D01*
X103335063Y-67924592D01*
X103283887Y-67733597D01*
X103273905Y-67696344D01*
X103273904Y-67696343D01*
X103273903Y-67696337D01*
X103174035Y-67482171D01*
X103139153Y-67432353D01*
X103038494Y-67288597D01*
X102871402Y-67121506D01*
X102871401Y-67121505D01*
X102685405Y-66991269D01*
X102641781Y-66936692D01*
X102634588Y-66867193D01*
X102666110Y-66804839D01*
X102685405Y-66788119D01*
X102871082Y-66658105D01*
X103038105Y-66491082D01*
X103173600Y-66297578D01*
X103273429Y-66083492D01*
X103273432Y-66083486D01*
X103330636Y-65870000D01*
X102433012Y-65870000D01*
X102465925Y-65812993D01*
X102500000Y-65685826D01*
X102500000Y-65554174D01*
X102465925Y-65427007D01*
X102433012Y-65370000D01*
X103330636Y-65370000D01*
X103330635Y-65369999D01*
X103273432Y-65156513D01*
X103273429Y-65156507D01*
X103173600Y-64942422D01*
X103173599Y-64942420D01*
X103038113Y-64748926D01*
X103038108Y-64748920D01*
X102871078Y-64581890D01*
X102685405Y-64451879D01*
X102641780Y-64397302D01*
X102634588Y-64327804D01*
X102666110Y-64265449D01*
X102685406Y-64248730D01*
X102871401Y-64118495D01*
X103038495Y-63951401D01*
X103174035Y-63757830D01*
X103273903Y-63543663D01*
X103335063Y-63315408D01*
X103355659Y-63080000D01*
X103354137Y-63062609D01*
X103335063Y-62844596D01*
X103335063Y-62844592D01*
X103283887Y-62653597D01*
X103273905Y-62616344D01*
X103273904Y-62616343D01*
X103273903Y-62616337D01*
X103174035Y-62402171D01*
X103038495Y-62208599D01*
X103038494Y-62208597D01*
X102871402Y-62041506D01*
X102871396Y-62041501D01*
X102685842Y-61911575D01*
X102642217Y-61856998D01*
X102635023Y-61787500D01*
X102666546Y-61725145D01*
X102685842Y-61708425D01*
X102713418Y-61689116D01*
X102871401Y-61578495D01*
X103038495Y-61411401D01*
X103174035Y-61217830D01*
X103273903Y-61003663D01*
X103335063Y-60775408D01*
X103355659Y-60540000D01*
X103335063Y-60304592D01*
X103283887Y-60113597D01*
X103273905Y-60076344D01*
X103273904Y-60076343D01*
X103273903Y-60076337D01*
X103174035Y-59862171D01*
X103038495Y-59668599D01*
X102916179Y-59546283D01*
X102882696Y-59484963D01*
X102887680Y-59415271D01*
X102929551Y-59359337D01*
X102960529Y-59342422D01*
X103092086Y-59293354D01*
X103092093Y-59293350D01*
X103207187Y-59207190D01*
X103207190Y-59207187D01*
X103293350Y-59092093D01*
X103293354Y-59092086D01*
X103343596Y-58957379D01*
X103343598Y-58957372D01*
X103349999Y-58897844D01*
X103350000Y-58897827D01*
X103350000Y-58250000D01*
X102433012Y-58250000D01*
X102465925Y-58192993D01*
X102500000Y-58065826D01*
X102500000Y-57934174D01*
X102465925Y-57807007D01*
X102433012Y-57750000D01*
X103350000Y-57750000D01*
X103350000Y-57664999D01*
X123544341Y-57664999D01*
X123544341Y-57665000D01*
X123564936Y-57900403D01*
X123564938Y-57900413D01*
X123626094Y-58128655D01*
X123626096Y-58128659D01*
X123626097Y-58128663D01*
X123720297Y-58330675D01*
X123725965Y-58342830D01*
X123725967Y-58342834D01*
X123807707Y-58459570D01*
X123861505Y-58536401D01*
X124028599Y-58703495D01*
X124125384Y-58771265D01*
X124222165Y-58839032D01*
X124222167Y-58839033D01*
X124222170Y-58839035D01*
X124436337Y-58938903D01*
X124664592Y-59000063D01*
X124852918Y-59016539D01*
X124899999Y-59020659D01*
X124900000Y-59020659D01*
X124900001Y-59020659D01*
X124939234Y-59017226D01*
X125135408Y-59000063D01*
X125363663Y-58938903D01*
X125577830Y-58839035D01*
X125771401Y-58703495D01*
X125938495Y-58536401D01*
X126068730Y-58350405D01*
X126123307Y-58306781D01*
X126192805Y-58299587D01*
X126255160Y-58331110D01*
X126271879Y-58350405D01*
X126325072Y-58426372D01*
X126325073Y-58426372D01*
X126957037Y-57794408D01*
X126974075Y-57857993D01*
X127039901Y-57972007D01*
X127132993Y-58065099D01*
X127247007Y-58130925D01*
X127310591Y-58147962D01*
X126678626Y-58779926D01*
X126762417Y-58838598D01*
X126762421Y-58838600D01*
X126976507Y-58938429D01*
X126976516Y-58938433D01*
X127204673Y-58999567D01*
X127204684Y-58999569D01*
X127439998Y-59020157D01*
X127440002Y-59020157D01*
X127675315Y-58999569D01*
X127675326Y-58999567D01*
X127903483Y-58938433D01*
X127903492Y-58938429D01*
X128117580Y-58838599D01*
X128201371Y-58779925D01*
X127569408Y-58147962D01*
X127632993Y-58130925D01*
X127747007Y-58065099D01*
X127840099Y-57972007D01*
X127905925Y-57857993D01*
X127922962Y-57794408D01*
X128554925Y-58426371D01*
X128608426Y-58349968D01*
X128663004Y-58306344D01*
X128732502Y-58299152D01*
X128794856Y-58330675D01*
X128811575Y-58349969D01*
X128865073Y-58426372D01*
X129497037Y-57794408D01*
X129514075Y-57857993D01*
X129579901Y-57972007D01*
X129672993Y-58065099D01*
X129787007Y-58130925D01*
X129850591Y-58147962D01*
X129218626Y-58779926D01*
X129302417Y-58838598D01*
X129302421Y-58838600D01*
X129516507Y-58938429D01*
X129516516Y-58938433D01*
X129744673Y-58999567D01*
X129744684Y-58999569D01*
X129979998Y-59020157D01*
X129980002Y-59020157D01*
X130215315Y-58999569D01*
X130215326Y-58999567D01*
X130443483Y-58938433D01*
X130443492Y-58938429D01*
X130657580Y-58838599D01*
X130741371Y-58779925D01*
X130109408Y-58147962D01*
X130172993Y-58130925D01*
X130287007Y-58065099D01*
X130380099Y-57972007D01*
X130445925Y-57857993D01*
X130462962Y-57794408D01*
X131094925Y-58426371D01*
X131148426Y-58349968D01*
X131203004Y-58306344D01*
X131272502Y-58299152D01*
X131334856Y-58330675D01*
X131351575Y-58349969D01*
X131405073Y-58426372D01*
X132037037Y-57794408D01*
X132054075Y-57857993D01*
X132119901Y-57972007D01*
X132212993Y-58065099D01*
X132327007Y-58130925D01*
X132390591Y-58147962D01*
X131758626Y-58779926D01*
X131842417Y-58838598D01*
X131842421Y-58838600D01*
X132056507Y-58938429D01*
X132056516Y-58938433D01*
X132284673Y-58999567D01*
X132284684Y-58999569D01*
X132519998Y-59020157D01*
X132520002Y-59020157D01*
X132755315Y-58999569D01*
X132755326Y-58999567D01*
X132983483Y-58938433D01*
X132983492Y-58938429D01*
X133197580Y-58838599D01*
X133281371Y-58779925D01*
X132649408Y-58147962D01*
X132712993Y-58130925D01*
X132827007Y-58065099D01*
X132920099Y-57972007D01*
X132985925Y-57857993D01*
X133002962Y-57794408D01*
X133634925Y-58426371D01*
X133688120Y-58350404D01*
X133742697Y-58306780D01*
X133812196Y-58299588D01*
X133874550Y-58331111D01*
X133891268Y-58350404D01*
X134021505Y-58536401D01*
X134188599Y-58703495D01*
X134285384Y-58771265D01*
X134382165Y-58839032D01*
X134382167Y-58839033D01*
X134382170Y-58839035D01*
X134596337Y-58938903D01*
X134824592Y-59000063D01*
X135012918Y-59016539D01*
X135059999Y-59020659D01*
X135060000Y-59020659D01*
X135060001Y-59020659D01*
X135099234Y-59017226D01*
X135295408Y-59000063D01*
X135523663Y-58938903D01*
X135737830Y-58839035D01*
X135931401Y-58703495D01*
X136098495Y-58536401D01*
X136234035Y-58342830D01*
X136333903Y-58128663D01*
X136395063Y-57900408D01*
X136415659Y-57665000D01*
X136395063Y-57429592D01*
X136333903Y-57201337D01*
X136234035Y-56987171D01*
X136229037Y-56980032D01*
X136098494Y-56793597D01*
X135931402Y-56626506D01*
X135931396Y-56626501D01*
X135745842Y-56496575D01*
X135702217Y-56441998D01*
X135695023Y-56372500D01*
X135726546Y-56310145D01*
X135745842Y-56293425D01*
X135822248Y-56239925D01*
X135931401Y-56163495D01*
X136098495Y-55996401D01*
X136234035Y-55802830D01*
X136333903Y-55588663D01*
X136395063Y-55360408D01*
X136415659Y-55125000D01*
X136395063Y-54889592D01*
X136333903Y-54661337D01*
X136234035Y-54447171D01*
X136229037Y-54440032D01*
X136098494Y-54253597D01*
X135931402Y-54086506D01*
X135931395Y-54086501D01*
X135737834Y-53950967D01*
X135737830Y-53950965D01*
X135737828Y-53950964D01*
X135523663Y-53851097D01*
X135523659Y-53851096D01*
X135523655Y-53851094D01*
X135295413Y-53789938D01*
X135295403Y-53789936D01*
X135060001Y-53769341D01*
X135059999Y-53769341D01*
X134824596Y-53789936D01*
X134824586Y-53789938D01*
X134596344Y-53851094D01*
X134596335Y-53851098D01*
X134382171Y-53950964D01*
X134382169Y-53950965D01*
X134188597Y-54086505D01*
X134021508Y-54253594D01*
X133891269Y-54439595D01*
X133836692Y-54483219D01*
X133767193Y-54490412D01*
X133704839Y-54458890D01*
X133688119Y-54439595D01*
X133634925Y-54363626D01*
X133002962Y-54995590D01*
X132985925Y-54932007D01*
X132920099Y-54817993D01*
X132827007Y-54724901D01*
X132712993Y-54659075D01*
X132649409Y-54642037D01*
X133281372Y-54010073D01*
X133197576Y-53951398D01*
X132983492Y-53851570D01*
X132983483Y-53851566D01*
X132755326Y-53790432D01*
X132755315Y-53790430D01*
X132520002Y-53769843D01*
X132519998Y-53769843D01*
X132284684Y-53790430D01*
X132284673Y-53790432D01*
X132056516Y-53851566D01*
X132056507Y-53851570D01*
X131842423Y-53951399D01*
X131842421Y-53951400D01*
X131758627Y-54010073D01*
X131758626Y-54010073D01*
X132390591Y-54642037D01*
X132327007Y-54659075D01*
X132212993Y-54724901D01*
X132119901Y-54817993D01*
X132054075Y-54932007D01*
X132037037Y-54995590D01*
X131405073Y-54363626D01*
X131405073Y-54363627D01*
X131351575Y-54440031D01*
X131296999Y-54483656D01*
X131227500Y-54490850D01*
X131165145Y-54459327D01*
X131148425Y-54440032D01*
X131094925Y-54363626D01*
X130462962Y-54995590D01*
X130445925Y-54932007D01*
X130380099Y-54817993D01*
X130287007Y-54724901D01*
X130172993Y-54659075D01*
X130109409Y-54642037D01*
X130741372Y-54010073D01*
X130657576Y-53951398D01*
X130443492Y-53851570D01*
X130443483Y-53851566D01*
X130215326Y-53790432D01*
X130215315Y-53790430D01*
X129980002Y-53769843D01*
X129979998Y-53769843D01*
X129744684Y-53790430D01*
X129744673Y-53790432D01*
X129516516Y-53851566D01*
X129516507Y-53851570D01*
X129302423Y-53951399D01*
X129302421Y-53951400D01*
X129218627Y-54010073D01*
X129218626Y-54010073D01*
X129850591Y-54642037D01*
X129787007Y-54659075D01*
X129672993Y-54724901D01*
X129579901Y-54817993D01*
X129514075Y-54932007D01*
X129497037Y-54995590D01*
X128865073Y-54363626D01*
X128865073Y-54363627D01*
X128811575Y-54440031D01*
X128756999Y-54483656D01*
X128687500Y-54490850D01*
X128625145Y-54459327D01*
X128608425Y-54440032D01*
X128554925Y-54363626D01*
X127922962Y-54995590D01*
X127905925Y-54932007D01*
X127840099Y-54817993D01*
X127747007Y-54724901D01*
X127632993Y-54659075D01*
X127569409Y-54642037D01*
X128201372Y-54010073D01*
X128117576Y-53951398D01*
X127903492Y-53851570D01*
X127903483Y-53851566D01*
X127675326Y-53790432D01*
X127675315Y-53790430D01*
X127440002Y-53769843D01*
X127439998Y-53769843D01*
X127204684Y-53790430D01*
X127204673Y-53790432D01*
X126976516Y-53851566D01*
X126976507Y-53851570D01*
X126762423Y-53951399D01*
X126762421Y-53951400D01*
X126678627Y-54010073D01*
X126678626Y-54010073D01*
X127310591Y-54642037D01*
X127247007Y-54659075D01*
X127132993Y-54724901D01*
X127039901Y-54817993D01*
X126974075Y-54932007D01*
X126957037Y-54995590D01*
X126286818Y-54325371D01*
X126253333Y-54264048D01*
X126250499Y-54237690D01*
X126250499Y-54227129D01*
X126250498Y-54227123D01*
X126250497Y-54227116D01*
X126244091Y-54167517D01*
X126193796Y-54032669D01*
X126193795Y-54032668D01*
X126193793Y-54032664D01*
X126107547Y-53917455D01*
X126107544Y-53917452D01*
X125992335Y-53831206D01*
X125992328Y-53831202D01*
X125857482Y-53780908D01*
X125857483Y-53780908D01*
X125797883Y-53774501D01*
X125797881Y-53774500D01*
X125797873Y-53774500D01*
X125797864Y-53774500D01*
X124002129Y-53774500D01*
X124002123Y-53774501D01*
X123942516Y-53780908D01*
X123807671Y-53831202D01*
X123807664Y-53831206D01*
X123692455Y-53917452D01*
X123692452Y-53917455D01*
X123606206Y-54032664D01*
X123606202Y-54032671D01*
X123555908Y-54167517D01*
X123549501Y-54227116D01*
X123549501Y-54227123D01*
X123549500Y-54227135D01*
X123549500Y-56022870D01*
X123549501Y-56022876D01*
X123555908Y-56082483D01*
X123606202Y-56217328D01*
X123606206Y-56217335D01*
X123692452Y-56332544D01*
X123692455Y-56332547D01*
X123807664Y-56418793D01*
X123807671Y-56418797D01*
X123939081Y-56467810D01*
X123995015Y-56509681D01*
X124019432Y-56575145D01*
X124004580Y-56643418D01*
X123983430Y-56671673D01*
X123861503Y-56793600D01*
X123725965Y-56987169D01*
X123725964Y-56987171D01*
X123626098Y-57201335D01*
X123626094Y-57201344D01*
X123564938Y-57429586D01*
X123564936Y-57429596D01*
X123544341Y-57664999D01*
X103350000Y-57664999D01*
X103350000Y-57102172D01*
X103349999Y-57102155D01*
X103343598Y-57042627D01*
X103343596Y-57042620D01*
X103293354Y-56907913D01*
X103293350Y-56907906D01*
X103207190Y-56792812D01*
X103207187Y-56792809D01*
X103092093Y-56706649D01*
X103092086Y-56706645D01*
X102957379Y-56656403D01*
X102957372Y-56656401D01*
X102897844Y-56650000D01*
X102250000Y-56650000D01*
X102250000Y-57566988D01*
X102192993Y-57534075D01*
X102065826Y-57500000D01*
X101934174Y-57500000D01*
X101807007Y-57534075D01*
X101750000Y-57566988D01*
X101750000Y-56650000D01*
X101102155Y-56650000D01*
X101042627Y-56656401D01*
X101042620Y-56656403D01*
X100907913Y-56706645D01*
X100907906Y-56706649D01*
X100792812Y-56792809D01*
X100723766Y-56885042D01*
X100667832Y-56926912D01*
X100598140Y-56931896D01*
X100536817Y-56898410D01*
X100503333Y-56837086D01*
X100500500Y-56810730D01*
X100500500Y-50624500D01*
X100520185Y-50557461D01*
X100572989Y-50511706D01*
X100624500Y-50500500D01*
X159375500Y-50500500D01*
X159442539Y-50520185D01*
G37*
%TD.AperFunction*%
%TA.AperFunction,Conductor*%
G36*
X131163291Y-95845185D02*
G01*
X131188400Y-95866526D01*
X131194126Y-95872885D01*
X131194130Y-95872889D01*
X131347265Y-95984148D01*
X131347270Y-95984151D01*
X131520192Y-96061142D01*
X131520197Y-96061144D01*
X131705354Y-96100500D01*
X131705355Y-96100500D01*
X131711711Y-96101851D01*
X131711400Y-96103312D01*
X131768908Y-96126968D01*
X131808896Y-96184264D01*
X131811560Y-96254082D01*
X131779018Y-96311390D01*
X131101270Y-96989139D01*
X131014144Y-97076264D01*
X131014138Y-97076272D01*
X130945692Y-97178705D01*
X130945684Y-97178719D01*
X130912347Y-97259207D01*
X130906823Y-97272543D01*
X130898537Y-97292545D01*
X130898535Y-97292553D01*
X130874500Y-97413389D01*
X130874500Y-125861604D01*
X130898497Y-125982253D01*
X130898535Y-125982445D01*
X130898536Y-125982448D01*
X130898537Y-125982451D01*
X130945688Y-126096286D01*
X130945691Y-126096291D01*
X130945692Y-126096292D01*
X130978958Y-126146079D01*
X130978964Y-126146086D01*
X131014141Y-126198732D01*
X131014144Y-126198736D01*
X131105586Y-126290178D01*
X131105608Y-126290198D01*
X135811016Y-130995606D01*
X135811045Y-130995637D01*
X135901264Y-131085856D01*
X135901267Y-131085858D01*
X135952490Y-131120084D01*
X136003714Y-131154312D01*
X136084207Y-131187652D01*
X136117548Y-131201463D01*
X136177971Y-131213481D01*
X136238393Y-131225500D01*
X136238394Y-131225500D01*
X139396252Y-131225500D01*
X139463291Y-131245185D01*
X139488400Y-131266526D01*
X139494126Y-131272885D01*
X139494130Y-131272889D01*
X139557979Y-131319278D01*
X139600645Y-131374608D01*
X139606624Y-131444221D01*
X139574018Y-131506016D01*
X139572775Y-131507277D01*
X137066873Y-134013181D01*
X137005550Y-134046666D01*
X136979192Y-134049500D01*
X134576975Y-134049500D01*
X134509936Y-134029815D01*
X134504090Y-134025818D01*
X134352734Y-133915851D01*
X134352729Y-133915848D01*
X134179807Y-133838857D01*
X134179802Y-133838855D01*
X134024135Y-133805768D01*
X133994646Y-133799500D01*
X133805354Y-133799500D01*
X133775865Y-133805768D01*
X133620197Y-133838855D01*
X133620192Y-133838857D01*
X133447270Y-133915848D01*
X133447265Y-133915851D01*
X133294129Y-134027111D01*
X133167466Y-134167785D01*
X133072821Y-134331715D01*
X133072818Y-134331722D01*
X133014327Y-134511740D01*
X133014326Y-134511744D01*
X132994540Y-134700000D01*
X133014326Y-134888256D01*
X133014327Y-134888259D01*
X133072818Y-135068277D01*
X133072821Y-135068284D01*
X133167467Y-135232216D01*
X133273971Y-135350500D01*
X133294129Y-135372888D01*
X133447265Y-135484148D01*
X133447270Y-135484151D01*
X133620192Y-135561142D01*
X133620197Y-135561144D01*
X133805354Y-135600500D01*
X133805355Y-135600500D01*
X133994644Y-135600500D01*
X133994646Y-135600500D01*
X134179803Y-135561144D01*
X134352730Y-135484151D01*
X134504090Y-135374182D01*
X134569896Y-135350702D01*
X134576975Y-135350500D01*
X137364071Y-135350500D01*
X137448615Y-135333682D01*
X137489744Y-135325501D01*
X137608127Y-135276465D01*
X137714669Y-135205277D01*
X141189913Y-131730031D01*
X141251234Y-131696548D01*
X141320926Y-131701532D01*
X141369740Y-131734741D01*
X141414749Y-131784727D01*
X141417650Y-131787949D01*
X141447880Y-131850940D01*
X141449500Y-131870921D01*
X141449500Y-140064069D01*
X141449500Y-140064071D01*
X141449499Y-140064071D01*
X141474497Y-140189738D01*
X141474499Y-140189744D01*
X141523535Y-140308127D01*
X141594723Y-140414669D01*
X141594726Y-140414673D01*
X143085326Y-141905273D01*
X143085329Y-141905275D01*
X143085331Y-141905277D01*
X143191873Y-141976465D01*
X143310256Y-142025501D01*
X143310260Y-142025501D01*
X143310261Y-142025502D01*
X143435928Y-142050500D01*
X143435931Y-142050500D01*
X147025500Y-142050500D01*
X147092539Y-142070185D01*
X147138294Y-142122989D01*
X147149500Y-142174500D01*
X147149500Y-145172009D01*
X147129815Y-145239048D01*
X147084518Y-145281063D01*
X146976501Y-145339519D01*
X146976494Y-145339523D01*
X146780257Y-145492261D01*
X146611833Y-145675217D01*
X146475826Y-145883393D01*
X146375936Y-146111118D01*
X146314892Y-146352175D01*
X146314890Y-146352187D01*
X146294357Y-146599994D01*
X146294357Y-146600005D01*
X146314890Y-146847812D01*
X146314892Y-146847824D01*
X146375936Y-147088881D01*
X146475826Y-147316606D01*
X146611833Y-147524782D01*
X146611836Y-147524785D01*
X146780256Y-147707738D01*
X146976491Y-147860474D01*
X147195190Y-147978828D01*
X147430386Y-148059571D01*
X147675665Y-148100500D01*
X147924335Y-148100500D01*
X148169614Y-148059571D01*
X148404810Y-147978828D01*
X148623509Y-147860474D01*
X148819744Y-147707738D01*
X148988164Y-147524785D01*
X149124173Y-147316607D01*
X149224063Y-147088881D01*
X149285108Y-146847821D01*
X149289070Y-146800005D01*
X149305643Y-146600005D01*
X149305643Y-146599994D01*
X149297357Y-146499994D01*
X155494859Y-146499994D01*
X155494859Y-146500005D01*
X155515385Y-146747729D01*
X155515387Y-146747738D01*
X155576412Y-146988717D01*
X155676267Y-147216367D01*
X155776562Y-147369881D01*
X156398957Y-146747487D01*
X156423978Y-146807890D01*
X156495112Y-146914351D01*
X156585649Y-147004888D01*
X156692110Y-147076022D01*
X156752511Y-147101041D01*
X156129943Y-147723609D01*
X156176768Y-147760055D01*
X156176771Y-147760057D01*
X156395385Y-147878364D01*
X156395396Y-147878369D01*
X156630506Y-147959083D01*
X156875707Y-148000000D01*
X157124293Y-148000000D01*
X157369493Y-147959083D01*
X157604603Y-147878369D01*
X157604614Y-147878364D01*
X157823230Y-147760056D01*
X157823236Y-147760051D01*
X157870055Y-147723610D01*
X157870056Y-147723609D01*
X157247488Y-147101041D01*
X157307890Y-147076022D01*
X157414351Y-147004888D01*
X157504888Y-146914351D01*
X157576022Y-146807890D01*
X157601041Y-146747488D01*
X158223435Y-147369882D01*
X158323733Y-147216364D01*
X158423587Y-146988717D01*
X158484612Y-146747738D01*
X158484614Y-146747729D01*
X158505141Y-146500005D01*
X158505141Y-146499994D01*
X158484614Y-146252270D01*
X158484612Y-146252261D01*
X158423587Y-146011282D01*
X158323732Y-145783632D01*
X158223435Y-145630116D01*
X157601041Y-146252511D01*
X157576022Y-146192110D01*
X157504888Y-146085649D01*
X157414351Y-145995112D01*
X157307890Y-145923978D01*
X157247487Y-145898958D01*
X157870055Y-145276389D01*
X157870055Y-145276388D01*
X157823236Y-145239947D01*
X157823231Y-145239944D01*
X157604614Y-145121635D01*
X157604603Y-145121630D01*
X157369493Y-145040916D01*
X157124293Y-145000000D01*
X156875707Y-145000000D01*
X156630506Y-145040916D01*
X156395396Y-145121630D01*
X156395385Y-145121635D01*
X156176770Y-145239943D01*
X156129943Y-145276389D01*
X156752512Y-145898958D01*
X156692110Y-145923978D01*
X156585649Y-145995112D01*
X156495112Y-146085649D01*
X156423978Y-146192110D01*
X156398958Y-146252512D01*
X155776563Y-145630117D01*
X155676267Y-145783633D01*
X155676265Y-145783637D01*
X155576412Y-146011282D01*
X155515387Y-146252261D01*
X155515385Y-146252270D01*
X155494859Y-146499994D01*
X149297357Y-146499994D01*
X149285109Y-146352187D01*
X149285107Y-146352175D01*
X149224063Y-146111118D01*
X149124173Y-145883393D01*
X148988166Y-145675217D01*
X148911800Y-145592262D01*
X148819744Y-145492262D01*
X148623509Y-145339526D01*
X148623508Y-145339525D01*
X148623505Y-145339523D01*
X148623498Y-145339519D01*
X148515482Y-145281063D01*
X148465891Y-145231844D01*
X148450500Y-145172009D01*
X148450500Y-141820808D01*
X148470185Y-141753769D01*
X148486819Y-141733127D01*
X150505271Y-139714675D01*
X150505276Y-139714670D01*
X150576465Y-139608127D01*
X150625501Y-139489744D01*
X150627937Y-139477496D01*
X150630406Y-139465086D01*
X150630406Y-139465084D01*
X150650500Y-139364069D01*
X150650500Y-138770921D01*
X150670185Y-138703882D01*
X150682351Y-138687948D01*
X150723569Y-138642171D01*
X150732533Y-138632216D01*
X150827179Y-138468284D01*
X150885674Y-138288256D01*
X150905460Y-138100000D01*
X150885674Y-137911744D01*
X150827179Y-137731716D01*
X150732533Y-137567784D01*
X150682350Y-137512050D01*
X150652120Y-137449058D01*
X150650500Y-137429078D01*
X150650500Y-120435928D01*
X150625502Y-120310261D01*
X150625501Y-120310260D01*
X150625501Y-120310256D01*
X150576465Y-120191873D01*
X150520680Y-120108384D01*
X150500462Y-120052454D01*
X150485674Y-119911745D01*
X150485672Y-119911740D01*
X150453531Y-119812818D01*
X150451536Y-119742977D01*
X150487616Y-119683144D01*
X150550317Y-119652316D01*
X150571462Y-119650500D01*
X156525501Y-119650500D01*
X156592540Y-119670185D01*
X156638295Y-119722989D01*
X156649501Y-119774500D01*
X156649501Y-119897876D01*
X156655908Y-119957483D01*
X156706202Y-120092328D01*
X156706206Y-120092335D01*
X156792452Y-120207544D01*
X156792455Y-120207547D01*
X156907664Y-120293793D01*
X156907671Y-120293797D01*
X156951814Y-120310261D01*
X157039598Y-120343002D01*
X157095531Y-120384873D01*
X157119949Y-120450337D01*
X157105098Y-120518610D01*
X157083947Y-120546865D01*
X156961886Y-120668926D01*
X156826400Y-120862420D01*
X156826399Y-120862422D01*
X156726570Y-121076507D01*
X156726567Y-121076513D01*
X156669364Y-121289999D01*
X156669364Y-121290000D01*
X157566988Y-121290000D01*
X157534075Y-121347007D01*
X157500000Y-121474174D01*
X157500000Y-121605826D01*
X157534075Y-121732993D01*
X157566988Y-121790000D01*
X156669364Y-121790000D01*
X156726567Y-122003486D01*
X156726570Y-122003492D01*
X156826399Y-122217578D01*
X156961894Y-122411082D01*
X157128917Y-122578105D01*
X157314595Y-122708119D01*
X157358219Y-122762696D01*
X157365412Y-122832195D01*
X157333890Y-122894549D01*
X157314595Y-122911269D01*
X157128594Y-123041508D01*
X156961505Y-123208597D01*
X156825965Y-123402169D01*
X156825964Y-123402171D01*
X156726098Y-123616335D01*
X156726094Y-123616344D01*
X156664938Y-123844586D01*
X156664936Y-123844596D01*
X156644341Y-124079999D01*
X156644341Y-124080000D01*
X156664936Y-124315403D01*
X156664938Y-124315413D01*
X156726094Y-124543655D01*
X156726096Y-124543659D01*
X156726097Y-124543663D01*
X156760766Y-124618011D01*
X156825965Y-124757830D01*
X156825967Y-124757834D01*
X156961501Y-124951395D01*
X156961506Y-124951402D01*
X157128597Y-125118493D01*
X157128603Y-125118498D01*
X157314158Y-125248425D01*
X157357783Y-125303002D01*
X157364977Y-125372500D01*
X157333454Y-125434855D01*
X157314158Y-125451575D01*
X157128597Y-125581505D01*
X156961505Y-125748597D01*
X156825965Y-125942169D01*
X156825964Y-125942171D01*
X156726098Y-126156335D01*
X156726094Y-126156344D01*
X156664938Y-126384586D01*
X156664936Y-126384596D01*
X156644341Y-126619999D01*
X156644341Y-126620000D01*
X156664936Y-126855403D01*
X156664938Y-126855413D01*
X156726094Y-127083655D01*
X156726096Y-127083659D01*
X156726097Y-127083663D01*
X156761319Y-127159196D01*
X156825965Y-127297830D01*
X156825967Y-127297834D01*
X156961501Y-127491395D01*
X156961506Y-127491402D01*
X157128597Y-127658493D01*
X157128603Y-127658498D01*
X157314158Y-127788425D01*
X157357783Y-127843002D01*
X157364977Y-127912500D01*
X157333454Y-127974855D01*
X157314158Y-127991575D01*
X157128597Y-128121505D01*
X156961505Y-128288597D01*
X156825965Y-128482169D01*
X156825964Y-128482171D01*
X156726098Y-128696335D01*
X156726094Y-128696344D01*
X156664938Y-128924586D01*
X156664936Y-128924596D01*
X156644341Y-129159999D01*
X156644341Y-129160000D01*
X156664936Y-129395403D01*
X156664938Y-129395413D01*
X156726094Y-129623655D01*
X156726096Y-129623659D01*
X156726097Y-129623663D01*
X156779812Y-129738855D01*
X156825965Y-129837830D01*
X156825967Y-129837834D01*
X156961501Y-130031395D01*
X156961506Y-130031402D01*
X157128597Y-130198493D01*
X157128603Y-130198498D01*
X157314594Y-130328730D01*
X157358219Y-130383307D01*
X157365413Y-130452805D01*
X157333890Y-130515160D01*
X157314595Y-130531880D01*
X157128922Y-130661890D01*
X157128920Y-130661891D01*
X156961891Y-130828920D01*
X156961886Y-130828926D01*
X156826400Y-131022420D01*
X156826399Y-131022422D01*
X156726570Y-131236507D01*
X156726567Y-131236513D01*
X156669364Y-131449999D01*
X156669364Y-131450000D01*
X157566988Y-131450000D01*
X157534075Y-131507007D01*
X157500000Y-131634174D01*
X157500000Y-131765826D01*
X157534075Y-131892993D01*
X157566988Y-131950000D01*
X156669364Y-131950000D01*
X156726567Y-132163486D01*
X156726570Y-132163492D01*
X156826399Y-132377578D01*
X156961894Y-132571082D01*
X157128917Y-132738105D01*
X157314595Y-132868119D01*
X157358219Y-132922696D01*
X157365412Y-132992195D01*
X157333890Y-133054549D01*
X157314595Y-133071269D01*
X157128594Y-133201508D01*
X156961505Y-133368597D01*
X156825965Y-133562169D01*
X156825964Y-133562171D01*
X156726098Y-133776335D01*
X156726094Y-133776344D01*
X156664938Y-134004586D01*
X156664936Y-134004596D01*
X156644341Y-134239999D01*
X156644341Y-134240000D01*
X156664936Y-134475403D01*
X156664938Y-134475413D01*
X156726094Y-134703655D01*
X156726096Y-134703659D01*
X156726097Y-134703663D01*
X156760766Y-134778011D01*
X156825965Y-134917830D01*
X156825967Y-134917834D01*
X156961501Y-135111395D01*
X156961506Y-135111402D01*
X157128597Y-135278493D01*
X157128603Y-135278498D01*
X157314158Y-135408425D01*
X157357783Y-135463002D01*
X157364977Y-135532500D01*
X157333454Y-135594855D01*
X157314158Y-135611575D01*
X157128597Y-135741505D01*
X156961505Y-135908597D01*
X156825965Y-136102169D01*
X156825964Y-136102171D01*
X156726098Y-136316335D01*
X156726094Y-136316344D01*
X156664938Y-136544586D01*
X156664936Y-136544596D01*
X156644341Y-136779999D01*
X156644341Y-136780000D01*
X156664936Y-137015403D01*
X156664938Y-137015413D01*
X156726094Y-137243655D01*
X156726096Y-137243659D01*
X156726097Y-137243663D01*
X156765010Y-137327112D01*
X156825965Y-137457830D01*
X156825967Y-137457834D01*
X156902956Y-137567785D01*
X156947721Y-137631716D01*
X156961501Y-137651395D01*
X156961506Y-137651402D01*
X157128597Y-137818493D01*
X157128603Y-137818498D01*
X157314158Y-137948425D01*
X157357783Y-138003002D01*
X157364977Y-138072500D01*
X157333454Y-138134855D01*
X157314158Y-138151575D01*
X157128597Y-138281505D01*
X156961505Y-138448597D01*
X156825965Y-138642169D01*
X156825964Y-138642171D01*
X156726098Y-138856335D01*
X156726094Y-138856344D01*
X156664938Y-139084586D01*
X156664936Y-139084596D01*
X156644341Y-139319999D01*
X156644341Y-139320000D01*
X156664936Y-139555403D01*
X156664938Y-139555413D01*
X156726094Y-139783655D01*
X156726096Y-139783659D01*
X156726097Y-139783663D01*
X156761319Y-139859196D01*
X156825965Y-139997830D01*
X156825967Y-139997834D01*
X156961501Y-140191395D01*
X156961506Y-140191402D01*
X157128597Y-140358493D01*
X157128603Y-140358498D01*
X157314158Y-140488425D01*
X157357783Y-140543002D01*
X157364977Y-140612500D01*
X157333454Y-140674855D01*
X157314158Y-140691575D01*
X157128597Y-140821505D01*
X156961505Y-140988597D01*
X156825965Y-141182169D01*
X156825964Y-141182171D01*
X156726098Y-141396335D01*
X156726094Y-141396344D01*
X156664938Y-141624586D01*
X156664936Y-141624596D01*
X156644341Y-141859999D01*
X156644341Y-141860000D01*
X156664936Y-142095403D01*
X156664938Y-142095413D01*
X156726094Y-142323655D01*
X156726096Y-142323659D01*
X156726097Y-142323663D01*
X156761319Y-142399196D01*
X156825965Y-142537830D01*
X156825967Y-142537834D01*
X156934281Y-142692521D01*
X156961505Y-142731401D01*
X157128599Y-142898495D01*
X157208310Y-142954309D01*
X157322165Y-143034032D01*
X157322167Y-143034033D01*
X157322170Y-143034035D01*
X157536337Y-143133903D01*
X157764592Y-143195063D01*
X157952918Y-143211539D01*
X157999999Y-143215659D01*
X158000000Y-143215659D01*
X158000001Y-143215659D01*
X158039234Y-143212226D01*
X158235408Y-143195063D01*
X158463663Y-143133903D01*
X158677830Y-143034035D01*
X158871401Y-142898495D01*
X159038495Y-142731401D01*
X159174035Y-142537830D01*
X159263118Y-142346790D01*
X159309290Y-142294352D01*
X159376484Y-142275200D01*
X159443365Y-142295416D01*
X159488700Y-142348581D01*
X159499500Y-142399196D01*
X159499500Y-149375500D01*
X159479815Y-149442539D01*
X159427011Y-149488294D01*
X159375500Y-149499500D01*
X130184452Y-149499500D01*
X130117413Y-149479815D01*
X130071658Y-149427011D01*
X130061714Y-149357853D01*
X130090739Y-149294297D01*
X130096771Y-149287819D01*
X130147771Y-149236819D01*
X130209094Y-149203334D01*
X130235452Y-149200500D01*
X130294644Y-149200500D01*
X130294646Y-149200500D01*
X130479803Y-149161144D01*
X130652730Y-149084151D01*
X130805871Y-148972888D01*
X130932533Y-148832216D01*
X131027179Y-148668284D01*
X131085674Y-148488256D01*
X131105460Y-148300000D01*
X131085674Y-148111744D01*
X131027179Y-147931716D01*
X130974928Y-147841215D01*
X130958456Y-147773317D01*
X130981309Y-147707290D01*
X131036230Y-147664099D01*
X131105783Y-147657458D01*
X131119551Y-147661007D01*
X131217541Y-147681835D01*
X131305354Y-147700500D01*
X131305355Y-147700500D01*
X131494644Y-147700500D01*
X131494646Y-147700500D01*
X131679803Y-147661144D01*
X131852730Y-147584151D01*
X132005871Y-147472888D01*
X132132533Y-147332216D01*
X132227179Y-147168284D01*
X132257569Y-147074754D01*
X132297006Y-147017078D01*
X132361365Y-146989880D01*
X132430211Y-147001795D01*
X132481687Y-147049039D01*
X132499500Y-147113072D01*
X132499500Y-147488541D01*
X132499500Y-147488543D01*
X132499499Y-147488543D01*
X132537947Y-147681829D01*
X132537950Y-147681839D01*
X132613364Y-147863907D01*
X132613371Y-147863920D01*
X132722860Y-148027781D01*
X132722863Y-148027785D01*
X132862214Y-148167136D01*
X132862218Y-148167139D01*
X133026079Y-148276628D01*
X133026092Y-148276635D01*
X133208160Y-148352049D01*
X133208165Y-148352051D01*
X133208169Y-148352051D01*
X133208170Y-148352052D01*
X133401456Y-148390500D01*
X133401459Y-148390500D01*
X133598543Y-148390500D01*
X133728582Y-148364632D01*
X133791835Y-148352051D01*
X133973914Y-148276632D01*
X134137782Y-148167139D01*
X134277139Y-148027782D01*
X134386632Y-147863914D01*
X134388057Y-147860475D01*
X134428240Y-147763462D01*
X134462051Y-147681835D01*
X134495068Y-147515849D01*
X134500500Y-147488543D01*
X134500500Y-146741456D01*
X134462052Y-146548170D01*
X134462051Y-146548169D01*
X134462051Y-146548165D01*
X134442098Y-146499994D01*
X134386635Y-146366092D01*
X134386628Y-146366079D01*
X134277139Y-146202218D01*
X134277136Y-146202214D01*
X134137785Y-146062863D01*
X134137781Y-146062860D01*
X133973920Y-145953371D01*
X133973907Y-145953364D01*
X133791839Y-145877950D01*
X133791829Y-145877947D01*
X133598543Y-145839500D01*
X133598541Y-145839500D01*
X133401459Y-145839500D01*
X133401457Y-145839500D01*
X133208170Y-145877947D01*
X133208160Y-145877950D01*
X133026092Y-145953364D01*
X133026079Y-145953371D01*
X132862218Y-146062860D01*
X132862214Y-146062863D01*
X132722863Y-146202214D01*
X132722860Y-146202218D01*
X132613371Y-146366079D01*
X132613364Y-146366092D01*
X132537950Y-146548160D01*
X132537948Y-146548169D01*
X132527014Y-146603135D01*
X132494628Y-146665045D01*
X132433912Y-146699619D01*
X132364143Y-146695878D01*
X132307471Y-146655011D01*
X132287466Y-146617260D01*
X132227181Y-146431721D01*
X132227178Y-146431715D01*
X132132533Y-146267784D01*
X132005871Y-146127112D01*
X132005870Y-146127111D01*
X131852734Y-146015851D01*
X131852729Y-146015848D01*
X131679807Y-145938857D01*
X131679802Y-145938855D01*
X131534001Y-145907865D01*
X131494646Y-145899500D01*
X131305354Y-145899500D01*
X131272897Y-145906398D01*
X131120197Y-145938855D01*
X131120192Y-145938857D01*
X130947270Y-146015848D01*
X130947265Y-146015851D01*
X130794130Y-146127110D01*
X130794126Y-146127114D01*
X130788400Y-146133474D01*
X130728913Y-146170121D01*
X130696252Y-146174500D01*
X128410453Y-146174500D01*
X128343414Y-146154815D01*
X128322772Y-146138181D01*
X127767499Y-145582908D01*
X127734014Y-145521585D01*
X127738998Y-145451893D01*
X127780870Y-145395960D01*
X127830986Y-145373610D01*
X127934543Y-145353012D01*
X128112073Y-145279477D01*
X128271845Y-145172720D01*
X128407720Y-145036845D01*
X128514477Y-144877073D01*
X128588012Y-144699543D01*
X128625500Y-144511078D01*
X128625500Y-144318922D01*
X128625500Y-144318919D01*
X128625499Y-144318917D01*
X131374500Y-144318917D01*
X131374500Y-144511082D01*
X131411986Y-144699535D01*
X131411989Y-144699547D01*
X131485520Y-144877068D01*
X131485521Y-144877070D01*
X131592279Y-145036844D01*
X131592282Y-145036848D01*
X131728151Y-145172717D01*
X131728155Y-145172720D01*
X131887927Y-145279477D01*
X131887928Y-145279477D01*
X131887929Y-145279478D01*
X131887931Y-145279479D01*
X132065452Y-145353010D01*
X132065457Y-145353012D01*
X132253917Y-145390499D01*
X132253920Y-145390500D01*
X132253922Y-145390500D01*
X132746080Y-145390500D01*
X132746081Y-145390499D01*
X132934543Y-145353012D01*
X133112073Y-145279477D01*
X133271845Y-145172720D01*
X133407720Y-145036845D01*
X133514477Y-144877073D01*
X133588012Y-144699543D01*
X133625500Y-144511078D01*
X133625500Y-144318922D01*
X133625500Y-144318919D01*
X133625499Y-144318917D01*
X133588013Y-144130464D01*
X133588012Y-144130457D01*
X133588010Y-144130452D01*
X133514479Y-143952931D01*
X133514478Y-143952929D01*
X133407720Y-143793155D01*
X133407717Y-143793151D01*
X133271848Y-143657282D01*
X133271844Y-143657279D01*
X133112070Y-143550521D01*
X133112068Y-143550520D01*
X132934547Y-143476989D01*
X132934535Y-143476986D01*
X132746081Y-143439500D01*
X132746078Y-143439500D01*
X132253922Y-143439500D01*
X132253919Y-143439500D01*
X132065464Y-143476986D01*
X132065452Y-143476989D01*
X131887931Y-143550520D01*
X131887929Y-143550521D01*
X131728155Y-143657279D01*
X131728151Y-143657282D01*
X131592282Y-143793151D01*
X131592279Y-143793155D01*
X131485521Y-143952929D01*
X131485520Y-143952931D01*
X131411989Y-144130452D01*
X131411986Y-144130464D01*
X131374500Y-144318917D01*
X128625499Y-144318917D01*
X128588013Y-144130464D01*
X128588012Y-144130457D01*
X128588010Y-144130452D01*
X128514479Y-143952931D01*
X128514478Y-143952929D01*
X128407720Y-143793155D01*
X128407717Y-143793151D01*
X128271848Y-143657282D01*
X128271844Y-143657279D01*
X128112070Y-143550521D01*
X128112068Y-143550520D01*
X127934547Y-143476989D01*
X127934535Y-143476986D01*
X127746081Y-143439500D01*
X127746078Y-143439500D01*
X127253922Y-143439500D01*
X127253919Y-143439500D01*
X127065464Y-143476986D01*
X127065452Y-143476989D01*
X126887931Y-143550520D01*
X126887929Y-143550521D01*
X126728155Y-143657279D01*
X126728151Y-143657282D01*
X126592282Y-143793151D01*
X126592279Y-143793155D01*
X126485521Y-143952929D01*
X126454612Y-144027552D01*
X126410771Y-144081955D01*
X126344477Y-144104020D01*
X126276777Y-144086741D01*
X126252370Y-144067780D01*
X124358846Y-142174256D01*
X124325361Y-142112933D01*
X124330345Y-142043241D01*
X124372217Y-141987308D01*
X124377633Y-141983474D01*
X124378416Y-141982952D01*
X130137819Y-136223547D01*
X130199142Y-136190063D01*
X130268834Y-136195047D01*
X130324767Y-136236919D01*
X130349184Y-136302383D01*
X130349500Y-136311229D01*
X130349500Y-138873918D01*
X130349500Y-138873920D01*
X130349499Y-138873920D01*
X130378340Y-139018907D01*
X130378343Y-139018917D01*
X130434914Y-139155492D01*
X130467812Y-139204727D01*
X130467813Y-139204730D01*
X130517046Y-139278414D01*
X130517052Y-139278421D01*
X137580615Y-146341982D01*
X137614100Y-146403305D01*
X137615171Y-146447056D01*
X137615315Y-146447068D01*
X137615204Y-146448403D01*
X137615245Y-146450062D01*
X137614891Y-146452184D01*
X137594357Y-146699994D01*
X137594357Y-146700005D01*
X137614890Y-146947812D01*
X137614892Y-146947824D01*
X137675936Y-147188881D01*
X137775826Y-147416606D01*
X137911833Y-147624782D01*
X137911836Y-147624785D01*
X138080256Y-147807738D01*
X138276491Y-147960474D01*
X138276493Y-147960475D01*
X138460500Y-148060055D01*
X138495190Y-148078828D01*
X138730386Y-148159571D01*
X138975665Y-148200500D01*
X139224335Y-148200500D01*
X139469614Y-148159571D01*
X139704810Y-148078828D01*
X139923509Y-147960474D01*
X140119744Y-147807738D01*
X140288164Y-147624785D01*
X140424173Y-147416607D01*
X140524063Y-147188881D01*
X140585108Y-146947821D01*
X140585109Y-146947812D01*
X140605643Y-146700005D01*
X140605643Y-146699994D01*
X140585109Y-146452187D01*
X140585107Y-146452175D01*
X140524063Y-146211118D01*
X140424173Y-145983393D01*
X140288166Y-145775217D01*
X140196109Y-145675217D01*
X140119744Y-145592262D01*
X139923509Y-145439526D01*
X139923507Y-145439525D01*
X139923506Y-145439524D01*
X139704811Y-145321172D01*
X139704802Y-145321169D01*
X139469616Y-145240429D01*
X139224335Y-145199500D01*
X138975665Y-145199500D01*
X138730384Y-145240429D01*
X138707867Y-145248159D01*
X138638068Y-145251308D01*
X138579925Y-145218558D01*
X131886819Y-138525451D01*
X131853334Y-138464128D01*
X131850500Y-138437770D01*
X131850500Y-134562229D01*
X131870185Y-134495190D01*
X131886814Y-134474553D01*
X133930775Y-132430591D01*
X133992096Y-132397108D01*
X134006295Y-132394871D01*
X134096132Y-132386024D01*
X134284727Y-132328814D01*
X134458538Y-132235910D01*
X134610883Y-132110883D01*
X134735910Y-131958538D01*
X134808185Y-131823322D01*
X134828811Y-131784733D01*
X134828811Y-131784732D01*
X134828814Y-131784727D01*
X134886024Y-131596132D01*
X134905341Y-131400000D01*
X134886024Y-131203868D01*
X134828814Y-131015273D01*
X134828811Y-131015269D01*
X134828811Y-131015266D01*
X134735913Y-130841467D01*
X134735909Y-130841460D01*
X134610883Y-130689116D01*
X134458539Y-130564090D01*
X134458532Y-130564086D01*
X134284733Y-130471188D01*
X134284727Y-130471186D01*
X134148956Y-130430000D01*
X134096129Y-130413975D01*
X133900000Y-130394659D01*
X133703870Y-130413975D01*
X133515266Y-130471188D01*
X133341467Y-130564086D01*
X133341460Y-130564090D01*
X133271687Y-130621353D01*
X133207377Y-130648666D01*
X133193022Y-130649500D01*
X116226080Y-130649500D01*
X116081092Y-130678340D01*
X116081082Y-130678343D01*
X115944511Y-130734912D01*
X115944498Y-130734919D01*
X115821587Y-130817046D01*
X115569224Y-131069406D01*
X115507900Y-131102890D01*
X115493699Y-131105127D01*
X115403870Y-131113975D01*
X115215266Y-131171188D01*
X115041467Y-131264086D01*
X115041460Y-131264090D01*
X114889116Y-131389116D01*
X114870353Y-131411980D01*
X114812607Y-131451314D01*
X114742762Y-131453185D01*
X114682994Y-131416997D01*
X114652278Y-131354241D01*
X114650500Y-131333315D01*
X114650500Y-116311898D01*
X114670185Y-116244859D01*
X114722989Y-116199104D01*
X114792147Y-116189160D01*
X114847381Y-116211578D01*
X114947266Y-116284148D01*
X114947270Y-116284151D01*
X115120192Y-116361142D01*
X115120197Y-116361144D01*
X115305354Y-116400500D01*
X115305355Y-116400500D01*
X115494644Y-116400500D01*
X115494646Y-116400500D01*
X115679803Y-116361144D01*
X115852730Y-116284151D01*
X116005871Y-116172888D01*
X116132533Y-116032216D01*
X116227179Y-115868284D01*
X116285674Y-115688256D01*
X116305460Y-115500000D01*
X116285674Y-115311744D01*
X116227179Y-115131716D01*
X116132533Y-114967784D01*
X116082350Y-114912050D01*
X116052120Y-114849058D01*
X116050500Y-114829078D01*
X116050500Y-110020711D01*
X116070185Y-109953672D01*
X116122989Y-109907917D01*
X116192147Y-109897973D01*
X116200263Y-109899418D01*
X116205354Y-109900500D01*
X116205357Y-109900500D01*
X116394644Y-109900500D01*
X116394646Y-109900500D01*
X116579803Y-109861144D01*
X116752730Y-109784151D01*
X116905871Y-109672888D01*
X116908788Y-109669647D01*
X116911600Y-109666526D01*
X116971087Y-109629879D01*
X117003748Y-109625500D01*
X126061607Y-109625500D01*
X126122029Y-109613481D01*
X126182452Y-109601463D01*
X126232496Y-109580734D01*
X126296286Y-109554312D01*
X126347509Y-109520084D01*
X126398733Y-109485858D01*
X126485858Y-109398733D01*
X126485859Y-109398731D01*
X126492925Y-109391665D01*
X126492928Y-109391661D01*
X128748729Y-107135860D01*
X128748733Y-107135858D01*
X128835858Y-107048733D01*
X128904311Y-106946286D01*
X128904312Y-106946285D01*
X128904313Y-106946282D01*
X128904315Y-106946279D01*
X128914672Y-106921272D01*
X128951463Y-106832451D01*
X128975500Y-106711607D01*
X128975500Y-106588393D01*
X128975500Y-97260452D01*
X128995185Y-97193413D01*
X129011819Y-97172771D01*
X130322771Y-95861819D01*
X130384094Y-95828334D01*
X130410452Y-95825500D01*
X131096252Y-95825500D01*
X131163291Y-95845185D01*
G37*
%TD.AperFunction*%
%TA.AperFunction,Conductor*%
G36*
X127695234Y-147283922D02*
G01*
X127696202Y-147282474D01*
X127803712Y-147354310D01*
X127803711Y-147354310D01*
X127803713Y-147354311D01*
X127803715Y-147354312D01*
X127836238Y-147367783D01*
X127836239Y-147367784D01*
X127836240Y-147367784D01*
X127917548Y-147401463D01*
X127937597Y-147405451D01*
X127971196Y-147412134D01*
X128038392Y-147425501D01*
X128044454Y-147426098D01*
X128044292Y-147427741D01*
X128103700Y-147445186D01*
X128149455Y-147497990D01*
X128159399Y-147567148D01*
X128154592Y-147587819D01*
X128115628Y-147707738D01*
X128114326Y-147711744D01*
X128108890Y-147763464D01*
X128082306Y-147828076D01*
X128025009Y-147868061D01*
X127985570Y-147874500D01*
X127567826Y-147874500D01*
X127500787Y-147854815D01*
X127455032Y-147802011D01*
X127445088Y-147732853D01*
X127453264Y-147703049D01*
X127454320Y-147700500D01*
X127462051Y-147681835D01*
X127495068Y-147515849D01*
X127500500Y-147488543D01*
X127500500Y-147383269D01*
X127520185Y-147316230D01*
X127572989Y-147270475D01*
X127642147Y-147260531D01*
X127695234Y-147283922D01*
G37*
%TD.AperFunction*%
%TA.AperFunction,Conductor*%
G36*
X148695577Y-119670185D02*
G01*
X148741332Y-119722989D01*
X148751276Y-119792147D01*
X148746469Y-119812818D01*
X148718830Y-119897883D01*
X148714326Y-119911744D01*
X148694540Y-120100000D01*
X148714326Y-120288256D01*
X148714327Y-120288259D01*
X148772818Y-120468277D01*
X148772821Y-120468284D01*
X148867467Y-120632216D01*
X148994129Y-120772888D01*
X149117359Y-120862420D01*
X149147270Y-120884151D01*
X149275939Y-120941439D01*
X149329173Y-120986687D01*
X149349494Y-121053536D01*
X149349500Y-121054716D01*
X149349500Y-137429078D01*
X149329815Y-137496117D01*
X149317650Y-137512050D01*
X149267466Y-137567785D01*
X149172821Y-137731715D01*
X149172818Y-137731722D01*
X149114327Y-137911740D01*
X149114326Y-137911744D01*
X149094540Y-138100000D01*
X149114326Y-138288256D01*
X149114327Y-138288259D01*
X149172818Y-138468277D01*
X149172821Y-138468284D01*
X149267466Y-138632215D01*
X149317649Y-138687948D01*
X149347880Y-138750940D01*
X149349500Y-138770921D01*
X149349500Y-138979192D01*
X149329815Y-139046231D01*
X149313181Y-139066873D01*
X147666873Y-140713181D01*
X147605550Y-140746666D01*
X147579192Y-140749500D01*
X143820808Y-140749500D01*
X143753769Y-140729815D01*
X143733127Y-140713181D01*
X142786819Y-139766873D01*
X142753334Y-139705550D01*
X142750500Y-139679192D01*
X142750500Y-131870921D01*
X142770185Y-131803882D01*
X142782351Y-131787948D01*
X142785251Y-131784727D01*
X142832533Y-131732216D01*
X142927179Y-131568284D01*
X142985674Y-131388256D01*
X143005460Y-131200000D01*
X142985674Y-131011744D01*
X142927179Y-130831716D01*
X142832533Y-130667784D01*
X142705871Y-130527112D01*
X142642018Y-130480720D01*
X142599353Y-130425389D01*
X142593374Y-130355776D01*
X142625980Y-130293981D01*
X142627141Y-130292803D01*
X143433127Y-129486819D01*
X143494450Y-129453334D01*
X143520808Y-129450500D01*
X145425500Y-129450500D01*
X145492539Y-129470185D01*
X145538294Y-129522989D01*
X145549500Y-129574500D01*
X145549500Y-137223701D01*
X145529815Y-137290740D01*
X145498390Y-137324016D01*
X145494128Y-137327112D01*
X145367466Y-137467785D01*
X145272821Y-137631715D01*
X145272818Y-137631722D01*
X145214327Y-137811740D01*
X145214326Y-137811744D01*
X145194540Y-138000000D01*
X145214326Y-138188256D01*
X145214327Y-138188259D01*
X145272818Y-138368277D01*
X145272821Y-138368284D01*
X145367467Y-138532216D01*
X145466471Y-138642171D01*
X145494129Y-138672888D01*
X145647265Y-138784148D01*
X145647270Y-138784151D01*
X145820192Y-138861142D01*
X145820197Y-138861144D01*
X146005354Y-138900500D01*
X146005355Y-138900500D01*
X146194644Y-138900500D01*
X146194646Y-138900500D01*
X146379803Y-138861144D01*
X146552730Y-138784151D01*
X146705871Y-138672888D01*
X146832533Y-138532216D01*
X146927179Y-138368284D01*
X146985674Y-138188256D01*
X147005460Y-138000000D01*
X146985674Y-137811744D01*
X146927179Y-137631716D01*
X146867113Y-137527677D01*
X146850500Y-137465677D01*
X146850500Y-119774500D01*
X146870185Y-119707461D01*
X146922989Y-119661706D01*
X146974500Y-119650500D01*
X148628538Y-119650500D01*
X148695577Y-119670185D01*
G37*
%TD.AperFunction*%
%TA.AperFunction,Conductor*%
G36*
X131855809Y-132170185D02*
G01*
X131901564Y-132222989D01*
X131911508Y-132292147D01*
X131882483Y-132355703D01*
X131876451Y-132362181D01*
X123625451Y-140613181D01*
X123564128Y-140646666D01*
X123537770Y-140649500D01*
X116762230Y-140649500D01*
X116695191Y-140629815D01*
X116674549Y-140613181D01*
X113586819Y-137525451D01*
X113553334Y-137464128D01*
X113550500Y-137437770D01*
X113550500Y-137011229D01*
X113570185Y-136944190D01*
X113622989Y-136898435D01*
X113692147Y-136888491D01*
X113755703Y-136917516D01*
X113762181Y-136923548D01*
X116017049Y-139178416D01*
X116121584Y-139282951D01*
X116121587Y-139282953D01*
X116121588Y-139282954D01*
X116244503Y-139365083D01*
X116244506Y-139365085D01*
X116287639Y-139382951D01*
X116287640Y-139382951D01*
X116381088Y-139421659D01*
X116497241Y-139444763D01*
X116516468Y-139448587D01*
X116526081Y-139450500D01*
X116526082Y-139450500D01*
X116526083Y-139450500D01*
X116673918Y-139450500D01*
X118693022Y-139450500D01*
X118760061Y-139470185D01*
X118771687Y-139478647D01*
X118841460Y-139535909D01*
X118841467Y-139535913D01*
X119015266Y-139628811D01*
X119015269Y-139628811D01*
X119015273Y-139628814D01*
X119203868Y-139686024D01*
X119400000Y-139705341D01*
X119596132Y-139686024D01*
X119784727Y-139628814D01*
X119958538Y-139535910D01*
X120110883Y-139410883D01*
X120235910Y-139258538D01*
X120328814Y-139084727D01*
X120386024Y-138896132D01*
X120405341Y-138700000D01*
X120386024Y-138503868D01*
X120328814Y-138315273D01*
X120328811Y-138315269D01*
X120328811Y-138315266D01*
X120235913Y-138141467D01*
X120235909Y-138141460D01*
X120110883Y-137989116D01*
X119958539Y-137864090D01*
X119958532Y-137864086D01*
X119784733Y-137771188D01*
X119784727Y-137771186D01*
X119596132Y-137713976D01*
X119596129Y-137713975D01*
X119400000Y-137694659D01*
X119203870Y-137713975D01*
X119015266Y-137771188D01*
X118841467Y-137864086D01*
X118841460Y-137864090D01*
X118771687Y-137921353D01*
X118707377Y-137948666D01*
X118693022Y-137949500D01*
X116962229Y-137949500D01*
X116895190Y-137929815D01*
X116874548Y-137913181D01*
X114686819Y-135725451D01*
X114653334Y-135664128D01*
X114650500Y-135637770D01*
X114650500Y-132866684D01*
X114670185Y-132799645D01*
X114722989Y-132753890D01*
X114792147Y-132743946D01*
X114855703Y-132772971D01*
X114870354Y-132788020D01*
X114889117Y-132810884D01*
X115041460Y-132935909D01*
X115041467Y-132935913D01*
X115215266Y-133028811D01*
X115215269Y-133028811D01*
X115215273Y-133028814D01*
X115403868Y-133086024D01*
X115600000Y-133105341D01*
X115796132Y-133086024D01*
X115984727Y-133028814D01*
X116006265Y-133017302D01*
X116158532Y-132935913D01*
X116158538Y-132935910D01*
X116310883Y-132810883D01*
X116435910Y-132658538D01*
X116528814Y-132484727D01*
X116586024Y-132296132D01*
X116589352Y-132262345D01*
X116615513Y-132197558D01*
X116672548Y-132157199D01*
X116712755Y-132150500D01*
X131788770Y-132150500D01*
X131855809Y-132170185D01*
G37*
%TD.AperFunction*%
%TA.AperFunction,Conductor*%
G36*
X134290064Y-73870185D02*
G01*
X134295910Y-73874182D01*
X134447265Y-73984148D01*
X134447270Y-73984151D01*
X134620192Y-74061142D01*
X134620197Y-74061144D01*
X134805354Y-74100500D01*
X134829192Y-74100500D01*
X134896231Y-74120185D01*
X134916873Y-74136819D01*
X145513181Y-84733127D01*
X145546666Y-84794450D01*
X145549500Y-84820808D01*
X145549500Y-102225500D01*
X145529815Y-102292539D01*
X145477011Y-102338294D01*
X145425500Y-102349500D01*
X142991244Y-102349500D01*
X142924205Y-102329815D01*
X142903563Y-102313181D01*
X141644016Y-101053634D01*
X141610531Y-100992311D01*
X141608376Y-100978913D01*
X141594882Y-100850517D01*
X141594880Y-100850512D01*
X141536387Y-100670488D01*
X141441741Y-100506556D01*
X141315079Y-100365884D01*
X141315078Y-100365883D01*
X141161942Y-100254623D01*
X141161937Y-100254620D01*
X140989015Y-100177629D01*
X140989010Y-100177627D01*
X140843209Y-100146637D01*
X140803854Y-100138272D01*
X140614562Y-100138272D01*
X140582105Y-100145170D01*
X140429405Y-100177627D01*
X140429400Y-100177629D01*
X140256478Y-100254620D01*
X140256473Y-100254623D01*
X140103337Y-100365883D01*
X139976674Y-100506557D01*
X139882029Y-100670487D01*
X139882026Y-100670494D01*
X139823535Y-100850512D01*
X139823534Y-100850516D01*
X139803748Y-101038772D01*
X139823534Y-101227028D01*
X139823535Y-101227031D01*
X139882026Y-101407049D01*
X139882029Y-101407056D01*
X139976675Y-101570988D01*
X140103337Y-101711660D01*
X140256473Y-101822920D01*
X140256478Y-101822923D01*
X140429400Y-101899914D01*
X140429405Y-101899916D01*
X140614562Y-101939272D01*
X140638400Y-101939272D01*
X140705439Y-101958957D01*
X140726081Y-101975591D01*
X142255760Y-103505271D01*
X142255763Y-103505274D01*
X142349318Y-103567785D01*
X142349319Y-103567786D01*
X142362301Y-103576460D01*
X142362306Y-103576463D01*
X142362309Y-103576465D01*
X142480692Y-103625501D01*
X142480696Y-103625501D01*
X142480697Y-103625502D01*
X142606364Y-103650500D01*
X142606367Y-103650500D01*
X145425500Y-103650500D01*
X145492539Y-103670185D01*
X145538294Y-103722989D01*
X145549500Y-103774500D01*
X145549500Y-118329084D01*
X145529815Y-118396123D01*
X145517650Y-118412056D01*
X145467466Y-118467791D01*
X145372821Y-118631721D01*
X145372818Y-118631728D01*
X145314327Y-118811746D01*
X145314326Y-118811750D01*
X145294540Y-119000006D01*
X145314326Y-119188262D01*
X145314327Y-119188265D01*
X145372818Y-119368283D01*
X145372821Y-119368290D01*
X145467466Y-119532221D01*
X145517649Y-119587954D01*
X145547880Y-119650946D01*
X145549500Y-119670927D01*
X145549500Y-128025500D01*
X145529815Y-128092539D01*
X145477011Y-128138294D01*
X145425500Y-128149500D01*
X143135929Y-128149500D01*
X143010261Y-128174497D01*
X143010255Y-128174499D01*
X142891874Y-128223534D01*
X142785326Y-128294726D01*
X141010087Y-130069965D01*
X140948764Y-130103450D01*
X140879072Y-130098466D01*
X140830257Y-130065257D01*
X140705871Y-129927112D01*
X140705870Y-129927111D01*
X140552734Y-129815851D01*
X140552729Y-129815848D01*
X140379807Y-129738857D01*
X140379802Y-129738855D01*
X140234001Y-129707865D01*
X140194646Y-129699500D01*
X140005354Y-129699500D01*
X139972897Y-129706398D01*
X139820197Y-129738855D01*
X139820192Y-129738857D01*
X139647270Y-129815848D01*
X139647265Y-129815851D01*
X139494130Y-129927110D01*
X139494126Y-129927114D01*
X139488400Y-129933474D01*
X139428913Y-129970121D01*
X139396252Y-129974500D01*
X136610452Y-129974500D01*
X136543413Y-129954815D01*
X136522771Y-129938181D01*
X133518769Y-126934179D01*
X133485284Y-126872856D01*
X133490268Y-126803164D01*
X133514296Y-126763530D01*
X133632533Y-126632216D01*
X133727179Y-126468284D01*
X133785674Y-126288256D01*
X133805460Y-126100000D01*
X133785674Y-125911744D01*
X133727179Y-125731716D01*
X133632533Y-125567784D01*
X133505871Y-125427112D01*
X133505870Y-125427111D01*
X133352734Y-125315851D01*
X133352729Y-125315848D01*
X133179807Y-125238857D01*
X133179802Y-125238855D01*
X133048719Y-125210993D01*
X132987237Y-125177801D01*
X132953461Y-125116638D01*
X132950500Y-125089703D01*
X132950500Y-117911900D01*
X132970185Y-117844861D01*
X133022989Y-117799106D01*
X133092147Y-117789162D01*
X133147381Y-117811580D01*
X133237337Y-117876936D01*
X133247270Y-117884153D01*
X133420192Y-117961144D01*
X133420197Y-117961146D01*
X133605354Y-118000502D01*
X133605355Y-118000502D01*
X133794644Y-118000502D01*
X133794646Y-118000502D01*
X133979803Y-117961146D01*
X134152730Y-117884153D01*
X134305871Y-117772890D01*
X134432533Y-117632218D01*
X134527179Y-117468286D01*
X134585674Y-117288258D01*
X134605460Y-117100002D01*
X134585674Y-116911746D01*
X134527179Y-116731718D01*
X134432533Y-116567786D01*
X134357350Y-116484286D01*
X134327120Y-116421294D01*
X134325500Y-116401314D01*
X134325500Y-115510452D01*
X134345185Y-115443413D01*
X134361819Y-115422771D01*
X138022772Y-111761819D01*
X138084095Y-111728334D01*
X138110453Y-111725500D01*
X139496252Y-111725500D01*
X139563291Y-111745185D01*
X139588400Y-111766526D01*
X139594126Y-111772885D01*
X139594130Y-111772889D01*
X139747265Y-111884148D01*
X139747270Y-111884151D01*
X139920192Y-111961142D01*
X139920197Y-111961144D01*
X140105354Y-112000500D01*
X140105355Y-112000500D01*
X140294644Y-112000500D01*
X140294646Y-112000500D01*
X140479803Y-111961144D01*
X140652730Y-111884151D01*
X140805871Y-111772888D01*
X140932533Y-111632216D01*
X141027179Y-111468284D01*
X141085674Y-111288256D01*
X141105460Y-111100000D01*
X141085674Y-110911744D01*
X141027179Y-110731716D01*
X140932533Y-110567784D01*
X140805871Y-110427112D01*
X140805870Y-110427111D01*
X140652734Y-110315851D01*
X140652729Y-110315848D01*
X140479807Y-110238857D01*
X140479802Y-110238855D01*
X140334001Y-110207865D01*
X140294646Y-110199500D01*
X140105354Y-110199500D01*
X140072897Y-110206398D01*
X139920197Y-110238855D01*
X139920192Y-110238857D01*
X139747270Y-110315848D01*
X139747265Y-110315851D01*
X139594130Y-110427110D01*
X139594126Y-110427114D01*
X139588400Y-110433474D01*
X139528913Y-110470121D01*
X139496252Y-110474500D01*
X137867741Y-110474500D01*
X137867721Y-110474499D01*
X137861607Y-110474499D01*
X137738394Y-110474499D01*
X137637597Y-110494548D01*
X137637592Y-110494548D01*
X137617549Y-110498536D01*
X137617547Y-110498536D01*
X137570397Y-110518067D01*
X137503719Y-110545685D01*
X137503717Y-110545686D01*
X137401266Y-110614141D01*
X137401263Y-110614144D01*
X133679478Y-114335931D01*
X133301269Y-114714140D01*
X133301267Y-114714142D01*
X133257703Y-114757705D01*
X133214140Y-114801268D01*
X133196875Y-114827109D01*
X133196872Y-114827113D01*
X133177600Y-114855954D01*
X133123987Y-114900758D01*
X133054662Y-114909464D01*
X132991635Y-114879308D01*
X132954917Y-114819864D01*
X132950500Y-114787061D01*
X132950500Y-110285452D01*
X132970185Y-110218413D01*
X132986819Y-110197771D01*
X133147771Y-110036819D01*
X133209094Y-110003334D01*
X133235452Y-110000500D01*
X133294644Y-110000500D01*
X133294646Y-110000500D01*
X133479803Y-109961144D01*
X133652730Y-109884151D01*
X133805871Y-109772888D01*
X133892454Y-109676727D01*
X133951938Y-109640080D01*
X134021795Y-109641410D01*
X134079844Y-109680297D01*
X134107654Y-109744393D01*
X134107923Y-109772662D01*
X134106716Y-109784148D01*
X134094540Y-109900000D01*
X134114326Y-110088256D01*
X134114327Y-110088259D01*
X134172818Y-110268277D01*
X134172821Y-110268284D01*
X134267467Y-110432216D01*
X134323592Y-110494549D01*
X134394129Y-110572888D01*
X134547265Y-110684148D01*
X134547270Y-110684151D01*
X134720192Y-110761142D01*
X134720197Y-110761144D01*
X134905354Y-110800500D01*
X134905355Y-110800500D01*
X135094644Y-110800500D01*
X135094646Y-110800500D01*
X135279803Y-110761144D01*
X135452730Y-110684151D01*
X135605871Y-110572888D01*
X135732533Y-110432216D01*
X135827179Y-110268284D01*
X135885674Y-110088256D01*
X135905460Y-109900000D01*
X135885674Y-109711744D01*
X135827179Y-109531716D01*
X135732533Y-109367784D01*
X135724254Y-109358589D01*
X135657350Y-109284284D01*
X135627120Y-109221292D01*
X135625500Y-109201312D01*
X135625500Y-97398687D01*
X135645185Y-97331648D01*
X135657350Y-97315715D01*
X135678212Y-97292545D01*
X135732533Y-97232216D01*
X135827179Y-97068284D01*
X135885674Y-96888256D01*
X135905460Y-96700000D01*
X135885674Y-96511744D01*
X135827179Y-96331716D01*
X135732533Y-96167784D01*
X135605871Y-96027112D01*
X135605867Y-96027109D01*
X135452734Y-95915851D01*
X135452729Y-95915848D01*
X135279807Y-95838857D01*
X135279802Y-95838855D01*
X135134001Y-95807865D01*
X135094646Y-95799500D01*
X134905354Y-95799500D01*
X134872897Y-95806398D01*
X134720197Y-95838855D01*
X134720192Y-95838857D01*
X134547270Y-95915848D01*
X134547265Y-95915851D01*
X134394132Y-96027109D01*
X134394129Y-96027111D01*
X134394129Y-96027112D01*
X134351204Y-96074785D01*
X134269410Y-96165626D01*
X134209923Y-96202274D01*
X134140066Y-96200943D01*
X134082018Y-96162056D01*
X134054208Y-96097959D01*
X134059328Y-96044338D01*
X134085674Y-95963256D01*
X134105460Y-95775000D01*
X134085674Y-95586744D01*
X134027179Y-95406716D01*
X133932533Y-95242784D01*
X133805871Y-95102112D01*
X133805870Y-95102111D01*
X133652734Y-94990851D01*
X133652729Y-94990848D01*
X133479807Y-94913857D01*
X133479802Y-94913855D01*
X133334001Y-94882865D01*
X133294646Y-94874500D01*
X133105354Y-94874500D01*
X133072897Y-94881398D01*
X132920197Y-94913855D01*
X132920192Y-94913857D01*
X132813337Y-94961433D01*
X132744087Y-94970718D01*
X132680810Y-94941090D01*
X132644970Y-94886471D01*
X132627182Y-94831724D01*
X132627180Y-94831720D01*
X132627179Y-94831716D01*
X132532533Y-94667784D01*
X132405871Y-94527112D01*
X132405870Y-94527111D01*
X132252734Y-94415851D01*
X132252729Y-94415848D01*
X132079807Y-94338857D01*
X132079802Y-94338855D01*
X131934001Y-94307865D01*
X131894646Y-94299500D01*
X131705354Y-94299500D01*
X131672897Y-94306398D01*
X131520197Y-94338855D01*
X131520192Y-94338857D01*
X131347270Y-94415848D01*
X131347265Y-94415851D01*
X131194130Y-94527110D01*
X131194126Y-94527114D01*
X131188400Y-94533474D01*
X131128913Y-94570121D01*
X131096252Y-94574500D01*
X130038389Y-94574500D01*
X129917553Y-94598535D01*
X129917541Y-94598539D01*
X129885262Y-94611909D01*
X129870397Y-94618067D01*
X129848169Y-94627274D01*
X129803713Y-94645688D01*
X129793557Y-94652475D01*
X129793449Y-94652547D01*
X129701268Y-94714140D01*
X129657705Y-94757703D01*
X129614142Y-94801267D01*
X127864144Y-96551264D01*
X127864138Y-96551272D01*
X127795692Y-96653705D01*
X127795684Y-96653719D01*
X127771620Y-96711819D01*
X127762347Y-96734207D01*
X127756823Y-96747543D01*
X127748537Y-96767545D01*
X127748535Y-96767553D01*
X127724500Y-96888389D01*
X127724500Y-106339548D01*
X127704815Y-106406587D01*
X127688181Y-106427229D01*
X125777229Y-108338181D01*
X125715906Y-108371666D01*
X125689548Y-108374500D01*
X117003748Y-108374500D01*
X116936709Y-108354815D01*
X116911600Y-108333474D01*
X116905873Y-108327114D01*
X116905869Y-108327110D01*
X116752734Y-108215851D01*
X116752729Y-108215848D01*
X116579807Y-108138857D01*
X116579802Y-108138855D01*
X116434001Y-108107865D01*
X116394646Y-108099500D01*
X116205354Y-108099500D01*
X116205349Y-108099500D01*
X116200276Y-108100578D01*
X116130609Y-108095259D01*
X116074877Y-108053120D01*
X116050775Y-107987539D01*
X116050500Y-107979287D01*
X116050500Y-87120808D01*
X116070185Y-87053769D01*
X116086819Y-87033127D01*
X116919946Y-86200000D01*
X117994540Y-86200000D01*
X118014326Y-86388256D01*
X118014327Y-86388259D01*
X118072818Y-86568277D01*
X118072821Y-86568284D01*
X118167467Y-86732216D01*
X118294129Y-86872888D01*
X118447265Y-86984148D01*
X118447270Y-86984151D01*
X118620192Y-87061142D01*
X118620197Y-87061144D01*
X118805354Y-87100500D01*
X118805355Y-87100500D01*
X118994644Y-87100500D01*
X118994646Y-87100500D01*
X119179803Y-87061144D01*
X119352730Y-86984151D01*
X119505871Y-86872888D01*
X119632533Y-86732216D01*
X119727179Y-86568284D01*
X119785674Y-86388256D01*
X119799168Y-86259855D01*
X119825752Y-86195242D01*
X119834799Y-86185145D01*
X122033127Y-83986819D01*
X122094450Y-83953334D01*
X122120808Y-83950500D01*
X138423025Y-83950500D01*
X138490064Y-83970185D01*
X138495910Y-83974182D01*
X138647265Y-84084148D01*
X138647270Y-84084151D01*
X138820197Y-84161144D01*
X138937933Y-84186169D01*
X138999412Y-84219360D01*
X138999831Y-84219777D01*
X140138181Y-85358127D01*
X140171666Y-85419450D01*
X140174500Y-85445808D01*
X140174500Y-90825500D01*
X140154815Y-90892539D01*
X140102011Y-90938294D01*
X140050500Y-90949500D01*
X130535929Y-90949500D01*
X130410261Y-90974497D01*
X130410255Y-90974499D01*
X130291874Y-91023534D01*
X130185326Y-91094726D01*
X122494726Y-98785326D01*
X122423534Y-98891874D01*
X122374499Y-99010255D01*
X122374497Y-99010261D01*
X122349500Y-99135928D01*
X122349500Y-102629078D01*
X122329815Y-102696117D01*
X122317650Y-102712050D01*
X122267466Y-102767785D01*
X122172821Y-102931715D01*
X122172818Y-102931722D01*
X122114327Y-103111740D01*
X122114326Y-103111744D01*
X122094540Y-103300000D01*
X122114326Y-103488256D01*
X122114327Y-103488259D01*
X122172818Y-103668277D01*
X122172821Y-103668284D01*
X122267467Y-103832216D01*
X122339071Y-103911740D01*
X122394129Y-103972888D01*
X122547265Y-104084148D01*
X122547270Y-104084151D01*
X122720192Y-104161142D01*
X122720197Y-104161144D01*
X122905354Y-104200500D01*
X122905355Y-104200500D01*
X123094644Y-104200500D01*
X123094646Y-104200500D01*
X123279803Y-104161144D01*
X123452730Y-104084151D01*
X123605871Y-103972888D01*
X123732533Y-103832216D01*
X123827179Y-103668284D01*
X123885674Y-103488256D01*
X123905460Y-103300000D01*
X123885674Y-103111744D01*
X123827179Y-102931716D01*
X123732533Y-102767784D01*
X123682350Y-102712050D01*
X123652120Y-102649058D01*
X123650500Y-102629078D01*
X123650500Y-99520808D01*
X123670185Y-99453769D01*
X123686819Y-99433127D01*
X130833127Y-92286819D01*
X130894450Y-92253334D01*
X130920808Y-92250500D01*
X137125500Y-92250500D01*
X137192539Y-92270185D01*
X137238294Y-92322989D01*
X137249500Y-92374500D01*
X137249500Y-102879192D01*
X137229815Y-102946231D01*
X137213181Y-102966873D01*
X137016873Y-103163181D01*
X136955550Y-103196666D01*
X136929192Y-103199500D01*
X136905354Y-103199500D01*
X136872897Y-103206398D01*
X136720197Y-103238855D01*
X136720192Y-103238857D01*
X136547270Y-103315848D01*
X136547265Y-103315851D01*
X136394129Y-103427111D01*
X136267466Y-103567785D01*
X136172821Y-103731715D01*
X136172818Y-103731722D01*
X136140166Y-103832216D01*
X136114326Y-103911744D01*
X136094540Y-104100000D01*
X136114326Y-104288256D01*
X136114327Y-104288259D01*
X136172818Y-104468277D01*
X136172821Y-104468284D01*
X136267467Y-104632216D01*
X136394129Y-104772888D01*
X136547265Y-104884148D01*
X136547270Y-104884151D01*
X136720192Y-104961142D01*
X136720197Y-104961144D01*
X136905354Y-105000500D01*
X136905355Y-105000500D01*
X137094644Y-105000500D01*
X137094646Y-105000500D01*
X137279803Y-104961144D01*
X137452730Y-104884151D01*
X137605871Y-104772888D01*
X137732533Y-104632216D01*
X137827179Y-104468284D01*
X137885674Y-104288256D01*
X137899168Y-104159854D01*
X137925752Y-104095241D01*
X137934790Y-104085153D01*
X138405276Y-103614669D01*
X138476465Y-103508127D01*
X138525501Y-103389744D01*
X138530608Y-103364069D01*
X138550500Y-103264069D01*
X138550500Y-92620808D01*
X138570185Y-92553769D01*
X138586819Y-92533127D01*
X138833127Y-92286819D01*
X138894450Y-92253334D01*
X138920808Y-92250500D01*
X138935931Y-92250500D01*
X140148025Y-92250500D01*
X140215064Y-92270185D01*
X140220910Y-92274182D01*
X140372265Y-92384148D01*
X140372270Y-92384151D01*
X140545192Y-92461142D01*
X140545197Y-92461144D01*
X140730354Y-92500500D01*
X140730355Y-92500500D01*
X140919644Y-92500500D01*
X140919646Y-92500500D01*
X141104803Y-92461144D01*
X141277730Y-92384151D01*
X141430871Y-92272888D01*
X141557533Y-92132216D01*
X141652179Y-91968284D01*
X141710674Y-91788256D01*
X141730460Y-91600000D01*
X141710674Y-91411744D01*
X141652179Y-91231716D01*
X141557533Y-91067784D01*
X141507350Y-91012050D01*
X141477120Y-90949058D01*
X141475500Y-90929078D01*
X141475500Y-85060928D01*
X141450502Y-84935261D01*
X141450501Y-84935260D01*
X141450501Y-84935256D01*
X141401465Y-84816873D01*
X141395233Y-84807546D01*
X141330276Y-84710330D01*
X141330274Y-84710327D01*
X141330271Y-84710324D01*
X140039149Y-83419203D01*
X140005664Y-83357880D01*
X140003509Y-83318561D01*
X140005460Y-83300000D01*
X139985674Y-83111744D01*
X139927179Y-82931716D01*
X139832533Y-82767784D01*
X139705871Y-82627112D01*
X139704090Y-82625818D01*
X139552734Y-82515851D01*
X139552729Y-82515848D01*
X139379807Y-82438857D01*
X139379802Y-82438855D01*
X139234001Y-82407865D01*
X139194646Y-82399500D01*
X139005354Y-82399500D01*
X138972897Y-82406398D01*
X138820197Y-82438855D01*
X138820192Y-82438857D01*
X138647270Y-82515848D01*
X138647265Y-82515851D01*
X138495910Y-82625818D01*
X138430104Y-82649298D01*
X138423025Y-82649500D01*
X121735929Y-82649500D01*
X121610261Y-82674497D01*
X121610255Y-82674499D01*
X121491870Y-82723535D01*
X121385331Y-82794722D01*
X121385324Y-82794728D01*
X118916873Y-85263181D01*
X118855550Y-85296666D01*
X118829192Y-85299500D01*
X118805354Y-85299500D01*
X118772897Y-85306398D01*
X118620197Y-85338855D01*
X118620192Y-85338857D01*
X118447270Y-85415848D01*
X118447265Y-85415851D01*
X118294129Y-85527111D01*
X118167466Y-85667785D01*
X118072821Y-85831715D01*
X118072818Y-85831722D01*
X118014327Y-86011740D01*
X118014326Y-86011744D01*
X117994540Y-86200000D01*
X116919946Y-86200000D01*
X125817811Y-77302135D01*
X127374500Y-77302135D01*
X127374500Y-79097870D01*
X127374501Y-79097876D01*
X127380908Y-79157483D01*
X127431202Y-79292328D01*
X127431206Y-79292335D01*
X127517452Y-79407544D01*
X127517455Y-79407547D01*
X127632664Y-79493793D01*
X127632671Y-79493797D01*
X127767517Y-79544091D01*
X127767516Y-79544091D01*
X127774444Y-79544835D01*
X127827127Y-79550500D01*
X129622872Y-79550499D01*
X129682483Y-79544091D01*
X129817331Y-79493796D01*
X129932546Y-79407546D01*
X130018796Y-79292331D01*
X130067810Y-79160916D01*
X130109681Y-79104984D01*
X130175145Y-79080566D01*
X130243418Y-79095417D01*
X130271673Y-79116569D01*
X130393599Y-79238495D01*
X130490384Y-79306265D01*
X130587165Y-79374032D01*
X130587167Y-79374033D01*
X130587170Y-79374035D01*
X130801337Y-79473903D01*
X131029592Y-79535063D01*
X131206034Y-79550500D01*
X131264999Y-79555659D01*
X131265000Y-79555659D01*
X131265001Y-79555659D01*
X131323966Y-79550500D01*
X131500408Y-79535063D01*
X131728663Y-79473903D01*
X131942830Y-79374035D01*
X132136401Y-79238495D01*
X132303495Y-79071401D01*
X132439035Y-78877830D01*
X132538903Y-78663663D01*
X132600063Y-78435408D01*
X132620659Y-78200000D01*
X132600063Y-77964592D01*
X132538903Y-77736337D01*
X132439035Y-77522171D01*
X132410562Y-77481506D01*
X132303494Y-77328597D01*
X132136402Y-77161506D01*
X132136395Y-77161501D01*
X131942834Y-77025967D01*
X131942830Y-77025965D01*
X131926817Y-77018498D01*
X131728663Y-76926097D01*
X131728659Y-76926096D01*
X131728655Y-76926094D01*
X131500413Y-76864938D01*
X131500403Y-76864936D01*
X131265001Y-76844341D01*
X131264999Y-76844341D01*
X131029596Y-76864936D01*
X131029586Y-76864938D01*
X130801344Y-76926094D01*
X130801335Y-76926098D01*
X130587171Y-77025964D01*
X130587169Y-77025965D01*
X130393600Y-77161503D01*
X130271673Y-77283430D01*
X130210350Y-77316914D01*
X130140658Y-77311930D01*
X130084725Y-77270058D01*
X130067810Y-77239081D01*
X130018797Y-77107671D01*
X130018793Y-77107664D01*
X129932547Y-76992455D01*
X129932544Y-76992452D01*
X129817335Y-76906206D01*
X129817328Y-76906202D01*
X129682482Y-76855908D01*
X129682483Y-76855908D01*
X129622883Y-76849501D01*
X129622881Y-76849500D01*
X129622873Y-76849500D01*
X129622864Y-76849500D01*
X127827129Y-76849500D01*
X127827123Y-76849501D01*
X127767516Y-76855908D01*
X127632671Y-76906202D01*
X127632664Y-76906206D01*
X127517455Y-76992452D01*
X127517452Y-76992455D01*
X127431206Y-77107664D01*
X127431202Y-77107671D01*
X127380908Y-77242517D01*
X127374501Y-77302116D01*
X127374500Y-77302135D01*
X125817811Y-77302135D01*
X129233127Y-73886819D01*
X129294450Y-73853334D01*
X129320808Y-73850500D01*
X134223025Y-73850500D01*
X134290064Y-73870185D01*
G37*
%TD.AperFunction*%
%TA.AperFunction,Conductor*%
G36*
X134059932Y-96274055D02*
G01*
X134117981Y-96312942D01*
X134145791Y-96377039D01*
X134140670Y-96430664D01*
X134114327Y-96511740D01*
X134114326Y-96511744D01*
X134094540Y-96700000D01*
X134114326Y-96888256D01*
X134114327Y-96888259D01*
X134172818Y-97068277D01*
X134172821Y-97068284D01*
X134267467Y-97232216D01*
X134291770Y-97259207D01*
X134342650Y-97315715D01*
X134372880Y-97378706D01*
X134374500Y-97398687D01*
X134374500Y-109201312D01*
X134354815Y-109268351D01*
X134342650Y-109284284D01*
X134307547Y-109323270D01*
X134248061Y-109359919D01*
X134178204Y-109358589D01*
X134120155Y-109319702D01*
X134092345Y-109255605D01*
X134092076Y-109227342D01*
X134105460Y-109100000D01*
X134085674Y-108911744D01*
X134027179Y-108731716D01*
X133932533Y-108567784D01*
X133805871Y-108427112D01*
X133733457Y-108374500D01*
X133652734Y-108315851D01*
X133652729Y-108315848D01*
X133479807Y-108238857D01*
X133479802Y-108238855D01*
X133334001Y-108207865D01*
X133294646Y-108199500D01*
X133105354Y-108199500D01*
X133072897Y-108206398D01*
X132920197Y-108238855D01*
X132920192Y-108238857D01*
X132747270Y-108315848D01*
X132747265Y-108315851D01*
X132594129Y-108427111D01*
X132467466Y-108567785D01*
X132372821Y-108731715D01*
X132372819Y-108731719D01*
X132367431Y-108748304D01*
X132327993Y-108805979D01*
X132263634Y-108833177D01*
X132194788Y-108821262D01*
X132143312Y-108774017D01*
X132125500Y-108709985D01*
X132125500Y-97785452D01*
X132145185Y-97718413D01*
X132161819Y-97697771D01*
X133147771Y-96711819D01*
X133209094Y-96678334D01*
X133235452Y-96675500D01*
X133294644Y-96675500D01*
X133294646Y-96675500D01*
X133479803Y-96636144D01*
X133652730Y-96559151D01*
X133805871Y-96447888D01*
X133930591Y-96309372D01*
X133990075Y-96272725D01*
X134059932Y-96274055D01*
G37*
%TD.AperFunction*%
%TD*%
M02*
