%TF.GenerationSoftware,KiCad,Pcbnew,8.0.8*%
%TF.CreationDate,2025-01-17T17:44:17+00:00*%
%TF.ProjectId,Spectralist_Components,53706563-7472-4616-9c69-73745f436f6d,rev?*%
%TF.SameCoordinates,Original*%
%TF.FileFunction,Copper,L2,Inr*%
%TF.FilePolarity,Positive*%
%FSLAX46Y46*%
G04 Gerber Fmt 4.6, Leading zero omitted, Abs format (unit mm)*
G04 Created by KiCad (PCBNEW 8.0.8) date 2025-01-17 17:44:17*
%MOMM*%
%LPD*%
G01*
G04 APERTURE LIST*
%TA.AperFunction,ComponentPad*%
%ADD10R,1.700000X1.700000*%
%TD*%
%TA.AperFunction,ComponentPad*%
%ADD11O,1.700000X1.700000*%
%TD*%
%TA.AperFunction,ComponentPad*%
%ADD12C,2.000000*%
%TD*%
%TA.AperFunction,ComponentPad*%
%ADD13O,1.250000X0.950000*%
%TD*%
%TA.AperFunction,ComponentPad*%
%ADD14O,1.000000X1.550000*%
%TD*%
%TA.AperFunction,ComponentPad*%
%ADD15C,1.700000*%
%TD*%
%TA.AperFunction,ViaPad*%
%ADD16C,0.800000*%
%TD*%
%TA.AperFunction,ViaPad*%
%ADD17C,1.000000*%
%TD*%
G04 APERTURE END LIST*
D10*
%TO.N,/SPI3_NSS*%
%TO.C,J7*%
X128725000Y-78200000D03*
D11*
%TO.N,/UART_TX*%
X131265000Y-78200000D03*
%TO.N,/UART_RX*%
X133805000Y-78200000D03*
%TD*%
D10*
%TO.N,+3.3V*%
%TO.C,J2*%
X158000000Y-58000000D03*
D11*
%TO.N,/Filter_Mode*%
X158000000Y-60540000D03*
%TO.N,/Harmonic_Mode*%
X158000000Y-63080000D03*
%TO.N,GND*%
X158000000Y-65620000D03*
%TO.N,/Octave_Btn*%
X158000000Y-68160000D03*
%TO.N,/Filter_A_Pot*%
X158000000Y-70700000D03*
%TO.N,/Filter_A_Trm*%
X158000000Y-73240000D03*
%TO.N,+12V*%
X158000000Y-75780000D03*
%TD*%
D10*
%TO.N,+3.3VA*%
%TO.C,J4*%
X158000000Y-119000000D03*
D11*
%TO.N,GND*%
X158000000Y-121540000D03*
%TO.N,/Harm_Stretch_CV_In*%
X158000000Y-124080000D03*
%TO.N,/Pitch_CV_In*%
X158000000Y-126620000D03*
%TO.N,/Filter_Slope_CV_In*%
X158000000Y-129160000D03*
%TO.N,GND*%
X158000000Y-131700000D03*
%TO.N,/Filter_A_CV_In*%
X158000000Y-134240000D03*
%TO.N,/Harm_Warp_CV_In*%
X158000000Y-136780000D03*
%TO.N,/Pan_CV_In*%
X158000000Y-139320000D03*
%TO.N,/Filter_B_CV_In*%
X158000000Y-141860000D03*
%TD*%
D10*
%TO.N,GND*%
%TO.C,J1*%
X102000000Y-58000000D03*
D11*
%TO.N,/LED_SCL*%
X102000000Y-60540000D03*
%TO.N,/LED_SDA*%
X102000000Y-63080000D03*
%TO.N,GND*%
X102000000Y-65620000D03*
%TO.N,/LED_Filter_A_Out*%
X102000000Y-68160000D03*
%TO.N,/LED_Oct_Out*%
X102000000Y-70700000D03*
%TO.N,GND*%
X102000000Y-73240000D03*
%TO.N,/LED_Filter_B_Out*%
X102000000Y-75780000D03*
%TD*%
D10*
%TO.N,/Filter_B_Trm*%
%TO.C,J3*%
X102000000Y-119000000D03*
D11*
%TO.N,/Audio_Out_L*%
X102000000Y-121540000D03*
%TO.N,GND*%
X102000000Y-124080000D03*
%TO.N,/Audio_Out_R*%
X102000000Y-126620000D03*
%TO.N,/Filter_B_Pot*%
X102000000Y-129160000D03*
%TO.N,/Filter_Slope_Pot*%
X102000000Y-131700000D03*
%TO.N,GND*%
X102000000Y-134240000D03*
%TO.N,/Harm_Warp_Pot*%
X102000000Y-136780000D03*
%TO.N,/Harm_Stretch_Trm*%
X102000000Y-139320000D03*
%TO.N,/Harm_Stretch_Pot*%
X102000000Y-141860000D03*
%TD*%
D12*
%TO.N,GND*%
%TO.C,TP8*%
X157000000Y-146500000D03*
%TD*%
%TO.N,+3.3VA*%
%TO.C,TP6*%
X145000000Y-57000000D03*
%TD*%
%TO.N,+3.3V*%
%TO.C,TP5*%
X153000000Y-57000000D03*
%TD*%
%TO.N,+12V*%
%TO.C,TP2*%
X149000000Y-57000000D03*
%TD*%
%TO.N,-12V*%
%TO.C,TP3*%
X139100000Y-146700000D03*
%TD*%
%TO.N,/-5V_REF*%
%TO.C,TP7*%
X147800000Y-146600000D03*
%TD*%
D13*
%TO.N,*%
%TO.C,J8*%
X132500000Y-144415000D03*
X127500000Y-144415000D03*
D14*
X126500000Y-147115000D03*
%TO.N,unconnected-(J8-Shield-Pad6)*%
X133500000Y-147115000D03*
%TD*%
D10*
%TO.N,/-12V_IN*%
%TO.C,J5*%
X124900000Y-55125000D03*
D15*
X124900000Y-57665000D03*
%TO.N,GND*%
X127440000Y-55125000D03*
X127440000Y-57665000D03*
X129980000Y-55125000D03*
X129980000Y-57665000D03*
X132520000Y-55125000D03*
X132520000Y-57665000D03*
%TO.N,/+12V_IN*%
X135060000Y-55125000D03*
X135060000Y-57665000D03*
%TD*%
D12*
%TO.N,GND*%
%TO.C,TP4*%
X103400000Y-146800000D03*
%TD*%
D10*
%TO.N,+3.3V*%
%TO.C,J6*%
X109200000Y-83600000D03*
D15*
%TO.N,GND*%
X109200000Y-81060000D03*
%TO.N,/SWIO*%
X109200000Y-78520000D03*
%TO.N,/SWCLK*%
X109200000Y-75980000D03*
%TD*%
D16*
%TO.N,/SPI3_NSS*%
X122200000Y-81900000D03*
D17*
%TO.N,+12V*%
X119800000Y-74600000D03*
X119400000Y-138700000D03*
D16*
%TO.N,GND*%
X145400000Y-80700000D03*
X155000000Y-59900000D03*
X108984980Y-123257773D03*
X114200000Y-56600000D03*
X116436397Y-135863603D03*
X120200000Y-101200000D03*
X123300000Y-112700000D03*
X136400000Y-72000000D03*
X108787500Y-118400000D03*
X143400000Y-67380000D03*
X119900000Y-116000000D03*
X109200000Y-107200000D03*
X122900000Y-85700000D03*
X127800000Y-147600000D03*
X124800000Y-110400000D03*
X124400000Y-129700000D03*
X158200000Y-78300000D03*
X136700000Y-102244436D03*
X137125000Y-105910460D03*
X148000000Y-113100000D03*
X115100000Y-62700000D03*
X154800000Y-69500000D03*
X122700000Y-76200000D03*
X122587500Y-119200000D03*
X138700000Y-127600000D03*
X151800000Y-125500000D03*
X141750000Y-100900000D03*
X141800000Y-95800000D03*
X143900000Y-98100000D03*
X116400000Y-110400000D03*
X133900000Y-133000000D03*
X117800000Y-133400000D03*
X124500000Y-99600000D03*
X147700000Y-68550000D03*
X106000000Y-91000000D03*
X141300000Y-112300000D03*
X130900000Y-93500000D03*
X123400000Y-146100000D03*
X120300000Y-97300000D03*
X124100000Y-119100000D03*
X143000000Y-71580000D03*
X139100000Y-81600000D03*
X108600000Y-138000000D03*
X108557353Y-117030147D03*
X120400000Y-88200000D03*
X105200000Y-120100000D03*
X143900000Y-99900000D03*
X109900000Y-90700000D03*
X151600000Y-74300000D03*
X148700000Y-60200000D03*
X100900000Y-78200000D03*
X118584740Y-122038449D03*
X138000000Y-114700000D03*
X111400000Y-67700000D03*
X133400000Y-97700000D03*
X117400000Y-86500000D03*
X155400000Y-134100000D03*
X135100000Y-127100000D03*
X136000000Y-92600000D03*
X136800000Y-80000000D03*
X120500000Y-92600000D03*
X124000000Y-106600000D03*
X136000000Y-98200000D03*
X148000000Y-126900000D03*
X137750000Y-67867500D03*
X116600000Y-88200000D03*
X108787500Y-120200000D03*
X125600000Y-71900000D03*
X137800000Y-137900000D03*
X129200000Y-142200000D03*
X112800000Y-54500000D03*
X121525000Y-67400000D03*
X147588603Y-64038603D03*
X116700000Y-98200000D03*
X139000000Y-74300000D03*
X141800000Y-83900000D03*
X144550000Y-89775000D03*
X134300000Y-88200000D03*
X143000000Y-132900000D03*
X101100000Y-111200000D03*
X140300000Y-109300000D03*
X147700000Y-67450000D03*
X142859505Y-139273553D03*
X122225000Y-71900000D03*
X125800000Y-67700000D03*
X127200000Y-84500000D03*
X153200000Y-81100000D03*
X114300000Y-76000000D03*
X120100000Y-124900000D03*
X138200000Y-131800000D03*
X125600000Y-88000000D03*
X115930147Y-121057353D03*
X109100000Y-130380029D03*
X142900000Y-118700000D03*
X140900000Y-62680000D03*
X133700000Y-110600000D03*
X158500000Y-54100000D03*
X110800000Y-62600000D03*
X157500000Y-115500000D03*
X130300000Y-96900000D03*
X134000000Y-84400000D03*
X147800002Y-93699998D03*
X137600000Y-66400000D03*
X142800000Y-121500000D03*
X148136397Y-71586397D03*
X139100000Y-65780000D03*
X137300000Y-86100000D03*
X134700000Y-81600000D03*
X131800000Y-148500000D03*
X137900000Y-120000000D03*
X116725000Y-71000000D03*
X115500000Y-117400000D03*
X148900000Y-105400000D03*
X143900000Y-77700000D03*
X125433794Y-106533794D03*
D17*
%TO.N,-12V*%
X115600000Y-132100000D03*
X112800000Y-62400000D03*
X133900000Y-131400000D03*
D16*
%TO.N,+3.3VA*%
X115400000Y-115500000D03*
X133900000Y-134700000D03*
X146200000Y-119000006D03*
X140709208Y-101038772D03*
X146100000Y-138000000D03*
X134900000Y-73200000D03*
%TO.N,/VSW*%
X146200000Y-77050000D03*
X149332353Y-67432353D03*
X146000000Y-70250000D03*
X146200000Y-76100000D03*
%TO.N,+3.3V*%
X123000000Y-103300000D03*
X139100000Y-83300000D03*
X140825000Y-91600000D03*
X137000000Y-104100000D03*
X118900000Y-86200000D03*
%TO.N,/Filter_B_Trm*%
X131800000Y-95200000D03*
X116300000Y-109000000D03*
%TO.N,/Harm_Stretch_CV_In*%
X140200000Y-111100000D03*
X133700000Y-117100002D03*
%TO.N,/Harm_Warp_CV*%
X133200000Y-109100000D03*
X132900000Y-126100000D03*
%TO.N,/Pan_CV*%
X133200000Y-95775000D03*
X140100000Y-130600000D03*
%TO.N,/-5V_REF*%
X142100000Y-131200000D03*
X150000000Y-138100000D03*
X149600000Y-120100000D03*
%TO.N,/Filter_A_CV*%
X135000000Y-109900000D03*
X135000000Y-96700000D03*
%TO.N,/USB_VBUS*%
X131400000Y-146800000D03*
X110800000Y-91800000D03*
%TO.N,/USB_D+*%
X129000000Y-147900000D03*
X108700000Y-92400000D03*
%TO.N,/USB_D-*%
X107500000Y-91900000D03*
X130200000Y-148300000D03*
%TD*%
%TA.AperFunction,Conductor*%
%TO.N,GND*%
G36*
X126974075Y-55317993D02*
G01*
X127039901Y-55432007D01*
X127132993Y-55525099D01*
X127247007Y-55590925D01*
X127310591Y-55607962D01*
X126678626Y-56239926D01*
X126755031Y-56293426D01*
X126798656Y-56348003D01*
X126805848Y-56417501D01*
X126774326Y-56479856D01*
X126755030Y-56496575D01*
X126678627Y-56550072D01*
X126678626Y-56550073D01*
X127310591Y-57182037D01*
X127247007Y-57199075D01*
X127132993Y-57264901D01*
X127039901Y-57357993D01*
X126974075Y-57472007D01*
X126957037Y-57535590D01*
X126325073Y-56903626D01*
X126325072Y-56903627D01*
X126271880Y-56979595D01*
X126217303Y-57023220D01*
X126147805Y-57030414D01*
X126085450Y-56998891D01*
X126068730Y-56979595D01*
X125938496Y-56793600D01*
X125897071Y-56752175D01*
X125816567Y-56671671D01*
X125783084Y-56610351D01*
X125788068Y-56540659D01*
X125829939Y-56484725D01*
X125860915Y-56467810D01*
X125992331Y-56418796D01*
X126107546Y-56332546D01*
X126193796Y-56217331D01*
X126244091Y-56082483D01*
X126250500Y-56022873D01*
X126250499Y-56012313D01*
X126270179Y-55945276D01*
X126286818Y-55924627D01*
X126957037Y-55254408D01*
X126974075Y-55317993D01*
G37*
%TD.AperFunction*%
%TA.AperFunction,Conductor*%
G36*
X129514075Y-55317993D02*
G01*
X129579901Y-55432007D01*
X129672993Y-55525099D01*
X129787007Y-55590925D01*
X129850591Y-55607962D01*
X129218626Y-56239926D01*
X129295031Y-56293426D01*
X129338656Y-56348003D01*
X129345848Y-56417501D01*
X129314326Y-56479856D01*
X129295030Y-56496575D01*
X129218627Y-56550072D01*
X129218626Y-56550073D01*
X129850591Y-57182037D01*
X129787007Y-57199075D01*
X129672993Y-57264901D01*
X129579901Y-57357993D01*
X129514075Y-57472007D01*
X129497037Y-57535590D01*
X128865073Y-56903626D01*
X128865073Y-56903627D01*
X128811575Y-56980031D01*
X128756999Y-57023656D01*
X128687500Y-57030850D01*
X128625145Y-56999327D01*
X128608425Y-56980032D01*
X128554925Y-56903626D01*
X127922962Y-57535590D01*
X127905925Y-57472007D01*
X127840099Y-57357993D01*
X127747007Y-57264901D01*
X127632993Y-57199075D01*
X127569409Y-57182037D01*
X128201372Y-56550073D01*
X128124969Y-56496575D01*
X128081344Y-56441998D01*
X128074152Y-56372499D01*
X128105674Y-56310144D01*
X128124968Y-56293426D01*
X128201371Y-56239925D01*
X127569408Y-55607962D01*
X127632993Y-55590925D01*
X127747007Y-55525099D01*
X127840099Y-55432007D01*
X127905925Y-55317993D01*
X127922962Y-55254408D01*
X128554925Y-55886371D01*
X128608426Y-55809968D01*
X128663004Y-55766344D01*
X128732502Y-55759152D01*
X128794856Y-55790675D01*
X128811575Y-55809969D01*
X128865073Y-55886372D01*
X129497037Y-55254408D01*
X129514075Y-55317993D01*
G37*
%TD.AperFunction*%
%TA.AperFunction,Conductor*%
G36*
X132054075Y-55317993D02*
G01*
X132119901Y-55432007D01*
X132212993Y-55525099D01*
X132327007Y-55590925D01*
X132390591Y-55607962D01*
X131758626Y-56239926D01*
X131835031Y-56293426D01*
X131878656Y-56348003D01*
X131885848Y-56417501D01*
X131854326Y-56479856D01*
X131835030Y-56496575D01*
X131758627Y-56550072D01*
X131758626Y-56550073D01*
X132390591Y-57182037D01*
X132327007Y-57199075D01*
X132212993Y-57264901D01*
X132119901Y-57357993D01*
X132054075Y-57472007D01*
X132037037Y-57535590D01*
X131405073Y-56903626D01*
X131405073Y-56903627D01*
X131351575Y-56980031D01*
X131296999Y-57023656D01*
X131227500Y-57030850D01*
X131165145Y-56999327D01*
X131148425Y-56980032D01*
X131094925Y-56903626D01*
X130462962Y-57535590D01*
X130445925Y-57472007D01*
X130380099Y-57357993D01*
X130287007Y-57264901D01*
X130172993Y-57199075D01*
X130109409Y-57182037D01*
X130741372Y-56550073D01*
X130664969Y-56496575D01*
X130621344Y-56441998D01*
X130614152Y-56372499D01*
X130645674Y-56310144D01*
X130664968Y-56293426D01*
X130741371Y-56239925D01*
X130109408Y-55607962D01*
X130172993Y-55590925D01*
X130287007Y-55525099D01*
X130380099Y-55432007D01*
X130445925Y-55317993D01*
X130462962Y-55254408D01*
X131094925Y-55886371D01*
X131148426Y-55809968D01*
X131203004Y-55766344D01*
X131272502Y-55759152D01*
X131334856Y-55790675D01*
X131351575Y-55809969D01*
X131405073Y-55886372D01*
X132037037Y-55254408D01*
X132054075Y-55317993D01*
G37*
%TD.AperFunction*%
%TA.AperFunction,Conductor*%
G36*
X133634925Y-55886371D02*
G01*
X133688120Y-55810404D01*
X133742697Y-55766780D01*
X133812196Y-55759588D01*
X133874550Y-55791111D01*
X133891268Y-55810404D01*
X134021505Y-55996401D01*
X134021506Y-55996402D01*
X134188597Y-56163493D01*
X134188603Y-56163498D01*
X134374158Y-56293425D01*
X134417783Y-56348002D01*
X134424977Y-56417500D01*
X134393454Y-56479855D01*
X134374158Y-56496575D01*
X134188597Y-56626505D01*
X134021508Y-56793594D01*
X133891269Y-56979595D01*
X133836692Y-57023219D01*
X133767193Y-57030412D01*
X133704839Y-56998890D01*
X133688119Y-56979595D01*
X133634925Y-56903626D01*
X133002962Y-57535590D01*
X132985925Y-57472007D01*
X132920099Y-57357993D01*
X132827007Y-57264901D01*
X132712993Y-57199075D01*
X132649409Y-57182037D01*
X133281372Y-56550073D01*
X133204969Y-56496575D01*
X133161344Y-56441998D01*
X133154152Y-56372499D01*
X133185674Y-56310144D01*
X133204968Y-56293426D01*
X133281371Y-56239925D01*
X132649408Y-55607962D01*
X132712993Y-55590925D01*
X132827007Y-55525099D01*
X132920099Y-55432007D01*
X132985925Y-55317993D01*
X133002962Y-55254408D01*
X133634925Y-55886371D01*
G37*
%TD.AperFunction*%
%TA.AperFunction,Conductor*%
G36*
X159442539Y-50520185D02*
G01*
X159488294Y-50572989D01*
X159499500Y-50624500D01*
X159499500Y-56809897D01*
X159479815Y-56876936D01*
X159427011Y-56922691D01*
X159357853Y-56932635D01*
X159294297Y-56903610D01*
X159276234Y-56884208D01*
X159207547Y-56792455D01*
X159207544Y-56792452D01*
X159092335Y-56706206D01*
X159092328Y-56706202D01*
X158957482Y-56655908D01*
X158957483Y-56655908D01*
X158897883Y-56649501D01*
X158897881Y-56649500D01*
X158897873Y-56649500D01*
X158897864Y-56649500D01*
X157102129Y-56649500D01*
X157102123Y-56649501D01*
X157042516Y-56655908D01*
X156907671Y-56706202D01*
X156907664Y-56706206D01*
X156792455Y-56792452D01*
X156792452Y-56792455D01*
X156706206Y-56907664D01*
X156706202Y-56907671D01*
X156655908Y-57042517D01*
X156649501Y-57102116D01*
X156649500Y-57102135D01*
X156649500Y-58897870D01*
X156649501Y-58897876D01*
X156655908Y-58957483D01*
X156706202Y-59092328D01*
X156706206Y-59092335D01*
X156792452Y-59207544D01*
X156792455Y-59207547D01*
X156907664Y-59293793D01*
X156907671Y-59293797D01*
X157039081Y-59342810D01*
X157095015Y-59384681D01*
X157119432Y-59450145D01*
X157104580Y-59518418D01*
X157083430Y-59546673D01*
X156961503Y-59668600D01*
X156825965Y-59862169D01*
X156825964Y-59862171D01*
X156726098Y-60076335D01*
X156726094Y-60076344D01*
X156664938Y-60304586D01*
X156664936Y-60304596D01*
X156644341Y-60539999D01*
X156644341Y-60540000D01*
X156664936Y-60775403D01*
X156664938Y-60775413D01*
X156726094Y-61003655D01*
X156726096Y-61003659D01*
X156726097Y-61003663D01*
X156761319Y-61079196D01*
X156825965Y-61217830D01*
X156825967Y-61217834D01*
X156961501Y-61411395D01*
X156961506Y-61411402D01*
X157128597Y-61578493D01*
X157128603Y-61578498D01*
X157314158Y-61708425D01*
X157357783Y-61763002D01*
X157364977Y-61832500D01*
X157333454Y-61894855D01*
X157314158Y-61911575D01*
X157128597Y-62041505D01*
X156961505Y-62208597D01*
X156825965Y-62402169D01*
X156825964Y-62402171D01*
X156726098Y-62616335D01*
X156726094Y-62616344D01*
X156664938Y-62844586D01*
X156664936Y-62844596D01*
X156644341Y-63079999D01*
X156644341Y-63080000D01*
X156664936Y-63315403D01*
X156664938Y-63315413D01*
X156726094Y-63543655D01*
X156726096Y-63543659D01*
X156726097Y-63543663D01*
X156761319Y-63619196D01*
X156825965Y-63757830D01*
X156825967Y-63757834D01*
X156961501Y-63951395D01*
X156961506Y-63951402D01*
X157128597Y-64118493D01*
X157128603Y-64118498D01*
X157314594Y-64248730D01*
X157358219Y-64303307D01*
X157365413Y-64372805D01*
X157333890Y-64435160D01*
X157314595Y-64451880D01*
X157128922Y-64581890D01*
X157128920Y-64581891D01*
X156961891Y-64748920D01*
X156961886Y-64748926D01*
X156826400Y-64942420D01*
X156826399Y-64942422D01*
X156726570Y-65156507D01*
X156726567Y-65156513D01*
X156669364Y-65369999D01*
X156669364Y-65370000D01*
X157566988Y-65370000D01*
X157534075Y-65427007D01*
X157500000Y-65554174D01*
X157500000Y-65685826D01*
X157534075Y-65812993D01*
X157566988Y-65870000D01*
X156669364Y-65870000D01*
X156726567Y-66083486D01*
X156726570Y-66083492D01*
X156826399Y-66297578D01*
X156961894Y-66491082D01*
X157128917Y-66658105D01*
X157314595Y-66788119D01*
X157358219Y-66842696D01*
X157365412Y-66912195D01*
X157333890Y-66974549D01*
X157314595Y-66991269D01*
X157128594Y-67121508D01*
X156961505Y-67288597D01*
X156825965Y-67482169D01*
X156825964Y-67482171D01*
X156726098Y-67696335D01*
X156726094Y-67696344D01*
X156664938Y-67924586D01*
X156664936Y-67924596D01*
X156644341Y-68159999D01*
X156644341Y-68160000D01*
X156664936Y-68395403D01*
X156664938Y-68395413D01*
X156726094Y-68623655D01*
X156726096Y-68623659D01*
X156726097Y-68623663D01*
X156761319Y-68699196D01*
X156825965Y-68837830D01*
X156825967Y-68837834D01*
X156961501Y-69031395D01*
X156961506Y-69031402D01*
X157128597Y-69198493D01*
X157128603Y-69198498D01*
X157314158Y-69328425D01*
X157357783Y-69383002D01*
X157364977Y-69452500D01*
X157333454Y-69514855D01*
X157314158Y-69531575D01*
X157128597Y-69661505D01*
X156961505Y-69828597D01*
X156825965Y-70022169D01*
X156825964Y-70022171D01*
X156726098Y-70236335D01*
X156726094Y-70236344D01*
X156664938Y-70464586D01*
X156664936Y-70464596D01*
X156644341Y-70699999D01*
X156644341Y-70700000D01*
X156664936Y-70935403D01*
X156664938Y-70935413D01*
X156726094Y-71163655D01*
X156726096Y-71163659D01*
X156726097Y-71163663D01*
X156761319Y-71239196D01*
X156825965Y-71377830D01*
X156825967Y-71377834D01*
X156961501Y-71571395D01*
X156961506Y-71571402D01*
X157128597Y-71738493D01*
X157128603Y-71738498D01*
X157314158Y-71868425D01*
X157357783Y-71923002D01*
X157364977Y-71992500D01*
X157333454Y-72054855D01*
X157314158Y-72071575D01*
X157128597Y-72201505D01*
X156961505Y-72368597D01*
X156825965Y-72562169D01*
X156825964Y-72562171D01*
X156726098Y-72776335D01*
X156726094Y-72776344D01*
X156664938Y-73004586D01*
X156664936Y-73004596D01*
X156644341Y-73239999D01*
X156644341Y-73240000D01*
X156664936Y-73475403D01*
X156664938Y-73475413D01*
X156726094Y-73703655D01*
X156726096Y-73703659D01*
X156726097Y-73703663D01*
X156754273Y-73764086D01*
X156825965Y-73917830D01*
X156825967Y-73917834D01*
X156961501Y-74111395D01*
X156961506Y-74111402D01*
X157128597Y-74278493D01*
X157128603Y-74278498D01*
X157314158Y-74408425D01*
X157357783Y-74463002D01*
X157364977Y-74532500D01*
X157333454Y-74594855D01*
X157314158Y-74611575D01*
X157128597Y-74741505D01*
X156961505Y-74908597D01*
X156825965Y-75102169D01*
X156825964Y-75102171D01*
X156726098Y-75316335D01*
X156726094Y-75316344D01*
X156664938Y-75544586D01*
X156664936Y-75544596D01*
X156644341Y-75779999D01*
X156644341Y-75780000D01*
X156664936Y-76015403D01*
X156664938Y-76015413D01*
X156726094Y-76243655D01*
X156726096Y-76243659D01*
X156726097Y-76243663D01*
X156746893Y-76288259D01*
X156825965Y-76457830D01*
X156825967Y-76457834D01*
X156934281Y-76612521D01*
X156961505Y-76651401D01*
X157128599Y-76818495D01*
X157225384Y-76886265D01*
X157322165Y-76954032D01*
X157322167Y-76954033D01*
X157322170Y-76954035D01*
X157536337Y-77053903D01*
X157764592Y-77115063D01*
X157952918Y-77131539D01*
X157999999Y-77135659D01*
X158000000Y-77135659D01*
X158000001Y-77135659D01*
X158039234Y-77132226D01*
X158235408Y-77115063D01*
X158463663Y-77053903D01*
X158677830Y-76954035D01*
X158871401Y-76818495D01*
X159038495Y-76651401D01*
X159174035Y-76457830D01*
X159263118Y-76266790D01*
X159309290Y-76214352D01*
X159376484Y-76195200D01*
X159443365Y-76215416D01*
X159488700Y-76268581D01*
X159499500Y-76319196D01*
X159499500Y-117809897D01*
X159479815Y-117876936D01*
X159427011Y-117922691D01*
X159357853Y-117932635D01*
X159294297Y-117903610D01*
X159276234Y-117884208D01*
X159207547Y-117792455D01*
X159207544Y-117792452D01*
X159092335Y-117706206D01*
X159092328Y-117706202D01*
X158957482Y-117655908D01*
X158957483Y-117655908D01*
X158897883Y-117649501D01*
X158897881Y-117649500D01*
X158897873Y-117649500D01*
X158897864Y-117649500D01*
X157102129Y-117649500D01*
X157102123Y-117649501D01*
X157042516Y-117655908D01*
X156907671Y-117706202D01*
X156907664Y-117706206D01*
X156792455Y-117792452D01*
X156792452Y-117792455D01*
X156706206Y-117907664D01*
X156706202Y-117907671D01*
X156655908Y-118042517D01*
X156649782Y-118099506D01*
X156649501Y-118102123D01*
X156649500Y-118102135D01*
X156649500Y-119897870D01*
X156649501Y-119897876D01*
X156655908Y-119957483D01*
X156706202Y-120092328D01*
X156706206Y-120092335D01*
X156792452Y-120207544D01*
X156792455Y-120207547D01*
X156907664Y-120293793D01*
X156907671Y-120293797D01*
X156907674Y-120293798D01*
X157039598Y-120343002D01*
X157095531Y-120384873D01*
X157119949Y-120450337D01*
X157105098Y-120518610D01*
X157083947Y-120546865D01*
X156961886Y-120668926D01*
X156826400Y-120862420D01*
X156826399Y-120862422D01*
X156726570Y-121076507D01*
X156726567Y-121076513D01*
X156669364Y-121289999D01*
X156669364Y-121290000D01*
X157566988Y-121290000D01*
X157534075Y-121347007D01*
X157500000Y-121474174D01*
X157500000Y-121605826D01*
X157534075Y-121732993D01*
X157566988Y-121790000D01*
X156669364Y-121790000D01*
X156726567Y-122003486D01*
X156726570Y-122003492D01*
X156826399Y-122217578D01*
X156961894Y-122411082D01*
X157128917Y-122578105D01*
X157314595Y-122708119D01*
X157358219Y-122762696D01*
X157365412Y-122832195D01*
X157333890Y-122894549D01*
X157314595Y-122911269D01*
X157128594Y-123041508D01*
X156961505Y-123208597D01*
X156825965Y-123402169D01*
X156825964Y-123402171D01*
X156726098Y-123616335D01*
X156726094Y-123616344D01*
X156664938Y-123844586D01*
X156664936Y-123844596D01*
X156644341Y-124079999D01*
X156644341Y-124080000D01*
X156664936Y-124315403D01*
X156664938Y-124315413D01*
X156726094Y-124543655D01*
X156726096Y-124543659D01*
X156726097Y-124543663D01*
X156760766Y-124618011D01*
X156825965Y-124757830D01*
X156825967Y-124757834D01*
X156961501Y-124951395D01*
X156961506Y-124951402D01*
X157128597Y-125118493D01*
X157128603Y-125118498D01*
X157314158Y-125248425D01*
X157357783Y-125303002D01*
X157364977Y-125372500D01*
X157333454Y-125434855D01*
X157314158Y-125451575D01*
X157128597Y-125581505D01*
X156961505Y-125748597D01*
X156825965Y-125942169D01*
X156825964Y-125942171D01*
X156726098Y-126156335D01*
X156726094Y-126156344D01*
X156664938Y-126384586D01*
X156664936Y-126384596D01*
X156644341Y-126619999D01*
X156644341Y-126620000D01*
X156664936Y-126855403D01*
X156664938Y-126855413D01*
X156726094Y-127083655D01*
X156726096Y-127083659D01*
X156726097Y-127083663D01*
X156761319Y-127159196D01*
X156825965Y-127297830D01*
X156825967Y-127297834D01*
X156961501Y-127491395D01*
X156961506Y-127491402D01*
X157128597Y-127658493D01*
X157128603Y-127658498D01*
X157314158Y-127788425D01*
X157357783Y-127843002D01*
X157364977Y-127912500D01*
X157333454Y-127974855D01*
X157314158Y-127991575D01*
X157128597Y-128121505D01*
X156961505Y-128288597D01*
X156825965Y-128482169D01*
X156825964Y-128482171D01*
X156726098Y-128696335D01*
X156726094Y-128696344D01*
X156664938Y-128924586D01*
X156664936Y-128924596D01*
X156644341Y-129159999D01*
X156644341Y-129160000D01*
X156664936Y-129395403D01*
X156664938Y-129395413D01*
X156726094Y-129623655D01*
X156726096Y-129623659D01*
X156726097Y-129623663D01*
X156779812Y-129738855D01*
X156825965Y-129837830D01*
X156825967Y-129837834D01*
X156961501Y-130031395D01*
X156961506Y-130031402D01*
X157128597Y-130198493D01*
X157128603Y-130198498D01*
X157314594Y-130328730D01*
X157358219Y-130383307D01*
X157365413Y-130452805D01*
X157333890Y-130515160D01*
X157314595Y-130531880D01*
X157128922Y-130661890D01*
X157128920Y-130661891D01*
X156961891Y-130828920D01*
X156961886Y-130828926D01*
X156826400Y-131022420D01*
X156826399Y-131022422D01*
X156726570Y-131236507D01*
X156726567Y-131236513D01*
X156669364Y-131449999D01*
X156669364Y-131450000D01*
X157566988Y-131450000D01*
X157534075Y-131507007D01*
X157500000Y-131634174D01*
X157500000Y-131765826D01*
X157534075Y-131892993D01*
X157566988Y-131950000D01*
X156669364Y-131950000D01*
X156726567Y-132163486D01*
X156726570Y-132163492D01*
X156826399Y-132377578D01*
X156961894Y-132571082D01*
X157128917Y-132738105D01*
X157314595Y-132868119D01*
X157358219Y-132922696D01*
X157365412Y-132992195D01*
X157333890Y-133054549D01*
X157314595Y-133071269D01*
X157128594Y-133201508D01*
X156961505Y-133368597D01*
X156825965Y-133562169D01*
X156825964Y-133562171D01*
X156726098Y-133776335D01*
X156726094Y-133776344D01*
X156664938Y-134004586D01*
X156664936Y-134004596D01*
X156644341Y-134239999D01*
X156644341Y-134240000D01*
X156664936Y-134475403D01*
X156664938Y-134475413D01*
X156726094Y-134703655D01*
X156726096Y-134703659D01*
X156726097Y-134703663D01*
X156760766Y-134778011D01*
X156825965Y-134917830D01*
X156825967Y-134917834D01*
X156961501Y-135111395D01*
X156961506Y-135111402D01*
X157128597Y-135278493D01*
X157128603Y-135278498D01*
X157314158Y-135408425D01*
X157357783Y-135463002D01*
X157364977Y-135532500D01*
X157333454Y-135594855D01*
X157314158Y-135611575D01*
X157128597Y-135741505D01*
X156961505Y-135908597D01*
X156825965Y-136102169D01*
X156825964Y-136102171D01*
X156726098Y-136316335D01*
X156726094Y-136316344D01*
X156664938Y-136544586D01*
X156664936Y-136544596D01*
X156644341Y-136779999D01*
X156644341Y-136780000D01*
X156664936Y-137015403D01*
X156664938Y-137015413D01*
X156726094Y-137243655D01*
X156726096Y-137243659D01*
X156726097Y-137243663D01*
X156811641Y-137427112D01*
X156825965Y-137457830D01*
X156825967Y-137457834D01*
X156902956Y-137567785D01*
X156947721Y-137631716D01*
X156961501Y-137651395D01*
X156961506Y-137651402D01*
X157128597Y-137818493D01*
X157128603Y-137818498D01*
X157314158Y-137948425D01*
X157357783Y-138003002D01*
X157364977Y-138072500D01*
X157333454Y-138134855D01*
X157314158Y-138151575D01*
X157128597Y-138281505D01*
X156961505Y-138448597D01*
X156825965Y-138642169D01*
X156825964Y-138642171D01*
X156726098Y-138856335D01*
X156726094Y-138856344D01*
X156664938Y-139084586D01*
X156664936Y-139084596D01*
X156644341Y-139319999D01*
X156644341Y-139320000D01*
X156664936Y-139555403D01*
X156664938Y-139555413D01*
X156726094Y-139783655D01*
X156726096Y-139783659D01*
X156726097Y-139783663D01*
X156761319Y-139859196D01*
X156825965Y-139997830D01*
X156825967Y-139997834D01*
X156961501Y-140191395D01*
X156961506Y-140191402D01*
X157128597Y-140358493D01*
X157128603Y-140358498D01*
X157314158Y-140488425D01*
X157357783Y-140543002D01*
X157364977Y-140612500D01*
X157333454Y-140674855D01*
X157314158Y-140691575D01*
X157128597Y-140821505D01*
X156961505Y-140988597D01*
X156825965Y-141182169D01*
X156825964Y-141182171D01*
X156726098Y-141396335D01*
X156726094Y-141396344D01*
X156664938Y-141624586D01*
X156664936Y-141624596D01*
X156644341Y-141859999D01*
X156644341Y-141860000D01*
X156664936Y-142095403D01*
X156664938Y-142095413D01*
X156726094Y-142323655D01*
X156726096Y-142323659D01*
X156726097Y-142323663D01*
X156761319Y-142399196D01*
X156825965Y-142537830D01*
X156825967Y-142537834D01*
X156934281Y-142692521D01*
X156961505Y-142731401D01*
X157128599Y-142898495D01*
X157225384Y-142966265D01*
X157322165Y-143034032D01*
X157322167Y-143034033D01*
X157322170Y-143034035D01*
X157536337Y-143133903D01*
X157764592Y-143195063D01*
X157952918Y-143211539D01*
X157999999Y-143215659D01*
X158000000Y-143215659D01*
X158000001Y-143215659D01*
X158039234Y-143212226D01*
X158235408Y-143195063D01*
X158463663Y-143133903D01*
X158677830Y-143034035D01*
X158871401Y-142898495D01*
X159038495Y-142731401D01*
X159174035Y-142537830D01*
X159263118Y-142346790D01*
X159309290Y-142294352D01*
X159376484Y-142275200D01*
X159443365Y-142295416D01*
X159488700Y-142348581D01*
X159499500Y-142399196D01*
X159499500Y-149375500D01*
X159479815Y-149442539D01*
X159427011Y-149488294D01*
X159375500Y-149499500D01*
X100624500Y-149499500D01*
X100557461Y-149479815D01*
X100511706Y-149427011D01*
X100500500Y-149375500D01*
X100500500Y-146799994D01*
X101894859Y-146799994D01*
X101894859Y-146800005D01*
X101915385Y-147047729D01*
X101915387Y-147047738D01*
X101976412Y-147288717D01*
X102076267Y-147516367D01*
X102176562Y-147669881D01*
X102798957Y-147047487D01*
X102823978Y-147107890D01*
X102895112Y-147214351D01*
X102985649Y-147304888D01*
X103092110Y-147376022D01*
X103152511Y-147401041D01*
X102529943Y-148023609D01*
X102576768Y-148060055D01*
X102576771Y-148060057D01*
X102795385Y-148178364D01*
X102795396Y-148178369D01*
X103030506Y-148259083D01*
X103275707Y-148300000D01*
X103524293Y-148300000D01*
X103769493Y-148259083D01*
X104004603Y-148178369D01*
X104004614Y-148178364D01*
X104223230Y-148060056D01*
X104223236Y-148060051D01*
X104270055Y-148023610D01*
X104270056Y-148023609D01*
X103647488Y-147401041D01*
X103707890Y-147376022D01*
X103814351Y-147304888D01*
X103904888Y-147214351D01*
X103976022Y-147107890D01*
X104001041Y-147047488D01*
X104623435Y-147669882D01*
X104723733Y-147516364D01*
X104735936Y-147488543D01*
X125499499Y-147488543D01*
X125537947Y-147681829D01*
X125537950Y-147681839D01*
X125613364Y-147863907D01*
X125613371Y-147863920D01*
X125722860Y-148027781D01*
X125722863Y-148027785D01*
X125862214Y-148167136D01*
X125862218Y-148167139D01*
X126026079Y-148276628D01*
X126026092Y-148276635D01*
X126208160Y-148352049D01*
X126208165Y-148352051D01*
X126208169Y-148352051D01*
X126208170Y-148352052D01*
X126401456Y-148390500D01*
X126401459Y-148390500D01*
X126598543Y-148390500D01*
X126728582Y-148364632D01*
X126791835Y-148352051D01*
X126973914Y-148276632D01*
X127137782Y-148167139D01*
X127277139Y-148027782D01*
X127362520Y-147900000D01*
X128094540Y-147900000D01*
X128114326Y-148088256D01*
X128114327Y-148088259D01*
X128172818Y-148268277D01*
X128172821Y-148268284D01*
X128267467Y-148432216D01*
X128394129Y-148572888D01*
X128547265Y-148684148D01*
X128547270Y-148684151D01*
X128720192Y-148761142D01*
X128720197Y-148761144D01*
X128905354Y-148800500D01*
X128905355Y-148800500D01*
X129094644Y-148800500D01*
X129094646Y-148800500D01*
X129279803Y-148761144D01*
X129294450Y-148754622D01*
X129363697Y-148745336D01*
X129426975Y-148774962D01*
X129452275Y-148805902D01*
X129467467Y-148832216D01*
X129594129Y-148972888D01*
X129747265Y-149084148D01*
X129747270Y-149084151D01*
X129920192Y-149161142D01*
X129920197Y-149161144D01*
X130105354Y-149200500D01*
X130105355Y-149200500D01*
X130294644Y-149200500D01*
X130294646Y-149200500D01*
X130479803Y-149161144D01*
X130652730Y-149084151D01*
X130805871Y-148972888D01*
X130932533Y-148832216D01*
X131027179Y-148668284D01*
X131085674Y-148488256D01*
X131105460Y-148300000D01*
X131085674Y-148111744D01*
X131027179Y-147931716D01*
X130974928Y-147841215D01*
X130958456Y-147773317D01*
X130981309Y-147707290D01*
X131036230Y-147664099D01*
X131105783Y-147657458D01*
X131119551Y-147661007D01*
X131161306Y-147669882D01*
X131305354Y-147700500D01*
X131305355Y-147700500D01*
X131494644Y-147700500D01*
X131494646Y-147700500D01*
X131679803Y-147661144D01*
X131852730Y-147584151D01*
X132005871Y-147472888D01*
X132132533Y-147332216D01*
X132227179Y-147168284D01*
X132257569Y-147074754D01*
X132297006Y-147017078D01*
X132361365Y-146989880D01*
X132430211Y-147001795D01*
X132481687Y-147049039D01*
X132499500Y-147113072D01*
X132499500Y-147488541D01*
X132499500Y-147488543D01*
X132499499Y-147488543D01*
X132537947Y-147681829D01*
X132537950Y-147681839D01*
X132613364Y-147863907D01*
X132613371Y-147863920D01*
X132722860Y-148027781D01*
X132722863Y-148027785D01*
X132862214Y-148167136D01*
X132862218Y-148167139D01*
X133026079Y-148276628D01*
X133026092Y-148276635D01*
X133208160Y-148352049D01*
X133208165Y-148352051D01*
X133208169Y-148352051D01*
X133208170Y-148352052D01*
X133401456Y-148390500D01*
X133401459Y-148390500D01*
X133598543Y-148390500D01*
X133728582Y-148364632D01*
X133791835Y-148352051D01*
X133973914Y-148276632D01*
X134137782Y-148167139D01*
X134277139Y-148027782D01*
X134386632Y-147863914D01*
X134388057Y-147860475D01*
X134426450Y-147767784D01*
X134462051Y-147681835D01*
X134500500Y-147488541D01*
X134500500Y-146741459D01*
X134500500Y-146741456D01*
X134492252Y-146699994D01*
X137594357Y-146699994D01*
X137594357Y-146700005D01*
X137614890Y-146947812D01*
X137614892Y-146947824D01*
X137675936Y-147188881D01*
X137775826Y-147416606D01*
X137911833Y-147624782D01*
X137911836Y-147624785D01*
X138080256Y-147807738D01*
X138276491Y-147960474D01*
X138276493Y-147960475D01*
X138460500Y-148060055D01*
X138495190Y-148078828D01*
X138730386Y-148159571D01*
X138975665Y-148200500D01*
X139224335Y-148200500D01*
X139469614Y-148159571D01*
X139704810Y-148078828D01*
X139923509Y-147960474D01*
X140119744Y-147807738D01*
X140288164Y-147624785D01*
X140424173Y-147416607D01*
X140524063Y-147188881D01*
X140585108Y-146947821D01*
X140585109Y-146947812D01*
X140605643Y-146700005D01*
X140605643Y-146699994D01*
X140597357Y-146599994D01*
X146294357Y-146599994D01*
X146294357Y-146600005D01*
X146314890Y-146847812D01*
X146314892Y-146847824D01*
X146375936Y-147088881D01*
X146475826Y-147316606D01*
X146611833Y-147524782D01*
X146618216Y-147531716D01*
X146780256Y-147707738D01*
X146976491Y-147860474D01*
X147195190Y-147978828D01*
X147430386Y-148059571D01*
X147675665Y-148100500D01*
X147924335Y-148100500D01*
X148169614Y-148059571D01*
X148404810Y-147978828D01*
X148623509Y-147860474D01*
X148819744Y-147707738D01*
X148988164Y-147524785D01*
X149124173Y-147316607D01*
X149224063Y-147088881D01*
X149285108Y-146847821D01*
X149289070Y-146800005D01*
X149305643Y-146600005D01*
X149305643Y-146599994D01*
X149297357Y-146499994D01*
X155494859Y-146499994D01*
X155494859Y-146500005D01*
X155515385Y-146747729D01*
X155515387Y-146747738D01*
X155576412Y-146988717D01*
X155676267Y-147216367D01*
X155776562Y-147369881D01*
X156398957Y-146747487D01*
X156423978Y-146807890D01*
X156495112Y-146914351D01*
X156585649Y-147004888D01*
X156692110Y-147076022D01*
X156752511Y-147101041D01*
X156129943Y-147723609D01*
X156176768Y-147760055D01*
X156176771Y-147760057D01*
X156395385Y-147878364D01*
X156395396Y-147878369D01*
X156630506Y-147959083D01*
X156875707Y-148000000D01*
X157124293Y-148000000D01*
X157369493Y-147959083D01*
X157604603Y-147878369D01*
X157604614Y-147878364D01*
X157823230Y-147760056D01*
X157823236Y-147760051D01*
X157870055Y-147723610D01*
X157870056Y-147723609D01*
X157247488Y-147101041D01*
X157307890Y-147076022D01*
X157414351Y-147004888D01*
X157504888Y-146914351D01*
X157576022Y-146807890D01*
X157601041Y-146747488D01*
X158223435Y-147369882D01*
X158323733Y-147216364D01*
X158423587Y-146988717D01*
X158484612Y-146747738D01*
X158484614Y-146747729D01*
X158505141Y-146500005D01*
X158505141Y-146499994D01*
X158484614Y-146252270D01*
X158484612Y-146252261D01*
X158423587Y-146011282D01*
X158323732Y-145783632D01*
X158223435Y-145630116D01*
X157601041Y-146252511D01*
X157576022Y-146192110D01*
X157504888Y-146085649D01*
X157414351Y-145995112D01*
X157307890Y-145923978D01*
X157247487Y-145898958D01*
X157870055Y-145276389D01*
X157870055Y-145276388D01*
X157823236Y-145239947D01*
X157823231Y-145239944D01*
X157604614Y-145121635D01*
X157604603Y-145121630D01*
X157369493Y-145040916D01*
X157124293Y-145000000D01*
X156875707Y-145000000D01*
X156630506Y-145040916D01*
X156395396Y-145121630D01*
X156395385Y-145121635D01*
X156176770Y-145239943D01*
X156129943Y-145276389D01*
X156752512Y-145898958D01*
X156692110Y-145923978D01*
X156585649Y-145995112D01*
X156495112Y-146085649D01*
X156423978Y-146192110D01*
X156398958Y-146252512D01*
X155776563Y-145630117D01*
X155676267Y-145783633D01*
X155676265Y-145783637D01*
X155576412Y-146011282D01*
X155515387Y-146252261D01*
X155515385Y-146252270D01*
X155494859Y-146499994D01*
X149297357Y-146499994D01*
X149285109Y-146352187D01*
X149285107Y-146352175D01*
X149224063Y-146111118D01*
X149124173Y-145883393D01*
X148988166Y-145675217D01*
X148911800Y-145592262D01*
X148819744Y-145492262D01*
X148623509Y-145339526D01*
X148623507Y-145339525D01*
X148623506Y-145339524D01*
X148404811Y-145221172D01*
X148404802Y-145221169D01*
X148169616Y-145140429D01*
X147924335Y-145099500D01*
X147675665Y-145099500D01*
X147430383Y-145140429D01*
X147195197Y-145221169D01*
X147195188Y-145221172D01*
X146976493Y-145339524D01*
X146780257Y-145492261D01*
X146611833Y-145675217D01*
X146475826Y-145883393D01*
X146375936Y-146111118D01*
X146314892Y-146352175D01*
X146314890Y-146352187D01*
X146294357Y-146599994D01*
X140597357Y-146599994D01*
X140585109Y-146452187D01*
X140585107Y-146452175D01*
X140524063Y-146211118D01*
X140424173Y-145983393D01*
X140288166Y-145775217D01*
X140196109Y-145675217D01*
X140119744Y-145592262D01*
X139923509Y-145439526D01*
X139923507Y-145439525D01*
X139923506Y-145439524D01*
X139704811Y-145321172D01*
X139704802Y-145321169D01*
X139469616Y-145240429D01*
X139224335Y-145199500D01*
X138975665Y-145199500D01*
X138730383Y-145240429D01*
X138495197Y-145321169D01*
X138495188Y-145321172D01*
X138276493Y-145439524D01*
X138080257Y-145592261D01*
X137911833Y-145775217D01*
X137775826Y-145983393D01*
X137675936Y-146211118D01*
X137614892Y-146452175D01*
X137614890Y-146452187D01*
X137594357Y-146699994D01*
X134492252Y-146699994D01*
X134462052Y-146548170D01*
X134462051Y-146548169D01*
X134462051Y-146548165D01*
X134442098Y-146499994D01*
X134386635Y-146366092D01*
X134386628Y-146366079D01*
X134277139Y-146202218D01*
X134277136Y-146202214D01*
X134137785Y-146062863D01*
X134137781Y-146062860D01*
X133973920Y-145953371D01*
X133973907Y-145953364D01*
X133791839Y-145877950D01*
X133791829Y-145877947D01*
X133598543Y-145839500D01*
X133598541Y-145839500D01*
X133401459Y-145839500D01*
X133401457Y-145839500D01*
X133208170Y-145877947D01*
X133208160Y-145877950D01*
X133026092Y-145953364D01*
X133026079Y-145953371D01*
X132862218Y-146062860D01*
X132862214Y-146062863D01*
X132722863Y-146202214D01*
X132722860Y-146202218D01*
X132613371Y-146366079D01*
X132613364Y-146366092D01*
X132537950Y-146548160D01*
X132537948Y-146548169D01*
X132527014Y-146603135D01*
X132494628Y-146665045D01*
X132433912Y-146699619D01*
X132364143Y-146695878D01*
X132307471Y-146655011D01*
X132287466Y-146617260D01*
X132285672Y-146611740D01*
X132246802Y-146492110D01*
X132227181Y-146431721D01*
X132227178Y-146431715D01*
X132189291Y-146366092D01*
X132132533Y-146267784D01*
X132005871Y-146127112D01*
X132005870Y-146127111D01*
X131852734Y-146015851D01*
X131852729Y-146015848D01*
X131679807Y-145938857D01*
X131679802Y-145938855D01*
X131534001Y-145907865D01*
X131494646Y-145899500D01*
X131305354Y-145899500D01*
X131272897Y-145906398D01*
X131120197Y-145938855D01*
X131120192Y-145938857D01*
X130947270Y-146015848D01*
X130947265Y-146015851D01*
X130794129Y-146127111D01*
X130667466Y-146267785D01*
X130572821Y-146431715D01*
X130572818Y-146431722D01*
X130518142Y-146600000D01*
X130514326Y-146611744D01*
X130494540Y-146800000D01*
X130514326Y-146988256D01*
X130514327Y-146988259D01*
X130572818Y-147168277D01*
X130572821Y-147168284D01*
X130625070Y-147258782D01*
X130641543Y-147326683D01*
X130618690Y-147392709D01*
X130563769Y-147435900D01*
X130494215Y-147442541D01*
X130480450Y-147438993D01*
X130348343Y-147410913D01*
X130294646Y-147399500D01*
X130105354Y-147399500D01*
X130065999Y-147407865D01*
X129920198Y-147438855D01*
X129920197Y-147438855D01*
X129905543Y-147445380D01*
X129836293Y-147454662D01*
X129773017Y-147425031D01*
X129747724Y-147394096D01*
X129732534Y-147367785D01*
X129605870Y-147227111D01*
X129452734Y-147115851D01*
X129452729Y-147115848D01*
X129279807Y-147038857D01*
X129279802Y-147038855D01*
X129134001Y-147007865D01*
X129094646Y-146999500D01*
X128905354Y-146999500D01*
X128894557Y-147001795D01*
X128720197Y-147038855D01*
X128720192Y-147038857D01*
X128547270Y-147115848D01*
X128547265Y-147115851D01*
X128394129Y-147227111D01*
X128267466Y-147367785D01*
X128172821Y-147531715D01*
X128172818Y-147531722D01*
X128114327Y-147711740D01*
X128114326Y-147711744D01*
X128094540Y-147900000D01*
X127362520Y-147900000D01*
X127386632Y-147863914D01*
X127388057Y-147860475D01*
X127426450Y-147767784D01*
X127462051Y-147681835D01*
X127500500Y-147488541D01*
X127500500Y-146741459D01*
X127500500Y-146741456D01*
X127462052Y-146548170D01*
X127462051Y-146548169D01*
X127462051Y-146548165D01*
X127442098Y-146499994D01*
X127386635Y-146366092D01*
X127386628Y-146366079D01*
X127277139Y-146202218D01*
X127277136Y-146202214D01*
X127137785Y-146062863D01*
X127137781Y-146062860D01*
X126973920Y-145953371D01*
X126973907Y-145953364D01*
X126791839Y-145877950D01*
X126791829Y-145877947D01*
X126598543Y-145839500D01*
X126598541Y-145839500D01*
X126401459Y-145839500D01*
X126401457Y-145839500D01*
X126208170Y-145877947D01*
X126208160Y-145877950D01*
X126026092Y-145953364D01*
X126026079Y-145953371D01*
X125862218Y-146062860D01*
X125862214Y-146062863D01*
X125722863Y-146202214D01*
X125722860Y-146202218D01*
X125613371Y-146366079D01*
X125613364Y-146366092D01*
X125537950Y-146548160D01*
X125537947Y-146548170D01*
X125499500Y-146741456D01*
X125499500Y-146741459D01*
X125499500Y-147488541D01*
X125499500Y-147488543D01*
X125499499Y-147488543D01*
X104735936Y-147488543D01*
X104823587Y-147288717D01*
X104884612Y-147047738D01*
X104884614Y-147047729D01*
X104905141Y-146800005D01*
X104905141Y-146799994D01*
X104884614Y-146552270D01*
X104884612Y-146552261D01*
X104823587Y-146311282D01*
X104723732Y-146083632D01*
X104623435Y-145930116D01*
X104001041Y-146552511D01*
X103976022Y-146492110D01*
X103904888Y-146385649D01*
X103814351Y-146295112D01*
X103707890Y-146223978D01*
X103647487Y-146198958D01*
X104270055Y-145576389D01*
X104270055Y-145576388D01*
X104223236Y-145539947D01*
X104223231Y-145539944D01*
X104004614Y-145421635D01*
X104004603Y-145421630D01*
X103769493Y-145340916D01*
X103524293Y-145300000D01*
X103275707Y-145300000D01*
X103030506Y-145340916D01*
X102795396Y-145421630D01*
X102795385Y-145421635D01*
X102576770Y-145539943D01*
X102529943Y-145576389D01*
X103152512Y-146198958D01*
X103092110Y-146223978D01*
X102985649Y-146295112D01*
X102895112Y-146385649D01*
X102823978Y-146492110D01*
X102798958Y-146552512D01*
X102176563Y-145930117D01*
X102076267Y-146083633D01*
X102076265Y-146083637D01*
X101976412Y-146311282D01*
X101915387Y-146552261D01*
X101915385Y-146552270D01*
X101894859Y-146799994D01*
X100500500Y-146799994D01*
X100500500Y-144318917D01*
X126374500Y-144318917D01*
X126374500Y-144511082D01*
X126411986Y-144699535D01*
X126411989Y-144699547D01*
X126485520Y-144877068D01*
X126485521Y-144877070D01*
X126592279Y-145036844D01*
X126592282Y-145036848D01*
X126728151Y-145172717D01*
X126728155Y-145172720D01*
X126887927Y-145279477D01*
X126887928Y-145279477D01*
X126887929Y-145279478D01*
X126887931Y-145279479D01*
X127065452Y-145353010D01*
X127065457Y-145353012D01*
X127253917Y-145390499D01*
X127253920Y-145390500D01*
X127253922Y-145390500D01*
X127746080Y-145390500D01*
X127746081Y-145390499D01*
X127934543Y-145353012D01*
X128112073Y-145279477D01*
X128271845Y-145172720D01*
X128407720Y-145036845D01*
X128514477Y-144877073D01*
X128588012Y-144699543D01*
X128625500Y-144511078D01*
X128625500Y-144318922D01*
X128625500Y-144318919D01*
X128625499Y-144318917D01*
X131374500Y-144318917D01*
X131374500Y-144511082D01*
X131411986Y-144699535D01*
X131411989Y-144699547D01*
X131485520Y-144877068D01*
X131485521Y-144877070D01*
X131592279Y-145036844D01*
X131592282Y-145036848D01*
X131728151Y-145172717D01*
X131728155Y-145172720D01*
X131887927Y-145279477D01*
X131887928Y-145279477D01*
X131887929Y-145279478D01*
X131887931Y-145279479D01*
X132065452Y-145353010D01*
X132065457Y-145353012D01*
X132253917Y-145390499D01*
X132253920Y-145390500D01*
X132253922Y-145390500D01*
X132746080Y-145390500D01*
X132746081Y-145390499D01*
X132934543Y-145353012D01*
X133112073Y-145279477D01*
X133271845Y-145172720D01*
X133407720Y-145036845D01*
X133514477Y-144877073D01*
X133588012Y-144699543D01*
X133625500Y-144511078D01*
X133625500Y-144318922D01*
X133625500Y-144318919D01*
X133625499Y-144318917D01*
X133588013Y-144130464D01*
X133588012Y-144130457D01*
X133514477Y-143952927D01*
X133407720Y-143793155D01*
X133407717Y-143793151D01*
X133271848Y-143657282D01*
X133271844Y-143657279D01*
X133112070Y-143550521D01*
X133112068Y-143550520D01*
X132934547Y-143476989D01*
X132934535Y-143476986D01*
X132746081Y-143439500D01*
X132746078Y-143439500D01*
X132253922Y-143439500D01*
X132253919Y-143439500D01*
X132065464Y-143476986D01*
X132065452Y-143476989D01*
X131887931Y-143550520D01*
X131887929Y-143550521D01*
X131728155Y-143657279D01*
X131728151Y-143657282D01*
X131592282Y-143793151D01*
X131592279Y-143793155D01*
X131485521Y-143952929D01*
X131485520Y-143952931D01*
X131411989Y-144130452D01*
X131411986Y-144130464D01*
X131374500Y-144318917D01*
X128625499Y-144318917D01*
X128588013Y-144130464D01*
X128588012Y-144130457D01*
X128514477Y-143952927D01*
X128407720Y-143793155D01*
X128407717Y-143793151D01*
X128271848Y-143657282D01*
X128271844Y-143657279D01*
X128112070Y-143550521D01*
X128112068Y-143550520D01*
X127934547Y-143476989D01*
X127934535Y-143476986D01*
X127746081Y-143439500D01*
X127746078Y-143439500D01*
X127253922Y-143439500D01*
X127253919Y-143439500D01*
X127065464Y-143476986D01*
X127065452Y-143476989D01*
X126887931Y-143550520D01*
X126887929Y-143550521D01*
X126728155Y-143657279D01*
X126728151Y-143657282D01*
X126592282Y-143793151D01*
X126592279Y-143793155D01*
X126485521Y-143952929D01*
X126485520Y-143952931D01*
X126411989Y-144130452D01*
X126411986Y-144130464D01*
X126374500Y-144318917D01*
X100500500Y-144318917D01*
X100500500Y-142399196D01*
X100520185Y-142332157D01*
X100572989Y-142286402D01*
X100642147Y-142276458D01*
X100705703Y-142305483D01*
X100736881Y-142346790D01*
X100761319Y-142399196D01*
X100825965Y-142537830D01*
X100825967Y-142537834D01*
X100934281Y-142692521D01*
X100961505Y-142731401D01*
X101128599Y-142898495D01*
X101225384Y-142966265D01*
X101322165Y-143034032D01*
X101322167Y-143034033D01*
X101322170Y-143034035D01*
X101536337Y-143133903D01*
X101764592Y-143195063D01*
X101952918Y-143211539D01*
X101999999Y-143215659D01*
X102000000Y-143215659D01*
X102000001Y-143215659D01*
X102039234Y-143212226D01*
X102235408Y-143195063D01*
X102463663Y-143133903D01*
X102677830Y-143034035D01*
X102871401Y-142898495D01*
X103038495Y-142731401D01*
X103174035Y-142537830D01*
X103273903Y-142323663D01*
X103335063Y-142095408D01*
X103355659Y-141860000D01*
X103335063Y-141624592D01*
X103283887Y-141433597D01*
X103273905Y-141396344D01*
X103273904Y-141396343D01*
X103273903Y-141396337D01*
X103174035Y-141182171D01*
X103038495Y-140988599D01*
X103038494Y-140988597D01*
X102871402Y-140821506D01*
X102871396Y-140821501D01*
X102685842Y-140691575D01*
X102642217Y-140636998D01*
X102635023Y-140567500D01*
X102666546Y-140505145D01*
X102685842Y-140488425D01*
X102708026Y-140472891D01*
X102871401Y-140358495D01*
X103038495Y-140191401D01*
X103174035Y-139997830D01*
X103273903Y-139783663D01*
X103335063Y-139555408D01*
X103355659Y-139320000D01*
X103335063Y-139084592D01*
X103283887Y-138893597D01*
X103273905Y-138856344D01*
X103273904Y-138856343D01*
X103273903Y-138856337D01*
X103201001Y-138700000D01*
X118394659Y-138700000D01*
X118413975Y-138896129D01*
X118471188Y-139084733D01*
X118564086Y-139258532D01*
X118564090Y-139258539D01*
X118689116Y-139410883D01*
X118841460Y-139535909D01*
X118841467Y-139535913D01*
X119015266Y-139628811D01*
X119015269Y-139628811D01*
X119015273Y-139628814D01*
X119203868Y-139686024D01*
X119400000Y-139705341D01*
X119596132Y-139686024D01*
X119784727Y-139628814D01*
X119958538Y-139535910D01*
X120110883Y-139410883D01*
X120235910Y-139258538D01*
X120328814Y-139084727D01*
X120386024Y-138896132D01*
X120405341Y-138700000D01*
X120386024Y-138503868D01*
X120328814Y-138315273D01*
X120328811Y-138315269D01*
X120328811Y-138315266D01*
X120235913Y-138141467D01*
X120235909Y-138141460D01*
X120119815Y-138000000D01*
X145194540Y-138000000D01*
X145214326Y-138188256D01*
X145214327Y-138188259D01*
X145272818Y-138368277D01*
X145272821Y-138368284D01*
X145367467Y-138532216D01*
X145466471Y-138642171D01*
X145494129Y-138672888D01*
X145647265Y-138784148D01*
X145647270Y-138784151D01*
X145820192Y-138861142D01*
X145820197Y-138861144D01*
X146005354Y-138900500D01*
X146005355Y-138900500D01*
X146194644Y-138900500D01*
X146194646Y-138900500D01*
X146379803Y-138861144D01*
X146552730Y-138784151D01*
X146705871Y-138672888D01*
X146832533Y-138532216D01*
X146927179Y-138368284D01*
X146985674Y-138188256D01*
X146994950Y-138100000D01*
X149094540Y-138100000D01*
X149114326Y-138288256D01*
X149114327Y-138288259D01*
X149172818Y-138468277D01*
X149172821Y-138468284D01*
X149267467Y-138632216D01*
X149394129Y-138772888D01*
X149547265Y-138884148D01*
X149547270Y-138884151D01*
X149720192Y-138961142D01*
X149720197Y-138961144D01*
X149905354Y-139000500D01*
X149905355Y-139000500D01*
X150094644Y-139000500D01*
X150094646Y-139000500D01*
X150279803Y-138961144D01*
X150452730Y-138884151D01*
X150605871Y-138772888D01*
X150732533Y-138632216D01*
X150827179Y-138468284D01*
X150885674Y-138288256D01*
X150905460Y-138100000D01*
X150885674Y-137911744D01*
X150827179Y-137731716D01*
X150732533Y-137567784D01*
X150605871Y-137427112D01*
X150605870Y-137427111D01*
X150452734Y-137315851D01*
X150452729Y-137315848D01*
X150279807Y-137238857D01*
X150279802Y-137238855D01*
X150134001Y-137207865D01*
X150094646Y-137199500D01*
X149905354Y-137199500D01*
X149872897Y-137206398D01*
X149720197Y-137238855D01*
X149720192Y-137238857D01*
X149547270Y-137315848D01*
X149547265Y-137315851D01*
X149394129Y-137427111D01*
X149267466Y-137567785D01*
X149172821Y-137731715D01*
X149172818Y-137731722D01*
X149114327Y-137911740D01*
X149114326Y-137911744D01*
X149094540Y-138100000D01*
X146994950Y-138100000D01*
X147005460Y-138000000D01*
X146985674Y-137811744D01*
X146927179Y-137631716D01*
X146832533Y-137467784D01*
X146705871Y-137327112D01*
X146690369Y-137315849D01*
X146552734Y-137215851D01*
X146552729Y-137215848D01*
X146379807Y-137138857D01*
X146379802Y-137138855D01*
X146234001Y-137107865D01*
X146194646Y-137099500D01*
X146005354Y-137099500D01*
X145972897Y-137106398D01*
X145820197Y-137138855D01*
X145820192Y-137138857D01*
X145647270Y-137215848D01*
X145647265Y-137215851D01*
X145494129Y-137327111D01*
X145367466Y-137467785D01*
X145272821Y-137631715D01*
X145272818Y-137631722D01*
X145214327Y-137811740D01*
X145214326Y-137811744D01*
X145194540Y-138000000D01*
X120119815Y-138000000D01*
X120110883Y-137989116D01*
X119958539Y-137864090D01*
X119958532Y-137864086D01*
X119784733Y-137771188D01*
X119784727Y-137771186D01*
X119596132Y-137713976D01*
X119596129Y-137713975D01*
X119400000Y-137694659D01*
X119203870Y-137713975D01*
X119015266Y-137771188D01*
X118841467Y-137864086D01*
X118841460Y-137864090D01*
X118689116Y-137989116D01*
X118564090Y-138141460D01*
X118564086Y-138141467D01*
X118471188Y-138315266D01*
X118413975Y-138503870D01*
X118394659Y-138700000D01*
X103201001Y-138700000D01*
X103174035Y-138642171D01*
X103167065Y-138632216D01*
X103038494Y-138448597D01*
X102871402Y-138281506D01*
X102871396Y-138281501D01*
X102685842Y-138151575D01*
X102642217Y-138096998D01*
X102635023Y-138027500D01*
X102666546Y-137965145D01*
X102685842Y-137948425D01*
X102738233Y-137911740D01*
X102871401Y-137818495D01*
X103038495Y-137651401D01*
X103174035Y-137457830D01*
X103273903Y-137243663D01*
X103335063Y-137015408D01*
X103355659Y-136780000D01*
X103335063Y-136544592D01*
X103283887Y-136353597D01*
X103273905Y-136316344D01*
X103273904Y-136316343D01*
X103273903Y-136316337D01*
X103174035Y-136102171D01*
X103038495Y-135908599D01*
X103038494Y-135908597D01*
X102871402Y-135741506D01*
X102871401Y-135741505D01*
X102685405Y-135611269D01*
X102641781Y-135556692D01*
X102634588Y-135487193D01*
X102666110Y-135424839D01*
X102685405Y-135408119D01*
X102871082Y-135278105D01*
X103038105Y-135111082D01*
X103173600Y-134917578D01*
X103273429Y-134703492D01*
X103273432Y-134703486D01*
X103274366Y-134700000D01*
X132994540Y-134700000D01*
X133014326Y-134888256D01*
X133014327Y-134888259D01*
X133072818Y-135068277D01*
X133072821Y-135068284D01*
X133167467Y-135232216D01*
X133209137Y-135278495D01*
X133294129Y-135372888D01*
X133447265Y-135484148D01*
X133447270Y-135484151D01*
X133620192Y-135561142D01*
X133620197Y-135561144D01*
X133805354Y-135600500D01*
X133805355Y-135600500D01*
X133994644Y-135600500D01*
X133994646Y-135600500D01*
X134179803Y-135561144D01*
X134352730Y-135484151D01*
X134505871Y-135372888D01*
X134632533Y-135232216D01*
X134727179Y-135068284D01*
X134785674Y-134888256D01*
X134805460Y-134700000D01*
X134785674Y-134511744D01*
X134727179Y-134331716D01*
X134632533Y-134167784D01*
X134505871Y-134027112D01*
X134505870Y-134027111D01*
X134352734Y-133915851D01*
X134352729Y-133915848D01*
X134179807Y-133838857D01*
X134179802Y-133838855D01*
X134024135Y-133805768D01*
X133994646Y-133799500D01*
X133805354Y-133799500D01*
X133775865Y-133805768D01*
X133620197Y-133838855D01*
X133620192Y-133838857D01*
X133447270Y-133915848D01*
X133447265Y-133915851D01*
X133294129Y-134027111D01*
X133167466Y-134167785D01*
X133072821Y-134331715D01*
X133072818Y-134331722D01*
X133021391Y-134490000D01*
X133014326Y-134511744D01*
X132994540Y-134700000D01*
X103274366Y-134700000D01*
X103330636Y-134490000D01*
X102433012Y-134490000D01*
X102465925Y-134432993D01*
X102500000Y-134305826D01*
X102500000Y-134174174D01*
X102465925Y-134047007D01*
X102433012Y-133990000D01*
X103330636Y-133990000D01*
X103330635Y-133989999D01*
X103273432Y-133776513D01*
X103273429Y-133776507D01*
X103173600Y-133562422D01*
X103173599Y-133562420D01*
X103038113Y-133368926D01*
X103038108Y-133368920D01*
X102871078Y-133201890D01*
X102685405Y-133071879D01*
X102641780Y-133017302D01*
X102634588Y-132947804D01*
X102666110Y-132885449D01*
X102685406Y-132868730D01*
X102768020Y-132810883D01*
X102871401Y-132738495D01*
X103038495Y-132571401D01*
X103174035Y-132377830D01*
X103273903Y-132163663D01*
X103290961Y-132100000D01*
X114594659Y-132100000D01*
X114613975Y-132296129D01*
X114671188Y-132484733D01*
X114764086Y-132658532D01*
X114764090Y-132658539D01*
X114889116Y-132810883D01*
X115041460Y-132935909D01*
X115041467Y-132935913D01*
X115215266Y-133028811D01*
X115215269Y-133028811D01*
X115215273Y-133028814D01*
X115403868Y-133086024D01*
X115600000Y-133105341D01*
X115796132Y-133086024D01*
X115984727Y-133028814D01*
X116006265Y-133017302D01*
X116158532Y-132935913D01*
X116158538Y-132935910D01*
X116310883Y-132810883D01*
X116435910Y-132658538D01*
X116528814Y-132484727D01*
X116586024Y-132296132D01*
X116605341Y-132100000D01*
X116586024Y-131903868D01*
X116528814Y-131715273D01*
X116528811Y-131715269D01*
X116528811Y-131715266D01*
X116435913Y-131541467D01*
X116435909Y-131541460D01*
X116319815Y-131400000D01*
X132894659Y-131400000D01*
X132913975Y-131596129D01*
X132913976Y-131596132D01*
X132965452Y-131765826D01*
X132971188Y-131784733D01*
X133064086Y-131958532D01*
X133064090Y-131958539D01*
X133189116Y-132110883D01*
X133341460Y-132235909D01*
X133341467Y-132235913D01*
X133515266Y-132328811D01*
X133515269Y-132328811D01*
X133515273Y-132328814D01*
X133703868Y-132386024D01*
X133900000Y-132405341D01*
X134096132Y-132386024D01*
X134284727Y-132328814D01*
X134458538Y-132235910D01*
X134610883Y-132110883D01*
X134735910Y-131958538D01*
X134828814Y-131784727D01*
X134886024Y-131596132D01*
X134905341Y-131400000D01*
X134886024Y-131203868D01*
X134828814Y-131015273D01*
X134828811Y-131015269D01*
X134828811Y-131015266D01*
X134735913Y-130841467D01*
X134735909Y-130841460D01*
X134610883Y-130689116D01*
X134502295Y-130600000D01*
X139194540Y-130600000D01*
X139214326Y-130788256D01*
X139214327Y-130788259D01*
X139272818Y-130968277D01*
X139272821Y-130968284D01*
X139367467Y-131132216D01*
X139461377Y-131236513D01*
X139494129Y-131272888D01*
X139647265Y-131384148D01*
X139647270Y-131384151D01*
X139820192Y-131461142D01*
X139820197Y-131461144D01*
X140005354Y-131500500D01*
X140005355Y-131500500D01*
X140194644Y-131500500D01*
X140194646Y-131500500D01*
X140379803Y-131461144D01*
X140552730Y-131384151D01*
X140705871Y-131272888D01*
X140771500Y-131200000D01*
X141194540Y-131200000D01*
X141214326Y-131388256D01*
X141214327Y-131388259D01*
X141272818Y-131568277D01*
X141272821Y-131568284D01*
X141367467Y-131732216D01*
X141414754Y-131784733D01*
X141494129Y-131872888D01*
X141647265Y-131984148D01*
X141647270Y-131984151D01*
X141820192Y-132061142D01*
X141820197Y-132061144D01*
X142005354Y-132100500D01*
X142005355Y-132100500D01*
X142194644Y-132100500D01*
X142194646Y-132100500D01*
X142379803Y-132061144D01*
X142552730Y-131984151D01*
X142705871Y-131872888D01*
X142832533Y-131732216D01*
X142927179Y-131568284D01*
X142985674Y-131388256D01*
X143005460Y-131200000D01*
X142985674Y-131011744D01*
X142927179Y-130831716D01*
X142832533Y-130667784D01*
X142705871Y-130527112D01*
X142705870Y-130527111D01*
X142552734Y-130415851D01*
X142552729Y-130415848D01*
X142379807Y-130338857D01*
X142379802Y-130338855D01*
X142234001Y-130307865D01*
X142194646Y-130299500D01*
X142005354Y-130299500D01*
X141972897Y-130306398D01*
X141820197Y-130338855D01*
X141820192Y-130338857D01*
X141647270Y-130415848D01*
X141647265Y-130415851D01*
X141494129Y-130527111D01*
X141367466Y-130667785D01*
X141272821Y-130831715D01*
X141272818Y-130831722D01*
X141228449Y-130968277D01*
X141214326Y-131011744D01*
X141194540Y-131200000D01*
X140771500Y-131200000D01*
X140832533Y-131132216D01*
X140927179Y-130968284D01*
X140985674Y-130788256D01*
X141005460Y-130600000D01*
X140985674Y-130411744D01*
X140927179Y-130231716D01*
X140832533Y-130067784D01*
X140705871Y-129927112D01*
X140705870Y-129927111D01*
X140552734Y-129815851D01*
X140552729Y-129815848D01*
X140379807Y-129738857D01*
X140379802Y-129738855D01*
X140234001Y-129707865D01*
X140194646Y-129699500D01*
X140005354Y-129699500D01*
X139972897Y-129706398D01*
X139820197Y-129738855D01*
X139820192Y-129738857D01*
X139647270Y-129815848D01*
X139647265Y-129815851D01*
X139494129Y-129927111D01*
X139367466Y-130067785D01*
X139272821Y-130231715D01*
X139272818Y-130231722D01*
X139219877Y-130394659D01*
X139214326Y-130411744D01*
X139194540Y-130600000D01*
X134502295Y-130600000D01*
X134458539Y-130564090D01*
X134458532Y-130564086D01*
X134284733Y-130471188D01*
X134284727Y-130471186D01*
X134102313Y-130415851D01*
X134096129Y-130413975D01*
X133900000Y-130394659D01*
X133703870Y-130413975D01*
X133515266Y-130471188D01*
X133341467Y-130564086D01*
X133341460Y-130564090D01*
X133189116Y-130689116D01*
X133064090Y-130841460D01*
X133064086Y-130841467D01*
X132971188Y-131015266D01*
X132913975Y-131203870D01*
X132894659Y-131400000D01*
X116319815Y-131400000D01*
X116310883Y-131389116D01*
X116158539Y-131264090D01*
X116158532Y-131264086D01*
X115984733Y-131171188D01*
X115984727Y-131171186D01*
X115796132Y-131113976D01*
X115796129Y-131113975D01*
X115600000Y-131094659D01*
X115403870Y-131113975D01*
X115215266Y-131171188D01*
X115041467Y-131264086D01*
X115041460Y-131264090D01*
X114889116Y-131389116D01*
X114764090Y-131541460D01*
X114764086Y-131541467D01*
X114671188Y-131715266D01*
X114613975Y-131903870D01*
X114594659Y-132100000D01*
X103290961Y-132100000D01*
X103335063Y-131935408D01*
X103355659Y-131700000D01*
X103335063Y-131464592D01*
X103283697Y-131272888D01*
X103273905Y-131236344D01*
X103273904Y-131236343D01*
X103273903Y-131236337D01*
X103174035Y-131022171D01*
X103166732Y-131011740D01*
X103038494Y-130828597D01*
X102871402Y-130661506D01*
X102871396Y-130661501D01*
X102685842Y-130531575D01*
X102642217Y-130476998D01*
X102635023Y-130407500D01*
X102666546Y-130345145D01*
X102685842Y-130328425D01*
X102727151Y-130299500D01*
X102871401Y-130198495D01*
X103038495Y-130031401D01*
X103174035Y-129837830D01*
X103273903Y-129623663D01*
X103335063Y-129395408D01*
X103355659Y-129160000D01*
X103335063Y-128924592D01*
X103283887Y-128733597D01*
X103273905Y-128696344D01*
X103273904Y-128696343D01*
X103273903Y-128696337D01*
X103174035Y-128482171D01*
X103038495Y-128288599D01*
X103038494Y-128288597D01*
X102871402Y-128121506D01*
X102871396Y-128121501D01*
X102685842Y-127991575D01*
X102642217Y-127936998D01*
X102635023Y-127867500D01*
X102666546Y-127805145D01*
X102685842Y-127788425D01*
X102708026Y-127772891D01*
X102871401Y-127658495D01*
X103038495Y-127491401D01*
X103174035Y-127297830D01*
X103273903Y-127083663D01*
X103335063Y-126855408D01*
X103355659Y-126620000D01*
X103335063Y-126384592D01*
X103283887Y-126193597D01*
X103273905Y-126156344D01*
X103273904Y-126156343D01*
X103273903Y-126156337D01*
X103247632Y-126100000D01*
X131994540Y-126100000D01*
X132014326Y-126288256D01*
X132014327Y-126288259D01*
X132072818Y-126468277D01*
X132072821Y-126468284D01*
X132167467Y-126632216D01*
X132294129Y-126772888D01*
X132447265Y-126884148D01*
X132447270Y-126884151D01*
X132620192Y-126961142D01*
X132620197Y-126961144D01*
X132805354Y-127000500D01*
X132805355Y-127000500D01*
X132994644Y-127000500D01*
X132994646Y-127000500D01*
X133179803Y-126961144D01*
X133352730Y-126884151D01*
X133505871Y-126772888D01*
X133632533Y-126632216D01*
X133727179Y-126468284D01*
X133785674Y-126288256D01*
X133805460Y-126100000D01*
X133785674Y-125911744D01*
X133727179Y-125731716D01*
X133632533Y-125567784D01*
X133505871Y-125427112D01*
X133505870Y-125427111D01*
X133352734Y-125315851D01*
X133352729Y-125315848D01*
X133179807Y-125238857D01*
X133179802Y-125238855D01*
X133034001Y-125207865D01*
X132994646Y-125199500D01*
X132805354Y-125199500D01*
X132772897Y-125206398D01*
X132620197Y-125238855D01*
X132620192Y-125238857D01*
X132447270Y-125315848D01*
X132447265Y-125315851D01*
X132294129Y-125427111D01*
X132167466Y-125567785D01*
X132072821Y-125731715D01*
X132072818Y-125731722D01*
X132014327Y-125911740D01*
X132014326Y-125911744D01*
X131994540Y-126100000D01*
X103247632Y-126100000D01*
X103174035Y-125942171D01*
X103038495Y-125748599D01*
X103038494Y-125748597D01*
X102871402Y-125581506D01*
X102871401Y-125581505D01*
X102685405Y-125451269D01*
X102641781Y-125396692D01*
X102634588Y-125327193D01*
X102666110Y-125264839D01*
X102685405Y-125248119D01*
X102871082Y-125118105D01*
X103038105Y-124951082D01*
X103173600Y-124757578D01*
X103273429Y-124543492D01*
X103273432Y-124543486D01*
X103330636Y-124330000D01*
X102433012Y-124330000D01*
X102465925Y-124272993D01*
X102500000Y-124145826D01*
X102500000Y-124014174D01*
X102465925Y-123887007D01*
X102433012Y-123830000D01*
X103330636Y-123830000D01*
X103330635Y-123829999D01*
X103273432Y-123616513D01*
X103273429Y-123616507D01*
X103173600Y-123402422D01*
X103173599Y-123402420D01*
X103038113Y-123208926D01*
X103038108Y-123208920D01*
X102871078Y-123041890D01*
X102685405Y-122911879D01*
X102641780Y-122857302D01*
X102634588Y-122787804D01*
X102666110Y-122725449D01*
X102685406Y-122708730D01*
X102686279Y-122708119D01*
X102871401Y-122578495D01*
X103038495Y-122411401D01*
X103174035Y-122217830D01*
X103273903Y-122003663D01*
X103335063Y-121775408D01*
X103355659Y-121540000D01*
X103335063Y-121304592D01*
X103284204Y-121114782D01*
X103273905Y-121076344D01*
X103273904Y-121076343D01*
X103273903Y-121076337D01*
X103174035Y-120862171D01*
X103038495Y-120668599D01*
X102916567Y-120546671D01*
X102883084Y-120485351D01*
X102888068Y-120415659D01*
X102929939Y-120359725D01*
X102960915Y-120342810D01*
X103092331Y-120293796D01*
X103207546Y-120207546D01*
X103288055Y-120100000D01*
X148694540Y-120100000D01*
X148714326Y-120288256D01*
X148714327Y-120288259D01*
X148772818Y-120468277D01*
X148772821Y-120468284D01*
X148867467Y-120632216D01*
X148994129Y-120772888D01*
X149147265Y-120884148D01*
X149147270Y-120884151D01*
X149320192Y-120961142D01*
X149320197Y-120961144D01*
X149505354Y-121000500D01*
X149505355Y-121000500D01*
X149694644Y-121000500D01*
X149694646Y-121000500D01*
X149879803Y-120961144D01*
X150052730Y-120884151D01*
X150205871Y-120772888D01*
X150332533Y-120632216D01*
X150427179Y-120468284D01*
X150485674Y-120288256D01*
X150505460Y-120100000D01*
X150485674Y-119911744D01*
X150427179Y-119731716D01*
X150332533Y-119567784D01*
X150205871Y-119427112D01*
X150205870Y-119427111D01*
X150052734Y-119315851D01*
X150052729Y-119315848D01*
X149879807Y-119238857D01*
X149879802Y-119238855D01*
X149734001Y-119207865D01*
X149694646Y-119199500D01*
X149505354Y-119199500D01*
X149472897Y-119206398D01*
X149320197Y-119238855D01*
X149320192Y-119238857D01*
X149147270Y-119315848D01*
X149147265Y-119315851D01*
X148994129Y-119427111D01*
X148867466Y-119567785D01*
X148772821Y-119731715D01*
X148772818Y-119731722D01*
X148717977Y-119900506D01*
X148714326Y-119911744D01*
X148694540Y-120100000D01*
X103288055Y-120100000D01*
X103293796Y-120092331D01*
X103344091Y-119957483D01*
X103350500Y-119897873D01*
X103350500Y-119000006D01*
X145294540Y-119000006D01*
X145314326Y-119188262D01*
X145314327Y-119188265D01*
X145372818Y-119368283D01*
X145372821Y-119368290D01*
X145467467Y-119532222D01*
X145594129Y-119672894D01*
X145747265Y-119784154D01*
X145747270Y-119784157D01*
X145920192Y-119861148D01*
X145920197Y-119861150D01*
X146105354Y-119900506D01*
X146105355Y-119900506D01*
X146294644Y-119900506D01*
X146294646Y-119900506D01*
X146479803Y-119861150D01*
X146652730Y-119784157D01*
X146805871Y-119672894D01*
X146932533Y-119532222D01*
X147027179Y-119368290D01*
X147085674Y-119188262D01*
X147105460Y-119000006D01*
X147085674Y-118811750D01*
X147027179Y-118631722D01*
X146932533Y-118467790D01*
X146805871Y-118327118D01*
X146805870Y-118327117D01*
X146652734Y-118215857D01*
X146652729Y-118215854D01*
X146479807Y-118138863D01*
X146479802Y-118138861D01*
X146334001Y-118107871D01*
X146294646Y-118099506D01*
X146105354Y-118099506D01*
X146072897Y-118106404D01*
X145920197Y-118138861D01*
X145920192Y-118138863D01*
X145747270Y-118215854D01*
X145747265Y-118215857D01*
X145594129Y-118327117D01*
X145467466Y-118467791D01*
X145372821Y-118631721D01*
X145372818Y-118631728D01*
X145314327Y-118811746D01*
X145314326Y-118811750D01*
X145294540Y-119000006D01*
X103350500Y-119000006D01*
X103350499Y-118102128D01*
X103344091Y-118042517D01*
X103328420Y-118000502D01*
X103293797Y-117907671D01*
X103293793Y-117907664D01*
X103207547Y-117792455D01*
X103207544Y-117792452D01*
X103092335Y-117706206D01*
X103092328Y-117706202D01*
X102957482Y-117655908D01*
X102957483Y-117655908D01*
X102897883Y-117649501D01*
X102897881Y-117649500D01*
X102897873Y-117649500D01*
X102897864Y-117649500D01*
X101102129Y-117649500D01*
X101102123Y-117649501D01*
X101042516Y-117655908D01*
X100907671Y-117706202D01*
X100907664Y-117706206D01*
X100792455Y-117792452D01*
X100792452Y-117792455D01*
X100723766Y-117884208D01*
X100667832Y-117926079D01*
X100598141Y-117931063D01*
X100536818Y-117897577D01*
X100503334Y-117836254D01*
X100500500Y-117809897D01*
X100500500Y-117100002D01*
X132794540Y-117100002D01*
X132814326Y-117288258D01*
X132814327Y-117288261D01*
X132872818Y-117468279D01*
X132872821Y-117468286D01*
X132967467Y-117632218D01*
X133094129Y-117772890D01*
X133247265Y-117884150D01*
X133247270Y-117884153D01*
X133420192Y-117961144D01*
X133420197Y-117961146D01*
X133605354Y-118000502D01*
X133605355Y-118000502D01*
X133794644Y-118000502D01*
X133794646Y-118000502D01*
X133979803Y-117961146D01*
X134152730Y-117884153D01*
X134305871Y-117772890D01*
X134432533Y-117632218D01*
X134527179Y-117468286D01*
X134585674Y-117288258D01*
X134605460Y-117100002D01*
X134585674Y-116911746D01*
X134527179Y-116731718D01*
X134432533Y-116567786D01*
X134305871Y-116427114D01*
X134269240Y-116400500D01*
X134152734Y-116315853D01*
X134152729Y-116315850D01*
X133979807Y-116238859D01*
X133979802Y-116238857D01*
X133834001Y-116207867D01*
X133794646Y-116199502D01*
X133605354Y-116199502D01*
X133572897Y-116206400D01*
X133420197Y-116238857D01*
X133420192Y-116238859D01*
X133247270Y-116315850D01*
X133247265Y-116315853D01*
X133094129Y-116427113D01*
X132967466Y-116567787D01*
X132872821Y-116731717D01*
X132872818Y-116731724D01*
X132814327Y-116911742D01*
X132814326Y-116911746D01*
X132794540Y-117100002D01*
X100500500Y-117100002D01*
X100500500Y-115500000D01*
X114494540Y-115500000D01*
X114514326Y-115688256D01*
X114514327Y-115688259D01*
X114572818Y-115868277D01*
X114572821Y-115868284D01*
X114667467Y-116032216D01*
X114794129Y-116172888D01*
X114947265Y-116284148D01*
X114947270Y-116284151D01*
X115120192Y-116361142D01*
X115120197Y-116361144D01*
X115305354Y-116400500D01*
X115305355Y-116400500D01*
X115494644Y-116400500D01*
X115494646Y-116400500D01*
X115679803Y-116361144D01*
X115852730Y-116284151D01*
X116005871Y-116172888D01*
X116132533Y-116032216D01*
X116227179Y-115868284D01*
X116285674Y-115688256D01*
X116305460Y-115500000D01*
X116285674Y-115311744D01*
X116227179Y-115131716D01*
X116132533Y-114967784D01*
X116005871Y-114827112D01*
X116005870Y-114827111D01*
X115852734Y-114715851D01*
X115852729Y-114715848D01*
X115679807Y-114638857D01*
X115679802Y-114638855D01*
X115534001Y-114607865D01*
X115494646Y-114599500D01*
X115305354Y-114599500D01*
X115272897Y-114606398D01*
X115120197Y-114638855D01*
X115120192Y-114638857D01*
X114947270Y-114715848D01*
X114947265Y-114715851D01*
X114794129Y-114827111D01*
X114667466Y-114967785D01*
X114572821Y-115131715D01*
X114572818Y-115131722D01*
X114514327Y-115311740D01*
X114514326Y-115311744D01*
X114494540Y-115500000D01*
X100500500Y-115500000D01*
X100500500Y-111100000D01*
X139294540Y-111100000D01*
X139314326Y-111288256D01*
X139314327Y-111288259D01*
X139372818Y-111468277D01*
X139372821Y-111468284D01*
X139467467Y-111632216D01*
X139594129Y-111772888D01*
X139747265Y-111884148D01*
X139747270Y-111884151D01*
X139920192Y-111961142D01*
X139920197Y-111961144D01*
X140105354Y-112000500D01*
X140105355Y-112000500D01*
X140294644Y-112000500D01*
X140294646Y-112000500D01*
X140479803Y-111961144D01*
X140652730Y-111884151D01*
X140805871Y-111772888D01*
X140932533Y-111632216D01*
X141027179Y-111468284D01*
X141085674Y-111288256D01*
X141105460Y-111100000D01*
X141085674Y-110911744D01*
X141027179Y-110731716D01*
X140932533Y-110567784D01*
X140805871Y-110427112D01*
X140805870Y-110427111D01*
X140652734Y-110315851D01*
X140652729Y-110315848D01*
X140479807Y-110238857D01*
X140479802Y-110238855D01*
X140334001Y-110207865D01*
X140294646Y-110199500D01*
X140105354Y-110199500D01*
X140072897Y-110206398D01*
X139920197Y-110238855D01*
X139920192Y-110238857D01*
X139747270Y-110315848D01*
X139747265Y-110315851D01*
X139594129Y-110427111D01*
X139467466Y-110567785D01*
X139372821Y-110731715D01*
X139372818Y-110731722D01*
X139314327Y-110911740D01*
X139314326Y-110911744D01*
X139294540Y-111100000D01*
X100500500Y-111100000D01*
X100500500Y-109000000D01*
X115394540Y-109000000D01*
X115414326Y-109188256D01*
X115414327Y-109188259D01*
X115472818Y-109368277D01*
X115472821Y-109368284D01*
X115567467Y-109532216D01*
X115665786Y-109641410D01*
X115694129Y-109672888D01*
X115847265Y-109784148D01*
X115847270Y-109784151D01*
X116020192Y-109861142D01*
X116020197Y-109861144D01*
X116205354Y-109900500D01*
X116205355Y-109900500D01*
X116394644Y-109900500D01*
X116394646Y-109900500D01*
X116579803Y-109861144D01*
X116752730Y-109784151D01*
X116905871Y-109672888D01*
X117032533Y-109532216D01*
X117127179Y-109368284D01*
X117185674Y-109188256D01*
X117194950Y-109100000D01*
X132294540Y-109100000D01*
X132314326Y-109288256D01*
X132314327Y-109288259D01*
X132372818Y-109468277D01*
X132372821Y-109468284D01*
X132467467Y-109632216D01*
X132539071Y-109711740D01*
X132594129Y-109772888D01*
X132747265Y-109884148D01*
X132747270Y-109884151D01*
X132920192Y-109961142D01*
X132920197Y-109961144D01*
X133105354Y-110000500D01*
X133105355Y-110000500D01*
X133294644Y-110000500D01*
X133294646Y-110000500D01*
X133479803Y-109961144D01*
X133652730Y-109884151D01*
X133805871Y-109772888D01*
X133892454Y-109676727D01*
X133951938Y-109640080D01*
X134021795Y-109641410D01*
X134079844Y-109680297D01*
X134107654Y-109744393D01*
X134107923Y-109772662D01*
X134106716Y-109784148D01*
X134094540Y-109900000D01*
X134114326Y-110088256D01*
X134114327Y-110088259D01*
X134172818Y-110268277D01*
X134172821Y-110268284D01*
X134267467Y-110432216D01*
X134389533Y-110567784D01*
X134394129Y-110572888D01*
X134547265Y-110684148D01*
X134547270Y-110684151D01*
X134720192Y-110761142D01*
X134720197Y-110761144D01*
X134905354Y-110800500D01*
X134905355Y-110800500D01*
X135094644Y-110800500D01*
X135094646Y-110800500D01*
X135279803Y-110761144D01*
X135452730Y-110684151D01*
X135605871Y-110572888D01*
X135732533Y-110432216D01*
X135827179Y-110268284D01*
X135885674Y-110088256D01*
X135905460Y-109900000D01*
X135885674Y-109711744D01*
X135831112Y-109543823D01*
X135827181Y-109531722D01*
X135827180Y-109531721D01*
X135827179Y-109531716D01*
X135732533Y-109367784D01*
X135605871Y-109227112D01*
X135605867Y-109227109D01*
X135452734Y-109115851D01*
X135452729Y-109115848D01*
X135279807Y-109038857D01*
X135279802Y-109038855D01*
X135134001Y-109007865D01*
X135094646Y-108999500D01*
X134905354Y-108999500D01*
X134872897Y-109006398D01*
X134720197Y-109038855D01*
X134720192Y-109038857D01*
X134547270Y-109115848D01*
X134547265Y-109115851D01*
X134394132Y-109227109D01*
X134394129Y-109227111D01*
X134394129Y-109227112D01*
X134368475Y-109255604D01*
X134307547Y-109323271D01*
X134248060Y-109359919D01*
X134178203Y-109358588D01*
X134120155Y-109319701D01*
X134092345Y-109255604D01*
X134092076Y-109227342D01*
X134105460Y-109100000D01*
X134085674Y-108911744D01*
X134027179Y-108731716D01*
X133932533Y-108567784D01*
X133805871Y-108427112D01*
X133805870Y-108427111D01*
X133652734Y-108315851D01*
X133652729Y-108315848D01*
X133479807Y-108238857D01*
X133479802Y-108238855D01*
X133334001Y-108207865D01*
X133294646Y-108199500D01*
X133105354Y-108199500D01*
X133072897Y-108206398D01*
X132920197Y-108238855D01*
X132920192Y-108238857D01*
X132747270Y-108315848D01*
X132747265Y-108315851D01*
X132594129Y-108427111D01*
X132467466Y-108567785D01*
X132372821Y-108731715D01*
X132372818Y-108731722D01*
X132314327Y-108911740D01*
X132314326Y-108911744D01*
X132294540Y-109100000D01*
X117194950Y-109100000D01*
X117205460Y-109000000D01*
X117185674Y-108811744D01*
X117127179Y-108631716D01*
X117032533Y-108467784D01*
X116905871Y-108327112D01*
X116890369Y-108315849D01*
X116752734Y-108215851D01*
X116752729Y-108215848D01*
X116579807Y-108138857D01*
X116579802Y-108138855D01*
X116434001Y-108107865D01*
X116394646Y-108099500D01*
X116205354Y-108099500D01*
X116172897Y-108106398D01*
X116020197Y-108138855D01*
X116020192Y-108138857D01*
X115847270Y-108215848D01*
X115847265Y-108215851D01*
X115694129Y-108327111D01*
X115567466Y-108467785D01*
X115472821Y-108631715D01*
X115472818Y-108631722D01*
X115414327Y-108811740D01*
X115414326Y-108811744D01*
X115394540Y-109000000D01*
X100500500Y-109000000D01*
X100500500Y-103300000D01*
X122094540Y-103300000D01*
X122114326Y-103488256D01*
X122114327Y-103488259D01*
X122172818Y-103668277D01*
X122172821Y-103668284D01*
X122267467Y-103832216D01*
X122339071Y-103911740D01*
X122394129Y-103972888D01*
X122547265Y-104084148D01*
X122547270Y-104084151D01*
X122720192Y-104161142D01*
X122720197Y-104161144D01*
X122905354Y-104200500D01*
X122905355Y-104200500D01*
X123094644Y-104200500D01*
X123094646Y-104200500D01*
X123279803Y-104161144D01*
X123417133Y-104100000D01*
X136094540Y-104100000D01*
X136114326Y-104288256D01*
X136114327Y-104288259D01*
X136172818Y-104468277D01*
X136172821Y-104468284D01*
X136267467Y-104632216D01*
X136394129Y-104772888D01*
X136547265Y-104884148D01*
X136547270Y-104884151D01*
X136720192Y-104961142D01*
X136720197Y-104961144D01*
X136905354Y-105000500D01*
X136905355Y-105000500D01*
X137094644Y-105000500D01*
X137094646Y-105000500D01*
X137279803Y-104961144D01*
X137452730Y-104884151D01*
X137605871Y-104772888D01*
X137732533Y-104632216D01*
X137827179Y-104468284D01*
X137885674Y-104288256D01*
X137905460Y-104100000D01*
X137885674Y-103911744D01*
X137827179Y-103731716D01*
X137732533Y-103567784D01*
X137605871Y-103427112D01*
X137605870Y-103427111D01*
X137452734Y-103315851D01*
X137452729Y-103315848D01*
X137279807Y-103238857D01*
X137279802Y-103238855D01*
X137134001Y-103207865D01*
X137094646Y-103199500D01*
X136905354Y-103199500D01*
X136872897Y-103206398D01*
X136720197Y-103238855D01*
X136720192Y-103238857D01*
X136547270Y-103315848D01*
X136547265Y-103315851D01*
X136394129Y-103427111D01*
X136267466Y-103567785D01*
X136172821Y-103731715D01*
X136172818Y-103731722D01*
X136140166Y-103832216D01*
X136114326Y-103911744D01*
X136094540Y-104100000D01*
X123417133Y-104100000D01*
X123452730Y-104084151D01*
X123605871Y-103972888D01*
X123732533Y-103832216D01*
X123827179Y-103668284D01*
X123885674Y-103488256D01*
X123905460Y-103300000D01*
X123885674Y-103111744D01*
X123827179Y-102931716D01*
X123732533Y-102767784D01*
X123605871Y-102627112D01*
X123605870Y-102627111D01*
X123452734Y-102515851D01*
X123452729Y-102515848D01*
X123279807Y-102438857D01*
X123279802Y-102438855D01*
X123134001Y-102407865D01*
X123094646Y-102399500D01*
X122905354Y-102399500D01*
X122872897Y-102406398D01*
X122720197Y-102438855D01*
X122720192Y-102438857D01*
X122547270Y-102515848D01*
X122547265Y-102515851D01*
X122394129Y-102627111D01*
X122267466Y-102767785D01*
X122172821Y-102931715D01*
X122172818Y-102931722D01*
X122114327Y-103111740D01*
X122114326Y-103111744D01*
X122094540Y-103300000D01*
X100500500Y-103300000D01*
X100500500Y-101038772D01*
X139803748Y-101038772D01*
X139823534Y-101227028D01*
X139823535Y-101227031D01*
X139882026Y-101407049D01*
X139882029Y-101407056D01*
X139976675Y-101570988D01*
X140103337Y-101711660D01*
X140256473Y-101822920D01*
X140256478Y-101822923D01*
X140429400Y-101899914D01*
X140429405Y-101899916D01*
X140614562Y-101939272D01*
X140614563Y-101939272D01*
X140803852Y-101939272D01*
X140803854Y-101939272D01*
X140989011Y-101899916D01*
X141161938Y-101822923D01*
X141315079Y-101711660D01*
X141441741Y-101570988D01*
X141536387Y-101407056D01*
X141594882Y-101227028D01*
X141614668Y-101038772D01*
X141594882Y-100850516D01*
X141536387Y-100670488D01*
X141441741Y-100506556D01*
X141315079Y-100365884D01*
X141315078Y-100365883D01*
X141161942Y-100254623D01*
X141161937Y-100254620D01*
X140989015Y-100177629D01*
X140989010Y-100177627D01*
X140843209Y-100146637D01*
X140803854Y-100138272D01*
X140614562Y-100138272D01*
X140582105Y-100145170D01*
X140429405Y-100177627D01*
X140429400Y-100177629D01*
X140256478Y-100254620D01*
X140256473Y-100254623D01*
X140103337Y-100365883D01*
X139976674Y-100506557D01*
X139882029Y-100670487D01*
X139882026Y-100670494D01*
X139823535Y-100850512D01*
X139823534Y-100850516D01*
X139803748Y-101038772D01*
X100500500Y-101038772D01*
X100500500Y-95200000D01*
X130894540Y-95200000D01*
X130914326Y-95388256D01*
X130914327Y-95388259D01*
X130972818Y-95568277D01*
X130972821Y-95568284D01*
X131067467Y-95732216D01*
X131163487Y-95838857D01*
X131194129Y-95872888D01*
X131347265Y-95984148D01*
X131347270Y-95984151D01*
X131520192Y-96061142D01*
X131520197Y-96061144D01*
X131705354Y-96100500D01*
X131705355Y-96100500D01*
X131894644Y-96100500D01*
X131894646Y-96100500D01*
X132079803Y-96061144D01*
X132156239Y-96027112D01*
X132186662Y-96013567D01*
X132255912Y-96004282D01*
X132319189Y-96033910D01*
X132355029Y-96088527D01*
X132372819Y-96143280D01*
X132372821Y-96143284D01*
X132467467Y-96307216D01*
X132530336Y-96377039D01*
X132594129Y-96447888D01*
X132747265Y-96559148D01*
X132747270Y-96559151D01*
X132920192Y-96636142D01*
X132920197Y-96636144D01*
X133105354Y-96675500D01*
X133105355Y-96675500D01*
X133294644Y-96675500D01*
X133294646Y-96675500D01*
X133479803Y-96636144D01*
X133652730Y-96559151D01*
X133805871Y-96447888D01*
X133930591Y-96309372D01*
X133990075Y-96272725D01*
X134059932Y-96274055D01*
X134117981Y-96312942D01*
X134145791Y-96377039D01*
X134140670Y-96430664D01*
X134135074Y-96447888D01*
X134114326Y-96511744D01*
X134094540Y-96700000D01*
X134114326Y-96888256D01*
X134114327Y-96888259D01*
X134172818Y-97068277D01*
X134172821Y-97068284D01*
X134267467Y-97232216D01*
X134394129Y-97372888D01*
X134547265Y-97484148D01*
X134547270Y-97484151D01*
X134720192Y-97561142D01*
X134720197Y-97561144D01*
X134905354Y-97600500D01*
X134905355Y-97600500D01*
X135094644Y-97600500D01*
X135094646Y-97600500D01*
X135279803Y-97561144D01*
X135452730Y-97484151D01*
X135605871Y-97372888D01*
X135732533Y-97232216D01*
X135827179Y-97068284D01*
X135885674Y-96888256D01*
X135905460Y-96700000D01*
X135885674Y-96511744D01*
X135827179Y-96331716D01*
X135732533Y-96167784D01*
X135605871Y-96027112D01*
X135587228Y-96013567D01*
X135452734Y-95915851D01*
X135452729Y-95915848D01*
X135279807Y-95838857D01*
X135279802Y-95838855D01*
X135134001Y-95807865D01*
X135094646Y-95799500D01*
X134905354Y-95799500D01*
X134872897Y-95806398D01*
X134720197Y-95838855D01*
X134720192Y-95838857D01*
X134547270Y-95915848D01*
X134547265Y-95915851D01*
X134394132Y-96027109D01*
X134394129Y-96027111D01*
X134394129Y-96027112D01*
X134338831Y-96088527D01*
X134269410Y-96165626D01*
X134209923Y-96202274D01*
X134140066Y-96200943D01*
X134082018Y-96162056D01*
X134054208Y-96097959D01*
X134059328Y-96044338D01*
X134085674Y-95963256D01*
X134105460Y-95775000D01*
X134085674Y-95586744D01*
X134027179Y-95406716D01*
X133932533Y-95242784D01*
X133805871Y-95102112D01*
X133805870Y-95102111D01*
X133652734Y-94990851D01*
X133652729Y-94990848D01*
X133479807Y-94913857D01*
X133479802Y-94913855D01*
X133334001Y-94882865D01*
X133294646Y-94874500D01*
X133105354Y-94874500D01*
X133072897Y-94881398D01*
X132920197Y-94913855D01*
X132920192Y-94913857D01*
X132813337Y-94961433D01*
X132744087Y-94970718D01*
X132680810Y-94941090D01*
X132644970Y-94886471D01*
X132627182Y-94831724D01*
X132627180Y-94831720D01*
X132627179Y-94831716D01*
X132532533Y-94667784D01*
X132405871Y-94527112D01*
X132405870Y-94527111D01*
X132252734Y-94415851D01*
X132252729Y-94415848D01*
X132079807Y-94338857D01*
X132079802Y-94338855D01*
X131934001Y-94307865D01*
X131894646Y-94299500D01*
X131705354Y-94299500D01*
X131672897Y-94306398D01*
X131520197Y-94338855D01*
X131520192Y-94338857D01*
X131347270Y-94415848D01*
X131347265Y-94415851D01*
X131194129Y-94527111D01*
X131067466Y-94667785D01*
X130972821Y-94831715D01*
X130972818Y-94831722D01*
X130914327Y-95011740D01*
X130914326Y-95011744D01*
X130894540Y-95200000D01*
X100500500Y-95200000D01*
X100500500Y-91900000D01*
X106594540Y-91900000D01*
X106614326Y-92088256D01*
X106614327Y-92088259D01*
X106672818Y-92268277D01*
X106672821Y-92268284D01*
X106767467Y-92432216D01*
X106894129Y-92572888D01*
X107047265Y-92684148D01*
X107047270Y-92684151D01*
X107220192Y-92761142D01*
X107220197Y-92761144D01*
X107405354Y-92800500D01*
X107405355Y-92800500D01*
X107594644Y-92800500D01*
X107594646Y-92800500D01*
X107770859Y-92763045D01*
X107840526Y-92768361D01*
X107896260Y-92810498D01*
X107904027Y-92822335D01*
X107967465Y-92932214D01*
X108094129Y-93072888D01*
X108247265Y-93184148D01*
X108247270Y-93184151D01*
X108420192Y-93261142D01*
X108420197Y-93261144D01*
X108605354Y-93300500D01*
X108605355Y-93300500D01*
X108794644Y-93300500D01*
X108794646Y-93300500D01*
X108979803Y-93261144D01*
X109152730Y-93184151D01*
X109305871Y-93072888D01*
X109432533Y-92932216D01*
X109527179Y-92768284D01*
X109585674Y-92588256D01*
X109605460Y-92400000D01*
X109585674Y-92211744D01*
X109527179Y-92031716D01*
X109432533Y-91867784D01*
X109371500Y-91800000D01*
X109894540Y-91800000D01*
X109914326Y-91988256D01*
X109914327Y-91988259D01*
X109972818Y-92168277D01*
X109972821Y-92168284D01*
X110067467Y-92332216D01*
X110157506Y-92432214D01*
X110194129Y-92472888D01*
X110347265Y-92584148D01*
X110347270Y-92584151D01*
X110520192Y-92661142D01*
X110520197Y-92661144D01*
X110705354Y-92700500D01*
X110705355Y-92700500D01*
X110894644Y-92700500D01*
X110894646Y-92700500D01*
X111079803Y-92661144D01*
X111252730Y-92584151D01*
X111405871Y-92472888D01*
X111532533Y-92332216D01*
X111627179Y-92168284D01*
X111685674Y-91988256D01*
X111705460Y-91800000D01*
X111685674Y-91611744D01*
X111681858Y-91600000D01*
X139919540Y-91600000D01*
X139939326Y-91788256D01*
X139939327Y-91788259D01*
X139997818Y-91968277D01*
X139997821Y-91968284D01*
X140092467Y-92132216D01*
X140124937Y-92168277D01*
X140219129Y-92272888D01*
X140372265Y-92384148D01*
X140372270Y-92384151D01*
X140545192Y-92461142D01*
X140545197Y-92461144D01*
X140730354Y-92500500D01*
X140730355Y-92500500D01*
X140919644Y-92500500D01*
X140919646Y-92500500D01*
X141104803Y-92461144D01*
X141277730Y-92384151D01*
X141430871Y-92272888D01*
X141557533Y-92132216D01*
X141652179Y-91968284D01*
X141710674Y-91788256D01*
X141730460Y-91600000D01*
X141710674Y-91411744D01*
X141652179Y-91231716D01*
X141557533Y-91067784D01*
X141430871Y-90927112D01*
X141430870Y-90927111D01*
X141277734Y-90815851D01*
X141277729Y-90815848D01*
X141104807Y-90738857D01*
X141104802Y-90738855D01*
X140959001Y-90707865D01*
X140919646Y-90699500D01*
X140730354Y-90699500D01*
X140697897Y-90706398D01*
X140545197Y-90738855D01*
X140545192Y-90738857D01*
X140372270Y-90815848D01*
X140372265Y-90815851D01*
X140219129Y-90927111D01*
X140092466Y-91067785D01*
X139997821Y-91231715D01*
X139997818Y-91231722D01*
X139953609Y-91367785D01*
X139939326Y-91411744D01*
X139919540Y-91600000D01*
X111681858Y-91600000D01*
X111627179Y-91431716D01*
X111532533Y-91267784D01*
X111405871Y-91127112D01*
X111390369Y-91115849D01*
X111252734Y-91015851D01*
X111252729Y-91015848D01*
X111079807Y-90938857D01*
X111079802Y-90938855D01*
X110934001Y-90907865D01*
X110894646Y-90899500D01*
X110705354Y-90899500D01*
X110672897Y-90906398D01*
X110520197Y-90938855D01*
X110520192Y-90938857D01*
X110347270Y-91015848D01*
X110347265Y-91015851D01*
X110194129Y-91127111D01*
X110067466Y-91267785D01*
X109972821Y-91431715D01*
X109972818Y-91431722D01*
X109926546Y-91574134D01*
X109914326Y-91611744D01*
X109894540Y-91800000D01*
X109371500Y-91800000D01*
X109305871Y-91727112D01*
X109284719Y-91711744D01*
X109152734Y-91615851D01*
X109152729Y-91615848D01*
X108979807Y-91538857D01*
X108979802Y-91538855D01*
X108834001Y-91507865D01*
X108794646Y-91499500D01*
X108605354Y-91499500D01*
X108605352Y-91499500D01*
X108429140Y-91536954D01*
X108359473Y-91531638D01*
X108303740Y-91489500D01*
X108295973Y-91477664D01*
X108257735Y-91411435D01*
X108232533Y-91367784D01*
X108105871Y-91227112D01*
X108105870Y-91227111D01*
X107952734Y-91115851D01*
X107952729Y-91115848D01*
X107779807Y-91038857D01*
X107779802Y-91038855D01*
X107634001Y-91007865D01*
X107594646Y-90999500D01*
X107405354Y-90999500D01*
X107372897Y-91006398D01*
X107220197Y-91038855D01*
X107220192Y-91038857D01*
X107047270Y-91115848D01*
X107047265Y-91115851D01*
X106894129Y-91227111D01*
X106767466Y-91367785D01*
X106672821Y-91531715D01*
X106672818Y-91531722D01*
X106614327Y-91711740D01*
X106614326Y-91711744D01*
X106594540Y-91900000D01*
X100500500Y-91900000D01*
X100500500Y-86200000D01*
X117994540Y-86200000D01*
X118014326Y-86388256D01*
X118014327Y-86388259D01*
X118072818Y-86568277D01*
X118072821Y-86568284D01*
X118167467Y-86732216D01*
X118294129Y-86872888D01*
X118447265Y-86984148D01*
X118447270Y-86984151D01*
X118620192Y-87061142D01*
X118620197Y-87061144D01*
X118805354Y-87100500D01*
X118805355Y-87100500D01*
X118994644Y-87100500D01*
X118994646Y-87100500D01*
X119179803Y-87061144D01*
X119352730Y-86984151D01*
X119505871Y-86872888D01*
X119632533Y-86732216D01*
X119727179Y-86568284D01*
X119785674Y-86388256D01*
X119805460Y-86200000D01*
X119785674Y-86011744D01*
X119727179Y-85831716D01*
X119632533Y-85667784D01*
X119505871Y-85527112D01*
X119505870Y-85527111D01*
X119352734Y-85415851D01*
X119352729Y-85415848D01*
X119179807Y-85338857D01*
X119179802Y-85338855D01*
X119034001Y-85307865D01*
X118994646Y-85299500D01*
X118805354Y-85299500D01*
X118772897Y-85306398D01*
X118620197Y-85338855D01*
X118620192Y-85338857D01*
X118447270Y-85415848D01*
X118447265Y-85415851D01*
X118294129Y-85527111D01*
X118167466Y-85667785D01*
X118072821Y-85831715D01*
X118072818Y-85831722D01*
X118014327Y-86011740D01*
X118014326Y-86011744D01*
X117994540Y-86200000D01*
X100500500Y-86200000D01*
X100500500Y-76319196D01*
X100520185Y-76252157D01*
X100572989Y-76206402D01*
X100642147Y-76196458D01*
X100705703Y-76225483D01*
X100736881Y-76266790D01*
X100746891Y-76288256D01*
X100825965Y-76457830D01*
X100825967Y-76457834D01*
X100934281Y-76612521D01*
X100961505Y-76651401D01*
X101128599Y-76818495D01*
X101225384Y-76886265D01*
X101322165Y-76954032D01*
X101322167Y-76954033D01*
X101322170Y-76954035D01*
X101536337Y-77053903D01*
X101764592Y-77115063D01*
X101952918Y-77131539D01*
X101999999Y-77135659D01*
X102000000Y-77135659D01*
X102000001Y-77135659D01*
X102039234Y-77132226D01*
X102235408Y-77115063D01*
X102463663Y-77053903D01*
X102677830Y-76954035D01*
X102871401Y-76818495D01*
X103038495Y-76651401D01*
X103174035Y-76457830D01*
X103273903Y-76243663D01*
X103335063Y-76015408D01*
X103338161Y-75979999D01*
X107844341Y-75979999D01*
X107844341Y-75980000D01*
X107864936Y-76215403D01*
X107864938Y-76215413D01*
X107926094Y-76443655D01*
X107926096Y-76443659D01*
X107926097Y-76443663D01*
X107984590Y-76569101D01*
X108025965Y-76657830D01*
X108025967Y-76657834D01*
X108161501Y-76851395D01*
X108161506Y-76851402D01*
X108328597Y-77018493D01*
X108328603Y-77018498D01*
X108514158Y-77148425D01*
X108557783Y-77203002D01*
X108564977Y-77272500D01*
X108533454Y-77334855D01*
X108514158Y-77351575D01*
X108328597Y-77481505D01*
X108161505Y-77648597D01*
X108025965Y-77842169D01*
X108025964Y-77842171D01*
X107926098Y-78056335D01*
X107926094Y-78056344D01*
X107864938Y-78284586D01*
X107864936Y-78284596D01*
X107844341Y-78519999D01*
X107844341Y-78520000D01*
X107864936Y-78755403D01*
X107864938Y-78755413D01*
X107926094Y-78983655D01*
X107926096Y-78983659D01*
X107926097Y-78983663D01*
X107971284Y-79080566D01*
X108025965Y-79197830D01*
X108025967Y-79197834D01*
X108092133Y-79292328D01*
X108161505Y-79391401D01*
X108328599Y-79558495D01*
X108501288Y-79679413D01*
X108514595Y-79688731D01*
X108558219Y-79743308D01*
X108565412Y-79812807D01*
X108533890Y-79875161D01*
X108514594Y-79891881D01*
X108438627Y-79945073D01*
X108438626Y-79945073D01*
X109070591Y-80577037D01*
X109007007Y-80594075D01*
X108892993Y-80659901D01*
X108799901Y-80752993D01*
X108734075Y-80867007D01*
X108717037Y-80930590D01*
X108085073Y-80298626D01*
X108085073Y-80298627D01*
X108026400Y-80382421D01*
X108026399Y-80382423D01*
X107926570Y-80596507D01*
X107926566Y-80596516D01*
X107865432Y-80824673D01*
X107865430Y-80824684D01*
X107844843Y-81059998D01*
X107844843Y-81060001D01*
X107865430Y-81295315D01*
X107865432Y-81295326D01*
X107926566Y-81523483D01*
X107926570Y-81523492D01*
X108026398Y-81737576D01*
X108085073Y-81821372D01*
X108717037Y-81189408D01*
X108734075Y-81252993D01*
X108799901Y-81367007D01*
X108892993Y-81460099D01*
X109007007Y-81525925D01*
X109070591Y-81542962D01*
X108400371Y-82213181D01*
X108339048Y-82246666D01*
X108312699Y-82249500D01*
X108302134Y-82249500D01*
X108302123Y-82249501D01*
X108242516Y-82255908D01*
X108107671Y-82306202D01*
X108107664Y-82306206D01*
X107992455Y-82392452D01*
X107992452Y-82392455D01*
X107906206Y-82507664D01*
X107906202Y-82507671D01*
X107855908Y-82642517D01*
X107849501Y-82702116D01*
X107849501Y-82702123D01*
X107849500Y-82702135D01*
X107849500Y-84497870D01*
X107849501Y-84497876D01*
X107855908Y-84557483D01*
X107906202Y-84692328D01*
X107906206Y-84692335D01*
X107992452Y-84807544D01*
X107992455Y-84807547D01*
X108107664Y-84893793D01*
X108107671Y-84893797D01*
X108242517Y-84944091D01*
X108242516Y-84944091D01*
X108249444Y-84944835D01*
X108302127Y-84950500D01*
X110097872Y-84950499D01*
X110157483Y-84944091D01*
X110292331Y-84893796D01*
X110407546Y-84807546D01*
X110493796Y-84692331D01*
X110544091Y-84557483D01*
X110550500Y-84497873D01*
X110550499Y-83300000D01*
X138194540Y-83300000D01*
X138214326Y-83488256D01*
X138214327Y-83488259D01*
X138272818Y-83668277D01*
X138272821Y-83668284D01*
X138367467Y-83832216D01*
X138494129Y-83972888D01*
X138647265Y-84084148D01*
X138647270Y-84084151D01*
X138820192Y-84161142D01*
X138820197Y-84161144D01*
X139005354Y-84200500D01*
X139005355Y-84200500D01*
X139194644Y-84200500D01*
X139194646Y-84200500D01*
X139379803Y-84161144D01*
X139552730Y-84084151D01*
X139705871Y-83972888D01*
X139832533Y-83832216D01*
X139927179Y-83668284D01*
X139985674Y-83488256D01*
X140005460Y-83300000D01*
X139985674Y-83111744D01*
X139927179Y-82931716D01*
X139832533Y-82767784D01*
X139705871Y-82627112D01*
X139705870Y-82627111D01*
X139552734Y-82515851D01*
X139552729Y-82515848D01*
X139379807Y-82438857D01*
X139379802Y-82438855D01*
X139234001Y-82407865D01*
X139194646Y-82399500D01*
X139005354Y-82399500D01*
X138972897Y-82406398D01*
X138820197Y-82438855D01*
X138820192Y-82438857D01*
X138647270Y-82515848D01*
X138647265Y-82515851D01*
X138494129Y-82627111D01*
X138367466Y-82767785D01*
X138272821Y-82931715D01*
X138272818Y-82931722D01*
X138214327Y-83111740D01*
X138214326Y-83111744D01*
X138194540Y-83300000D01*
X110550499Y-83300000D01*
X110550499Y-82702128D01*
X110544091Y-82642517D01*
X110538345Y-82627112D01*
X110493797Y-82507671D01*
X110493793Y-82507664D01*
X110407547Y-82392455D01*
X110407544Y-82392452D01*
X110292335Y-82306206D01*
X110292328Y-82306202D01*
X110157482Y-82255908D01*
X110157483Y-82255908D01*
X110097883Y-82249501D01*
X110097881Y-82249500D01*
X110097873Y-82249500D01*
X110097865Y-82249500D01*
X110087308Y-82249500D01*
X110020269Y-82229815D01*
X109999627Y-82213181D01*
X109686446Y-81900000D01*
X121294540Y-81900000D01*
X121314326Y-82088256D01*
X121314327Y-82088259D01*
X121372818Y-82268277D01*
X121372821Y-82268284D01*
X121467467Y-82432216D01*
X121542770Y-82515848D01*
X121594129Y-82572888D01*
X121747265Y-82684148D01*
X121747270Y-82684151D01*
X121920192Y-82761142D01*
X121920197Y-82761144D01*
X122105354Y-82800500D01*
X122105355Y-82800500D01*
X122294644Y-82800500D01*
X122294646Y-82800500D01*
X122479803Y-82761144D01*
X122652730Y-82684151D01*
X122805871Y-82572888D01*
X122932533Y-82432216D01*
X123027179Y-82268284D01*
X123085674Y-82088256D01*
X123105460Y-81900000D01*
X123085674Y-81711744D01*
X123027179Y-81531716D01*
X122932533Y-81367784D01*
X122805871Y-81227112D01*
X122805870Y-81227111D01*
X122652734Y-81115851D01*
X122652729Y-81115848D01*
X122479807Y-81038857D01*
X122479802Y-81038855D01*
X122334001Y-81007865D01*
X122294646Y-80999500D01*
X122105354Y-80999500D01*
X122072897Y-81006398D01*
X121920197Y-81038855D01*
X121920192Y-81038857D01*
X121747270Y-81115848D01*
X121747265Y-81115851D01*
X121594129Y-81227111D01*
X121467466Y-81367785D01*
X121372821Y-81531715D01*
X121372818Y-81531722D01*
X121314327Y-81711740D01*
X121314326Y-81711744D01*
X121294540Y-81900000D01*
X109686446Y-81900000D01*
X109329408Y-81542962D01*
X109392993Y-81525925D01*
X109507007Y-81460099D01*
X109600099Y-81367007D01*
X109665925Y-81252993D01*
X109682962Y-81189408D01*
X110314925Y-81821371D01*
X110373599Y-81737580D01*
X110473429Y-81523492D01*
X110473433Y-81523483D01*
X110534567Y-81295326D01*
X110534569Y-81295315D01*
X110555157Y-81060001D01*
X110555157Y-81059998D01*
X110534569Y-80824684D01*
X110534567Y-80824673D01*
X110473433Y-80596516D01*
X110473429Y-80596507D01*
X110373601Y-80382424D01*
X110314925Y-80298626D01*
X109682962Y-80930590D01*
X109665925Y-80867007D01*
X109600099Y-80752993D01*
X109507007Y-80659901D01*
X109392993Y-80594075D01*
X109329409Y-80577037D01*
X109961372Y-79945073D01*
X109961372Y-79945072D01*
X109885405Y-79891879D01*
X109841780Y-79837302D01*
X109834588Y-79767804D01*
X109866110Y-79705449D01*
X109885406Y-79688730D01*
X110071401Y-79558495D01*
X110238495Y-79391401D01*
X110374035Y-79197830D01*
X110473903Y-78983663D01*
X110535063Y-78755408D01*
X110555659Y-78520000D01*
X110535063Y-78284592D01*
X110473903Y-78056337D01*
X110374035Y-77842171D01*
X110368420Y-77834151D01*
X110238494Y-77648597D01*
X110071402Y-77481506D01*
X110071396Y-77481501D01*
X109885842Y-77351575D01*
X109846323Y-77302135D01*
X127374500Y-77302135D01*
X127374500Y-79097870D01*
X127374501Y-79097876D01*
X127380908Y-79157483D01*
X127431202Y-79292328D01*
X127431206Y-79292335D01*
X127517452Y-79407544D01*
X127517455Y-79407547D01*
X127632664Y-79493793D01*
X127632671Y-79493797D01*
X127767517Y-79544091D01*
X127767516Y-79544091D01*
X127774444Y-79544835D01*
X127827127Y-79550500D01*
X129622872Y-79550499D01*
X129682483Y-79544091D01*
X129817331Y-79493796D01*
X129932546Y-79407546D01*
X130018796Y-79292331D01*
X130067810Y-79160916D01*
X130109681Y-79104984D01*
X130175145Y-79080566D01*
X130243418Y-79095417D01*
X130271673Y-79116569D01*
X130393599Y-79238495D01*
X130490384Y-79306265D01*
X130587165Y-79374032D01*
X130587167Y-79374033D01*
X130587170Y-79374035D01*
X130801337Y-79473903D01*
X131029592Y-79535063D01*
X131206034Y-79550500D01*
X131264999Y-79555659D01*
X131265000Y-79555659D01*
X131265001Y-79555659D01*
X131323966Y-79550500D01*
X131500408Y-79535063D01*
X131728663Y-79473903D01*
X131942830Y-79374035D01*
X132136401Y-79238495D01*
X132303495Y-79071401D01*
X132433425Y-78885842D01*
X132488002Y-78842217D01*
X132557500Y-78835023D01*
X132619855Y-78866546D01*
X132636575Y-78885842D01*
X132766500Y-79071395D01*
X132766505Y-79071401D01*
X132933599Y-79238495D01*
X133030384Y-79306265D01*
X133127165Y-79374032D01*
X133127167Y-79374033D01*
X133127170Y-79374035D01*
X133341337Y-79473903D01*
X133569592Y-79535063D01*
X133746034Y-79550500D01*
X133804999Y-79555659D01*
X133805000Y-79555659D01*
X133805001Y-79555659D01*
X133863966Y-79550500D01*
X134040408Y-79535063D01*
X134268663Y-79473903D01*
X134482830Y-79374035D01*
X134676401Y-79238495D01*
X134843495Y-79071401D01*
X134979035Y-78877830D01*
X135078903Y-78663663D01*
X135140063Y-78435408D01*
X135160659Y-78200000D01*
X135140063Y-77964592D01*
X135078903Y-77736337D01*
X134979035Y-77522171D01*
X134973425Y-77514158D01*
X134843494Y-77328597D01*
X134676402Y-77161506D01*
X134676395Y-77161501D01*
X134482834Y-77025967D01*
X134482830Y-77025965D01*
X134466817Y-77018498D01*
X134268663Y-76926097D01*
X134268659Y-76926096D01*
X134268655Y-76926094D01*
X134040413Y-76864938D01*
X134040403Y-76864936D01*
X133805001Y-76844341D01*
X133804999Y-76844341D01*
X133569596Y-76864936D01*
X133569586Y-76864938D01*
X133341344Y-76926094D01*
X133341335Y-76926098D01*
X133127171Y-77025964D01*
X133127169Y-77025965D01*
X132933597Y-77161505D01*
X132766505Y-77328597D01*
X132636575Y-77514158D01*
X132581998Y-77557783D01*
X132512500Y-77564977D01*
X132450145Y-77533454D01*
X132433425Y-77514158D01*
X132303494Y-77328597D01*
X132136402Y-77161506D01*
X132136395Y-77161501D01*
X131942834Y-77025967D01*
X131942830Y-77025965D01*
X131926817Y-77018498D01*
X131728663Y-76926097D01*
X131728659Y-76926096D01*
X131728655Y-76926094D01*
X131500413Y-76864938D01*
X131500403Y-76864936D01*
X131265001Y-76844341D01*
X131264999Y-76844341D01*
X131029596Y-76864936D01*
X131029586Y-76864938D01*
X130801344Y-76926094D01*
X130801335Y-76926098D01*
X130587171Y-77025964D01*
X130587169Y-77025965D01*
X130393600Y-77161503D01*
X130271673Y-77283430D01*
X130210350Y-77316914D01*
X130140658Y-77311930D01*
X130084725Y-77270058D01*
X130067810Y-77239081D01*
X130018797Y-77107671D01*
X130018793Y-77107664D01*
X129932547Y-76992455D01*
X129932544Y-76992452D01*
X129817335Y-76906206D01*
X129817328Y-76906202D01*
X129682482Y-76855908D01*
X129682483Y-76855908D01*
X129622883Y-76849501D01*
X129622881Y-76849500D01*
X129622873Y-76849500D01*
X129622864Y-76849500D01*
X127827129Y-76849500D01*
X127827123Y-76849501D01*
X127767516Y-76855908D01*
X127632671Y-76906202D01*
X127632664Y-76906206D01*
X127517455Y-76992452D01*
X127517452Y-76992455D01*
X127431206Y-77107664D01*
X127431202Y-77107671D01*
X127380908Y-77242517D01*
X127374501Y-77302116D01*
X127374500Y-77302135D01*
X109846323Y-77302135D01*
X109842217Y-77296998D01*
X109835023Y-77227500D01*
X109866546Y-77165145D01*
X109885842Y-77148425D01*
X109933488Y-77115063D01*
X110071401Y-77018495D01*
X110238495Y-76851401D01*
X110374035Y-76657830D01*
X110473903Y-76443663D01*
X110535063Y-76215408D01*
X110545160Y-76100000D01*
X145294540Y-76100000D01*
X145314326Y-76288256D01*
X145314327Y-76288259D01*
X145372821Y-76468285D01*
X145398637Y-76513000D01*
X145415110Y-76580900D01*
X145398637Y-76637000D01*
X145372821Y-76681714D01*
X145317686Y-76851402D01*
X145314326Y-76861744D01*
X145294540Y-77050000D01*
X145314326Y-77238256D01*
X145314327Y-77238259D01*
X145372818Y-77418277D01*
X145372821Y-77418284D01*
X145467467Y-77582216D01*
X145527237Y-77648597D01*
X145594129Y-77722888D01*
X145747265Y-77834148D01*
X145747270Y-77834151D01*
X145920192Y-77911142D01*
X145920197Y-77911144D01*
X146105354Y-77950500D01*
X146105355Y-77950500D01*
X146294644Y-77950500D01*
X146294646Y-77950500D01*
X146479803Y-77911144D01*
X146652730Y-77834151D01*
X146805871Y-77722888D01*
X146932533Y-77582216D01*
X147027179Y-77418284D01*
X147085674Y-77238256D01*
X147105460Y-77050000D01*
X147085674Y-76861744D01*
X147027179Y-76681716D01*
X147001361Y-76636999D01*
X146984888Y-76569101D01*
X147001362Y-76513000D01*
X147027179Y-76468284D01*
X147085674Y-76288256D01*
X147105460Y-76100000D01*
X147085674Y-75911744D01*
X147027179Y-75731716D01*
X146932533Y-75567784D01*
X146805871Y-75427112D01*
X146805870Y-75427111D01*
X146652734Y-75315851D01*
X146652729Y-75315848D01*
X146479807Y-75238857D01*
X146479802Y-75238855D01*
X146334001Y-75207865D01*
X146294646Y-75199500D01*
X146105354Y-75199500D01*
X146072897Y-75206398D01*
X145920197Y-75238855D01*
X145920192Y-75238857D01*
X145747270Y-75315848D01*
X145747265Y-75315851D01*
X145594129Y-75427111D01*
X145467466Y-75567785D01*
X145372821Y-75731715D01*
X145372818Y-75731722D01*
X145357132Y-75780000D01*
X145314326Y-75911744D01*
X145294540Y-76100000D01*
X110545160Y-76100000D01*
X110555659Y-75980000D01*
X110535063Y-75744592D01*
X110473903Y-75516337D01*
X110374035Y-75302171D01*
X110329703Y-75238857D01*
X110238494Y-75108597D01*
X110071402Y-74941506D01*
X110071395Y-74941501D01*
X109877834Y-74805967D01*
X109877830Y-74805965D01*
X109856737Y-74796129D01*
X109663663Y-74706097D01*
X109663659Y-74706096D01*
X109663655Y-74706094D01*
X109435413Y-74644938D01*
X109435403Y-74644936D01*
X109200001Y-74624341D01*
X109199999Y-74624341D01*
X108964596Y-74644936D01*
X108964586Y-74644938D01*
X108736344Y-74706094D01*
X108736335Y-74706098D01*
X108522171Y-74805964D01*
X108522169Y-74805965D01*
X108328597Y-74941505D01*
X108161505Y-75108597D01*
X108025965Y-75302169D01*
X108025964Y-75302171D01*
X107926098Y-75516335D01*
X107926094Y-75516344D01*
X107864938Y-75744586D01*
X107864936Y-75744596D01*
X107844341Y-75979999D01*
X103338161Y-75979999D01*
X103355659Y-75780000D01*
X103352561Y-75744596D01*
X103335063Y-75544596D01*
X103335063Y-75544592D01*
X103283887Y-75353597D01*
X103273905Y-75316344D01*
X103273904Y-75316343D01*
X103273903Y-75316337D01*
X103174035Y-75102171D01*
X103091805Y-74984733D01*
X103038494Y-74908597D01*
X102871402Y-74741506D01*
X102871401Y-74741505D01*
X102685405Y-74611269D01*
X102676398Y-74600000D01*
X118794659Y-74600000D01*
X118813975Y-74796129D01*
X118816959Y-74805965D01*
X118858073Y-74941501D01*
X118871188Y-74984733D01*
X118964086Y-75158532D01*
X118964090Y-75158539D01*
X119089116Y-75310883D01*
X119241460Y-75435909D01*
X119241467Y-75435913D01*
X119415266Y-75528811D01*
X119415269Y-75528811D01*
X119415273Y-75528814D01*
X119603868Y-75586024D01*
X119800000Y-75605341D01*
X119996132Y-75586024D01*
X120184727Y-75528814D01*
X120358538Y-75435910D01*
X120510883Y-75310883D01*
X120635910Y-75158538D01*
X120728814Y-74984727D01*
X120786024Y-74796132D01*
X120805341Y-74600000D01*
X120786024Y-74403868D01*
X120728814Y-74215273D01*
X120728811Y-74215269D01*
X120728811Y-74215266D01*
X120635913Y-74041467D01*
X120635909Y-74041460D01*
X120510883Y-73889116D01*
X120358539Y-73764090D01*
X120358532Y-73764086D01*
X120184733Y-73671188D01*
X120184727Y-73671186D01*
X119996132Y-73613976D01*
X119996129Y-73613975D01*
X119800000Y-73594659D01*
X119603870Y-73613975D01*
X119415266Y-73671188D01*
X119241467Y-73764086D01*
X119241460Y-73764090D01*
X119089116Y-73889116D01*
X118964090Y-74041460D01*
X118964086Y-74041467D01*
X118871188Y-74215266D01*
X118813975Y-74403870D01*
X118794659Y-74600000D01*
X102676398Y-74600000D01*
X102641781Y-74556692D01*
X102634588Y-74487193D01*
X102666110Y-74424839D01*
X102685405Y-74408119D01*
X102871082Y-74278105D01*
X103038105Y-74111082D01*
X103173600Y-73917578D01*
X103273429Y-73703492D01*
X103273432Y-73703486D01*
X103330636Y-73490000D01*
X102433012Y-73490000D01*
X102465925Y-73432993D01*
X102500000Y-73305826D01*
X102500000Y-73200000D01*
X133994540Y-73200000D01*
X134014326Y-73388256D01*
X134014327Y-73388259D01*
X134072818Y-73568277D01*
X134072821Y-73568284D01*
X134167467Y-73732216D01*
X134294129Y-73872888D01*
X134447265Y-73984148D01*
X134447270Y-73984151D01*
X134620192Y-74061142D01*
X134620197Y-74061144D01*
X134805354Y-74100500D01*
X134805355Y-74100500D01*
X134994644Y-74100500D01*
X134994646Y-74100500D01*
X135179803Y-74061144D01*
X135352730Y-73984151D01*
X135505871Y-73872888D01*
X135632533Y-73732216D01*
X135727179Y-73568284D01*
X135785674Y-73388256D01*
X135805460Y-73200000D01*
X135785674Y-73011744D01*
X135731112Y-72843823D01*
X135727181Y-72831722D01*
X135727180Y-72831721D01*
X135727179Y-72831716D01*
X135632533Y-72667784D01*
X135505871Y-72527112D01*
X135505870Y-72527111D01*
X135352734Y-72415851D01*
X135352729Y-72415848D01*
X135179807Y-72338857D01*
X135179802Y-72338855D01*
X135034001Y-72307865D01*
X134994646Y-72299500D01*
X134805354Y-72299500D01*
X134772897Y-72306398D01*
X134620197Y-72338855D01*
X134620192Y-72338857D01*
X134447270Y-72415848D01*
X134447265Y-72415851D01*
X134294129Y-72527111D01*
X134167466Y-72667785D01*
X134072821Y-72831715D01*
X134072818Y-72831722D01*
X134014327Y-73011740D01*
X134014326Y-73011744D01*
X133994540Y-73200000D01*
X102500000Y-73200000D01*
X102500000Y-73174174D01*
X102465925Y-73047007D01*
X102433012Y-72990000D01*
X103330636Y-72990000D01*
X103330635Y-72989999D01*
X103273432Y-72776513D01*
X103273429Y-72776507D01*
X103173600Y-72562422D01*
X103173599Y-72562420D01*
X103038113Y-72368926D01*
X103038108Y-72368920D01*
X102871078Y-72201890D01*
X102685405Y-72071879D01*
X102641780Y-72017302D01*
X102634588Y-71947804D01*
X102666110Y-71885449D01*
X102685406Y-71868730D01*
X102685842Y-71868425D01*
X102871401Y-71738495D01*
X103038495Y-71571401D01*
X103174035Y-71377830D01*
X103273903Y-71163663D01*
X103335063Y-70935408D01*
X103355659Y-70700000D01*
X103335063Y-70464592D01*
X103283887Y-70273597D01*
X103277564Y-70250000D01*
X145094540Y-70250000D01*
X145114326Y-70438256D01*
X145114327Y-70438259D01*
X145172818Y-70618277D01*
X145172821Y-70618284D01*
X145267467Y-70782216D01*
X145394129Y-70922888D01*
X145547265Y-71034148D01*
X145547270Y-71034151D01*
X145720192Y-71111142D01*
X145720197Y-71111144D01*
X145905354Y-71150500D01*
X145905355Y-71150500D01*
X146094644Y-71150500D01*
X146094646Y-71150500D01*
X146279803Y-71111144D01*
X146452730Y-71034151D01*
X146605871Y-70922888D01*
X146732533Y-70782216D01*
X146827179Y-70618284D01*
X146885674Y-70438256D01*
X146905460Y-70250000D01*
X146885674Y-70061744D01*
X146827179Y-69881716D01*
X146732533Y-69717784D01*
X146605871Y-69577112D01*
X146605870Y-69577111D01*
X146452734Y-69465851D01*
X146452729Y-69465848D01*
X146279807Y-69388857D01*
X146279802Y-69388855D01*
X146134001Y-69357865D01*
X146094646Y-69349500D01*
X145905354Y-69349500D01*
X145872897Y-69356398D01*
X145720197Y-69388855D01*
X145720192Y-69388857D01*
X145547270Y-69465848D01*
X145547265Y-69465851D01*
X145394129Y-69577111D01*
X145267466Y-69717785D01*
X145172821Y-69881715D01*
X145172818Y-69881722D01*
X145127184Y-70022171D01*
X145114326Y-70061744D01*
X145094540Y-70250000D01*
X103277564Y-70250000D01*
X103273905Y-70236344D01*
X103273904Y-70236343D01*
X103273903Y-70236337D01*
X103174035Y-70022171D01*
X103038495Y-69828599D01*
X103038494Y-69828597D01*
X102871402Y-69661506D01*
X102871396Y-69661501D01*
X102685842Y-69531575D01*
X102642217Y-69476998D01*
X102635023Y-69407500D01*
X102666546Y-69345145D01*
X102685842Y-69328425D01*
X102708026Y-69312891D01*
X102871401Y-69198495D01*
X103038495Y-69031401D01*
X103174035Y-68837830D01*
X103273903Y-68623663D01*
X103335063Y-68395408D01*
X103355659Y-68160000D01*
X103335063Y-67924592D01*
X103283887Y-67733597D01*
X103273905Y-67696344D01*
X103273904Y-67696343D01*
X103273903Y-67696337D01*
X103174035Y-67482171D01*
X103139153Y-67432353D01*
X148426893Y-67432353D01*
X148446679Y-67620609D01*
X148446680Y-67620612D01*
X148505171Y-67800630D01*
X148505174Y-67800637D01*
X148599820Y-67964569D01*
X148726482Y-68105241D01*
X148879618Y-68216501D01*
X148879623Y-68216504D01*
X149052545Y-68293495D01*
X149052550Y-68293497D01*
X149237707Y-68332853D01*
X149237708Y-68332853D01*
X149426997Y-68332853D01*
X149426999Y-68332853D01*
X149612156Y-68293497D01*
X149785083Y-68216504D01*
X149938224Y-68105241D01*
X150064886Y-67964569D01*
X150159532Y-67800637D01*
X150218027Y-67620609D01*
X150237813Y-67432353D01*
X150218027Y-67244097D01*
X150159532Y-67064069D01*
X150064886Y-66900137D01*
X149938224Y-66759465D01*
X149938223Y-66759464D01*
X149785087Y-66648204D01*
X149785082Y-66648201D01*
X149612160Y-66571210D01*
X149612155Y-66571208D01*
X149466354Y-66540218D01*
X149426999Y-66531853D01*
X149237707Y-66531853D01*
X149205250Y-66538751D01*
X149052550Y-66571208D01*
X149052545Y-66571210D01*
X148879623Y-66648201D01*
X148879618Y-66648204D01*
X148726482Y-66759464D01*
X148599819Y-66900138D01*
X148505174Y-67064068D01*
X148505171Y-67064075D01*
X148446680Y-67244093D01*
X148446679Y-67244097D01*
X148426893Y-67432353D01*
X103139153Y-67432353D01*
X103038494Y-67288597D01*
X102871402Y-67121506D01*
X102871401Y-67121505D01*
X102685405Y-66991269D01*
X102641781Y-66936692D01*
X102634588Y-66867193D01*
X102666110Y-66804839D01*
X102685405Y-66788119D01*
X102871082Y-66658105D01*
X103038105Y-66491082D01*
X103173600Y-66297578D01*
X103273429Y-66083492D01*
X103273432Y-66083486D01*
X103330636Y-65870000D01*
X102433012Y-65870000D01*
X102465925Y-65812993D01*
X102500000Y-65685826D01*
X102500000Y-65554174D01*
X102465925Y-65427007D01*
X102433012Y-65370000D01*
X103330636Y-65370000D01*
X103330635Y-65369999D01*
X103273432Y-65156513D01*
X103273429Y-65156507D01*
X103173600Y-64942422D01*
X103173599Y-64942420D01*
X103038113Y-64748926D01*
X103038108Y-64748920D01*
X102871078Y-64581890D01*
X102685405Y-64451879D01*
X102641780Y-64397302D01*
X102634588Y-64327804D01*
X102666110Y-64265449D01*
X102685406Y-64248730D01*
X102871401Y-64118495D01*
X103038495Y-63951401D01*
X103174035Y-63757830D01*
X103273903Y-63543663D01*
X103335063Y-63315408D01*
X103355659Y-63080000D01*
X103335063Y-62844592D01*
X103283887Y-62653597D01*
X103273905Y-62616344D01*
X103273904Y-62616343D01*
X103273903Y-62616337D01*
X103174035Y-62402171D01*
X103172515Y-62400000D01*
X111794659Y-62400000D01*
X111813975Y-62596129D01*
X111871188Y-62784733D01*
X111964086Y-62958532D01*
X111964090Y-62958539D01*
X112089116Y-63110883D01*
X112241460Y-63235909D01*
X112241467Y-63235913D01*
X112415266Y-63328811D01*
X112415269Y-63328811D01*
X112415273Y-63328814D01*
X112603868Y-63386024D01*
X112800000Y-63405341D01*
X112996132Y-63386024D01*
X113184727Y-63328814D01*
X113209799Y-63315413D01*
X113358532Y-63235913D01*
X113358538Y-63235910D01*
X113510883Y-63110883D01*
X113635910Y-62958538D01*
X113696813Y-62844596D01*
X113728811Y-62784733D01*
X113728811Y-62784732D01*
X113728814Y-62784727D01*
X113786024Y-62596132D01*
X113805341Y-62400000D01*
X113786024Y-62203868D01*
X113728814Y-62015273D01*
X113728811Y-62015269D01*
X113728811Y-62015266D01*
X113635913Y-61841467D01*
X113635909Y-61841460D01*
X113510883Y-61689116D01*
X113358539Y-61564090D01*
X113358532Y-61564086D01*
X113184733Y-61471188D01*
X113184727Y-61471186D01*
X112996132Y-61413976D01*
X112996129Y-61413975D01*
X112800000Y-61394659D01*
X112603870Y-61413975D01*
X112415266Y-61471188D01*
X112241467Y-61564086D01*
X112241460Y-61564090D01*
X112089116Y-61689116D01*
X111964090Y-61841460D01*
X111964086Y-61841467D01*
X111871188Y-62015266D01*
X111813975Y-62203870D01*
X111794659Y-62400000D01*
X103172515Y-62400000D01*
X103038495Y-62208599D01*
X103038494Y-62208597D01*
X102871402Y-62041506D01*
X102871396Y-62041501D01*
X102685842Y-61911575D01*
X102642217Y-61856998D01*
X102635023Y-61787500D01*
X102666546Y-61725145D01*
X102685842Y-61708425D01*
X102713418Y-61689116D01*
X102871401Y-61578495D01*
X103038495Y-61411401D01*
X103174035Y-61217830D01*
X103273903Y-61003663D01*
X103335063Y-60775408D01*
X103355659Y-60540000D01*
X103335063Y-60304592D01*
X103283887Y-60113597D01*
X103273905Y-60076344D01*
X103273904Y-60076343D01*
X103273903Y-60076337D01*
X103174035Y-59862171D01*
X103038495Y-59668599D01*
X102916179Y-59546283D01*
X102882696Y-59484963D01*
X102887680Y-59415271D01*
X102929551Y-59359337D01*
X102960529Y-59342422D01*
X103092086Y-59293354D01*
X103092093Y-59293350D01*
X103207187Y-59207190D01*
X103207190Y-59207187D01*
X103293350Y-59092093D01*
X103293354Y-59092086D01*
X103343596Y-58957379D01*
X103343598Y-58957372D01*
X103349999Y-58897844D01*
X103350000Y-58897827D01*
X103350000Y-58250000D01*
X102433012Y-58250000D01*
X102465925Y-58192993D01*
X102500000Y-58065826D01*
X102500000Y-57934174D01*
X102465925Y-57807007D01*
X102433012Y-57750000D01*
X103350000Y-57750000D01*
X103350000Y-57664999D01*
X123544341Y-57664999D01*
X123544341Y-57665000D01*
X123564936Y-57900403D01*
X123564938Y-57900413D01*
X123626094Y-58128655D01*
X123626096Y-58128659D01*
X123626097Y-58128663D01*
X123720297Y-58330675D01*
X123725965Y-58342830D01*
X123725967Y-58342834D01*
X123807707Y-58459570D01*
X123861505Y-58536401D01*
X124028599Y-58703495D01*
X124125384Y-58771265D01*
X124222165Y-58839032D01*
X124222167Y-58839033D01*
X124222170Y-58839035D01*
X124436337Y-58938903D01*
X124664592Y-59000063D01*
X124852918Y-59016539D01*
X124899999Y-59020659D01*
X124900000Y-59020659D01*
X124900001Y-59020659D01*
X124939234Y-59017226D01*
X125135408Y-59000063D01*
X125363663Y-58938903D01*
X125577830Y-58839035D01*
X125771401Y-58703495D01*
X125938495Y-58536401D01*
X126068730Y-58350405D01*
X126123307Y-58306781D01*
X126192805Y-58299587D01*
X126255160Y-58331110D01*
X126271879Y-58350405D01*
X126325072Y-58426372D01*
X126325073Y-58426372D01*
X126957037Y-57794408D01*
X126974075Y-57857993D01*
X127039901Y-57972007D01*
X127132993Y-58065099D01*
X127247007Y-58130925D01*
X127310591Y-58147962D01*
X126678626Y-58779926D01*
X126762417Y-58838598D01*
X126762421Y-58838600D01*
X126976507Y-58938429D01*
X126976516Y-58938433D01*
X127204673Y-58999567D01*
X127204684Y-58999569D01*
X127439998Y-59020157D01*
X127440002Y-59020157D01*
X127675315Y-58999569D01*
X127675326Y-58999567D01*
X127903483Y-58938433D01*
X127903492Y-58938429D01*
X128117580Y-58838599D01*
X128201371Y-58779925D01*
X127569408Y-58147962D01*
X127632993Y-58130925D01*
X127747007Y-58065099D01*
X127840099Y-57972007D01*
X127905925Y-57857993D01*
X127922962Y-57794408D01*
X128554925Y-58426371D01*
X128608426Y-58349968D01*
X128663004Y-58306344D01*
X128732502Y-58299152D01*
X128794856Y-58330675D01*
X128811575Y-58349969D01*
X128865073Y-58426372D01*
X129497037Y-57794408D01*
X129514075Y-57857993D01*
X129579901Y-57972007D01*
X129672993Y-58065099D01*
X129787007Y-58130925D01*
X129850591Y-58147962D01*
X129218626Y-58779926D01*
X129302417Y-58838598D01*
X129302421Y-58838600D01*
X129516507Y-58938429D01*
X129516516Y-58938433D01*
X129744673Y-58999567D01*
X129744684Y-58999569D01*
X129979998Y-59020157D01*
X129980002Y-59020157D01*
X130215315Y-58999569D01*
X130215326Y-58999567D01*
X130443483Y-58938433D01*
X130443492Y-58938429D01*
X130657580Y-58838599D01*
X130741371Y-58779925D01*
X130109408Y-58147962D01*
X130172993Y-58130925D01*
X130287007Y-58065099D01*
X130380099Y-57972007D01*
X130445925Y-57857993D01*
X130462962Y-57794408D01*
X131094925Y-58426371D01*
X131148426Y-58349968D01*
X131203004Y-58306344D01*
X131272502Y-58299152D01*
X131334856Y-58330675D01*
X131351575Y-58349969D01*
X131405073Y-58426372D01*
X132037037Y-57794408D01*
X132054075Y-57857993D01*
X132119901Y-57972007D01*
X132212993Y-58065099D01*
X132327007Y-58130925D01*
X132390591Y-58147962D01*
X131758626Y-58779926D01*
X131842417Y-58838598D01*
X131842421Y-58838600D01*
X132056507Y-58938429D01*
X132056516Y-58938433D01*
X132284673Y-58999567D01*
X132284684Y-58999569D01*
X132519998Y-59020157D01*
X132520002Y-59020157D01*
X132755315Y-58999569D01*
X132755326Y-58999567D01*
X132983483Y-58938433D01*
X132983492Y-58938429D01*
X133197580Y-58838599D01*
X133281371Y-58779925D01*
X132649408Y-58147962D01*
X132712993Y-58130925D01*
X132827007Y-58065099D01*
X132920099Y-57972007D01*
X132985925Y-57857993D01*
X133002962Y-57794408D01*
X133634925Y-58426371D01*
X133688120Y-58350404D01*
X133742697Y-58306780D01*
X133812196Y-58299588D01*
X133874550Y-58331111D01*
X133891268Y-58350404D01*
X134021505Y-58536401D01*
X134188599Y-58703495D01*
X134285384Y-58771265D01*
X134382165Y-58839032D01*
X134382167Y-58839033D01*
X134382170Y-58839035D01*
X134596337Y-58938903D01*
X134824592Y-59000063D01*
X135012918Y-59016539D01*
X135059999Y-59020659D01*
X135060000Y-59020659D01*
X135060001Y-59020659D01*
X135099234Y-59017226D01*
X135295408Y-59000063D01*
X135523663Y-58938903D01*
X135737830Y-58839035D01*
X135931401Y-58703495D01*
X136098495Y-58536401D01*
X136234035Y-58342830D01*
X136333903Y-58128663D01*
X136395063Y-57900408D01*
X136415659Y-57665000D01*
X136395063Y-57429592D01*
X136333903Y-57201337D01*
X136240015Y-56999994D01*
X143494357Y-56999994D01*
X143494357Y-57000005D01*
X143514890Y-57247812D01*
X143514892Y-57247824D01*
X143575936Y-57488881D01*
X143675826Y-57716606D01*
X143811833Y-57924782D01*
X143811836Y-57924785D01*
X143980256Y-58107738D01*
X144176491Y-58260474D01*
X144248767Y-58299588D01*
X144328671Y-58342830D01*
X144395190Y-58378828D01*
X144630386Y-58459571D01*
X144875665Y-58500500D01*
X145124335Y-58500500D01*
X145369614Y-58459571D01*
X145604810Y-58378828D01*
X145823509Y-58260474D01*
X146019744Y-58107738D01*
X146188164Y-57924785D01*
X146324173Y-57716607D01*
X146424063Y-57488881D01*
X146485108Y-57247821D01*
X146497177Y-57102172D01*
X146505643Y-57000005D01*
X146505643Y-56999994D01*
X147494357Y-56999994D01*
X147494357Y-57000005D01*
X147514890Y-57247812D01*
X147514892Y-57247824D01*
X147575936Y-57488881D01*
X147675826Y-57716606D01*
X147811833Y-57924782D01*
X147811836Y-57924785D01*
X147980256Y-58107738D01*
X148176491Y-58260474D01*
X148248767Y-58299588D01*
X148328671Y-58342830D01*
X148395190Y-58378828D01*
X148630386Y-58459571D01*
X148875665Y-58500500D01*
X149124335Y-58500500D01*
X149369614Y-58459571D01*
X149604810Y-58378828D01*
X149823509Y-58260474D01*
X150019744Y-58107738D01*
X150188164Y-57924785D01*
X150324173Y-57716607D01*
X150424063Y-57488881D01*
X150485108Y-57247821D01*
X150497177Y-57102172D01*
X150505643Y-57000005D01*
X150505643Y-56999994D01*
X151494357Y-56999994D01*
X151494357Y-57000005D01*
X151514890Y-57247812D01*
X151514892Y-57247824D01*
X151575936Y-57488881D01*
X151675826Y-57716606D01*
X151811833Y-57924782D01*
X151811836Y-57924785D01*
X151980256Y-58107738D01*
X152176491Y-58260474D01*
X152248767Y-58299588D01*
X152328671Y-58342830D01*
X152395190Y-58378828D01*
X152630386Y-58459571D01*
X152875665Y-58500500D01*
X153124335Y-58500500D01*
X153369614Y-58459571D01*
X153604810Y-58378828D01*
X153823509Y-58260474D01*
X154019744Y-58107738D01*
X154188164Y-57924785D01*
X154324173Y-57716607D01*
X154424063Y-57488881D01*
X154485108Y-57247821D01*
X154497177Y-57102172D01*
X154505643Y-57000005D01*
X154505643Y-56999994D01*
X154485109Y-56752187D01*
X154485107Y-56752175D01*
X154424063Y-56511118D01*
X154324173Y-56283393D01*
X154188164Y-56075215D01*
X154019744Y-55892262D01*
X153823509Y-55739526D01*
X153823507Y-55739525D01*
X153823506Y-55739524D01*
X153604811Y-55621172D01*
X153604802Y-55621169D01*
X153369616Y-55540429D01*
X153124335Y-55499500D01*
X152875665Y-55499500D01*
X152630383Y-55540429D01*
X152395197Y-55621169D01*
X152395188Y-55621172D01*
X152176493Y-55739524D01*
X151980257Y-55892261D01*
X151811836Y-56075215D01*
X151675826Y-56283393D01*
X151575936Y-56511118D01*
X151514892Y-56752175D01*
X151514890Y-56752187D01*
X151494357Y-56999994D01*
X150505643Y-56999994D01*
X150485109Y-56752187D01*
X150485107Y-56752175D01*
X150424063Y-56511118D01*
X150324173Y-56283393D01*
X150188164Y-56075215D01*
X150019744Y-55892262D01*
X149823509Y-55739526D01*
X149823507Y-55739525D01*
X149823506Y-55739524D01*
X149604811Y-55621172D01*
X149604802Y-55621169D01*
X149369616Y-55540429D01*
X149124335Y-55499500D01*
X148875665Y-55499500D01*
X148630383Y-55540429D01*
X148395197Y-55621169D01*
X148395188Y-55621172D01*
X148176493Y-55739524D01*
X147980257Y-55892261D01*
X147811836Y-56075215D01*
X147675826Y-56283393D01*
X147575936Y-56511118D01*
X147514892Y-56752175D01*
X147514890Y-56752187D01*
X147494357Y-56999994D01*
X146505643Y-56999994D01*
X146485109Y-56752187D01*
X146485107Y-56752175D01*
X146424063Y-56511118D01*
X146324173Y-56283393D01*
X146188164Y-56075215D01*
X146019744Y-55892262D01*
X145823509Y-55739526D01*
X145823507Y-55739525D01*
X145823506Y-55739524D01*
X145604811Y-55621172D01*
X145604802Y-55621169D01*
X145369616Y-55540429D01*
X145124335Y-55499500D01*
X144875665Y-55499500D01*
X144630383Y-55540429D01*
X144395197Y-55621169D01*
X144395188Y-55621172D01*
X144176493Y-55739524D01*
X143980257Y-55892261D01*
X143811836Y-56075215D01*
X143675826Y-56283393D01*
X143575936Y-56511118D01*
X143514892Y-56752175D01*
X143514890Y-56752187D01*
X143494357Y-56999994D01*
X136240015Y-56999994D01*
X136234035Y-56987171D01*
X136229037Y-56980032D01*
X136098494Y-56793597D01*
X135931402Y-56626506D01*
X135931396Y-56626501D01*
X135745842Y-56496575D01*
X135702217Y-56441998D01*
X135695023Y-56372500D01*
X135726546Y-56310145D01*
X135745842Y-56293425D01*
X135822248Y-56239925D01*
X135931401Y-56163495D01*
X136098495Y-55996401D01*
X136234035Y-55802830D01*
X136333903Y-55588663D01*
X136395063Y-55360408D01*
X136415659Y-55125000D01*
X136395063Y-54889592D01*
X136333903Y-54661337D01*
X136234035Y-54447171D01*
X136229037Y-54440032D01*
X136098494Y-54253597D01*
X135931402Y-54086506D01*
X135931395Y-54086501D01*
X135737834Y-53950967D01*
X135737830Y-53950965D01*
X135737828Y-53950964D01*
X135523663Y-53851097D01*
X135523659Y-53851096D01*
X135523655Y-53851094D01*
X135295413Y-53789938D01*
X135295403Y-53789936D01*
X135060001Y-53769341D01*
X135059999Y-53769341D01*
X134824596Y-53789936D01*
X134824586Y-53789938D01*
X134596344Y-53851094D01*
X134596335Y-53851098D01*
X134382171Y-53950964D01*
X134382169Y-53950965D01*
X134188597Y-54086505D01*
X134021508Y-54253594D01*
X133891269Y-54439595D01*
X133836692Y-54483219D01*
X133767193Y-54490412D01*
X133704839Y-54458890D01*
X133688119Y-54439595D01*
X133634925Y-54363626D01*
X133002962Y-54995590D01*
X132985925Y-54932007D01*
X132920099Y-54817993D01*
X132827007Y-54724901D01*
X132712993Y-54659075D01*
X132649409Y-54642037D01*
X133281372Y-54010073D01*
X133197576Y-53951398D01*
X132983492Y-53851570D01*
X132983483Y-53851566D01*
X132755326Y-53790432D01*
X132755315Y-53790430D01*
X132520002Y-53769843D01*
X132519998Y-53769843D01*
X132284684Y-53790430D01*
X132284673Y-53790432D01*
X132056516Y-53851566D01*
X132056507Y-53851570D01*
X131842423Y-53951399D01*
X131842421Y-53951400D01*
X131758627Y-54010073D01*
X131758626Y-54010073D01*
X132390591Y-54642037D01*
X132327007Y-54659075D01*
X132212993Y-54724901D01*
X132119901Y-54817993D01*
X132054075Y-54932007D01*
X132037037Y-54995590D01*
X131405073Y-54363626D01*
X131405073Y-54363627D01*
X131351575Y-54440031D01*
X131296999Y-54483656D01*
X131227500Y-54490850D01*
X131165145Y-54459327D01*
X131148425Y-54440032D01*
X131094925Y-54363626D01*
X130462962Y-54995590D01*
X130445925Y-54932007D01*
X130380099Y-54817993D01*
X130287007Y-54724901D01*
X130172993Y-54659075D01*
X130109409Y-54642037D01*
X130741372Y-54010073D01*
X130657576Y-53951398D01*
X130443492Y-53851570D01*
X130443483Y-53851566D01*
X130215326Y-53790432D01*
X130215315Y-53790430D01*
X129980002Y-53769843D01*
X129979998Y-53769843D01*
X129744684Y-53790430D01*
X129744673Y-53790432D01*
X129516516Y-53851566D01*
X129516507Y-53851570D01*
X129302423Y-53951399D01*
X129302421Y-53951400D01*
X129218627Y-54010073D01*
X129218626Y-54010073D01*
X129850591Y-54642037D01*
X129787007Y-54659075D01*
X129672993Y-54724901D01*
X129579901Y-54817993D01*
X129514075Y-54932007D01*
X129497037Y-54995590D01*
X128865073Y-54363626D01*
X128865073Y-54363627D01*
X128811575Y-54440031D01*
X128756999Y-54483656D01*
X128687500Y-54490850D01*
X128625145Y-54459327D01*
X128608425Y-54440032D01*
X128554925Y-54363626D01*
X127922962Y-54995590D01*
X127905925Y-54932007D01*
X127840099Y-54817993D01*
X127747007Y-54724901D01*
X127632993Y-54659075D01*
X127569409Y-54642037D01*
X128201372Y-54010073D01*
X128117576Y-53951398D01*
X127903492Y-53851570D01*
X127903483Y-53851566D01*
X127675326Y-53790432D01*
X127675315Y-53790430D01*
X127440002Y-53769843D01*
X127439998Y-53769843D01*
X127204684Y-53790430D01*
X127204673Y-53790432D01*
X126976516Y-53851566D01*
X126976507Y-53851570D01*
X126762423Y-53951399D01*
X126762421Y-53951400D01*
X126678627Y-54010073D01*
X126678626Y-54010073D01*
X127310591Y-54642037D01*
X127247007Y-54659075D01*
X127132993Y-54724901D01*
X127039901Y-54817993D01*
X126974075Y-54932007D01*
X126957037Y-54995590D01*
X126286818Y-54325371D01*
X126253333Y-54264048D01*
X126250499Y-54237690D01*
X126250499Y-54227129D01*
X126250498Y-54227123D01*
X126250497Y-54227116D01*
X126244091Y-54167517D01*
X126193796Y-54032669D01*
X126193795Y-54032668D01*
X126193793Y-54032664D01*
X126107547Y-53917455D01*
X126107544Y-53917452D01*
X125992335Y-53831206D01*
X125992328Y-53831202D01*
X125857482Y-53780908D01*
X125857483Y-53780908D01*
X125797883Y-53774501D01*
X125797881Y-53774500D01*
X125797873Y-53774500D01*
X125797864Y-53774500D01*
X124002129Y-53774500D01*
X124002123Y-53774501D01*
X123942516Y-53780908D01*
X123807671Y-53831202D01*
X123807664Y-53831206D01*
X123692455Y-53917452D01*
X123692452Y-53917455D01*
X123606206Y-54032664D01*
X123606202Y-54032671D01*
X123555908Y-54167517D01*
X123549501Y-54227116D01*
X123549501Y-54227123D01*
X123549500Y-54227135D01*
X123549500Y-56022870D01*
X123549501Y-56022876D01*
X123555908Y-56082483D01*
X123606202Y-56217328D01*
X123606206Y-56217335D01*
X123692452Y-56332544D01*
X123692455Y-56332547D01*
X123807664Y-56418793D01*
X123807671Y-56418797D01*
X123939081Y-56467810D01*
X123995015Y-56509681D01*
X124019432Y-56575145D01*
X124004580Y-56643418D01*
X123983430Y-56671673D01*
X123861503Y-56793600D01*
X123725965Y-56987169D01*
X123725964Y-56987171D01*
X123626098Y-57201335D01*
X123626094Y-57201344D01*
X123564938Y-57429586D01*
X123564936Y-57429596D01*
X123544341Y-57664999D01*
X103350000Y-57664999D01*
X103350000Y-57102172D01*
X103349999Y-57102155D01*
X103343598Y-57042627D01*
X103343596Y-57042620D01*
X103293354Y-56907913D01*
X103293350Y-56907906D01*
X103207190Y-56792812D01*
X103207187Y-56792809D01*
X103092093Y-56706649D01*
X103092086Y-56706645D01*
X102957379Y-56656403D01*
X102957372Y-56656401D01*
X102897844Y-56650000D01*
X102250000Y-56650000D01*
X102250000Y-57566988D01*
X102192993Y-57534075D01*
X102065826Y-57500000D01*
X101934174Y-57500000D01*
X101807007Y-57534075D01*
X101750000Y-57566988D01*
X101750000Y-56650000D01*
X101102155Y-56650000D01*
X101042627Y-56656401D01*
X101042620Y-56656403D01*
X100907913Y-56706645D01*
X100907906Y-56706649D01*
X100792812Y-56792809D01*
X100723766Y-56885042D01*
X100667832Y-56926912D01*
X100598140Y-56931896D01*
X100536817Y-56898410D01*
X100503333Y-56837086D01*
X100500500Y-56810730D01*
X100500500Y-50624500D01*
X100520185Y-50557461D01*
X100572989Y-50511706D01*
X100624500Y-50500500D01*
X159375500Y-50500500D01*
X159442539Y-50520185D01*
G37*
%TD.AperFunction*%
%TD*%
M02*
