%TF.GenerationSoftware,KiCad,Pcbnew,8.0.8*%
%TF.CreationDate,2025-01-17T17:44:18+00:00*%
%TF.ProjectId,Spectralist_Components,53706563-7472-4616-9c69-73745f436f6d,rev?*%
%TF.SameCoordinates,Original*%
%TF.FileFunction,Paste,Bot*%
%TF.FilePolarity,Positive*%
%FSLAX46Y46*%
G04 Gerber Fmt 4.6, Leading zero omitted, Abs format (unit mm)*
G04 Created by KiCad (PCBNEW 8.0.8) date 2025-01-17 17:44:18*
%MOMM*%
%LPD*%
G01*
G04 APERTURE LIST*
G04 Aperture macros list*
%AMRoundRect*
0 Rectangle with rounded corners*
0 $1 Rounding radius*
0 $2 $3 $4 $5 $6 $7 $8 $9 X,Y pos of 4 corners*
0 Add a 4 corners polygon primitive as box body*
4,1,4,$2,$3,$4,$5,$6,$7,$8,$9,$2,$3,0*
0 Add four circle primitives for the rounded corners*
1,1,$1+$1,$2,$3*
1,1,$1+$1,$4,$5*
1,1,$1+$1,$6,$7*
1,1,$1+$1,$8,$9*
0 Add four rect primitives between the rounded corners*
20,1,$1+$1,$2,$3,$4,$5,0*
20,1,$1+$1,$4,$5,$6,$7,0*
20,1,$1+$1,$6,$7,$8,$9,0*
20,1,$1+$1,$8,$9,$2,$3,0*%
G04 Aperture macros list end*
%ADD10RoundRect,0.200000X0.200000X0.275000X-0.200000X0.275000X-0.200000X-0.275000X0.200000X-0.275000X0*%
%ADD11RoundRect,0.150000X0.587500X0.150000X-0.587500X0.150000X-0.587500X-0.150000X0.587500X-0.150000X0*%
%ADD12RoundRect,0.225000X-0.250000X0.225000X-0.250000X-0.225000X0.250000X-0.225000X0.250000X0.225000X0*%
%ADD13RoundRect,0.225000X-0.225000X-0.250000X0.225000X-0.250000X0.225000X0.250000X-0.225000X0.250000X0*%
%ADD14RoundRect,0.250000X0.550000X-1.050000X0.550000X1.050000X-0.550000X1.050000X-0.550000X-1.050000X0*%
%ADD15RoundRect,0.225000X0.225000X0.250000X-0.225000X0.250000X-0.225000X-0.250000X0.225000X-0.250000X0*%
%ADD16RoundRect,0.250000X0.650000X-0.325000X0.650000X0.325000X-0.650000X0.325000X-0.650000X-0.325000X0*%
%ADD17RoundRect,0.225000X0.250000X-0.225000X0.250000X0.225000X-0.250000X0.225000X-0.250000X-0.225000X0*%
%ADD18RoundRect,0.250000X-0.550000X1.050000X-0.550000X-1.050000X0.550000X-1.050000X0.550000X1.050000X0*%
%ADD19R,2.400000X1.900000*%
%ADD20RoundRect,0.200000X-0.200000X-0.275000X0.200000X-0.275000X0.200000X0.275000X-0.200000X0.275000X0*%
%ADD21RoundRect,0.162500X0.162500X-0.837500X0.162500X0.837500X-0.162500X0.837500X-0.162500X-0.837500X0*%
%ADD22RoundRect,0.225000X0.225000X0.375000X-0.225000X0.375000X-0.225000X-0.375000X0.225000X-0.375000X0*%
%ADD23RoundRect,0.150000X-0.825000X-0.150000X0.825000X-0.150000X0.825000X0.150000X-0.825000X0.150000X0*%
%ADD24RoundRect,0.250000X-0.250000X-0.475000X0.250000X-0.475000X0.250000X0.475000X-0.250000X0.475000X0*%
%ADD25RoundRect,0.075000X0.725000X0.075000X-0.725000X0.075000X-0.725000X-0.075000X0.725000X-0.075000X0*%
%ADD26RoundRect,0.075000X0.075000X0.725000X-0.075000X0.725000X-0.075000X-0.725000X0.075000X-0.725000X0*%
%ADD27RoundRect,0.150000X0.825000X0.150000X-0.825000X0.150000X-0.825000X-0.150000X0.825000X-0.150000X0*%
%ADD28RoundRect,0.100000X-0.637500X-0.100000X0.637500X-0.100000X0.637500X0.100000X-0.637500X0.100000X0*%
%ADD29RoundRect,0.250000X1.050000X0.550000X-1.050000X0.550000X-1.050000X-0.550000X1.050000X-0.550000X0*%
%ADD30RoundRect,0.100000X0.100000X-0.575000X0.100000X0.575000X-0.100000X0.575000X-0.100000X-0.575000X0*%
%ADD31R,0.600000X0.950000*%
%ADD32RoundRect,0.200000X-0.275000X0.200000X-0.275000X-0.200000X0.275000X-0.200000X0.275000X0.200000X0*%
%ADD33R,0.800000X1.600000*%
%ADD34RoundRect,0.375000X-0.625000X-0.375000X0.625000X-0.375000X0.625000X0.375000X-0.625000X0.375000X0*%
%ADD35RoundRect,0.500000X-0.500000X-1.400000X0.500000X-1.400000X0.500000X1.400000X-0.500000X1.400000X0*%
G04 APERTURE END LIST*
D10*
%TO.C,R39*%
X118925000Y-96600000D03*
X117275000Y-96600000D03*
%TD*%
D11*
%TO.C,D3*%
X136637500Y-127450000D03*
X136637500Y-129350000D03*
X134762500Y-128400000D03*
%TD*%
D12*
%TO.C,C16*%
X137600000Y-81725000D03*
X137600000Y-83275000D03*
%TD*%
D13*
%TO.C,C21*%
X117325000Y-87400000D03*
X118875000Y-87400000D03*
%TD*%
D14*
%TO.C,C1*%
X139100000Y-71380000D03*
X139100000Y-67780000D03*
%TD*%
D12*
%TO.C,C22*%
X136000000Y-81725000D03*
X136000000Y-83275000D03*
%TD*%
D15*
%TO.C,C11*%
X111275000Y-118400000D03*
X109725000Y-118400000D03*
%TD*%
D13*
%TO.C,C32*%
X122225000Y-137800000D03*
X123775000Y-137800000D03*
%TD*%
D16*
%TO.C,C9*%
X149600000Y-74475000D03*
X149600000Y-71525000D03*
%TD*%
D10*
%TO.C,R25*%
X136525000Y-119300000D03*
X134875000Y-119300000D03*
%TD*%
D17*
%TO.C,C20*%
X123900000Y-105675000D03*
X123900000Y-104125000D03*
%TD*%
D10*
%TO.C,R30*%
X118925000Y-95000000D03*
X117275000Y-95000000D03*
%TD*%
%TO.C,R3*%
X111725000Y-132900000D03*
X110075000Y-132900000D03*
%TD*%
D13*
%TO.C,C31*%
X110125000Y-137700000D03*
X111675000Y-137700000D03*
%TD*%
D18*
%TO.C,C2*%
X112800000Y-56700000D03*
X112800000Y-60300000D03*
%TD*%
D19*
%TO.C,Y1*%
X145100000Y-95750000D03*
X145100000Y-91650000D03*
%TD*%
D20*
%TO.C,R6*%
X122175000Y-134500000D03*
X123825000Y-134500000D03*
%TD*%
D21*
%TO.C,U3*%
X146950000Y-68910000D03*
X146000000Y-68910000D03*
X145050000Y-68910000D03*
X145050000Y-65490000D03*
X146000000Y-65490000D03*
X146950000Y-65490000D03*
%TD*%
D15*
%TO.C,C12*%
X111275000Y-116800000D03*
X109725000Y-116800000D03*
%TD*%
D20*
%TO.C,R4*%
X122175000Y-132900000D03*
X123825000Y-132900000D03*
%TD*%
%TO.C,R14*%
X134975000Y-131400000D03*
X136625000Y-131400000D03*
%TD*%
D10*
%TO.C,R1*%
X146825000Y-61750000D03*
X145175000Y-61750000D03*
%TD*%
D20*
%TO.C,R23*%
X147175000Y-135700000D03*
X148825000Y-135700000D03*
%TD*%
%TO.C,R8*%
X122175000Y-139400000D03*
X123825000Y-139400000D03*
%TD*%
%TO.C,R24*%
X147175000Y-134100000D03*
X148825000Y-134100000D03*
%TD*%
%TO.C,R20*%
X147275000Y-122500000D03*
X148925000Y-122500000D03*
%TD*%
D22*
%TO.C,D1*%
X140750000Y-64480000D03*
X137450000Y-64480000D03*
%TD*%
D23*
%TO.C,U8*%
X114525000Y-137205000D03*
X114525000Y-135935000D03*
X114525000Y-134665000D03*
X114525000Y-133395000D03*
X119475000Y-133395000D03*
X119475000Y-134665000D03*
X119475000Y-135935000D03*
X119475000Y-137205000D03*
%TD*%
D20*
%TO.C,R32*%
X134975000Y-142300000D03*
X136625000Y-142300000D03*
%TD*%
%TO.C,R22*%
X147175000Y-137300000D03*
X148825000Y-137300000D03*
%TD*%
D10*
%TO.C,R11*%
X136525000Y-120900000D03*
X134875000Y-120900000D03*
%TD*%
D15*
%TO.C,C27*%
X124175000Y-120500000D03*
X122625000Y-120500000D03*
%TD*%
%TO.C,C4*%
X142375000Y-96600000D03*
X140825000Y-96600000D03*
%TD*%
%TO.C,C25*%
X111275000Y-121800000D03*
X109725000Y-121800000D03*
%TD*%
D20*
%TO.C,R17*%
X147175000Y-142100000D03*
X148825000Y-142100000D03*
%TD*%
D24*
%TO.C,C6*%
X145050000Y-71650000D03*
X146950000Y-71650000D03*
%TD*%
D15*
%TO.C,C39*%
X118875000Y-89000000D03*
X117325000Y-89000000D03*
%TD*%
D13*
%TO.C,C30*%
X122225000Y-131300000D03*
X123775000Y-131300000D03*
%TD*%
D15*
%TO.C,C23*%
X142375000Y-98200000D03*
X140825000Y-98200000D03*
%TD*%
D10*
%TO.C,R21*%
X136525000Y-124100000D03*
X134875000Y-124100000D03*
%TD*%
D15*
%TO.C,C29*%
X111675000Y-131300000D03*
X110125000Y-131300000D03*
%TD*%
%TO.C,C10*%
X111275000Y-123400000D03*
X109725000Y-123400000D03*
%TD*%
D10*
%TO.C,R31*%
X136625000Y-139100000D03*
X134975000Y-139100000D03*
%TD*%
D15*
%TO.C,C26*%
X111275000Y-120200000D03*
X109725000Y-120200000D03*
%TD*%
D17*
%TO.C,C15*%
X147800000Y-96275000D03*
X147800000Y-94725000D03*
%TD*%
D10*
%TO.C,R37*%
X136625000Y-136300000D03*
X134975000Y-136300000D03*
%TD*%
D13*
%TO.C,C35*%
X147325000Y-114500000D03*
X148875000Y-114500000D03*
%TD*%
D25*
%TO.C,U1*%
X137675000Y-88000000D03*
X137675000Y-88500000D03*
X137675000Y-89000000D03*
X137675000Y-89500000D03*
X137675000Y-90000000D03*
X137675000Y-90500000D03*
X137675000Y-91000000D03*
X137675000Y-91500000D03*
X137675000Y-92000000D03*
X137675000Y-92500000D03*
X137675000Y-93000000D03*
X137675000Y-93500000D03*
X137675000Y-94000000D03*
X137675000Y-94500000D03*
X137675000Y-95000000D03*
X137675000Y-95500000D03*
X137675000Y-96000000D03*
X137675000Y-96500000D03*
X137675000Y-97000000D03*
X137675000Y-97500000D03*
X137675000Y-98000000D03*
X137675000Y-98500000D03*
X137675000Y-99000000D03*
X137675000Y-99500000D03*
X137675000Y-100000000D03*
D26*
X136000000Y-101675000D03*
X135500000Y-101675000D03*
X135000000Y-101675000D03*
X134500000Y-101675000D03*
X134000000Y-101675000D03*
X133500000Y-101675000D03*
X133000000Y-101675000D03*
X132500000Y-101675000D03*
X132000000Y-101675000D03*
X131500000Y-101675000D03*
X131000000Y-101675000D03*
X130500000Y-101675000D03*
X130000000Y-101675000D03*
X129500000Y-101675000D03*
X129000000Y-101675000D03*
X128500000Y-101675000D03*
X128000000Y-101675000D03*
X127500000Y-101675000D03*
X127000000Y-101675000D03*
X126500000Y-101675000D03*
X126000000Y-101675000D03*
X125500000Y-101675000D03*
X125000000Y-101675000D03*
X124500000Y-101675000D03*
X124000000Y-101675000D03*
D25*
X122325000Y-100000000D03*
X122325000Y-99500000D03*
X122325000Y-99000000D03*
X122325000Y-98500000D03*
X122325000Y-98000000D03*
X122325000Y-97500000D03*
X122325000Y-97000000D03*
X122325000Y-96500000D03*
X122325000Y-96000000D03*
X122325000Y-95500000D03*
X122325000Y-95000000D03*
X122325000Y-94500000D03*
X122325000Y-94000000D03*
X122325000Y-93500000D03*
X122325000Y-93000000D03*
X122325000Y-92500000D03*
X122325000Y-92000000D03*
X122325000Y-91500000D03*
X122325000Y-91000000D03*
X122325000Y-90500000D03*
X122325000Y-90000000D03*
X122325000Y-89500000D03*
X122325000Y-89000000D03*
X122325000Y-88500000D03*
X122325000Y-88000000D03*
D26*
X124000000Y-86325000D03*
X124500000Y-86325000D03*
X125000000Y-86325000D03*
X125500000Y-86325000D03*
X126000000Y-86325000D03*
X126500000Y-86325000D03*
X127000000Y-86325000D03*
X127500000Y-86325000D03*
X128000000Y-86325000D03*
X128500000Y-86325000D03*
X129000000Y-86325000D03*
X129500000Y-86325000D03*
X130000000Y-86325000D03*
X130500000Y-86325000D03*
X131000000Y-86325000D03*
X131500000Y-86325000D03*
X132000000Y-86325000D03*
X132500000Y-86325000D03*
X133000000Y-86325000D03*
X133500000Y-86325000D03*
X134000000Y-86325000D03*
X134500000Y-86325000D03*
X135000000Y-86325000D03*
X135500000Y-86325000D03*
X136000000Y-86325000D03*
%TD*%
D15*
%TO.C,C24*%
X142375000Y-99900000D03*
X140825000Y-99900000D03*
%TD*%
D27*
%TO.C,U5*%
X144475000Y-134190000D03*
X144475000Y-135460000D03*
X144475000Y-136730000D03*
X144475000Y-138000000D03*
X144475000Y-139270000D03*
X144475000Y-140540000D03*
X144475000Y-141810000D03*
X139525000Y-141810000D03*
X139525000Y-140540000D03*
X139525000Y-139270000D03*
X139525000Y-138000000D03*
X139525000Y-136730000D03*
X139525000Y-135460000D03*
X139525000Y-134190000D03*
%TD*%
D28*
%TO.C,U2*%
X114137500Y-122925000D03*
X114137500Y-122275000D03*
X114137500Y-121625000D03*
X114137500Y-120975000D03*
X114137500Y-120325000D03*
X114137500Y-119675000D03*
X114137500Y-119025000D03*
X114137500Y-118375000D03*
X114137500Y-117725000D03*
X114137500Y-117075000D03*
X119862500Y-117075000D03*
X119862500Y-117725000D03*
X119862500Y-118375000D03*
X119862500Y-119025000D03*
X119862500Y-119675000D03*
X119862500Y-120325000D03*
X119862500Y-120975000D03*
X119862500Y-121625000D03*
X119862500Y-122275000D03*
X119862500Y-122925000D03*
%TD*%
D20*
%TO.C,R19*%
X147175000Y-140500000D03*
X148825000Y-140500000D03*
%TD*%
D10*
%TO.C,R5*%
X111725000Y-134500000D03*
X110075000Y-134500000D03*
%TD*%
%TO.C,R12*%
X136525000Y-122500000D03*
X134875000Y-122500000D03*
%TD*%
%TO.C,R27*%
X136525000Y-116100000D03*
X134875000Y-116100000D03*
%TD*%
D20*
%TO.C,R2*%
X145175000Y-63350000D03*
X146825000Y-63350000D03*
%TD*%
%TO.C,R10*%
X122175000Y-136100000D03*
X123825000Y-136100000D03*
%TD*%
D13*
%TO.C,C28*%
X122625000Y-123600000D03*
X124175000Y-123600000D03*
%TD*%
D27*
%TO.C,U7*%
X144475000Y-116190000D03*
X144475000Y-117460000D03*
X144475000Y-118730000D03*
X144475000Y-120000000D03*
X144475000Y-121270000D03*
X144475000Y-122540000D03*
X144475000Y-123810000D03*
X139525000Y-123810000D03*
X139525000Y-122540000D03*
X139525000Y-121270000D03*
X139525000Y-120000000D03*
X139525000Y-118730000D03*
X139525000Y-117460000D03*
X139525000Y-116190000D03*
%TD*%
D15*
%TO.C,C18*%
X142375000Y-92600000D03*
X140825000Y-92600000D03*
%TD*%
D12*
%TO.C,C38*%
X125550000Y-104125000D03*
X125550000Y-105675000D03*
%TD*%
D17*
%TO.C,C19*%
X135900000Y-105675000D03*
X135900000Y-104125000D03*
%TD*%
D13*
%TO.C,C36*%
X135025000Y-133000000D03*
X136575000Y-133000000D03*
%TD*%
%TO.C,C13*%
X122625000Y-122100000D03*
X124175000Y-122100000D03*
%TD*%
D20*
%TO.C,R18*%
X147275000Y-120900000D03*
X148925000Y-120900000D03*
%TD*%
D29*
%TO.C,C5*%
X120300000Y-69600000D03*
X116700000Y-69600000D03*
%TD*%
D20*
%TO.C,R13*%
X147275000Y-124100000D03*
X148925000Y-124100000D03*
%TD*%
D30*
%TO.C,J8*%
X131300000Y-144415000D03*
X130650000Y-144415000D03*
X130000000Y-144415000D03*
X129350000Y-144415000D03*
X128700000Y-144415000D03*
%TD*%
D10*
%TO.C,R26*%
X136525000Y-117700000D03*
X134875000Y-117700000D03*
%TD*%
%TO.C,R34*%
X136625000Y-134700000D03*
X134975000Y-134700000D03*
%TD*%
D20*
%TO.C,R35*%
X147275000Y-117700000D03*
X148925000Y-117700000D03*
%TD*%
D24*
%TO.C,C7*%
X145050000Y-74050000D03*
X146950000Y-74050000D03*
%TD*%
D20*
%TO.C,R16*%
X147175000Y-138900000D03*
X148825000Y-138900000D03*
%TD*%
D10*
%TO.C,R33*%
X136625000Y-140700000D03*
X134975000Y-140700000D03*
%TD*%
%TO.C,R9*%
X111725000Y-139300000D03*
X110075000Y-139300000D03*
%TD*%
D15*
%TO.C,C17*%
X142375000Y-90500000D03*
X140825000Y-90500000D03*
%TD*%
D20*
%TO.C,R7*%
X110075000Y-136100000D03*
X111725000Y-136100000D03*
%TD*%
D10*
%TO.C,R38*%
X118925000Y-93400000D03*
X117275000Y-93400000D03*
%TD*%
D20*
%TO.C,R36*%
X147275000Y-116100000D03*
X148925000Y-116100000D03*
%TD*%
D17*
%TO.C,C8*%
X149100000Y-66275000D03*
X149100000Y-64725000D03*
%TD*%
D31*
%TO.C,U6*%
X106918250Y-88175000D03*
X107868250Y-88175000D03*
X108818250Y-88175000D03*
X108818250Y-90425000D03*
X107868250Y-90425000D03*
X106918250Y-90425000D03*
%TD*%
D32*
%TO.C,R15*%
X121400000Y-78275000D03*
X121400000Y-79925000D03*
%TD*%
D20*
%TO.C,R29*%
X147275000Y-119300000D03*
X148925000Y-119300000D03*
%TD*%
D22*
%TO.C,D2*%
X114450000Y-53500000D03*
X111150000Y-53500000D03*
%TD*%
D32*
%TO.C,R28*%
X123100000Y-78275000D03*
X123100000Y-79925000D03*
%TD*%
D12*
%TO.C,C14*%
X147800000Y-91125000D03*
X147800000Y-92675000D03*
%TD*%
D33*
%TO.C,L2*%
X147100000Y-76600000D03*
X148900000Y-76600000D03*
%TD*%
D34*
%TO.C,U4*%
X123750000Y-71900000D03*
X123750000Y-69600000D03*
D35*
X130050000Y-69600000D03*
D34*
X123750000Y-67300000D03*
%TD*%
D15*
%TO.C,C3*%
X142375000Y-95000000D03*
X140825000Y-95000000D03*
%TD*%
M02*
