M48
; DRILL file {KiCad 8.0.8} date 2025-01-17T17:44:21+0000
; FORMAT={-:-/ absolute / inch / decimal}
; #@! TF.CreationDate,2025-01-17T17:44:21+00:00
; #@! TF.GenerationSoftware,Kicad,Pcbnew,8.0.8
; #@! TF.FileFunction,Plated,1,4,PTH
FMAT,2
INCH
; #@! TA.AperFunction,Plated,PTH,ViaDrill
T1C0.0157
; #@! TA.AperFunction,Plated,PTH,ViaDrill
T2C0.0197
; #@! TA.AperFunction,Plated,PTH,ComponentDrill
T3C0.0197
; #@! TA.AperFunction,Plated,PTH,ComponentDrill
T4C0.0217
; #@! TA.AperFunction,Plated,PTH,ComponentDrill
T5C0.0394
; #@! TA.AperFunction,Plated,PTH,ComponentDrill
T6C0.0512
%
G90
G05
T1
X3.9724Y-3.0787
X3.9803Y-4.378
X4.1417Y-4.7283
X4.1732Y-3.5827
X4.2323Y-3.6181
X4.2739Y-4.6075
X4.2756Y-5.4331
X4.2795Y-3.6378
X4.283Y-4.6614
X4.283Y-4.7323
X4.2907Y-4.8527
X4.2953Y-5.1331
X4.2992Y-4.2205
X4.3268Y-3.5709
X4.3622Y-2.4646
X4.3622Y-3.6142
X4.3858Y-2.6654
X4.4409Y-2.1457
X4.4961Y-2.2283
X4.5Y-2.9921
X4.5315Y-2.4685
X4.5433Y-4.5472
X4.5472Y-4.622
X4.5642Y-4.766
X4.5787Y-4.2913
X4.5827Y-4.3465
X4.5841Y-5.349
X4.5906Y-3.4724
X4.5945Y-3.8661
X4.5955Y-2.7953
X4.622Y-3.4055
X4.6378Y-5.252
X4.6687Y-4.8047
X4.6811Y-3.3937
X4.7205Y-4.5669
X4.7283Y-4.9173
X4.7323Y-3.9843
X4.7362Y-3.8307
X4.7402Y-3.4724
X4.7441Y-3.6457
X4.7844Y-2.6535
X4.811Y-3.2244
X4.812Y-2.8307
X4.8263Y-4.6929
X4.8307Y-3.0
X4.8386Y-3.374
X4.8425Y-4.0669
X4.8543Y-4.437
X4.8583Y-5.752
X4.8819Y-4.1969
X4.8858Y-4.689
X4.8976Y-5.1063
X4.9016Y-3.9213
X4.9134Y-4.3465
X4.9383Y-4.1942
X4.9449Y-2.8307
X4.9449Y-3.4646
X4.9528Y-2.6654
X5.0079Y-3.3268
X5.0315Y-5.811
X5.0787Y-5.8228
X5.0866Y-5.5984
X5.126Y-5.8386
X5.1299Y-3.815
X5.1535Y-3.6811
X5.1732Y-5.7795
X5.189Y-3.748
X5.189Y-5.8465
X5.2323Y-4.9646
X5.2441Y-3.7707
X5.2441Y-4.2953
X5.252Y-3.8465
X5.2638Y-4.3543
X5.2638Y-4.6102
X5.2717Y-5.2362
X5.2717Y-5.3031
X5.2756Y-3.3228
X5.2874Y-3.4724
X5.3031Y-3.2126
X5.311Y-2.8819
X5.315Y-3.8071
X5.315Y-4.3268
X5.3189Y-5.0039
X5.3543Y-3.6457
X5.3543Y-3.8661
X5.3701Y-2.8346
X5.3819Y-4.0254
X5.3858Y-3.1496
X5.3937Y-4.0984
X5.3986Y-4.1697
X5.4055Y-3.3898
X5.4173Y-2.6142
X5.4232Y-2.6719
X5.4252Y-5.4291
X5.4291Y-4.7244
X5.4331Y-4.5157
X5.4409Y-5.189
X5.4606Y-5.0236
X5.4724Y-2.9252
X5.4764Y-2.5898
X5.4764Y-3.2126
X5.4764Y-3.2795
X5.5157Y-5.1417
X5.5197Y-4.374
X5.5236Y-4.3031
X5.5397Y-3.9779
X5.5443Y-3.6063
X5.5472Y-2.4677
X5.563Y-4.4213
X5.5807Y-3.9724
X5.5827Y-3.3031
X5.5827Y-3.7717
X5.5945Y-5.1654
X5.622Y-4.7835
X5.6244Y-5.4832
X5.626Y-4.6732
X5.6299Y-2.8181
X5.6299Y-5.2323
X5.6457Y-2.6528
X5.6654Y-3.0591
X5.6654Y-3.8622
X5.6654Y-3.9331
X5.6909Y-3.5344
X5.7244Y-3.1772
X5.748Y-2.7657
X5.752Y-5.4331
X5.7559Y-2.9961
X5.7559Y-3.0335
X5.7559Y-4.685
X5.8106Y-2.5212
X5.815Y-2.6555
X5.815Y-2.6988
X5.8189Y-3.689
X5.8268Y-4.4528
X5.8268Y-4.9961
X5.8321Y-2.8184
X5.8543Y-2.3701
X5.8622Y-4.1496
X5.8792Y-2.6548
X5.8898Y-4.7283
X5.9055Y-5.437
X5.9685Y-2.9252
X5.9764Y-4.9409
X6.0315Y-3.1929
X6.0945Y-2.7362
X6.1024Y-2.3583
X6.1181Y-5.2795
X6.2008Y-4.5472
X6.2283Y-3.0827
X6.2402Y-2.1299
T2
X4.4409Y-2.4567
X4.5512Y-5.2008
X4.7008Y-5.4606
X4.7165Y-2.937
X5.2717Y-5.1732
T5
X4.0157Y-2.2835
X4.0157Y-2.3835
X4.0157Y-2.4835
X4.0157Y-2.5835
X4.0157Y-2.6835
X4.0157Y-2.7835
X4.0157Y-2.8835
X4.0157Y-2.9835
X4.0157Y-4.685
X4.0157Y-4.785
X4.0157Y-4.885
X4.0157Y-4.985
X4.0157Y-5.085
X4.0157Y-5.185
X4.0157Y-5.285
X4.0157Y-5.385
X4.0157Y-5.485
X4.0157Y-5.585
X4.2992Y-2.9913
X4.2992Y-3.0913
X4.2992Y-3.1913
X4.2992Y-3.2913
X4.9173Y-2.1703
X4.9173Y-2.2703
X5.0173Y-2.1703
X5.0173Y-2.2703
X5.0679Y-3.0787
X5.1173Y-2.1703
X5.1173Y-2.2703
X5.1679Y-3.0787
X5.2173Y-2.1703
X5.2173Y-2.2703
X5.2679Y-3.0787
X5.3173Y-2.1703
X5.3173Y-2.2703
X6.2205Y-2.2835
X6.2205Y-2.3835
X6.2205Y-2.4835
X6.2205Y-2.5835
X6.2205Y-2.6835
X6.2205Y-2.7835
X6.2205Y-2.8835
X6.2205Y-2.9835
X6.2205Y-4.685
X6.2205Y-4.785
X6.2205Y-4.885
X6.2205Y-4.985
X6.2205Y-5.085
X6.2205Y-5.185
X6.2205Y-5.285
X6.2205Y-5.385
X6.2205Y-5.485
X6.2205Y-5.585
T6
X4.0709Y-5.7795
X5.4764Y-5.7756
X5.7087Y-2.2441
X5.8189Y-5.7717
X5.8661Y-2.2441
X6.0236Y-2.2441
X6.1811Y-5.7677
T3
G00X4.9803Y-5.8047
M15
G01X4.9803Y-5.7791
M16
G05
G00X5.2559Y-5.8047
M15
G01X5.2559Y-5.7791
M16
G05
T4
G00X5.0138Y-5.6856
M15
G01X5.0256Y-5.6856
M16
G05
G00X5.2106Y-5.6856
M15
G01X5.2224Y-5.6856
M16
G05
M30
