%TF.GenerationSoftware,KiCad,Pcbnew,8.0.8*%
%TF.CreationDate,2025-01-17T17:44:18+00:00*%
%TF.ProjectId,Spectralist_Components,53706563-7472-4616-9c69-73745f436f6d,rev?*%
%TF.SameCoordinates,Original*%
%TF.FileFunction,Soldermask,Top*%
%TF.FilePolarity,Negative*%
%FSLAX46Y46*%
G04 Gerber Fmt 4.6, Leading zero omitted, Abs format (unit mm)*
G04 Created by KiCad (PCBNEW 8.0.8) date 2025-01-17 17:44:18*
%MOMM*%
%LPD*%
G01*
G04 APERTURE LIST*
%ADD10R,1.700000X1.700000*%
%ADD11O,1.700000X1.700000*%
%ADD12C,2.000000*%
%ADD13O,1.250000X0.950000*%
%ADD14O,1.000000X1.550000*%
%ADD15C,1.700000*%
G04 APERTURE END LIST*
D10*
%TO.C,J7*%
X128725000Y-78200000D03*
D11*
X131265000Y-78200000D03*
X133805000Y-78200000D03*
%TD*%
D10*
%TO.C,J2*%
X158000000Y-58000000D03*
D11*
X158000000Y-60540000D03*
X158000000Y-63080000D03*
X158000000Y-65620000D03*
X158000000Y-68160000D03*
X158000000Y-70700000D03*
X158000000Y-73240000D03*
X158000000Y-75780000D03*
%TD*%
D10*
%TO.C,J4*%
X158000000Y-119000000D03*
D11*
X158000000Y-121540000D03*
X158000000Y-124080000D03*
X158000000Y-126620000D03*
X158000000Y-129160000D03*
X158000000Y-131700000D03*
X158000000Y-134240000D03*
X158000000Y-136780000D03*
X158000000Y-139320000D03*
X158000000Y-141860000D03*
%TD*%
D10*
%TO.C,J1*%
X102000000Y-58000000D03*
D11*
X102000000Y-60540000D03*
X102000000Y-63080000D03*
X102000000Y-65620000D03*
X102000000Y-68160000D03*
X102000000Y-70700000D03*
X102000000Y-73240000D03*
X102000000Y-75780000D03*
%TD*%
D10*
%TO.C,J3*%
X102000000Y-119000000D03*
D11*
X102000000Y-121540000D03*
X102000000Y-124080000D03*
X102000000Y-126620000D03*
X102000000Y-129160000D03*
X102000000Y-131700000D03*
X102000000Y-134240000D03*
X102000000Y-136780000D03*
X102000000Y-139320000D03*
X102000000Y-141860000D03*
%TD*%
D12*
%TO.C,TP8*%
X157000000Y-146500000D03*
%TD*%
%TO.C,TP6*%
X145000000Y-57000000D03*
%TD*%
%TO.C,TP5*%
X153000000Y-57000000D03*
%TD*%
%TO.C,TP2*%
X149000000Y-57000000D03*
%TD*%
%TO.C,TP3*%
X139100000Y-146700000D03*
%TD*%
%TO.C,TP7*%
X147800000Y-146600000D03*
%TD*%
D13*
%TO.C,J8*%
X132500000Y-144415000D03*
X127500000Y-144415000D03*
D14*
X126500000Y-147115000D03*
X133500000Y-147115000D03*
%TD*%
D10*
%TO.C,J5*%
X124900000Y-55125000D03*
D15*
X124900000Y-57665000D03*
X127440000Y-55125000D03*
X127440000Y-57665000D03*
X129980000Y-55125000D03*
X129980000Y-57665000D03*
X132520000Y-55125000D03*
X132520000Y-57665000D03*
X135060000Y-55125000D03*
X135060000Y-57665000D03*
%TD*%
D12*
%TO.C,TP4*%
X103400000Y-146800000D03*
%TD*%
D10*
%TO.C,J6*%
X109200000Y-83600000D03*
D15*
X109200000Y-81060000D03*
X109200000Y-78520000D03*
X109200000Y-75980000D03*
%TD*%
M02*
