%TF.GenerationSoftware,KiCad,Pcbnew,8.0.8*%
%TF.CreationDate,2025-01-17T17:44:18+00:00*%
%TF.ProjectId,Spectralist_Components,53706563-7472-4616-9c69-73745f436f6d,rev?*%
%TF.SameCoordinates,Original*%
%TF.FileFunction,Legend,Top*%
%TF.FilePolarity,Positive*%
%FSLAX46Y46*%
G04 Gerber Fmt 4.6, Leading zero omitted, Abs format (unit mm)*
G04 Created by KiCad (PCBNEW 8.0.8) date 2025-01-17 17:44:18*
%MOMM*%
%LPD*%
G01*
G04 APERTURE LIST*
%ADD10C,0.150000*%
%ADD11C,0.120000*%
G04 APERTURE END LIST*
D10*
X157666666Y-55124819D02*
X157666666Y-55839104D01*
X157666666Y-55839104D02*
X157619047Y-55981961D01*
X157619047Y-55981961D02*
X157523809Y-56077200D01*
X157523809Y-56077200D02*
X157380952Y-56124819D01*
X157380952Y-56124819D02*
X157285714Y-56124819D01*
X158095238Y-55220057D02*
X158142857Y-55172438D01*
X158142857Y-55172438D02*
X158238095Y-55124819D01*
X158238095Y-55124819D02*
X158476190Y-55124819D01*
X158476190Y-55124819D02*
X158571428Y-55172438D01*
X158571428Y-55172438D02*
X158619047Y-55220057D01*
X158619047Y-55220057D02*
X158666666Y-55315295D01*
X158666666Y-55315295D02*
X158666666Y-55410533D01*
X158666666Y-55410533D02*
X158619047Y-55553390D01*
X158619047Y-55553390D02*
X158047619Y-56124819D01*
X158047619Y-56124819D02*
X158666666Y-56124819D01*
X101666666Y-55124819D02*
X101666666Y-55839104D01*
X101666666Y-55839104D02*
X101619047Y-55981961D01*
X101619047Y-55981961D02*
X101523809Y-56077200D01*
X101523809Y-56077200D02*
X101380952Y-56124819D01*
X101380952Y-56124819D02*
X101285714Y-56124819D01*
X102666666Y-56124819D02*
X102095238Y-56124819D01*
X102380952Y-56124819D02*
X102380952Y-55124819D01*
X102380952Y-55124819D02*
X102285714Y-55267676D01*
X102285714Y-55267676D02*
X102190476Y-55362914D01*
X102190476Y-55362914D02*
X102095238Y-55410533D01*
D11*
%TO.C,J2*%
X156670000Y-56670000D02*
X158000000Y-56670000D01*
X156670000Y-58000000D02*
X156670000Y-56670000D01*
X156670000Y-59270000D02*
X156670000Y-77110000D01*
X156670000Y-59270000D02*
X159330000Y-59270000D01*
X156670000Y-77110000D02*
X159330000Y-77110000D01*
X159330000Y-59270000D02*
X159330000Y-77110000D01*
%TO.C,J4*%
X156670000Y-117670000D02*
X158000000Y-117670000D01*
X156670000Y-119000000D02*
X156670000Y-117670000D01*
X156670000Y-120270000D02*
X156670000Y-143190000D01*
X156670000Y-120270000D02*
X159330000Y-120270000D01*
X156670000Y-143190000D02*
X159330000Y-143190000D01*
X159330000Y-120270000D02*
X159330000Y-143190000D01*
%TO.C,J1*%
X100670000Y-56670000D02*
X102000000Y-56670000D01*
X100670000Y-58000000D02*
X100670000Y-56670000D01*
X100670000Y-59270000D02*
X100670000Y-77110000D01*
X100670000Y-59270000D02*
X103330000Y-59270000D01*
X100670000Y-77110000D02*
X103330000Y-77110000D01*
X103330000Y-59270000D02*
X103330000Y-77110000D01*
%TO.C,J3*%
X100670000Y-117670000D02*
X102000000Y-117670000D01*
X100670000Y-119000000D02*
X100670000Y-117670000D01*
X100670000Y-120270000D02*
X100670000Y-143190000D01*
X100670000Y-120270000D02*
X103330000Y-120270000D01*
X100670000Y-143190000D02*
X103330000Y-143190000D01*
X103330000Y-120270000D02*
X103330000Y-143190000D01*
%TD*%
M02*
